<?xml version="1.0" encoding="utf-8"?>
<!-- Generator: Adobe Illustrator 26.1.0, SVG Export Plug-In . SVG Version: 6.00 Build 0)  -->
<svg version="1.1" id="Layer_1" xmlns="http://www.w3.org/2000/svg" xmlns:xlink="http://www.w3.org/1999/xlink" x="0px" y="0px"
	 viewBox="0 0 1260 560" style="enable-background:new 0 0 1260 560;" xml:space="preserve">
<style type="text/css">
	.st0{enable-background:new    ;}
	.st1{fill:#F8DA86;}
	.st2{fill:#3CAE3F;}
	.st3{fill:#F1B571;}
	.st4{fill:#ED4C4C;}
	.st5{fill:none;stroke:#313333;stroke-miterlimit:10;}
	.st6{fill:none;stroke:#1F2121;stroke-width:3;stroke-miterlimit:10;}
	.st7{fill:none;stroke:#FFFFFF;stroke-width:6;stroke-miterlimit:10;}
</style>
<g id="a">
	<g class="st0">
		<path d="M1050.2,83.7c-1.8,0-3.5-0.3-5.1-1c-1.6-0.7-3.1-1.6-4.3-2.8l2.7-3.2c0.9,0.9,2,1.6,3.2,2.1c1.2,0.5,2.4,0.8,3.6,0.8
			c1.5,0,2.6-0.3,3.4-0.9c0.8-0.6,1.2-1.4,1.2-2.4c0-0.5-0.1-1-0.3-1.4c-0.2-0.4-0.5-0.7-0.8-1c-0.4-0.3-0.8-0.5-1.3-0.8
			c-0.5-0.2-1-0.5-1.6-0.7l-3.6-1.6c-0.6-0.3-1.3-0.6-1.9-1c-0.6-0.4-1.2-0.9-1.7-1.4c-0.5-0.6-0.9-1.2-1.2-2
			c-0.3-0.7-0.5-1.6-0.5-2.6c0-1,0.2-2,0.7-2.9c0.4-0.9,1-1.7,1.8-2.3c0.8-0.7,1.7-1.2,2.8-1.6c1.1-0.4,2.3-0.6,3.5-0.6
			c1.5,0,3,0.3,4.4,0.9c1.4,0.6,2.6,1.4,3.6,2.4l-2.4,3c-0.9-0.7-1.7-1.2-2.6-1.6s-1.9-0.6-3-0.6c-1.3,0-2.3,0.3-3,0.8
			c-0.7,0.5-1.1,1.3-1.1,2.3c0,0.5,0.1,0.9,0.3,1.3c0.2,0.4,0.5,0.7,0.9,1c0.4,0.3,0.8,0.5,1.3,0.8c0.5,0.2,1,0.4,1.6,0.7l3.6,1.5
			c0.8,0.3,1.5,0.7,2.1,1.1c0.6,0.4,1.2,0.9,1.7,1.5c0.5,0.6,0.8,1.2,1.1,1.9c0.3,0.7,0.4,1.6,0.4,2.5c0,1.1-0.2,2.1-0.6,3
			c-0.4,0.9-1,1.8-1.9,2.5c-0.8,0.7-1.8,1.3-3,1.7C1052.9,83.5,1051.6,83.7,1050.2,83.7z"/>
	</g>
	<g class="st0">
		<path d="M1065.7,60.1c-0.8,0-1.5-0.2-2-0.7c-0.5-0.5-0.8-1.1-0.8-1.9s0.3-1.4,0.8-1.9c0.5-0.5,1.2-0.7,2-0.7s1.5,0.2,2,0.7
			c0.5,0.5,0.8,1.1,0.8,1.9s-0.3,1.4-0.8,1.9C1067.2,59.9,1066.5,60.1,1065.7,60.1z M1063.4,83.2V63.6h4.6v19.6H1063.4z"/>
	</g>
	<g class="st0">
		<path d="M1080.2,83.7c-2.5,0-4.4-0.9-5.9-2.7s-2.2-4.3-2.2-7.6c0-1.6,0.2-3,0.7-4.3c0.5-1.3,1.1-2.4,1.9-3.2s1.7-1.6,2.7-2
			c1-0.5,2-0.7,3.1-0.7c1.1,0,2.1,0.2,2.8,0.6c0.8,0.4,1.5,0.9,2.3,1.6l-0.2-3.2V55h4.6v28.2h-3.8l-0.3-2.1h-0.2
			c-0.7,0.7-1.6,1.3-2.5,1.8C1082.3,83.4,1081.2,83.7,1080.2,83.7z M1081.3,79.9c1.5,0,2.8-0.7,4.1-2.2v-9.2c-0.7-0.6-1.4-1-2-1.3
			c-0.7-0.2-1.3-0.4-2-0.4c-1.3,0-2.4,0.6-3.2,1.7c-0.9,1.1-1.3,2.7-1.3,4.8c0,2.1,0.4,3.8,1.1,4.9
			C1078.8,79.3,1079.9,79.9,1081.3,79.9z"/>
	</g>
	<g class="st0">
		<path d="M1103.8,83.7c-1.4,0-2.6-0.2-3.8-0.7c-1.2-0.5-2.2-1.1-3.1-2s-1.6-2-2.1-3.2c-0.5-1.3-0.7-2.7-0.7-4.3
			c0-1.6,0.3-3,0.8-4.3s1.2-2.4,2-3.2s1.8-1.6,2.9-2c1.1-0.5,2.2-0.7,3.4-0.7c1.3,0,2.5,0.2,3.5,0.7c1,0.5,1.9,1.1,2.5,1.9
			c0.7,0.8,1.2,1.8,1.5,3s0.5,2.4,0.5,3.8c0,0.5,0,0.9-0.1,1.3c0,0.4-0.1,0.7-0.1,1h-12.5c0.2,1.8,0.8,3.1,1.9,4.1
			c1,0.9,2.3,1.4,3.9,1.4c0.9,0,1.6-0.1,2.4-0.4c0.7-0.3,1.5-0.6,2.2-1.1l1.6,2.9c-0.9,0.6-2,1.1-3.1,1.5
			C1106.3,83.5,1105.1,83.7,1103.8,83.7z M1098.6,71.5h8.7c0-1.5-0.3-2.7-1-3.6s-1.7-1.3-3-1.3c-1.2,0-2.2,0.4-3.1,1.2
			C1099.3,68.7,1098.8,69.9,1098.6,71.5z"/>
	</g>
	<g class="st0">
		<path d="M1128.8,83.2l-8.2-26.2h4.9l3.7,13.2c0.4,1.5,0.8,2.9,1.1,4.2c0.3,1.3,0.7,2.8,1.2,4.3h0.2c0.5-1.5,0.8-2.9,1.2-4.3
			c0.3-1.3,0.7-2.7,1.1-4.2l3.6-13.2h4.8l-8.1,26.2H1128.8z"/>
	</g>
	<g class="st0">
		<path d="M1147.8,60.1c-0.8,0-1.5-0.2-2-0.7c-0.5-0.5-0.8-1.1-0.8-1.9s0.3-1.4,0.8-1.9c0.5-0.5,1.2-0.7,2-0.7s1.5,0.2,2,0.7
			c0.5,0.5,0.8,1.1,0.8,1.9s-0.3,1.4-0.8,1.9C1149.3,59.9,1148.6,60.1,1147.8,60.1z M1145.4,83.2V63.6h4.6v19.6H1145.4z"/>
	</g>
	<g class="st0">
		<path d="M1163.8,83.7c-1.4,0-2.6-0.2-3.8-0.7c-1.2-0.5-2.2-1.1-3.1-2s-1.6-2-2.1-3.2s-0.7-2.7-0.7-4.3c0-1.6,0.3-3,0.8-4.3
			c0.5-1.3,1.2-2.4,2-3.2s1.8-1.6,2.9-2c1.1-0.5,2.2-0.7,3.4-0.7c1.3,0,2.5,0.2,3.5,0.7c1,0.5,1.9,1.1,2.5,1.9
			c0.7,0.8,1.2,1.8,1.5,3s0.5,2.4,0.5,3.8c0,0.5,0,0.9-0.1,1.3c0,0.4-0.1,0.7-0.1,1h-12.5c0.2,1.8,0.8,3.1,1.9,4.1
			c1,0.9,2.3,1.4,3.9,1.4c0.9,0,1.6-0.1,2.4-0.4c0.7-0.3,1.5-0.6,2.2-1.1l1.6,2.9c-0.9,0.6-2,1.1-3.1,1.5
			C1166.2,83.5,1165,83.7,1163.8,83.7z M1158.5,71.5h8.7c0-1.5-0.3-2.7-1-3.6c-0.7-0.9-1.7-1.3-3-1.3c-1.2,0-2.2,0.4-3.1,1.2
			C1159.3,68.7,1158.7,69.9,1158.5,71.5z"/>
	</g>
	<g class="st0">
		<path d="M1178.2,83.2l-5.2-19.6h4.6l2.4,10.2c0.2,0.9,0.4,1.9,0.5,2.8c0.1,0.9,0.3,1.9,0.5,2.8h0.2c0.2-1,0.4-1.9,0.6-2.8
			c0.2-0.9,0.4-1.9,0.7-2.8l2.6-10.2h4.2l2.6,10.2c0.2,0.9,0.5,1.9,0.7,2.8c0.2,0.9,0.4,1.9,0.6,2.8h0.2c0.2-1,0.4-1.9,0.5-2.8
			s0.3-1.9,0.5-2.8l2.4-10.2h4.3l-5,19.6h-5.5l-2.3-9.2c-0.2-0.9-0.4-1.9-0.6-2.8c-0.2-0.9-0.4-1.9-0.6-2.9h-0.2c-0.2,1-0.4,2-0.6,3
			s-0.4,1.9-0.6,2.8l-2.2,9.1H1178.2z"/>
	</g>
	<circle class="st1" cx="306.2" cy="313.7" r="13.6"/>
	<circle class="st2" cx="582.3" cy="313.7" r="5.3"/>
	<circle class="st3" cx="455.1" cy="313.7" r="5.7"/>
	<circle class="st4" cx="365.3" cy="313.7" r="3.8"/>
	<g class="st0">
		<path d="M352.3,286.8v-8.6h2.1l1.4,3.8c0.1,0.3,0.2,0.5,0.3,0.8c0.1,0.3,0.2,0.5,0.3,0.8h0.1c0.1-0.3,0.2-0.5,0.2-0.8
			c0.1-0.3,0.2-0.5,0.2-0.8l1.4-3.8h2.1v8.6h-1.8v-3.2c0-0.2,0-0.4,0-0.7c0-0.3,0-0.5,0.1-0.8c0-0.3,0.1-0.5,0.1-0.8
			s0.1-0.5,0.1-0.7h-0.1l-0.7,2.1l-1.2,3.3h-1.1l-1.2-3.3l-0.7-2.1h-0.1c0,0.2,0.1,0.4,0.1,0.7s0.1,0.5,0.1,0.8c0,0.3,0,0.5,0.1,0.8
			c0,0.3,0,0.5,0,0.7v3.2H352.3z"/>
		<path d="M363.9,286.9c-0.3,0-0.6-0.1-0.8-0.2s-0.4-0.2-0.6-0.4c-0.2-0.2-0.3-0.4-0.4-0.6c-0.1-0.2-0.1-0.5-0.1-0.8
			c0-0.7,0.3-1.2,0.9-1.6c0.6-0.4,1.5-0.7,2.8-0.8c0-0.3-0.1-0.5-0.3-0.7c-0.2-0.2-0.4-0.3-0.8-0.3c-0.3,0-0.6,0.1-0.8,0.2
			c-0.3,0.1-0.6,0.3-0.9,0.4l-0.7-1.3c0.4-0.3,0.9-0.5,1.3-0.6s1-0.2,1.5-0.2c0.8,0,1.5,0.2,1.9,0.7c0.4,0.5,0.7,1.2,0.7,2.2v3.8
			H366l-0.1-0.7h-0.1c-0.3,0.2-0.6,0.4-0.9,0.6C364.6,286.9,364.2,286.9,363.9,286.9z M364.5,285.4c0.2,0,0.4,0,0.6-0.1
			c0.2-0.1,0.3-0.2,0.5-0.4v-1.2c-0.7,0.1-1.2,0.2-1.4,0.4c-0.3,0.2-0.4,0.4-0.4,0.7c0,0.2,0.1,0.4,0.2,0.5
			C364.1,285.4,364.3,285.4,364.5,285.4z"/>
	</g>
	<g class="st0">
		<path d="M369.2,286.8v-6.6h1.6l0.1,1.2h0.1c0.2-0.5,0.5-0.8,0.9-1s0.7-0.3,1-0.3c0.2,0,0.3,0,0.5,0c0.1,0,0.2,0.1,0.3,0.1
			l-0.3,1.7c-0.1,0-0.2-0.1-0.3-0.1c-0.1,0-0.2,0-0.4,0c-0.2,0-0.5,0.1-0.8,0.3c-0.3,0.2-0.5,0.5-0.7,0.9v3.8H369.2z"/>
	</g>
	<g class="st0">
		<path d="M376.3,286.9c-0.4,0-0.9-0.1-1.3-0.3c-0.5-0.2-0.9-0.4-1.2-0.7l0.9-1.2c0.3,0.2,0.6,0.4,0.9,0.5c0.3,0.1,0.6,0.2,0.8,0.2
			c0.3,0,0.5,0,0.6-0.1c0.1-0.1,0.2-0.2,0.2-0.4c0-0.1,0-0.2-0.1-0.3c-0.1-0.1-0.2-0.2-0.3-0.2c-0.1-0.1-0.3-0.1-0.4-0.2
			c-0.2-0.1-0.3-0.1-0.5-0.2c-0.2-0.1-0.4-0.2-0.6-0.3c-0.2-0.1-0.4-0.2-0.6-0.4c-0.2-0.2-0.3-0.3-0.4-0.5s-0.2-0.4-0.2-0.7
			c0-0.3,0.1-0.6,0.2-0.8c0.1-0.3,0.3-0.5,0.5-0.6c0.2-0.2,0.5-0.3,0.8-0.4c0.3-0.1,0.7-0.2,1-0.2c0.5,0,0.9,0.1,1.3,0.3
			c0.4,0.2,0.7,0.4,1,0.6l-0.9,1.2c-0.2-0.2-0.5-0.3-0.7-0.4c-0.2-0.1-0.5-0.1-0.7-0.1c-0.5,0-0.7,0.2-0.7,0.5c0,0.1,0,0.2,0.1,0.3
			s0.2,0.1,0.3,0.2c0.1,0.1,0.3,0.1,0.4,0.2c0.2,0.1,0.3,0.1,0.5,0.2c0.2,0.1,0.4,0.2,0.6,0.3c0.2,0.1,0.4,0.2,0.6,0.4
			s0.3,0.3,0.4,0.5s0.2,0.5,0.2,0.8c0,0.3-0.1,0.6-0.2,0.8c-0.1,0.3-0.3,0.5-0.5,0.7c-0.2,0.2-0.5,0.3-0.8,0.5
			S376.7,286.9,376.3,286.9z"/>
	</g>
	<ellipse class="st5" cx="295" cy="305.6" rx="111.5" ry="68.9"/>
	<ellipse class="st5" cx="282.9" cy="280.1" rx="132.7" ry="177.7"/>
	<ellipse class="st5" cx="253.4" cy="305.5" rx="177.8" ry="166.4"/>
	<ellipse class="st5" cx="385.3" cy="267.7" rx="172" ry="144.5"/>
	<ellipse class="st5" cx="281.4" cy="282.8" rx="149.8" ry="135.8"/>
	<ellipse class="st5" cx="240.7" cy="318.9" rx="186.2" ry="99.7"/>
	<circle class="st1" cx="858.3" cy="293.1" r="13.6"/>
	<circle class="st2" cx="1147.4" cy="288.1" r="5.3"/>
	<g class="st0">
		<path d="M1123.5,346.7V338h2l2.3,4.3l0.8,1.9h0.1c0-0.5-0.1-1-0.2-1.5c-0.1-0.6-0.1-1.1-0.1-1.6v-3h1.9v8.6h-2l-2.3-4.3l-0.8-1.9
			h-0.1c0,0.5,0.1,1,0.2,1.5s0.1,1.1,0.1,1.6v3.1H1123.5z"/>
		<path d="M1135.1,346.8c-0.5,0-0.9-0.1-1.3-0.2c-0.4-0.2-0.8-0.4-1.1-0.7c-0.3-0.3-0.5-0.7-0.7-1.1c-0.2-0.4-0.3-0.9-0.3-1.5
			c0-0.5,0.1-1,0.3-1.4c0.2-0.4,0.4-0.8,0.7-1.1c0.3-0.3,0.6-0.5,1-0.7s0.8-0.2,1.2-0.2c0.5,0,0.9,0.1,1.2,0.2
			c0.3,0.2,0.6,0.4,0.9,0.7c0.2,0.3,0.4,0.6,0.5,1c0.1,0.4,0.2,0.8,0.2,1.3c0,0.2,0,0.3,0,0.5s0,0.3-0.1,0.4h-3.9
			c0.1,0.5,0.3,0.8,0.6,1.1c0.3,0.2,0.7,0.3,1.1,0.3c0.5,0,0.9-0.1,1.4-0.4l0.6,1.2c-0.3,0.2-0.7,0.4-1.1,0.5
			S1135.5,346.8,1135.1,346.8z M1133.6,342.7h2.4c0-0.4-0.1-0.7-0.3-0.9c-0.2-0.2-0.5-0.3-0.8-0.3c-0.3,0-0.6,0.1-0.8,0.3
			C1133.8,341.9,1133.7,342.3,1133.6,342.7z"/>
	</g>
	<g class="st0">
		<path d="M1139,349.1v-9h1.6l0.1,0.7h0.1c0.3-0.2,0.5-0.4,0.9-0.6c0.3-0.2,0.7-0.2,1-0.2c0.4,0,0.8,0.1,1.1,0.2s0.6,0.4,0.8,0.7
			s0.4,0.6,0.5,1.1s0.2,0.9,0.2,1.4c0,0.6-0.1,1.1-0.2,1.5s-0.4,0.8-0.6,1.1c-0.3,0.3-0.6,0.5-0.9,0.7c-0.3,0.2-0.7,0.2-1,0.2
			c-0.3,0-0.6-0.1-0.8-0.2c-0.3-0.1-0.5-0.3-0.7-0.5l0.1,1v1.9H1139z M1142,345.2c0.3,0,0.6-0.2,0.9-0.5s0.4-0.8,0.4-1.5
			c0-1.2-0.4-1.8-1.1-1.8c-0.4,0-0.8,0.2-1.1,0.6v2.7c0.2,0.2,0.4,0.3,0.5,0.3C1141.6,345.2,1141.8,345.2,1142,345.2z"/>
	</g>
	<g class="st0">
		<path d="M1148.8,346.8c-0.4,0-0.8-0.1-1-0.2s-0.5-0.3-0.7-0.5c-0.2-0.2-0.3-0.5-0.4-0.8s-0.1-0.7-0.1-1v-2.7h-0.9v-1.4l1-0.1
			l0.2-1.8h1.6v1.8h1.6v1.5h-1.6v2.6c0,0.4,0.1,0.6,0.2,0.8c0.2,0.2,0.4,0.2,0.6,0.2c0.1,0,0.2,0,0.3,0s0.2-0.1,0.3-0.1l0.3,1.4
			c-0.2,0.1-0.4,0.1-0.6,0.2C1149.4,346.8,1149.1,346.8,1148.8,346.8z"/>
		<path d="M1153.3,346.8c-0.7,0-1.2-0.2-1.6-0.7c-0.3-0.5-0.5-1.1-0.5-1.9v-4.1h1.9v3.8c0,0.5,0.1,0.8,0.2,1s0.3,0.3,0.6,0.3
			c0.2,0,0.5-0.1,0.6-0.2c0.2-0.1,0.3-0.3,0.5-0.6v-4.3h1.9v6.6h-1.6l-0.1-0.9h0c-0.3,0.3-0.6,0.6-0.9,0.8
			C1154.1,346.7,1153.8,346.8,1153.3,346.8z"/>
		<path d="M1158.9,346.7v-6.6h1.6l0.1,0.8h0.1c0.3-0.3,0.6-0.5,0.9-0.7c0.3-0.2,0.7-0.3,1.2-0.3c0.7,0,1.2,0.2,1.6,0.7
			c0.3,0.5,0.5,1.1,0.5,1.9v4.1h-1.9v-3.8c0-0.5-0.1-0.8-0.2-1s-0.3-0.3-0.6-0.3c-0.2,0-0.5,0.1-0.6,0.2c-0.2,0.1-0.4,0.3-0.6,0.5
			v4.4H1158.9z"/>
		<path d="M1169.4,346.8c-0.5,0-0.9-0.1-1.3-0.2c-0.4-0.2-0.8-0.4-1.1-0.7s-0.5-0.7-0.7-1.1c-0.2-0.4-0.3-0.9-0.3-1.5
			c0-0.5,0.1-1,0.3-1.4c0.2-0.4,0.4-0.8,0.7-1.1s0.6-0.5,1-0.7c0.4-0.2,0.8-0.2,1.2-0.2c0.5,0,0.9,0.1,1.2,0.2
			c0.3,0.2,0.6,0.4,0.9,0.7c0.2,0.3,0.4,0.6,0.5,1c0.1,0.4,0.2,0.8,0.2,1.3c0,0.2,0,0.3,0,0.5c0,0.2,0,0.3-0.1,0.4h-3.9
			c0.1,0.5,0.3,0.8,0.6,1.1s0.7,0.3,1.1,0.3c0.5,0,0.9-0.1,1.4-0.4l0.6,1.2c-0.3,0.2-0.7,0.4-1.1,0.5S1169.8,346.8,1169.4,346.8z
			 M1167.9,342.7h2.4c0-0.4-0.1-0.7-0.3-0.9c-0.2-0.2-0.5-0.3-0.8-0.3c-0.3,0-0.6,0.1-0.8,0.3C1168.2,341.9,1168,342.3,1167.9,342.7
			z"/>
	</g>
	<g class="st0">
		<path d="M1013.2,331.3c-0.7,0-1.2-0.1-1.7-0.4c-0.4-0.3-0.8-0.6-1.1-1.2l1.3-1c0.2,0.3,0.3,0.5,0.6,0.6c0.2,0.1,0.4,0.2,0.6,0.2
			c0.4,0,0.6-0.1,0.8-0.3c0.2-0.2,0.3-0.6,0.3-1.2v-5.6h1.9v5.8c0,0.4-0.1,0.8-0.2,1.2c-0.1,0.4-0.3,0.7-0.5,1
			c-0.2,0.3-0.5,0.5-0.9,0.7C1014,331.2,1013.6,331.3,1013.2,331.3z"/>
		<path d="M1019.7,331.3c-0.7,0-1.2-0.2-1.6-0.7c-0.3-0.5-0.5-1.1-0.5-1.9v-4.1h1.9v3.8c0,0.5,0.1,0.8,0.2,1s0.3,0.3,0.6,0.3
			c0.2,0,0.5-0.1,0.6-0.2c0.2-0.1,0.3-0.3,0.5-0.6v-4.3h1.9v6.6h-1.6l-0.1-0.9h0c-0.3,0.3-0.6,0.6-0.9,0.8
			C1020.6,331.2,1020.2,331.3,1019.7,331.3z"/>
		<path d="M1025.3,333.6v-9h1.6l0.1,0.7h0.1c0.3-0.2,0.5-0.4,0.9-0.6c0.3-0.2,0.7-0.2,1-0.2c0.4,0,0.8,0.1,1.1,0.2s0.6,0.4,0.8,0.7
			s0.4,0.6,0.5,1.1s0.2,0.9,0.2,1.4c0,0.6-0.1,1.1-0.2,1.5c-0.2,0.4-0.4,0.8-0.6,1.1c-0.3,0.3-0.6,0.5-0.9,0.7
			c-0.3,0.2-0.7,0.2-1,0.2c-0.3,0-0.6-0.1-0.8-0.2c-0.3-0.1-0.5-0.3-0.7-0.5l0.1,1v1.9H1025.3z M1028.3,329.7c0.3,0,0.6-0.2,0.9-0.5
			c0.2-0.3,0.4-0.8,0.4-1.5c0-1.2-0.4-1.8-1.1-1.8c-0.4,0-0.8,0.2-1.1,0.6v2.7c0.2,0.2,0.4,0.3,0.5,0.3
			C1028,329.7,1028.1,329.7,1028.3,329.7z"/>
		<path d="M1033.9,323.6c-0.3,0-0.6-0.1-0.8-0.3c-0.2-0.2-0.3-0.4-0.3-0.7c0-0.3,0.1-0.5,0.3-0.7c0.2-0.2,0.5-0.3,0.8-0.3
			c0.3,0,0.6,0.1,0.8,0.3c0.2,0.2,0.3,0.4,0.3,0.7c0,0.3-0.1,0.5-0.3,0.7C1034.5,323.5,1034.2,323.6,1033.9,323.6z M1032.9,331.2
			v-6.6h1.9v6.6H1032.9z"/>
	</g>
	<g class="st0">
		<path d="M1039.1,331.3c-0.4,0-0.8-0.1-1-0.2s-0.5-0.3-0.7-0.5c-0.2-0.2-0.3-0.5-0.4-0.8s-0.1-0.7-0.1-1v-2.7h-0.9v-1.4l1-0.1
			l0.2-1.8h1.6v1.8h1.6v1.5h-1.6v2.6c0,0.4,0.1,0.6,0.2,0.8c0.2,0.2,0.4,0.2,0.6,0.2c0.1,0,0.2,0,0.3,0c0.1,0,0.2-0.1,0.3-0.1
			l0.3,1.4c-0.2,0.1-0.4,0.1-0.6,0.2C1039.7,331.3,1039.4,331.3,1039.1,331.3z"/>
	</g>
	<g class="st0">
		<path d="M1044.3,331.3c-0.5,0-0.9-0.1-1.3-0.2c-0.4-0.2-0.8-0.4-1.1-0.7s-0.5-0.7-0.7-1.1c-0.2-0.4-0.3-0.9-0.3-1.5
			c0-0.5,0.1-1,0.3-1.4c0.2-0.4,0.4-0.8,0.7-1.1s0.6-0.5,1-0.7c0.4-0.2,0.8-0.2,1.2-0.2c0.5,0,0.9,0.1,1.2,0.2
			c0.3,0.2,0.6,0.4,0.9,0.7c0.2,0.3,0.4,0.6,0.5,1c0.1,0.4,0.2,0.8,0.2,1.3c0,0.2,0,0.3,0,0.5c0,0.2,0,0.3-0.1,0.4h-3.9
			c0.1,0.5,0.3,0.8,0.6,1.1s0.7,0.3,1.1,0.3c0.5,0,0.9-0.1,1.4-0.4l0.6,1.2c-0.3,0.2-0.7,0.4-1.1,0.5S1044.7,331.3,1044.3,331.3z
			 M1042.9,327.1h2.4c0-0.4-0.1-0.7-0.3-0.9c-0.2-0.2-0.5-0.3-0.8-0.3c-0.3,0-0.6,0.1-0.8,0.3
			C1043.1,326.4,1042.9,326.7,1042.9,327.1z"/>
		<path d="M1048.3,331.2v-6.6h1.6l0.1,1.2h0.1c0.2-0.5,0.5-0.8,0.9-1s0.7-0.3,1-0.3c0.2,0,0.3,0,0.5,0c0.1,0,0.2,0.1,0.3,0.1
			l-0.3,1.7c-0.1,0-0.2-0.1-0.3-0.1s-0.2,0-0.4,0c-0.2,0-0.5,0.1-0.8,0.3c-0.3,0.2-0.5,0.5-0.7,0.9v3.8H1048.3z"/>
	</g>
	<ellipse class="st5" cx="851.3" cy="285.4" rx="105.7" ry="12"/>
	<ellipse class="st5" cx="856.9" cy="286.6" rx="160" ry="23"/>
	<ellipse class="st5" cx="849.4" cy="286.1" rx="166.2" ry="23"/>
	
		<ellipse transform="matrix(0.9976 -6.888591e-02 6.888591e-02 0.9976 -18.351 59.5856)" class="st5" cx="854.8" cy="295.9" rx="198.8" ry="24.5"/>
	<ellipse transform="matrix(0.796 -0.6053 0.6053 0.796 3.6709 584.1565)" class="st5" cx="868.5" cy="286.6" rx="243.2" ry="29"/>
	
		<ellipse transform="matrix(0.7071 -0.7071 0.7071 0.7071 45.4139 686.9348)" class="st5" cx="851.9" cy="288.6" rx="57.7" ry="184.5"/>
	
		<ellipse transform="matrix(0.2217 -0.9751 0.9751 0.2217 425.7111 1125.3513)" class="st5" cx="917.8" cy="296" rx="60.7" ry="218.1"/>
	<ellipse class="st5" cx="868.5" cy="286.6" rx="159.9" ry="19.3"/>
	
		<ellipse transform="matrix(9.966710e-02 -0.995 0.995 9.966710e-02 528.8488 1151.7203)" class="st5" cx="900.8" cy="283.6" rx="20.5" ry="184.4"/>
	<ellipse class="st5" cx="831.8" cy="282.8" rx="160" ry="14.1"/>
	<g class="st0">
		<path d="M908,333v-8.6h2.1l1.4,3.8c0.1,0.3,0.2,0.5,0.3,0.8s0.2,0.5,0.3,0.8h0.1c0.1-0.3,0.2-0.5,0.2-0.8c0.1-0.3,0.2-0.5,0.2-0.8
			l1.4-3.8h2.1v8.6h-1.8v-3.2c0-0.2,0-0.4,0-0.7c0-0.3,0-0.5,0.1-0.8s0.1-0.5,0.1-0.8c0-0.3,0.1-0.5,0.1-0.7h-0.1l-0.7,2.1l-1.2,3.3
			h-1.1l-1.2-3.3l-0.7-2.1h-0.1c0,0.2,0.1,0.4,0.1,0.7c0,0.3,0.1,0.5,0.1,0.8c0,0.3,0,0.5,0.1,0.8c0,0.3,0,0.5,0,0.7v3.2H908z"/>
		<path d="M919.6,333.2c-0.3,0-0.6-0.1-0.8-0.2c-0.2-0.1-0.4-0.2-0.6-0.4c-0.2-0.2-0.3-0.4-0.4-0.6c-0.1-0.2-0.1-0.5-0.1-0.8
			c0-0.7,0.3-1.2,0.9-1.6c0.6-0.4,1.5-0.7,2.8-0.8c0-0.3-0.1-0.5-0.3-0.7c-0.2-0.2-0.4-0.3-0.8-0.3c-0.3,0-0.6,0.1-0.8,0.2
			c-0.3,0.1-0.6,0.3-0.9,0.4l-0.7-1.3c0.4-0.3,0.9-0.5,1.3-0.6c0.5-0.2,1-0.2,1.5-0.2c0.8,0,1.5,0.2,1.9,0.7
			c0.4,0.5,0.7,1.2,0.7,2.2v3.8h-1.6l-0.1-0.7h-0.1c-0.3,0.2-0.6,0.4-0.9,0.6C920.3,333.1,919.9,333.2,919.6,333.2z M920.2,331.7
			c0.2,0,0.4,0,0.6-0.1c0.2-0.1,0.3-0.2,0.5-0.4V330c-0.7,0.1-1.2,0.2-1.4,0.4s-0.4,0.4-0.4,0.7c0,0.2,0.1,0.4,0.2,0.5
			S920,331.7,920.2,331.7z"/>
	</g>
	<g class="st0">
		<path d="M924.9,333v-6.6h1.6l0.1,1.2h0.1c0.2-0.5,0.5-0.8,0.9-1s0.7-0.3,1-0.3c0.2,0,0.3,0,0.5,0c0.1,0,0.2,0.1,0.3,0.1l-0.3,1.7
			c-0.1,0-0.2-0.1-0.3-0.1c-0.1,0-0.2,0-0.4,0c-0.2,0-0.5,0.1-0.8,0.3c-0.3,0.2-0.5,0.5-0.7,0.9v3.8H924.9z"/>
	</g>
	<g class="st0">
		<path d="M932,333.2c-0.4,0-0.9-0.1-1.3-0.3s-0.9-0.4-1.2-0.7l0.9-1.2c0.3,0.2,0.6,0.4,0.9,0.5c0.3,0.1,0.6,0.2,0.8,0.2
			c0.3,0,0.5,0,0.6-0.1c0.1-0.1,0.2-0.2,0.2-0.4c0-0.1,0-0.2-0.1-0.3s-0.2-0.2-0.3-0.2c-0.1-0.1-0.3-0.1-0.4-0.2
			c-0.2-0.1-0.3-0.1-0.5-0.2c-0.2-0.1-0.4-0.2-0.6-0.3c-0.2-0.1-0.4-0.2-0.6-0.4c-0.2-0.2-0.3-0.3-0.4-0.5c-0.1-0.2-0.2-0.4-0.2-0.7
			c0-0.3,0.1-0.6,0.2-0.8c0.1-0.3,0.3-0.5,0.5-0.6c0.2-0.2,0.5-0.3,0.8-0.4c0.3-0.1,0.7-0.2,1-0.2c0.5,0,0.9,0.1,1.3,0.3
			c0.4,0.2,0.7,0.4,1,0.6l-0.9,1.2c-0.2-0.2-0.5-0.3-0.7-0.4c-0.2-0.1-0.5-0.1-0.7-0.1c-0.5,0-0.7,0.2-0.7,0.5c0,0.1,0,0.2,0.1,0.3
			c0.1,0.1,0.2,0.1,0.3,0.2c0.1,0.1,0.3,0.1,0.4,0.2c0.2,0.1,0.3,0.1,0.5,0.2c0.2,0.1,0.4,0.2,0.6,0.3s0.4,0.2,0.6,0.4
			c0.2,0.2,0.3,0.3,0.4,0.5c0.1,0.2,0.2,0.5,0.2,0.8c0,0.3-0.1,0.6-0.2,0.8s-0.3,0.5-0.5,0.7c-0.2,0.2-0.5,0.3-0.8,0.5
			S932.4,333.2,932,333.2z"/>
	</g>
	<circle class="st4" cx="921" cy="293.1" r="3.8"/>
	<circle class="st3" cx="1031.4" cy="291.1" r="5.7"/>
	<g class="st0">
		<path d="M71.4,502.7c-1.2,0-2.3-0.2-3.3-0.7c-1-0.5-1.9-1.1-2.7-1.8l1.3-1.5c0.6,0.6,1.3,1.2,2.1,1.5c0.8,0.4,1.7,0.6,2.6,0.6
			c1.1,0,2-0.3,2.6-0.8c0.6-0.5,0.9-1.2,0.9-2c0-0.4-0.1-0.8-0.2-1.1c-0.1-0.3-0.3-0.6-0.6-0.8s-0.6-0.4-0.9-0.6
			c-0.3-0.2-0.7-0.4-1.1-0.5l-2.4-1.1c-0.4-0.2-0.8-0.4-1.2-0.6c-0.4-0.2-0.8-0.5-1.1-0.9c-0.3-0.3-0.6-0.8-0.8-1.2
			c-0.2-0.5-0.3-1-0.3-1.7c0-0.6,0.1-1.2,0.4-1.8c0.3-0.6,0.6-1,1.1-1.4s1-0.7,1.7-0.9c0.7-0.2,1.4-0.3,2.1-0.3c1,0,2,0.2,2.8,0.6
			c0.9,0.4,1.6,0.9,2.2,1.5l-1.2,1.4c-0.5-0.5-1.1-0.9-1.7-1.2s-1.3-0.4-2.1-0.4c-1,0-1.7,0.2-2.3,0.7c-0.6,0.4-0.9,1.1-0.9,1.8
			c0,0.4,0.1,0.8,0.2,1.1c0.2,0.3,0.4,0.5,0.7,0.8c0.3,0.2,0.6,0.4,0.9,0.6c0.3,0.2,0.7,0.3,1,0.5l2.4,1c0.5,0.2,0.9,0.4,1.4,0.7
			s0.8,0.6,1.1,0.9c0.3,0.4,0.6,0.8,0.7,1.2c0.2,0.5,0.3,1,0.3,1.7c0,0.7-0.1,1.3-0.4,1.9c-0.3,0.6-0.7,1.1-1.2,1.5
			c-0.5,0.4-1.1,0.8-1.8,1C73.1,502.6,72.3,502.7,71.4,502.7z"/>
	</g>
	<g class="st0">
		<path d="M83.9,502.7c-0.7,0-1.2-0.1-1.7-0.3c-0.5-0.2-0.8-0.5-1.1-0.9c-0.3-0.4-0.5-0.8-0.6-1.3c-0.1-0.5-0.2-1.1-0.2-1.7v-7h-1.9
			v-1.6l2-0.1l0.3-3.5h1.8v3.5h3.4v1.7h-3.4v7c0,0.8,0.1,1.4,0.4,1.8c0.3,0.4,0.8,0.6,1.5,0.6c0.2,0,0.5,0,0.7-0.1
			c0.3-0.1,0.5-0.1,0.7-0.2l0.4,1.6c-0.3,0.1-0.7,0.2-1.1,0.3C84.7,502.7,84.3,502.7,83.9,502.7z"/>
	</g>
	<g class="st0">
		<path d="M92.1,502.7c-1.4,0-2.3-0.4-3-1.2c-0.6-0.8-0.9-2.1-0.9-3.7v-8h2.2v7.7c0,1.2,0.2,2.1,0.6,2.6c0.4,0.5,1,0.8,1.8,0.8
			c0.7,0,1.2-0.2,1.7-0.5s1.1-0.9,1.7-1.6v-9h2.1v12.6h-1.8l-0.2-2h-0.1c-0.6,0.7-1.2,1.2-1.9,1.7C93.8,502.5,93,502.7,92.1,502.7z"
			/>
	</g>
	<g class="st0">
		<path d="M106.6,502.7c-1.6,0-2.9-0.6-3.8-1.7c-0.9-1.1-1.4-2.8-1.4-4.9c0-1,0.2-1.9,0.5-2.8s0.7-1.5,1.2-2.1
			c0.5-0.6,1.1-1,1.7-1.3c0.7-0.3,1.4-0.5,2.1-0.5s1.4,0.1,1.9,0.4c0.5,0.3,1.1,0.6,1.6,1.1l-0.1-2.2v-4.9h2.2v18.5h-1.8l-0.2-1.5
			h-0.1c-0.5,0.5-1.1,0.9-1.7,1.3C108.1,502.5,107.4,502.7,106.6,502.7z M107.1,500.9c0.6,0,1.1-0.1,1.7-0.4s1-0.7,1.6-1.3v-6.6
			c-0.5-0.5-1.1-0.8-1.5-1c-0.5-0.2-1-0.3-1.5-0.3c-0.5,0-1,0.1-1.4,0.4c-0.4,0.2-0.8,0.6-1.2,1c-0.3,0.4-0.6,0.9-0.8,1.5
			c-0.2,0.6-0.3,1.2-0.3,2c0,1.5,0.3,2.7,0.9,3.6S106,500.9,107.1,500.9z"/>
	</g>
	<g class="st0">
		<path d="M121.6,502.7c-0.8,0-1.6-0.2-2.4-0.5c-0.7-0.3-1.4-0.7-1.9-1.3c-0.5-0.6-1-1.3-1.3-2.1s-0.5-1.7-0.5-2.8s0.2-2,0.5-2.8
			s0.7-1.5,1.3-2.1c0.5-0.6,1.1-1,1.8-1.3c0.7-0.3,1.4-0.5,2.1-0.5c0.8,0,1.5,0.1,2.1,0.4c0.6,0.3,1.2,0.7,1.6,1.2
			c0.4,0.5,0.7,1.1,1,1.9c0.2,0.7,0.3,1.5,0.3,2.4c0,0.2,0,0.4,0,0.7c0,0.2,0,0.4-0.1,0.6h-8.5c0.1,1.4,0.5,2.4,1.3,3.2
			s1.7,1.2,3,1.2c0.6,0,1.2-0.1,1.7-0.3c0.5-0.2,1-0.4,1.5-0.7l0.8,1.4c-0.6,0.3-1.2,0.7-1.8,0.9
			C123.3,502.6,122.5,502.7,121.6,502.7z M117.6,495.1h6.8c0-1.3-0.3-2.3-0.8-2.9c-0.5-0.7-1.3-1-2.3-1c-0.5,0-0.9,0.1-1.3,0.3
			c-0.4,0.2-0.8,0.4-1.1,0.8c-0.3,0.3-0.6,0.8-0.8,1.2C117.8,493.9,117.7,494.5,117.6,495.1z"/>
	</g>
	<g class="st0">
		<path d="M129.2,502.4v-12.6h1.8l0.2,1.8h0.1c0.6-0.6,1.2-1.1,1.9-1.5s1.4-0.6,2.3-0.6c1.3,0,2.3,0.4,2.9,1.2
			c0.6,0.8,0.9,2.1,0.9,3.7v8h-2.1v-7.7c0-1.2-0.2-2.1-0.6-2.6c-0.4-0.5-1-0.8-1.8-0.8c-0.7,0-1.2,0.2-1.7,0.5
			c-0.5,0.3-1.1,0.8-1.7,1.5v9.2H129.2z"/>
	</g>
	<g class="st0">
		<path d="M147,502.7c-0.7,0-1.2-0.1-1.7-0.3c-0.5-0.2-0.8-0.5-1.1-0.9c-0.3-0.4-0.5-0.8-0.6-1.3c-0.1-0.5-0.2-1.1-0.2-1.7v-7h-1.9
			v-1.6l2-0.1l0.3-3.5h1.8v3.5h3.4v1.7h-3.4v7c0,0.8,0.1,1.4,0.4,1.8c0.3,0.4,0.8,0.6,1.5,0.6c0.2,0,0.5,0,0.7-0.1
			c0.3-0.1,0.5-0.1,0.7-0.2l0.4,1.6c-0.3,0.1-0.7,0.2-1.1,0.3C147.8,502.7,147.4,502.7,147,502.7z"/>
	</g>
	<g class="st0">
		<path d="M160.8,502.4v-15.2h-5.1v-1.8h12.5v1.8H163v15.2H160.8z"/>
	</g>
	<g class="st0">
		<path d="M173.9,502.7c-0.8,0-1.6-0.2-2.4-0.5c-0.7-0.3-1.4-0.7-1.9-1.3c-0.5-0.6-1-1.3-1.3-2.1s-0.5-1.7-0.5-2.8s0.2-2,0.5-2.8
			s0.7-1.5,1.3-2.1c0.5-0.6,1.1-1,1.8-1.3c0.7-0.3,1.4-0.5,2.1-0.5c0.8,0,1.5,0.1,2.1,0.4c0.6,0.3,1.2,0.7,1.6,1.2
			c0.4,0.5,0.7,1.1,1,1.9c0.2,0.7,0.3,1.5,0.3,2.4c0,0.2,0,0.4,0,0.7c0,0.2,0,0.4-0.1,0.6H170c0.1,1.4,0.5,2.4,1.3,3.2
			s1.7,1.2,3,1.2c0.6,0,1.2-0.1,1.7-0.3c0.5-0.2,1-0.4,1.5-0.7l0.8,1.4c-0.6,0.3-1.2,0.7-1.8,0.9
			C175.6,502.6,174.8,502.7,173.9,502.7z M170,495.1h6.8c0-1.3-0.3-2.3-0.8-2.9c-0.5-0.7-1.3-1-2.3-1c-0.5,0-0.9,0.1-1.3,0.3
			c-0.4,0.2-0.8,0.4-1.1,0.8c-0.3,0.3-0.6,0.8-0.8,1.2C170.2,493.9,170,494.5,170,495.1z"/>
	</g>
	<g class="st0">
		<path d="M184.3,502.7c-1.1,0-1.9-0.3-2.6-0.9c-0.7-0.6-1.1-1.5-1.1-2.7c0-1.4,0.6-2.4,1.8-3.2c1.2-0.7,3.2-1.3,5.9-1.5
			c0-0.4,0-0.8-0.1-1.2s-0.2-0.7-0.4-1c-0.2-0.3-0.5-0.5-0.8-0.7c-0.3-0.2-0.8-0.3-1.3-0.3c-0.7,0-1.4,0.1-2.1,0.4
			c-0.6,0.3-1.2,0.6-1.7,0.9l-0.8-1.5c0.6-0.4,1.3-0.8,2.2-1.1s1.8-0.5,2.8-0.5c1.5,0,2.7,0.5,3.4,1.4c0.7,0.9,1,2.2,1,3.8v7.7h-1.8
			l-0.2-1.5h-0.1c-0.6,0.5-1.3,0.9-2,1.3C185.8,502.5,185.1,502.7,184.3,502.7z M184.9,501c0.6,0,1.2-0.1,1.7-0.4s1.1-0.7,1.7-1.3
			v-3.5c-1.1,0.1-1.9,0.3-2.7,0.5c-0.7,0.2-1.3,0.4-1.7,0.7c-0.4,0.3-0.8,0.6-1,0.9s-0.3,0.7-0.3,1.1c0,0.7,0.2,1.2,0.7,1.6
			C183.8,500.9,184.3,501,184.9,501z"/>
	</g>
	<g class="st0">
		<path d="M194.2,502.4v-12.6h1.8l0.2,1.8h0.1c0.6-0.6,1.2-1.1,1.8-1.5s1.4-0.6,2.1-0.6c1,0,1.7,0.2,2.3,0.6c0.5,0.4,0.9,1,1.2,1.8
			c0.7-0.7,1.3-1.3,2-1.8c0.7-0.4,1.4-0.7,2.2-0.7c1.3,0,2.3,0.4,2.9,1.2s0.9,2.1,0.9,3.7v8h-2.1v-7.7c0-1.2-0.2-2.1-0.6-2.6
			c-0.4-0.5-1-0.8-1.8-0.8c-1,0-2,0.6-3.2,1.9v9.2h-2.1v-7.7c0-1.2-0.2-2.1-0.6-2.6c-0.4-0.5-1-0.8-1.8-0.8c-1,0-2,0.6-3.2,1.9v9.2
			H194.2z"/>
		<path d="M227.6,502.7c-1.1,0-2.1-0.2-3-0.6c-0.9-0.4-1.7-1-2.4-1.7s-1.2-1.7-1.6-2.8c-0.4-1.1-0.6-2.3-0.6-3.7
			c0-1.4,0.2-2.6,0.6-3.7c0.4-1.1,0.9-2,1.6-2.8s1.5-1.3,2.4-1.8s1.9-0.6,3-0.6c1,0,2,0.2,2.7,0.6c0.8,0.4,1.4,0.9,1.9,1.5l-1.2,1.4
			c-0.5-0.5-1-0.9-1.5-1.2c-0.6-0.3-1.2-0.4-2-0.4c-0.8,0-1.6,0.2-2.2,0.5c-0.7,0.3-1.2,0.8-1.7,1.4c-0.5,0.6-0.8,1.3-1.1,2.2
			c-0.3,0.8-0.4,1.8-0.4,2.9c0,1.1,0.1,2,0.4,2.9c0.3,0.9,0.6,1.6,1.1,2.2c0.5,0.6,1,1.1,1.7,1.4c0.6,0.3,1.4,0.5,2.2,0.5
			c0.8,0,1.6-0.2,2.2-0.5s1.2-0.8,1.8-1.4l1.2,1.4c-0.7,0.8-1.4,1.4-2.3,1.8C229.7,502.5,228.7,502.7,227.6,502.7z"/>
	</g>
	<g class="st0">
		<path d="M73,83.2V61h-7.6V57h19.8V61h-7.6v22.2H73z"/>
	</g>
	<g class="st0">
		<path d="M93.8,83.7c-1.2,0-2.4-0.2-3.5-0.7s-2.1-1.1-3-2c-0.9-0.9-1.6-2-2.1-3.2c-0.5-1.3-0.8-2.7-0.8-4.4c0-1.6,0.3-3.1,0.8-4.4
			c0.5-1.3,1.2-2.4,2.1-3.2c0.9-0.9,1.9-1.6,3-2s2.3-0.7,3.5-0.7c1.2,0,2.4,0.2,3.5,0.7c1.1,0.5,2.1,1.1,3,2c0.9,0.9,1.5,2,2.1,3.2
			s0.8,2.7,0.8,4.4c0,1.6-0.3,3.1-0.8,4.4c-0.5,1.3-1.2,2.4-2.1,3.2c-0.9,0.9-1.8,1.5-3,2C96.2,83.5,95,83.7,93.8,83.7z M93.8,79.9
			c1.4,0,2.6-0.6,3.4-1.8c0.8-1.2,1.2-2.8,1.2-4.7c0-2-0.4-3.6-1.2-4.8c-0.8-1.2-2-1.8-3.4-1.8s-2.6,0.6-3.4,1.8
			c-0.8,1.2-1.2,2.8-1.2,4.8c0,2,0.4,3.6,1.2,4.7C91.2,79.3,92.4,79.9,93.8,79.9z"/>
	</g>
	<g class="st0">
		<path d="M107.2,91V63.6h3.8l0.3,2.1h0.2c0.8-0.7,1.7-1.3,2.8-1.8c1-0.5,2.1-0.8,3.2-0.8c1.2,0,2.3,0.2,3.3,0.7
			c0.9,0.5,1.8,1.1,2.4,2c0.7,0.9,1.2,1.9,1.5,3.2c0.3,1.2,0.5,2.6,0.5,4.1c0,1.7-0.2,3.2-0.7,4.5s-1.1,2.4-1.9,3.3
			s-1.7,1.6-2.7,2.1c-1,0.5-2.1,0.7-3.2,0.7c-0.9,0-1.7-0.2-2.6-0.6c-0.9-0.4-1.7-0.9-2.5-1.6l0.1,3.3V91H107.2z M115.8,79.9
			c1.3,0,2.4-0.6,3.3-1.7c0.9-1.1,1.3-2.8,1.3-5.1c0-2-0.3-3.5-1-4.6c-0.7-1.1-1.7-1.6-3.2-1.6c-1.4,0-2.8,0.7-4.3,2.2v9.2
			c0.7,0.6,1.4,1,2.1,1.3C114.5,79.8,115.2,79.9,115.8,79.9z"/>
	</g>
	<g class="st0">
		<path d="M142.8,83.2L134.7,57h4.9l3.7,13.2c0.4,1.5,0.8,2.9,1.1,4.2c0.3,1.3,0.7,2.8,1.2,4.3h0.2c0.5-1.5,0.8-2.9,1.2-4.3
			c0.3-1.3,0.7-2.7,1.1-4.2l3.6-13.2h4.8l-8.1,26.2H142.8z"/>
	</g>
	<g class="st0">
		<path d="M161.9,60.1c-0.8,0-1.5-0.2-2-0.7c-0.5-0.5-0.8-1.1-0.8-1.9s0.3-1.4,0.8-1.9c0.5-0.5,1.2-0.7,2-0.7c0.8,0,1.5,0.2,2,0.7
			c0.5,0.5,0.8,1.1,0.8,1.9s-0.3,1.4-0.8,1.9C163.4,59.9,162.7,60.1,161.9,60.1z M159.5,83.2V63.6h4.6v19.6H159.5z"/>
	</g>
	<g class="st0">
		<path d="M177.8,83.7c-1.4,0-2.6-0.2-3.8-0.7c-1.2-0.5-2.2-1.1-3.1-2s-1.6-2-2.1-3.2s-0.7-2.7-0.7-4.3c0-1.6,0.3-3,0.8-4.3
			c0.5-1.3,1.2-2.4,2-3.2s1.8-1.6,2.9-2c1.1-0.5,2.2-0.7,3.4-0.7c1.3,0,2.5,0.2,3.5,0.7c1,0.5,1.9,1.1,2.5,1.9
			c0.7,0.8,1.2,1.8,1.5,3s0.5,2.4,0.5,3.8c0,0.5,0,0.9-0.1,1.3c0,0.4-0.1,0.7-0.1,1h-12.5c0.2,1.8,0.8,3.1,1.9,4.1
			c1,0.9,2.3,1.4,3.9,1.4c0.9,0,1.6-0.1,2.4-0.4c0.7-0.3,1.5-0.6,2.2-1.1l1.6,2.9c-0.9,0.6-2,1.1-3.1,1.5
			C180.3,83.5,179.1,83.7,177.8,83.7z M172.6,71.5h8.7c0-1.5-0.3-2.7-1-3.6c-0.7-0.9-1.7-1.3-3-1.3c-1.2,0-2.2,0.4-3.1,1.2
			C173.3,68.7,172.8,69.9,172.6,71.5z"/>
	</g>
	<g class="st0">
		<path d="M192.3,83.2l-5.2-19.6h4.6l2.4,10.2c0.2,0.9,0.4,1.9,0.5,2.8c0.1,0.9,0.3,1.9,0.5,2.8h0.2c0.2-1,0.4-1.9,0.6-2.8
			c0.2-0.9,0.4-1.9,0.7-2.8l2.6-10.2h4.2l2.6,10.2c0.2,0.9,0.5,1.9,0.7,2.8c0.2,0.9,0.4,1.9,0.6,2.8h0.2c0.2-1,0.4-1.9,0.5-2.8
			c0.2-0.9,0.3-1.9,0.5-2.8l2.4-10.2h4.3l-5,19.6h-5.5l-2.3-9.2c-0.2-0.9-0.4-1.9-0.6-2.8c-0.2-0.9-0.4-1.9-0.6-2.9H201
			c-0.2,1-0.4,2-0.6,3s-0.4,1.9-0.6,2.8l-2.2,9.1H192.3z"/>
	</g>
	<g>
		<rect x="40" y="40" class="st6" width="1180" height="480"/>
		<line class="st6" x1="630" y1="40" x2="630" y2="520"/>
	</g>
	<g class="st0">
		<path d="M436.8,286.9c-0.7,0-1.2-0.1-1.7-0.4c-0.4-0.3-0.8-0.6-1.1-1.2l1.3-1c0.2,0.3,0.3,0.5,0.6,0.6c0.2,0.1,0.4,0.2,0.6,0.2
			c0.4,0,0.6-0.1,0.8-0.3s0.3-0.6,0.3-1.2v-5.6h1.9v5.8c0,0.4-0.1,0.8-0.2,1.2c-0.1,0.4-0.3,0.7-0.5,1c-0.2,0.3-0.5,0.5-0.9,0.7
			C437.7,286.9,437.3,286.9,436.8,286.9z"/>
		<path d="M443.4,286.9c-0.7,0-1.2-0.2-1.6-0.7c-0.3-0.5-0.5-1.1-0.5-1.9v-4.1h1.9v3.8c0,0.5,0.1,0.8,0.2,1c0.1,0.2,0.3,0.3,0.6,0.3
			c0.2,0,0.5-0.1,0.6-0.2c0.2-0.1,0.3-0.3,0.5-0.6v-4.3h1.9v6.6h-1.6l-0.1-0.9h0c-0.3,0.3-0.6,0.6-0.9,0.8
			C444.3,286.9,443.9,286.9,443.4,286.9z"/>
		<path d="M449,289.2v-9h1.6l0.1,0.7h0.1c0.3-0.2,0.5-0.4,0.9-0.6s0.7-0.2,1-0.2c0.4,0,0.8,0.1,1.1,0.2s0.6,0.4,0.8,0.7
			c0.2,0.3,0.4,0.6,0.5,1.1s0.2,0.9,0.2,1.4c0,0.6-0.1,1.1-0.2,1.5s-0.4,0.8-0.6,1.1c-0.3,0.3-0.6,0.5-0.9,0.7
			c-0.3,0.2-0.7,0.2-1,0.2c-0.3,0-0.6-0.1-0.8-0.2c-0.3-0.1-0.5-0.3-0.7-0.5l0.1,1v1.9H449z M452,285.4c0.3,0,0.6-0.2,0.9-0.5
			s0.4-0.8,0.4-1.5c0-1.2-0.4-1.8-1.1-1.8c-0.4,0-0.8,0.2-1.1,0.6v2.7c0.2,0.2,0.4,0.3,0.5,0.3C451.6,285.3,451.8,285.4,452,285.4z"
			/>
		<path d="M457.5,279.2c-0.3,0-0.6-0.1-0.8-0.3c-0.2-0.2-0.3-0.4-0.3-0.7c0-0.3,0.1-0.5,0.3-0.7c0.2-0.2,0.5-0.3,0.8-0.3
			c0.3,0,0.6,0.1,0.8,0.3c0.2,0.2,0.3,0.4,0.3,0.7c0,0.3-0.1,0.5-0.3,0.7C458.1,279.2,457.9,279.2,457.5,279.2z M456.6,286.8v-6.6
			h1.9v6.6H456.6z"/>
	</g>
	<g class="st0">
		<path class="st7" d="M436.8,286.9c-0.7,0-1.2-0.1-1.7-0.4c-0.4-0.3-0.8-0.6-1.1-1.2l1.3-1c0.2,0.3,0.3,0.5,0.6,0.6
			c0.2,0.1,0.4,0.2,0.6,0.2c0.4,0,0.6-0.1,0.8-0.3s0.3-0.6,0.3-1.2v-5.6h1.9v5.8c0,0.4-0.1,0.8-0.2,1.2c-0.1,0.4-0.3,0.7-0.5,1
			c-0.2,0.3-0.5,0.5-0.9,0.7C437.7,286.9,437.3,286.9,436.8,286.9z"/>
		<path class="st7" d="M443.4,286.9c-0.7,0-1.2-0.2-1.6-0.7c-0.3-0.5-0.5-1.1-0.5-1.9v-4.1h1.9v3.8c0,0.5,0.1,0.8,0.2,1
			c0.1,0.2,0.3,0.3,0.6,0.3c0.2,0,0.5-0.1,0.6-0.2c0.2-0.1,0.3-0.3,0.5-0.6v-4.3h1.9v6.6h-1.6l-0.1-0.9h0c-0.3,0.3-0.6,0.6-0.9,0.8
			C444.3,286.9,443.9,286.9,443.4,286.9z"/>
		<path class="st7" d="M449,289.2v-9h1.6l0.1,0.7h0.1c0.3-0.2,0.5-0.4,0.9-0.6s0.7-0.2,1-0.2c0.4,0,0.8,0.1,1.1,0.2s0.6,0.4,0.8,0.7
			c0.2,0.3,0.4,0.6,0.5,1.1s0.2,0.9,0.2,1.4c0,0.6-0.1,1.1-0.2,1.5s-0.4,0.8-0.6,1.1c-0.3,0.3-0.6,0.5-0.9,0.7
			c-0.3,0.2-0.7,0.2-1,0.2c-0.3,0-0.6-0.1-0.8-0.2c-0.3-0.1-0.5-0.3-0.7-0.5l0.1,1v1.9H449z M452,285.4c0.3,0,0.6-0.2,0.9-0.5
			s0.4-0.8,0.4-1.5c0-1.2-0.4-1.8-1.1-1.8c-0.4,0-0.8,0.2-1.1,0.6v2.7c0.2,0.2,0.4,0.3,0.5,0.3C451.6,285.3,451.8,285.4,452,285.4z"
			/>
		<path class="st7" d="M457.5,279.2c-0.3,0-0.6-0.1-0.8-0.3c-0.2-0.2-0.3-0.4-0.3-0.7c0-0.3,0.1-0.5,0.3-0.7
			c0.2-0.2,0.5-0.3,0.8-0.3c0.3,0,0.6,0.1,0.8,0.3c0.2,0.2,0.3,0.4,0.3,0.7c0,0.3-0.1,0.5-0.3,0.7
			C458.1,279.2,457.9,279.2,457.5,279.2z M456.6,286.8v-6.6h1.9v6.6H456.6z"/>
	</g>
	<g class="st0">
		<path d="M462.8,286.9c-0.4,0-0.8-0.1-1-0.2s-0.5-0.3-0.7-0.5c-0.2-0.2-0.3-0.5-0.4-0.8s-0.1-0.7-0.1-1v-2.7h-0.9v-1.4l1-0.1
			l0.2-1.8h1.6v1.8h1.6v1.5h-1.6v2.6c0,0.4,0.1,0.6,0.2,0.8c0.2,0.2,0.4,0.2,0.6,0.2c0.1,0,0.2,0,0.3,0c0.1,0,0.2-0.1,0.3-0.1
			l0.3,1.4c-0.2,0.1-0.4,0.1-0.6,0.2C463.4,286.9,463.1,286.9,462.8,286.9z"/>
	</g>
	<g class="st0">
		<path class="st7" d="M462.8,286.9c-0.4,0-0.8-0.1-1-0.2s-0.5-0.3-0.7-0.5c-0.2-0.2-0.3-0.5-0.4-0.8s-0.1-0.7-0.1-1v-2.7h-0.9v-1.4
			l1-0.1l0.2-1.8h1.6v1.8h1.6v1.5h-1.6v2.6c0,0.4,0.1,0.6,0.2,0.8c0.2,0.2,0.4,0.2,0.6,0.2c0.1,0,0.2,0,0.3,0c0.1,0,0.2-0.1,0.3-0.1
			l0.3,1.4c-0.2,0.1-0.4,0.1-0.6,0.2C463.4,286.9,463.1,286.9,462.8,286.9z"/>
	</g>
	<g class="st0">
		<path d="M468,286.9c-0.5,0-0.9-0.1-1.3-0.2c-0.4-0.2-0.8-0.4-1.1-0.7s-0.5-0.7-0.7-1.1c-0.2-0.4-0.3-0.9-0.3-1.5
			c0-0.5,0.1-1,0.3-1.4c0.2-0.4,0.4-0.8,0.7-1.1s0.6-0.5,1-0.7c0.4-0.2,0.8-0.2,1.2-0.2c0.5,0,0.9,0.1,1.2,0.2
			c0.3,0.2,0.6,0.4,0.9,0.7c0.2,0.3,0.4,0.6,0.5,1c0.1,0.4,0.2,0.8,0.2,1.3c0,0.2,0,0.3,0,0.5c0,0.2,0,0.3-0.1,0.4h-3.9
			c0.1,0.5,0.3,0.8,0.6,1.1s0.7,0.3,1.1,0.3c0.5,0,0.9-0.1,1.4-0.4l0.6,1.2c-0.3,0.2-0.7,0.4-1.1,0.5S468.4,286.9,468,286.9z
			 M466.5,282.8h2.4c0-0.4-0.1-0.7-0.3-0.9c-0.2-0.2-0.5-0.3-0.8-0.3c-0.3,0-0.6,0.1-0.8,0.3C466.8,282,466.6,282.4,466.5,282.8z"/>
		<path d="M471.9,286.8v-6.6h1.6l0.1,1.2h0.1c0.2-0.5,0.5-0.8,0.9-1s0.7-0.3,1-0.3c0.2,0,0.3,0,0.5,0c0.1,0,0.2,0.1,0.3,0.1
			l-0.3,1.7c-0.1,0-0.2-0.1-0.3-0.1s-0.2,0-0.4,0c-0.2,0-0.5,0.1-0.8,0.3c-0.3,0.2-0.5,0.5-0.7,0.9v3.8H471.9z"/>
	</g>
	<g class="st0">
		<path class="st7" d="M468,286.9c-0.5,0-0.9-0.1-1.3-0.2c-0.4-0.2-0.8-0.4-1.1-0.7s-0.5-0.7-0.7-1.1c-0.2-0.4-0.3-0.9-0.3-1.5
			c0-0.5,0.1-1,0.3-1.4c0.2-0.4,0.4-0.8,0.7-1.1s0.6-0.5,1-0.7c0.4-0.2,0.8-0.2,1.2-0.2c0.5,0,0.9,0.1,1.2,0.2
			c0.3,0.2,0.6,0.4,0.9,0.7c0.2,0.3,0.4,0.6,0.5,1c0.1,0.4,0.2,0.8,0.2,1.3c0,0.2,0,0.3,0,0.5c0,0.2,0,0.3-0.1,0.4h-3.9
			c0.1,0.5,0.3,0.8,0.6,1.1s0.7,0.3,1.1,0.3c0.5,0,0.9-0.1,1.4-0.4l0.6,1.2c-0.3,0.2-0.7,0.4-1.1,0.5S468.4,286.9,468,286.9z
			 M466.5,282.8h2.4c0-0.4-0.1-0.7-0.3-0.9c-0.2-0.2-0.5-0.3-0.8-0.3c-0.3,0-0.6,0.1-0.8,0.3C466.8,282,466.6,282.4,466.5,282.8z"/>
		<path class="st7" d="M471.9,286.8v-6.6h1.6l0.1,1.2h0.1c0.2-0.5,0.5-0.8,0.9-1s0.7-0.3,1-0.3c0.2,0,0.3,0,0.5,0
			c0.1,0,0.2,0.1,0.3,0.1l-0.3,1.7c-0.1,0-0.2-0.1-0.3-0.1s-0.2,0-0.4,0c-0.2,0-0.5,0.1-0.8,0.3c-0.3,0.2-0.5,0.5-0.7,0.9v3.8H471.9
			z"/>
	</g>
	<g class="st0">
		<path d="M565.3,286.8v-8.6h2l2.3,4.3l0.8,1.9h0.1c0-0.5-0.1-1-0.2-1.5c-0.1-0.6-0.1-1.1-0.1-1.6v-3h1.9v8.6h-2l-2.3-4.3l-0.8-1.9
			h-0.1c0,0.5,0.1,1,0.2,1.5s0.1,1.1,0.1,1.6v3.1H565.3z"/>
		<path d="M576.9,286.9c-0.5,0-0.9-0.1-1.3-0.2c-0.4-0.2-0.8-0.4-1.1-0.7s-0.5-0.7-0.7-1.1c-0.2-0.4-0.3-0.9-0.3-1.5
			c0-0.5,0.1-1,0.3-1.4c0.2-0.4,0.4-0.8,0.7-1.1s0.6-0.5,1-0.7c0.4-0.2,0.8-0.2,1.2-0.2c0.5,0,0.9,0.1,1.2,0.2
			c0.3,0.2,0.6,0.4,0.9,0.7c0.2,0.3,0.4,0.6,0.5,1c0.1,0.4,0.2,0.8,0.2,1.3c0,0.2,0,0.3,0,0.5c0,0.2,0,0.3-0.1,0.4h-3.9
			c0.1,0.5,0.3,0.8,0.6,1.1s0.7,0.3,1.1,0.3c0.5,0,0.9-0.1,1.4-0.4l0.6,1.2c-0.3,0.2-0.7,0.4-1.1,0.5S577.3,286.9,576.9,286.9z
			 M575.5,282.8h2.4c0-0.4-0.1-0.7-0.3-0.9c-0.2-0.2-0.5-0.3-0.8-0.3c-0.3,0-0.6,0.1-0.8,0.3C575.7,282,575.5,282.4,575.5,282.8z"/>
	</g>
	<g class="st0">
		<path d="M580.8,289.2v-9h1.6l0.1,0.7h0.1c0.3-0.2,0.5-0.4,0.9-0.6s0.7-0.2,1-0.2c0.4,0,0.8,0.1,1.1,0.2s0.6,0.4,0.8,0.7
			c0.2,0.3,0.4,0.6,0.5,1.1s0.2,0.9,0.2,1.4c0,0.6-0.1,1.1-0.2,1.5s-0.4,0.8-0.6,1.1c-0.3,0.3-0.6,0.5-0.9,0.7
			c-0.3,0.2-0.7,0.2-1,0.2c-0.3,0-0.6-0.1-0.8-0.2c-0.3-0.1-0.5-0.3-0.7-0.5l0.1,1v1.9H580.8z M583.8,285.4c0.3,0,0.6-0.2,0.9-0.5
			s0.4-0.8,0.4-1.5c0-1.2-0.4-1.8-1.1-1.8c-0.4,0-0.8,0.2-1.1,0.6v2.7c0.2,0.2,0.4,0.3,0.5,0.3C583.5,285.3,583.7,285.4,583.8,285.4
			z"/>
	</g>
	<g class="st0">
		<path d="M590.6,286.9c-0.4,0-0.8-0.1-1-0.2s-0.5-0.3-0.7-0.5c-0.2-0.2-0.3-0.5-0.4-0.8s-0.1-0.7-0.1-1v-2.7h-0.9v-1.4l1-0.1
			l0.2-1.8h1.6v1.8h1.6v1.5h-1.6v2.6c0,0.4,0.1,0.6,0.2,0.8c0.2,0.2,0.4,0.2,0.6,0.2c0.1,0,0.2,0,0.3,0c0.1,0,0.2-0.1,0.3-0.1
			l0.3,1.4c-0.2,0.1-0.4,0.1-0.6,0.2C591.2,286.9,591,286.9,590.6,286.9z"/>
		<path d="M595.2,286.9c-0.7,0-1.2-0.2-1.6-0.7c-0.3-0.5-0.5-1.1-0.5-1.9v-4.1h1.9v3.8c0,0.5,0.1,0.8,0.2,1c0.1,0.2,0.3,0.3,0.6,0.3
			c0.2,0,0.5-0.1,0.6-0.2c0.2-0.1,0.3-0.3,0.5-0.6v-4.3h1.9v6.6h-1.6l-0.1-0.9h0c-0.3,0.3-0.6,0.6-0.9,0.8S595.6,286.9,595.2,286.9z
			"/>
		<path d="M600.7,286.8v-6.6h1.6l0.1,0.8h0.1c0.3-0.3,0.6-0.5,0.9-0.7c0.3-0.2,0.7-0.3,1.2-0.3c0.7,0,1.2,0.2,1.6,0.7
			c0.3,0.5,0.5,1.1,0.5,1.9v4.1h-1.9V283c0-0.5-0.1-0.8-0.2-1c-0.1-0.2-0.3-0.3-0.6-0.3c-0.2,0-0.5,0.1-0.6,0.2
			c-0.2,0.1-0.4,0.3-0.6,0.5v4.4H600.7z"/>
		<path d="M611.2,286.9c-0.5,0-0.9-0.1-1.3-0.2c-0.4-0.2-0.8-0.4-1.1-0.7c-0.3-0.3-0.5-0.7-0.7-1.1c-0.2-0.4-0.3-0.9-0.3-1.5
			c0-0.5,0.1-1,0.3-1.4c0.2-0.4,0.4-0.8,0.7-1.1c0.3-0.3,0.6-0.5,1-0.7s0.8-0.2,1.2-0.2c0.5,0,0.9,0.1,1.2,0.2
			c0.3,0.2,0.6,0.4,0.9,0.7c0.2,0.3,0.4,0.6,0.5,1c0.1,0.4,0.2,0.8,0.2,1.3c0,0.2,0,0.3,0,0.5s0,0.3-0.1,0.4h-3.9
			c0.1,0.5,0.3,0.8,0.6,1.1c0.3,0.2,0.7,0.3,1.1,0.3c0.5,0,0.9-0.1,1.4-0.4l0.6,1.2c-0.3,0.2-0.7,0.4-1.1,0.5
			S611.6,286.9,611.2,286.9z M609.8,282.8h2.4c0-0.4-0.1-0.7-0.3-0.9c-0.2-0.2-0.5-0.3-0.8-0.3c-0.3,0-0.6,0.1-0.8,0.3
			C610,282,609.9,282.4,609.8,282.8z"/>
	</g>
	<g class="st0">
		<path d="M436.8,286.9c-0.7,0-1.2-0.1-1.7-0.4c-0.4-0.3-0.8-0.6-1.1-1.2l1.3-1c0.2,0.3,0.3,0.5,0.6,0.6c0.2,0.1,0.4,0.2,0.6,0.2
			c0.4,0,0.6-0.1,0.8-0.3s0.3-0.6,0.3-1.2v-5.6h1.9v5.8c0,0.4-0.1,0.8-0.2,1.2c-0.1,0.4-0.3,0.7-0.5,1c-0.2,0.3-0.5,0.5-0.9,0.7
			C437.7,286.9,437.3,286.9,436.8,286.9z"/>
		<path d="M443.4,286.9c-0.7,0-1.2-0.2-1.6-0.7c-0.3-0.5-0.5-1.1-0.5-1.9v-4.1h1.9v3.8c0,0.5,0.1,0.8,0.2,1c0.1,0.2,0.3,0.3,0.6,0.3
			c0.2,0,0.5-0.1,0.6-0.2c0.2-0.1,0.3-0.3,0.5-0.6v-4.3h1.9v6.6h-1.6l-0.1-0.9h0c-0.3,0.3-0.6,0.6-0.9,0.8
			C444.3,286.9,443.9,286.9,443.4,286.9z"/>
		<path d="M449,289.2v-9h1.6l0.1,0.7h0.1c0.3-0.2,0.5-0.4,0.9-0.6s0.7-0.2,1-0.2c0.4,0,0.8,0.1,1.1,0.2s0.6,0.4,0.8,0.7
			c0.2,0.3,0.4,0.6,0.5,1.1s0.2,0.9,0.2,1.4c0,0.6-0.1,1.1-0.2,1.5s-0.4,0.8-0.6,1.1c-0.3,0.3-0.6,0.5-0.9,0.7
			c-0.3,0.2-0.7,0.2-1,0.2c-0.3,0-0.6-0.1-0.8-0.2c-0.3-0.1-0.5-0.3-0.7-0.5l0.1,1v1.9H449z M452,285.4c0.3,0,0.6-0.2,0.9-0.5
			s0.4-0.8,0.4-1.5c0-1.2-0.4-1.8-1.1-1.8c-0.4,0-0.8,0.2-1.1,0.6v2.7c0.2,0.2,0.4,0.3,0.5,0.3C451.6,285.3,451.8,285.4,452,285.4z"
			/>
		<path d="M457.5,279.2c-0.3,0-0.6-0.1-0.8-0.3c-0.2-0.2-0.3-0.4-0.3-0.7c0-0.3,0.1-0.5,0.3-0.7c0.2-0.2,0.5-0.3,0.8-0.3
			c0.3,0,0.6,0.1,0.8,0.3c0.2,0.2,0.3,0.4,0.3,0.7c0,0.3-0.1,0.5-0.3,0.7C458.1,279.2,457.9,279.2,457.5,279.2z M456.6,286.8v-6.6
			h1.9v6.6H456.6z"/>
	</g>
	<g class="st0">
		<path d="M462.8,286.9c-0.4,0-0.8-0.1-1-0.2s-0.5-0.3-0.7-0.5c-0.2-0.2-0.3-0.5-0.4-0.8s-0.1-0.7-0.1-1v-2.7h-0.9v-1.4l1-0.1
			l0.2-1.8h1.6v1.8h1.6v1.5h-1.6v2.6c0,0.4,0.1,0.6,0.2,0.8c0.2,0.2,0.4,0.2,0.6,0.2c0.1,0,0.2,0,0.3,0c0.1,0,0.2-0.1,0.3-0.1
			l0.3,1.4c-0.2,0.1-0.4,0.1-0.6,0.2C463.4,286.9,463.1,286.9,462.8,286.9z"/>
	</g>
	<g class="st0">
		<path d="M468,286.9c-0.5,0-0.9-0.1-1.3-0.2c-0.4-0.2-0.8-0.4-1.1-0.7s-0.5-0.7-0.7-1.1c-0.2-0.4-0.3-0.9-0.3-1.5
			c0-0.5,0.1-1,0.3-1.4c0.2-0.4,0.4-0.8,0.7-1.1s0.6-0.5,1-0.7c0.4-0.2,0.8-0.2,1.2-0.2c0.5,0,0.9,0.1,1.2,0.2
			c0.3,0.2,0.6,0.4,0.9,0.7c0.2,0.3,0.4,0.6,0.5,1c0.1,0.4,0.2,0.8,0.2,1.3c0,0.2,0,0.3,0,0.5c0,0.2,0,0.3-0.1,0.4h-3.9
			c0.1,0.5,0.3,0.8,0.6,1.1s0.7,0.3,1.1,0.3c0.5,0,0.9-0.1,1.4-0.4l0.6,1.2c-0.3,0.2-0.7,0.4-1.1,0.5S468.4,286.9,468,286.9z
			 M466.5,282.8h2.4c0-0.4-0.1-0.7-0.3-0.9c-0.2-0.2-0.5-0.3-0.8-0.3c-0.3,0-0.6,0.1-0.8,0.3C466.8,282,466.6,282.4,466.5,282.8z"/>
		<path d="M471.9,286.8v-6.6h1.6l0.1,1.2h0.1c0.2-0.5,0.5-0.8,0.9-1s0.7-0.3,1-0.3c0.2,0,0.3,0,0.5,0c0.1,0,0.2,0.1,0.3,0.1
			l-0.3,1.7c-0.1,0-0.2-0.1-0.3-0.1s-0.2,0-0.4,0c-0.2,0-0.5,0.1-0.8,0.3c-0.3,0.2-0.5,0.5-0.7,0.9v3.8H471.9z"/>
	</g>
	<g class="st0">
		<path d="M432.8,505.9c-0.6,0-1.1-0.1-1.5-0.3c-0.4-0.2-0.8-0.5-1.1-0.9l0.4-0.4c0.3,0.3,0.6,0.6,1,0.8c0.4,0.2,0.8,0.3,1.3,0.3
			c0.6,0,1.1-0.1,1.4-0.4s0.5-0.7,0.5-1.1c0-0.2,0-0.5-0.1-0.6c-0.1-0.2-0.2-0.3-0.3-0.4s-0.3-0.2-0.4-0.3c-0.2-0.1-0.4-0.2-0.5-0.3
			l-1.2-0.5c-0.2-0.1-0.3-0.2-0.5-0.3c-0.2-0.1-0.4-0.2-0.5-0.4c-0.2-0.2-0.3-0.3-0.4-0.6s-0.2-0.5-0.2-0.8c0-0.3,0.1-0.5,0.2-0.8
			c0.1-0.2,0.3-0.4,0.5-0.6s0.4-0.3,0.7-0.4c0.3-0.1,0.6-0.1,0.9-0.1c0.5,0,0.9,0.1,1.3,0.3c0.4,0.2,0.7,0.4,0.9,0.7l-0.3,0.4
			c-0.2-0.2-0.5-0.4-0.8-0.6c-0.3-0.1-0.7-0.2-1.1-0.2c-0.5,0-1,0.1-1.3,0.4s-0.5,0.6-0.5,1c0,0.2,0,0.4,0.1,0.6
			c0.1,0.2,0.2,0.3,0.3,0.4c0.1,0.1,0.3,0.2,0.4,0.3c0.2,0.1,0.3,0.2,0.5,0.2l1.2,0.5c0.2,0.1,0.4,0.2,0.6,0.3
			c0.2,0.1,0.4,0.3,0.5,0.4s0.3,0.3,0.4,0.6c0.1,0.2,0.1,0.5,0.1,0.8c0,0.3-0.1,0.6-0.2,0.8s-0.3,0.5-0.5,0.7
			c-0.2,0.2-0.5,0.3-0.8,0.4C433.6,505.8,433.2,505.9,432.8,505.9z"/>
		<path d="M437.2,498.6c-0.1,0-0.2,0-0.3-0.1c-0.1-0.1-0.1-0.2-0.1-0.3c0-0.2,0-0.3,0.1-0.4c0.1-0.1,0.2-0.1,0.3-0.1s0.2,0,0.3,0.1
			c0.1,0.1,0.1,0.2,0.1,0.4c0,0.1,0,0.2-0.1,0.3C437.5,498.5,437.4,498.6,437.2,498.6z M437,505.7V500h0.5v5.8H437z"/>
	</g>
	<g class="st0">
		<path d="M438.9,505.7v-0.3l3.4-5h-3V500h3.7v0.3l-3.4,5h3.5v0.5H438.9z"/>
	</g>
	<g class="st0">
		<path d="M446.6,505.9c-0.4,0-0.7-0.1-1-0.2c-0.3-0.1-0.6-0.3-0.8-0.6c-0.2-0.3-0.4-0.6-0.6-0.9c-0.1-0.4-0.2-0.8-0.2-1.3
			c0-0.5,0.1-0.9,0.2-1.3c0.1-0.4,0.3-0.7,0.6-1s0.5-0.5,0.8-0.6c0.3-0.1,0.6-0.2,0.9-0.2c0.7,0,1.2,0.2,1.6,0.7s0.6,1.1,0.6,2
			c0,0.1,0,0.1,0,0.2c0,0.1,0,0.1,0,0.2h-4.2c0,0.4,0.1,0.7,0.2,1c0.1,0.3,0.2,0.6,0.4,0.8c0.2,0.2,0.4,0.4,0.7,0.5
			c0.3,0.1,0.6,0.2,0.9,0.2c0.3,0,0.6,0,0.8-0.1s0.5-0.2,0.7-0.4l0.2,0.4c-0.2,0.1-0.5,0.3-0.8,0.4S447.1,505.9,446.6,505.9z
			 M444.5,502.5h3.7c0-0.7-0.2-1.3-0.5-1.7c-0.3-0.4-0.7-0.5-1.2-0.5c-0.2,0-0.5,0.1-0.7,0.2c-0.2,0.1-0.4,0.2-0.6,0.4
			c-0.2,0.2-0.3,0.4-0.4,0.7C444.6,501.8,444.5,502.2,444.5,502.5z"/>
		<path d="M451.6,505.9c-0.4,0-0.8-0.1-1.2-0.2s-0.7-0.3-0.9-0.6l0.3-0.4c0.2,0.2,0.5,0.4,0.8,0.5c0.3,0.1,0.6,0.2,1,0.2
			c0.5,0,0.8-0.1,1-0.3c0.2-0.2,0.3-0.5,0.3-0.8c0-0.2,0-0.3-0.1-0.5s-0.2-0.3-0.3-0.3c-0.1-0.1-0.3-0.2-0.4-0.3
			c-0.2-0.1-0.3-0.1-0.5-0.2c-0.2-0.1-0.4-0.2-0.7-0.3c-0.2-0.1-0.4-0.2-0.6-0.3c-0.2-0.1-0.3-0.3-0.4-0.4c-0.1-0.2-0.2-0.4-0.2-0.6
			c0-0.2,0-0.4,0.1-0.6s0.2-0.4,0.4-0.5c0.2-0.1,0.4-0.2,0.6-0.3s0.5-0.1,0.8-0.1c0.3,0,0.6,0.1,0.9,0.2c0.3,0.1,0.5,0.3,0.8,0.4
			l-0.3,0.4c-0.2-0.1-0.4-0.3-0.6-0.4c-0.2-0.1-0.5-0.2-0.8-0.2c-0.2,0-0.4,0-0.6,0.1c-0.2,0.1-0.3,0.1-0.4,0.2s-0.2,0.2-0.2,0.3
			c-0.1,0.1-0.1,0.3-0.1,0.4c0,0.2,0,0.3,0.1,0.4c0.1,0.1,0.2,0.2,0.3,0.3c0.1,0.1,0.3,0.2,0.4,0.2c0.2,0.1,0.3,0.1,0.5,0.2
			c0.2,0.1,0.4,0.2,0.7,0.3c0.2,0.1,0.4,0.2,0.6,0.3s0.3,0.3,0.4,0.5c0.1,0.2,0.2,0.4,0.2,0.7c0,0.2,0,0.4-0.1,0.6
			c-0.1,0.2-0.2,0.4-0.4,0.5c-0.2,0.1-0.4,0.3-0.6,0.4C452.2,505.8,451.9,505.9,451.6,505.9z"/>
		<path d="M458.8,505.9c-0.2,0-0.4,0-0.6-0.1c-0.2-0.1-0.4-0.2-0.5-0.3s-0.3-0.3-0.4-0.5c-0.1-0.2-0.1-0.4-0.1-0.7
			c0-0.6,0.3-1.1,0.9-1.5c0.6-0.3,1.5-0.6,2.8-0.7c0-0.2,0-0.4,0-0.7c0-0.2-0.1-0.4-0.2-0.6c-0.1-0.2-0.2-0.3-0.4-0.4
			c-0.2-0.1-0.4-0.2-0.7-0.2c-0.4,0-0.7,0.1-1.1,0.2c-0.3,0.2-0.6,0.3-0.8,0.4l-0.2-0.4c0.1-0.1,0.2-0.2,0.4-0.2
			c0.1-0.1,0.3-0.2,0.5-0.2c0.2-0.1,0.4-0.1,0.6-0.2c0.2-0.1,0.4-0.1,0.7-0.1c0.3,0,0.6,0.1,0.9,0.2c0.2,0.1,0.4,0.3,0.6,0.5
			s0.2,0.4,0.3,0.7c0.1,0.3,0.1,0.6,0.1,0.9v3.7h-0.5l0-0.7h0c-0.3,0.2-0.6,0.4-1,0.6C459.5,505.8,459.1,505.9,458.8,505.9z
			 M458.9,505.4c0.3,0,0.7-0.1,1-0.2s0.6-0.4,1-0.7v-2c-0.6,0.1-1.1,0.2-1.5,0.3c-0.4,0.1-0.7,0.2-1,0.4c-0.2,0.1-0.4,0.3-0.5,0.5
			c-0.1,0.2-0.2,0.4-0.2,0.6c0,0.2,0,0.4,0.1,0.5c0.1,0.1,0.2,0.3,0.3,0.4c0.1,0.1,0.2,0.2,0.4,0.2S458.7,505.4,458.9,505.4z"/>
		<path d="M463.4,505.7V500h0.5l0,0.9h0c0.3-0.3,0.6-0.5,0.9-0.7c0.3-0.2,0.7-0.3,1.1-0.3c0.6,0,1,0.2,1.3,0.5
			c0.3,0.4,0.4,0.9,0.4,1.7v3.7h-0.5v-3.6c0-0.6-0.1-1.1-0.3-1.4c-0.2-0.3-0.5-0.4-1-0.4c-0.3,0-0.7,0.1-0.9,0.3
			c-0.3,0.2-0.6,0.5-0.9,0.8v4.3H463.4z"/>
		<path d="M471.7,505.9c-0.7,0-1.3-0.3-1.7-0.8c-0.4-0.5-0.6-1.3-0.6-2.2c0-0.5,0.1-0.9,0.2-1.3c0.1-0.4,0.3-0.7,0.6-1
			c0.2-0.3,0.5-0.5,0.8-0.6c0.3-0.1,0.6-0.2,1-0.2c0.4,0,0.7,0.1,0.9,0.2c0.3,0.1,0.5,0.3,0.8,0.5l0-1.1v-2.4h0.5v8.6h-0.5l0-0.7h0
			c-0.2,0.2-0.5,0.4-0.8,0.6S472.1,505.9,471.7,505.9z M471.8,505.4c0.3,0,0.6-0.1,0.9-0.2c0.3-0.2,0.6-0.4,0.9-0.7V501
			c-0.3-0.3-0.6-0.5-0.9-0.6c-0.3-0.1-0.5-0.2-0.8-0.2c-0.3,0-0.6,0.1-0.8,0.2c-0.2,0.1-0.5,0.3-0.6,0.5c-0.2,0.2-0.3,0.5-0.4,0.8
			c-0.1,0.3-0.2,0.7-0.2,1c0,0.4,0,0.7,0.1,1c0.1,0.3,0.2,0.6,0.4,0.8c0.2,0.2,0.4,0.4,0.6,0.5S471.5,505.4,471.8,505.4z"/>
		<path d="M480.6,505.9c-0.7,0-1.3-0.3-1.7-0.8c-0.4-0.5-0.6-1.3-0.6-2.2c0-0.5,0.1-0.9,0.2-1.3c0.1-0.4,0.3-0.7,0.6-1
			c0.2-0.3,0.5-0.5,0.8-0.6c0.3-0.1,0.6-0.2,1-0.2c0.4,0,0.7,0.1,0.9,0.2c0.3,0.1,0.5,0.3,0.8,0.5l0-1.1v-2.4h0.5v8.6h-0.5l0-0.7h0
			c-0.2,0.2-0.5,0.4-0.8,0.6S481,505.9,480.6,505.9z M480.7,505.4c0.3,0,0.6-0.1,0.9-0.2c0.3-0.2,0.6-0.4,0.9-0.7V501
			c-0.3-0.3-0.6-0.5-0.9-0.6c-0.3-0.1-0.5-0.2-0.8-0.2c-0.3,0-0.6,0.1-0.8,0.2c-0.2,0.1-0.5,0.3-0.6,0.5c-0.2,0.2-0.3,0.5-0.4,0.8
			c-0.1,0.3-0.2,0.7-0.2,1c0,0.4,0,0.7,0.1,1c0.1,0.3,0.2,0.6,0.4,0.8c0.2,0.2,0.4,0.4,0.6,0.5S480.4,505.4,480.7,505.4z"/>
		<path d="M485.5,498.6c-0.1,0-0.2,0-0.3-0.1c-0.1-0.1-0.1-0.2-0.1-0.3c0-0.2,0-0.3,0.1-0.4c0.1-0.1,0.2-0.1,0.3-0.1s0.2,0,0.3,0.1
			c0.1,0.1,0.1,0.2,0.1,0.4c0,0.1,0,0.2-0.1,0.3C485.8,498.5,485.6,498.6,485.5,498.6z M485.2,505.7V500h0.5v5.8H485.2z"/>
	</g>
	<g class="st0">
		<path d="M489.4,505.9c-0.4,0-0.8-0.1-1.2-0.2s-0.7-0.3-0.9-0.6l0.3-0.4c0.2,0.2,0.5,0.4,0.8,0.5c0.3,0.1,0.6,0.2,1,0.2
			c0.5,0,0.8-0.1,1-0.3c0.2-0.2,0.3-0.5,0.3-0.8c0-0.2,0-0.3-0.1-0.5s-0.2-0.3-0.3-0.3c-0.1-0.1-0.3-0.2-0.4-0.3
			c-0.2-0.1-0.3-0.1-0.5-0.2c-0.2-0.1-0.4-0.2-0.7-0.3c-0.2-0.1-0.4-0.2-0.6-0.3c-0.2-0.1-0.3-0.3-0.4-0.4c-0.1-0.2-0.2-0.4-0.2-0.6
			c0-0.2,0-0.4,0.1-0.6s0.2-0.4,0.4-0.5c0.2-0.1,0.4-0.2,0.6-0.3s0.5-0.1,0.8-0.1c0.3,0,0.6,0.1,0.9,0.2c0.3,0.1,0.5,0.3,0.8,0.4
			l-0.3,0.4c-0.2-0.1-0.4-0.3-0.6-0.4c-0.2-0.1-0.5-0.2-0.8-0.2c-0.2,0-0.4,0-0.6,0.1c-0.2,0.1-0.3,0.1-0.4,0.2s-0.2,0.2-0.2,0.3
			c-0.1,0.1-0.1,0.3-0.1,0.4c0,0.2,0,0.3,0.1,0.4c0.1,0.1,0.2,0.2,0.3,0.3c0.1,0.1,0.3,0.2,0.4,0.2c0.2,0.1,0.3,0.1,0.5,0.2
			c0.2,0.1,0.4,0.2,0.7,0.3c0.2,0.1,0.4,0.2,0.6,0.3s0.3,0.3,0.4,0.5c0.1,0.2,0.2,0.4,0.2,0.7c0,0.2,0,0.4-0.1,0.6
			c-0.1,0.2-0.2,0.4-0.4,0.5c-0.2,0.1-0.4,0.3-0.6,0.4C490,505.8,489.7,505.9,489.4,505.9z"/>
	</g>
	<g class="st0">
		<path d="M494.2,505.9c-0.3,0-0.5,0-0.7-0.1c-0.2-0.1-0.3-0.2-0.4-0.4c-0.1-0.2-0.2-0.3-0.2-0.6s-0.1-0.5-0.1-0.7v-3.7h-0.9V500
			l0.9,0l0.1-1.7h0.5v1.7h1.7v0.5h-1.7v3.8c0,0.2,0,0.3,0,0.5c0,0.1,0.1,0.3,0.2,0.4s0.2,0.2,0.3,0.3c0.1,0.1,0.3,0.1,0.5,0.1
			c0.1,0,0.2,0,0.4-0.1c0.1,0,0.2-0.1,0.4-0.1l0.1,0.4c-0.2,0.1-0.3,0.1-0.5,0.2S494.3,505.9,494.2,505.9z"/>
	</g>
	<g class="st0">
		<path d="M497.3,505.9c-0.2,0-0.4,0-0.6-0.1c-0.2-0.1-0.4-0.2-0.5-0.3c-0.2-0.1-0.3-0.3-0.4-0.5c-0.1-0.2-0.1-0.4-0.1-0.7
			c0-0.6,0.3-1.1,0.9-1.5c0.6-0.3,1.5-0.6,2.8-0.7c0-0.2,0-0.4,0-0.7c0-0.2-0.1-0.4-0.2-0.6c-0.1-0.2-0.2-0.3-0.4-0.4
			c-0.2-0.1-0.4-0.2-0.7-0.2c-0.4,0-0.7,0.1-1.1,0.2s-0.6,0.3-0.8,0.4l-0.2-0.4c0.1-0.1,0.2-0.2,0.4-0.2c0.1-0.1,0.3-0.2,0.5-0.2
			c0.2-0.1,0.4-0.1,0.6-0.2c0.2-0.1,0.4-0.1,0.7-0.1c0.3,0,0.6,0.1,0.9,0.2c0.2,0.1,0.4,0.3,0.6,0.5c0.1,0.2,0.2,0.4,0.3,0.7
			c0.1,0.3,0.1,0.6,0.1,0.9v3.7h-0.5l0-0.7h0c-0.3,0.2-0.6,0.4-1,0.6S497.7,505.9,497.3,505.9z M497.4,505.4c0.3,0,0.7-0.1,1-0.2
			c0.3-0.2,0.6-0.4,1-0.7v-2c-0.6,0.1-1.1,0.2-1.5,0.3c-0.4,0.1-0.7,0.2-1,0.4c-0.2,0.1-0.4,0.3-0.5,0.5c-0.1,0.2-0.2,0.4-0.2,0.6
			c0,0.2,0,0.4,0.1,0.5c0.1,0.1,0.2,0.3,0.3,0.4c0.1,0.1,0.2,0.2,0.4,0.2C497.1,505.4,497.3,505.4,497.4,505.4z"/>
		<path d="M502,505.7V500h0.5l0,0.9h0c0.3-0.3,0.6-0.5,0.9-0.7c0.3-0.2,0.7-0.3,1.1-0.3c0.6,0,1,0.2,1.3,0.5
			c0.3,0.4,0.4,0.9,0.4,1.7v3.7h-0.5v-3.6c0-0.6-0.1-1.1-0.3-1.4c-0.2-0.3-0.5-0.4-1-0.4c-0.3,0-0.7,0.1-0.9,0.3
			c-0.3,0.2-0.6,0.5-0.9,0.8v4.3H502z"/>
	</g>
	<g class="st0">
		<path d="M510.5,505.9c-0.4,0-0.7-0.1-1-0.2c-0.3-0.1-0.6-0.3-0.8-0.6c-0.2-0.3-0.4-0.6-0.6-0.9c-0.1-0.4-0.2-0.8-0.2-1.3
			c0-0.5,0.1-0.9,0.2-1.3s0.3-0.7,0.6-1c0.2-0.3,0.5-0.5,0.8-0.6c0.3-0.1,0.6-0.2,1-0.2c0.4,0,0.7,0.1,1,0.2
			c0.3,0.1,0.5,0.3,0.7,0.5l-0.3,0.4c-0.2-0.2-0.4-0.3-0.6-0.4c-0.2-0.1-0.5-0.2-0.8-0.2c-0.3,0-0.6,0.1-0.8,0.2s-0.5,0.3-0.7,0.5
			c-0.2,0.2-0.3,0.5-0.4,0.8c-0.1,0.3-0.2,0.7-0.2,1c0,0.4,0.1,0.7,0.2,1c0.1,0.3,0.2,0.6,0.4,0.8c0.2,0.2,0.4,0.4,0.7,0.5
			c0.3,0.1,0.5,0.2,0.9,0.2c0.3,0,0.6-0.1,0.8-0.2c0.3-0.1,0.5-0.3,0.7-0.5l0.3,0.4c-0.2,0.2-0.5,0.4-0.8,0.5
			C511.2,505.8,510.9,505.9,510.5,505.9z"/>
	</g>
	<g class="st0">
		<path d="M515.7,505.9c-0.4,0-0.7-0.1-1-0.2c-0.3-0.1-0.6-0.3-0.8-0.6c-0.2-0.3-0.4-0.6-0.6-0.9c-0.1-0.4-0.2-0.8-0.2-1.3
			c0-0.5,0.1-0.9,0.2-1.3s0.3-0.7,0.6-1c0.2-0.3,0.5-0.5,0.8-0.6c0.3-0.1,0.6-0.2,0.9-0.2c0.7,0,1.2,0.2,1.6,0.7
			c0.4,0.5,0.6,1.1,0.6,2c0,0.1,0,0.1,0,0.2c0,0.1,0,0.1,0,0.2h-4.2c0,0.4,0.1,0.7,0.2,1c0.1,0.3,0.2,0.6,0.4,0.8
			c0.2,0.2,0.4,0.4,0.7,0.5s0.6,0.2,0.9,0.2c0.3,0,0.6,0,0.8-0.1s0.5-0.2,0.7-0.4l0.2,0.4c-0.2,0.1-0.5,0.3-0.8,0.4
			C516.5,505.8,516.1,505.9,515.7,505.9z M513.6,502.5h3.7c0-0.7-0.2-1.3-0.5-1.7c-0.3-0.4-0.7-0.5-1.2-0.5c-0.2,0-0.5,0.1-0.7,0.2
			c-0.2,0.1-0.4,0.2-0.6,0.4c-0.2,0.2-0.3,0.4-0.4,0.7C513.7,501.8,513.6,502.2,513.6,502.5z"/>
		<path d="M520.7,505.9c-0.4,0-0.8-0.1-1.2-0.2c-0.4-0.2-0.7-0.3-0.9-0.6l0.3-0.4c0.2,0.2,0.5,0.4,0.8,0.5c0.3,0.1,0.6,0.2,1,0.2
			c0.5,0,0.8-0.1,1-0.3c0.2-0.2,0.3-0.5,0.3-0.8c0-0.2,0-0.3-0.1-0.5s-0.2-0.3-0.3-0.3c-0.1-0.1-0.3-0.2-0.5-0.3
			c-0.2-0.1-0.3-0.1-0.5-0.2c-0.2-0.1-0.4-0.2-0.7-0.3c-0.2-0.1-0.4-0.2-0.6-0.3s-0.3-0.3-0.4-0.4c-0.1-0.2-0.2-0.4-0.2-0.6
			c0-0.2,0-0.4,0.1-0.6s0.2-0.4,0.4-0.5c0.2-0.1,0.4-0.2,0.6-0.3c0.2-0.1,0.5-0.1,0.8-0.1c0.3,0,0.6,0.1,0.9,0.2
			c0.3,0.1,0.5,0.3,0.8,0.4l-0.3,0.4c-0.2-0.1-0.4-0.3-0.6-0.4c-0.2-0.1-0.5-0.2-0.8-0.2c-0.2,0-0.4,0-0.6,0.1
			c-0.2,0.1-0.3,0.1-0.4,0.2c-0.1,0.1-0.2,0.2-0.2,0.3s-0.1,0.3-0.1,0.4c0,0.2,0,0.3,0.1,0.4c0.1,0.1,0.2,0.2,0.3,0.3
			s0.3,0.2,0.4,0.2c0.2,0.1,0.3,0.1,0.5,0.2c0.2,0.1,0.4,0.2,0.7,0.3c0.2,0.1,0.4,0.2,0.6,0.3c0.2,0.1,0.3,0.3,0.4,0.5
			c0.1,0.2,0.2,0.4,0.2,0.7c0,0.2,0,0.4-0.1,0.6c-0.1,0.2-0.2,0.4-0.4,0.5c-0.2,0.1-0.4,0.3-0.6,0.4S521,505.9,520.7,505.9z"/>
		<path d="M526.6,505.7V500h0.5l0,0.9h0c0.3-0.3,0.6-0.5,0.9-0.7c0.3-0.2,0.7-0.3,1.1-0.3c0.6,0,1,0.2,1.3,0.5
			c0.3,0.4,0.4,0.9,0.4,1.7v3.7h-0.5v-3.6c0-0.6-0.1-1.1-0.3-1.4s-0.5-0.4-1-0.4c-0.3,0-0.7,0.1-0.9,0.3c-0.3,0.2-0.6,0.5-0.9,0.8
			v4.3H526.6z"/>
	</g>
	<g class="st0">
		<path d="M535.1,505.9c-0.3,0-0.7-0.1-1-0.2c-0.3-0.1-0.6-0.3-0.8-0.6c-0.2-0.3-0.4-0.6-0.6-0.9c-0.1-0.4-0.2-0.8-0.2-1.3
			c0-0.5,0.1-0.9,0.2-1.3c0.1-0.4,0.3-0.7,0.6-1c0.2-0.3,0.5-0.5,0.8-0.6c0.3-0.1,0.6-0.2,1-0.2c0.3,0,0.7,0.1,1,0.2
			c0.3,0.1,0.6,0.3,0.8,0.6c0.2,0.3,0.4,0.6,0.6,1s0.2,0.8,0.2,1.3c0,0.5-0.1,0.9-0.2,1.3s-0.3,0.7-0.6,0.9
			c-0.2,0.3-0.5,0.5-0.8,0.6C535.7,505.8,535.4,505.9,535.1,505.9z M535.1,505.4c0.3,0,0.6-0.1,0.8-0.2s0.5-0.3,0.6-0.5
			c0.2-0.2,0.3-0.5,0.4-0.8c0.1-0.3,0.2-0.7,0.2-1c0-0.4-0.1-0.7-0.2-1c-0.1-0.3-0.2-0.6-0.4-0.8c-0.2-0.2-0.4-0.4-0.6-0.5
			s-0.5-0.2-0.8-0.2s-0.6,0.1-0.8,0.2s-0.5,0.3-0.6,0.5c-0.2,0.2-0.3,0.5-0.4,0.8c-0.1,0.3-0.2,0.7-0.2,1c0,0.4,0.1,0.7,0.2,1
			c0.1,0.3,0.2,0.6,0.4,0.8c0.2,0.2,0.4,0.4,0.6,0.5S534.8,505.4,535.1,505.4z"/>
	</g>
	<g class="st0">
		<path d="M540.8,505.9c-0.3,0-0.5,0-0.7-0.1s-0.3-0.2-0.4-0.4c-0.1-0.2-0.2-0.3-0.2-0.6s-0.1-0.5-0.1-0.7v-3.7h-0.9V500l0.9,0
			l0.1-1.7h0.5v1.7h1.7v0.5h-1.7v3.8c0,0.2,0,0.3,0,0.5c0,0.1,0.1,0.3,0.1,0.4c0.1,0.1,0.2,0.2,0.3,0.3c0.1,0.1,0.3,0.1,0.5,0.1
			c0.1,0,0.2,0,0.4-0.1c0.1,0,0.2-0.1,0.4-0.1l0.1,0.4c-0.2,0.1-0.3,0.1-0.5,0.2S540.9,505.9,540.8,505.9z"/>
		<path d="M547.3,505.9c-0.7,0-1.3-0.3-1.7-0.8c-0.4-0.5-0.6-1.3-0.6-2.2c0-0.5,0.1-0.9,0.2-1.3c0.1-0.4,0.3-0.7,0.6-1
			c0.2-0.3,0.5-0.5,0.8-0.6c0.3-0.1,0.6-0.2,1-0.2c0.4,0,0.7,0.1,0.9,0.2c0.3,0.1,0.5,0.3,0.8,0.5l0-1.1v-2.4h0.5v8.6h-0.5l0-0.7h0
			c-0.2,0.2-0.5,0.4-0.8,0.6S547.7,505.9,547.3,505.9z M547.4,505.4c0.3,0,0.6-0.1,0.9-0.2c0.3-0.2,0.6-0.4,0.9-0.7V501
			c-0.3-0.3-0.6-0.5-0.9-0.6c-0.3-0.1-0.5-0.2-0.8-0.2c-0.3,0-0.6,0.1-0.8,0.2c-0.2,0.1-0.5,0.3-0.6,0.5c-0.2,0.2-0.3,0.5-0.4,0.8
			c-0.1,0.3-0.2,0.7-0.2,1c0,0.4,0,0.7,0.1,1c0.1,0.3,0.2,0.6,0.4,0.8c0.2,0.2,0.4,0.4,0.6,0.5S547.1,505.4,547.4,505.4z"/>
	</g>
	<g class="st0">
		<path d="M551.9,505.7V500h0.5l0,1.1h0c0.2-0.4,0.4-0.7,0.7-0.9c0.3-0.2,0.6-0.3,0.9-0.3c0.1,0,0.2,0,0.3,0c0.1,0,0.2,0,0.3,0.1
			l-0.1,0.5c-0.1,0-0.2-0.1-0.3-0.1c-0.1,0-0.2,0-0.3,0c-0.3,0-0.5,0.1-0.8,0.3c-0.3,0.2-0.5,0.6-0.8,1.1v3.9H551.9z"/>
	</g>
	<g class="st0">
		<path d="M556.7,505.9c-0.2,0-0.4,0-0.6-0.1c-0.2-0.1-0.4-0.2-0.5-0.3s-0.3-0.3-0.4-0.5c-0.1-0.2-0.1-0.4-0.1-0.7
			c0-0.6,0.3-1.1,0.9-1.5c0.6-0.3,1.5-0.6,2.8-0.7c0-0.2,0-0.4,0-0.7c0-0.2-0.1-0.4-0.2-0.6c-0.1-0.2-0.2-0.3-0.4-0.4
			c-0.2-0.1-0.4-0.2-0.7-0.2c-0.4,0-0.7,0.1-1.1,0.2c-0.3,0.2-0.6,0.3-0.8,0.4l-0.2-0.4c0.1-0.1,0.2-0.2,0.4-0.2
			c0.1-0.1,0.3-0.2,0.5-0.2c0.2-0.1,0.4-0.1,0.6-0.2c0.2-0.1,0.4-0.1,0.7-0.1c0.3,0,0.6,0.1,0.9,0.2c0.2,0.1,0.4,0.3,0.6,0.5
			s0.2,0.4,0.3,0.7c0.1,0.3,0.1,0.6,0.1,0.9v3.7h-0.5l0-0.7h0c-0.3,0.2-0.6,0.4-1,0.6C557.5,505.8,557.1,505.9,556.7,505.9z
			 M556.8,505.4c0.3,0,0.7-0.1,1-0.2s0.6-0.4,1-0.7v-2c-0.6,0.1-1.1,0.2-1.5,0.3c-0.4,0.1-0.7,0.2-1,0.4c-0.2,0.1-0.4,0.3-0.5,0.5
			c-0.1,0.2-0.2,0.4-0.2,0.6c0,0.2,0,0.4,0.1,0.5c0.1,0.1,0.2,0.3,0.3,0.4c0.1,0.1,0.2,0.2,0.4,0.2S556.7,505.4,556.8,505.4z"/>
		<path d="M562.3,505.7l-1.7-5.8h0.6l1,3.7c0.1,0.3,0.1,0.5,0.2,0.8c0.1,0.3,0.1,0.5,0.2,0.8h0c0.1-0.3,0.1-0.5,0.2-0.8
			c0.1-0.3,0.1-0.5,0.2-0.8l1-3.7h0.6l1,3.7c0.1,0.3,0.1,0.5,0.2,0.8c0.1,0.3,0.1,0.5,0.2,0.8h0c0.1-0.3,0.1-0.5,0.2-0.8
			c0.1-0.3,0.1-0.5,0.2-0.8l1-3.7h0.5l-1.7,5.8h-0.7l-1-3.6c-0.1-0.3-0.2-0.6-0.2-0.8c-0.1-0.3-0.1-0.5-0.2-0.8h0
			c-0.1,0.3-0.1,0.6-0.2,0.8c-0.1,0.3-0.2,0.6-0.2,0.8l-1,3.6H562.3z"/>
		<path d="M569.6,505.7V500h0.5l0,0.9h0c0.3-0.3,0.6-0.5,0.9-0.7c0.3-0.2,0.7-0.3,1.1-0.3c0.6,0,1,0.2,1.3,0.5
			c0.3,0.4,0.4,0.9,0.4,1.7v3.7h-0.5v-3.6c0-0.6-0.1-1.1-0.3-1.4c-0.2-0.3-0.5-0.4-1-0.4c-0.3,0-0.7,0.1-0.9,0.3
			c-0.3,0.2-0.6,0.5-0.9,0.8v4.3H569.6z"/>
	</g>
	<g class="st0">
		<path d="M579.9,505.9c-0.3,0-0.5,0-0.7-0.1s-0.3-0.2-0.4-0.4c-0.1-0.2-0.2-0.3-0.2-0.6s-0.1-0.5-0.1-0.7v-3.7h-0.9V500l0.9,0
			l0.1-1.7h0.5v1.7h1.7v0.5H579v3.8c0,0.2,0,0.3,0,0.5c0,0.1,0.1,0.3,0.1,0.4c0.1,0.1,0.2,0.2,0.3,0.3c0.1,0.1,0.3,0.1,0.5,0.1
			c0.1,0,0.2,0,0.4-0.1c0.1,0,0.2-0.1,0.4-0.1l0.1,0.4c-0.2,0.1-0.3,0.1-0.5,0.2S580.1,505.9,579.9,505.9z"/>
	</g>
	<g class="st0">
		<path d="M584.1,505.9c-0.3,0-0.7-0.1-1-0.2c-0.3-0.1-0.6-0.3-0.8-0.6c-0.2-0.3-0.4-0.6-0.6-0.9c-0.1-0.4-0.2-0.8-0.2-1.3
			c0-0.5,0.1-0.9,0.2-1.3c0.1-0.4,0.3-0.7,0.6-1c0.2-0.3,0.5-0.5,0.8-0.6c0.3-0.1,0.6-0.2,1-0.2c0.3,0,0.7,0.1,1,0.2
			c0.3,0.1,0.6,0.3,0.8,0.6c0.2,0.3,0.4,0.6,0.6,1s0.2,0.8,0.2,1.3c0,0.5-0.1,0.9-0.2,1.3s-0.3,0.7-0.6,0.9
			c-0.2,0.3-0.5,0.5-0.8,0.6C584.8,505.8,584.4,505.9,584.1,505.9z M584.1,505.4c0.3,0,0.6-0.1,0.8-0.2s0.5-0.3,0.6-0.5
			c0.2-0.2,0.3-0.5,0.4-0.8c0.1-0.3,0.2-0.7,0.2-1c0-0.4-0.1-0.7-0.2-1c-0.1-0.3-0.2-0.6-0.4-0.8c-0.2-0.2-0.4-0.4-0.6-0.5
			s-0.5-0.2-0.8-0.2s-0.6,0.1-0.8,0.2s-0.5,0.3-0.6,0.5c-0.2,0.2-0.3,0.5-0.4,0.8c-0.1,0.3-0.2,0.7-0.2,1c0,0.4,0.1,0.7,0.2,1
			c0.1,0.3,0.2,0.6,0.4,0.8c0.2,0.2,0.4,0.4,0.6,0.5S583.8,505.4,584.1,505.4z"/>
		<path d="M592.2,505.9c-0.4,0-0.8-0.1-1.2-0.2s-0.7-0.3-0.9-0.6l0.3-0.4c0.2,0.2,0.5,0.4,0.8,0.5c0.3,0.1,0.6,0.2,1,0.2
			c0.5,0,0.8-0.1,1-0.3c0.2-0.2,0.3-0.5,0.3-0.8c0-0.2,0-0.3-0.1-0.5s-0.2-0.3-0.3-0.3c-0.1-0.1-0.3-0.2-0.4-0.3
			c-0.2-0.1-0.3-0.1-0.5-0.2c-0.2-0.1-0.4-0.2-0.7-0.3c-0.2-0.1-0.4-0.2-0.6-0.3c-0.2-0.1-0.3-0.3-0.4-0.4c-0.1-0.2-0.2-0.4-0.2-0.6
			c0-0.2,0-0.4,0.1-0.6s0.2-0.4,0.4-0.5c0.2-0.1,0.4-0.2,0.6-0.3s0.5-0.1,0.8-0.1c0.3,0,0.6,0.1,0.9,0.2c0.3,0.1,0.5,0.3,0.8,0.4
			l-0.3,0.4c-0.2-0.1-0.4-0.3-0.6-0.4c-0.2-0.1-0.5-0.2-0.8-0.2c-0.2,0-0.4,0-0.6,0.1c-0.2,0.1-0.3,0.1-0.4,0.2s-0.2,0.2-0.2,0.3
			c-0.1,0.1-0.1,0.3-0.1,0.4c0,0.2,0,0.3,0.1,0.4c0.1,0.1,0.2,0.2,0.3,0.3c0.1,0.1,0.3,0.2,0.4,0.2c0.2,0.1,0.3,0.1,0.5,0.2
			c0.2,0.1,0.4,0.2,0.7,0.3c0.2,0.1,0.4,0.2,0.6,0.3s0.3,0.3,0.4,0.5c0.1,0.2,0.2,0.4,0.2,0.7c0,0.2,0,0.4-0.1,0.6
			c-0.1,0.2-0.2,0.4-0.4,0.5c-0.2,0.1-0.4,0.3-0.6,0.4C592.8,505.8,592.5,505.9,592.2,505.9z"/>
	</g>
	<g class="st0">
		<path d="M597.8,505.9c-0.4,0-0.7-0.1-1-0.2c-0.3-0.1-0.6-0.3-0.8-0.6c-0.2-0.3-0.4-0.6-0.6-0.9c-0.1-0.4-0.2-0.8-0.2-1.3
			c0-0.5,0.1-0.9,0.2-1.3s0.3-0.7,0.6-1c0.2-0.3,0.5-0.5,0.8-0.6c0.3-0.1,0.6-0.2,1-0.2c0.4,0,0.7,0.1,1,0.2
			c0.3,0.1,0.5,0.3,0.7,0.5l-0.3,0.4c-0.2-0.2-0.4-0.3-0.6-0.4c-0.2-0.1-0.5-0.2-0.8-0.2c-0.3,0-0.6,0.1-0.8,0.2s-0.5,0.3-0.7,0.5
			c-0.2,0.2-0.3,0.5-0.4,0.8c-0.1,0.3-0.2,0.7-0.2,1c0,0.4,0.1,0.7,0.2,1c0.1,0.3,0.2,0.6,0.4,0.8c0.2,0.2,0.4,0.4,0.7,0.5
			c0.3,0.1,0.5,0.2,0.9,0.2c0.3,0,0.6-0.1,0.8-0.2c0.3-0.1,0.5-0.3,0.7-0.5l0.3,0.4c-0.2,0.2-0.5,0.4-0.8,0.5
			C598.5,505.8,598.2,505.9,597.8,505.9z"/>
	</g>
	<g class="st0">
		<path d="M602.2,505.9c-0.2,0-0.4,0-0.6-0.1c-0.2-0.1-0.4-0.2-0.5-0.3s-0.3-0.3-0.4-0.5c-0.1-0.2-0.1-0.4-0.1-0.7
			c0-0.6,0.3-1.1,0.9-1.5c0.6-0.3,1.5-0.6,2.8-0.7c0-0.2,0-0.4,0-0.7c0-0.2-0.1-0.4-0.2-0.6c-0.1-0.2-0.2-0.3-0.4-0.4
			c-0.2-0.1-0.4-0.2-0.7-0.2c-0.4,0-0.7,0.1-1.1,0.2c-0.3,0.2-0.6,0.3-0.8,0.4l-0.2-0.4c0.1-0.1,0.2-0.2,0.4-0.2
			c0.1-0.1,0.3-0.2,0.5-0.2c0.2-0.1,0.4-0.1,0.6-0.2c0.2-0.1,0.4-0.1,0.7-0.1c0.3,0,0.6,0.1,0.9,0.2c0.2,0.1,0.4,0.3,0.6,0.5
			s0.2,0.4,0.3,0.7c0.1,0.3,0.1,0.6,0.1,0.9v3.7h-0.5l0-0.7h0c-0.3,0.2-0.6,0.4-1,0.6C602.9,505.8,602.6,505.9,602.2,505.9z
			 M602.3,505.4c0.3,0,0.7-0.1,1-0.2s0.6-0.4,1-0.7v-2c-0.6,0.1-1.1,0.2-1.5,0.3c-0.4,0.1-0.7,0.2-1,0.4c-0.2,0.1-0.4,0.3-0.5,0.5
			c-0.1,0.2-0.2,0.4-0.2,0.6c0,0.2,0,0.4,0.1,0.5c0.1,0.1,0.2,0.3,0.3,0.4c0.1,0.1,0.2,0.2,0.4,0.2S602.1,505.4,602.3,505.4z"/>
		<path d="M607.5,505.9c-0.5,0-0.7-0.3-0.7-0.9v-7.9h0.5v7.9c0,0.1,0,0.2,0.1,0.3c0,0.1,0.1,0.1,0.2,0.1c0,0,0.1,0,0.1,0
			s0.1,0,0.1,0l0.1,0.4c-0.1,0-0.1,0-0.2,0C607.7,505.9,607.6,505.9,607.5,505.9z"/>
		<path d="M611.9,505.9c-0.4,0-0.7-0.1-1-0.2c-0.3-0.1-0.6-0.3-0.8-0.6c-0.2-0.3-0.4-0.6-0.6-0.9c-0.1-0.4-0.2-0.8-0.2-1.3
			c0-0.5,0.1-0.9,0.2-1.3c0.1-0.4,0.3-0.7,0.6-1s0.5-0.5,0.8-0.6c0.3-0.1,0.6-0.2,0.9-0.2c0.7,0,1.2,0.2,1.6,0.7s0.6,1.1,0.6,2
			c0,0.1,0,0.1,0,0.2c0,0.1,0,0.1,0,0.2h-4.2c0,0.4,0.1,0.7,0.2,1c0.1,0.3,0.2,0.6,0.4,0.8c0.2,0.2,0.4,0.4,0.7,0.5
			c0.3,0.1,0.6,0.2,0.9,0.2c0.3,0,0.6,0,0.8-0.1s0.5-0.2,0.7-0.4l0.2,0.4c-0.2,0.1-0.5,0.3-0.8,0.4S612.3,505.9,611.9,505.9z
			 M609.7,502.5h3.7c0-0.7-0.2-1.3-0.5-1.7c-0.3-0.4-0.7-0.5-1.2-0.5c-0.2,0-0.5,0.1-0.7,0.2c-0.2,0.1-0.4,0.2-0.6,0.4
			c-0.2,0.2-0.3,0.4-0.4,0.7C609.8,501.8,609.8,502.2,609.7,502.5z"/>
	</g>
	<g class="st0">
		<path d="M1022.8,505.9c-0.6,0-1.1-0.1-1.5-0.3c-0.4-0.2-0.8-0.5-1.1-0.9l0.4-0.4c0.3,0.3,0.6,0.6,1,0.8c0.4,0.2,0.8,0.3,1.3,0.3
			c0.6,0,1.1-0.1,1.4-0.4c0.4-0.3,0.5-0.7,0.5-1.1c0-0.2,0-0.5-0.1-0.6s-0.2-0.3-0.3-0.4s-0.3-0.2-0.5-0.3s-0.4-0.2-0.5-0.3
			l-1.2-0.5c-0.2-0.1-0.3-0.2-0.5-0.3c-0.2-0.1-0.4-0.2-0.5-0.4c-0.2-0.2-0.3-0.3-0.4-0.6c-0.1-0.2-0.2-0.5-0.2-0.8
			c0-0.3,0.1-0.5,0.2-0.8c0.1-0.2,0.3-0.4,0.5-0.6c0.2-0.2,0.4-0.3,0.7-0.4c0.3-0.1,0.6-0.1,0.9-0.1c0.5,0,0.9,0.1,1.3,0.3
			c0.4,0.2,0.7,0.4,0.9,0.7l-0.3,0.4c-0.2-0.2-0.5-0.4-0.8-0.6c-0.3-0.1-0.7-0.2-1.1-0.2c-0.5,0-1,0.1-1.3,0.4
			c-0.3,0.3-0.5,0.6-0.5,1c0,0.2,0,0.4,0.1,0.6s0.2,0.3,0.3,0.4c0.1,0.1,0.3,0.2,0.4,0.3c0.2,0.1,0.3,0.2,0.5,0.2l1.2,0.5
			c0.2,0.1,0.4,0.2,0.6,0.3c0.2,0.1,0.4,0.3,0.5,0.4c0.2,0.2,0.3,0.3,0.4,0.6c0.1,0.2,0.1,0.5,0.1,0.8c0,0.3-0.1,0.6-0.2,0.8
			c-0.1,0.3-0.3,0.5-0.5,0.7c-0.2,0.2-0.5,0.3-0.8,0.4C1023.6,505.8,1023.2,505.9,1022.8,505.9z"/>
		<path d="M1027.2,498.6c-0.1,0-0.2,0-0.3-0.1c-0.1-0.1-0.1-0.2-0.1-0.3c0-0.2,0-0.3,0.1-0.4c0.1-0.1,0.2-0.1,0.3-0.1
			c0.1,0,0.2,0,0.3,0.1s0.1,0.2,0.1,0.4c0,0.1,0,0.2-0.1,0.3S1027.4,498.6,1027.2,498.6z M1027,505.7V500h0.5v5.8H1027z"/>
	</g>
	<g class="st0">
		<path d="M1028.9,505.7v-0.3l3.4-5h-3V500h3.7v0.3l-3.4,5h3.5v0.5H1028.9z"/>
	</g>
	<g class="st0">
		<path d="M1036.6,505.9c-0.4,0-0.7-0.1-1-0.2c-0.3-0.1-0.6-0.3-0.8-0.6c-0.2-0.3-0.4-0.6-0.6-0.9c-0.1-0.4-0.2-0.8-0.2-1.3
			c0-0.5,0.1-0.9,0.2-1.3c0.1-0.4,0.3-0.7,0.6-1c0.2-0.3,0.5-0.5,0.8-0.6c0.3-0.1,0.6-0.2,0.9-0.2c0.7,0,1.2,0.2,1.6,0.7
			s0.6,1.1,0.6,2c0,0.1,0,0.1,0,0.2c0,0.1,0,0.1,0,0.2h-4.2c0,0.4,0.1,0.7,0.2,1c0.1,0.3,0.2,0.6,0.4,0.8c0.2,0.2,0.4,0.4,0.7,0.5
			c0.3,0.1,0.6,0.2,0.9,0.2c0.3,0,0.6,0,0.8-0.1s0.5-0.2,0.7-0.4l0.2,0.4c-0.2,0.1-0.5,0.3-0.8,0.4S1037.1,505.9,1036.6,505.9z
			 M1034.5,502.5h3.7c0-0.7-0.2-1.3-0.5-1.7c-0.3-0.4-0.7-0.5-1.2-0.5c-0.2,0-0.5,0.1-0.7,0.2c-0.2,0.1-0.4,0.2-0.6,0.4
			c-0.2,0.2-0.3,0.4-0.4,0.7C1034.6,501.8,1034.5,502.2,1034.5,502.5z"/>
		<path d="M1041.6,505.9c-0.4,0-0.8-0.1-1.2-0.2c-0.4-0.2-0.7-0.3-0.9-0.6l0.3-0.4c0.2,0.2,0.5,0.4,0.8,0.5c0.3,0.1,0.6,0.2,1,0.2
			c0.5,0,0.8-0.1,1-0.3c0.2-0.2,0.3-0.5,0.3-0.8c0-0.2,0-0.3-0.1-0.5s-0.2-0.3-0.3-0.3c-0.1-0.1-0.3-0.2-0.5-0.3
			c-0.2-0.1-0.3-0.1-0.5-0.2c-0.2-0.1-0.4-0.2-0.7-0.3s-0.4-0.2-0.6-0.3c-0.2-0.1-0.3-0.3-0.4-0.4c-0.1-0.2-0.2-0.4-0.2-0.6
			c0-0.2,0-0.4,0.1-0.6s0.2-0.4,0.4-0.5c0.2-0.1,0.4-0.2,0.6-0.3c0.2-0.1,0.5-0.1,0.8-0.1c0.3,0,0.6,0.1,0.9,0.2
			c0.3,0.1,0.5,0.3,0.8,0.4l-0.3,0.4c-0.2-0.1-0.4-0.3-0.6-0.4c-0.2-0.1-0.5-0.2-0.8-0.2c-0.2,0-0.4,0-0.6,0.1
			c-0.2,0.1-0.3,0.1-0.4,0.2c-0.1,0.1-0.2,0.2-0.2,0.3c-0.1,0.1-0.1,0.3-0.1,0.4c0,0.2,0,0.3,0.1,0.4c0.1,0.1,0.2,0.2,0.3,0.3
			c0.1,0.1,0.3,0.2,0.4,0.2c0.2,0.1,0.3,0.1,0.5,0.2c0.2,0.1,0.4,0.2,0.7,0.3c0.2,0.1,0.4,0.2,0.6,0.3s0.3,0.3,0.4,0.5
			c0.1,0.2,0.2,0.4,0.2,0.7c0,0.2,0,0.4-0.1,0.6c-0.1,0.2-0.2,0.4-0.4,0.5c-0.2,0.1-0.4,0.3-0.6,0.4
			C1042.2,505.8,1041.9,505.9,1041.6,505.9z"/>
		<path d="M1048.8,505.9c-0.2,0-0.4,0-0.6-0.1c-0.2-0.1-0.4-0.2-0.5-0.3c-0.2-0.1-0.3-0.3-0.4-0.5c-0.1-0.2-0.1-0.4-0.1-0.7
			c0-0.6,0.3-1.1,0.9-1.5c0.6-0.3,1.5-0.6,2.8-0.7c0-0.2,0-0.4,0-0.7c0-0.2-0.1-0.4-0.2-0.6c-0.1-0.2-0.2-0.3-0.4-0.4
			c-0.2-0.1-0.4-0.2-0.7-0.2c-0.4,0-0.7,0.1-1.1,0.2c-0.3,0.2-0.6,0.3-0.8,0.4l-0.2-0.4c0.1-0.1,0.2-0.2,0.4-0.2
			c0.1-0.1,0.3-0.2,0.5-0.2c0.2-0.1,0.4-0.1,0.6-0.2c0.2-0.1,0.4-0.1,0.7-0.1c0.3,0,0.6,0.1,0.9,0.2c0.2,0.1,0.4,0.3,0.6,0.5
			s0.2,0.4,0.3,0.7c0.1,0.3,0.1,0.6,0.1,0.9v3.7h-0.5l0-0.7h0c-0.3,0.2-0.6,0.4-1,0.6S1049.1,505.9,1048.8,505.9z M1048.9,505.4
			c0.3,0,0.7-0.1,1-0.2s0.6-0.4,1-0.7v-2c-0.6,0.1-1.1,0.2-1.5,0.3c-0.4,0.1-0.7,0.2-1,0.4c-0.2,0.1-0.4,0.3-0.5,0.5
			c-0.1,0.2-0.2,0.4-0.2,0.6c0,0.2,0,0.4,0.1,0.5c0.1,0.1,0.2,0.3,0.3,0.4c0.1,0.1,0.2,0.2,0.4,0.2
			C1048.5,505.4,1048.7,505.4,1048.9,505.4z"/>
		<path d="M1053.4,505.7V500h0.5l0,0.9h0c0.3-0.3,0.6-0.5,0.9-0.7c0.3-0.2,0.7-0.3,1.1-0.3c0.6,0,1,0.2,1.3,0.5
			c0.3,0.4,0.4,0.9,0.4,1.7v3.7h-0.5v-3.6c0-0.6-0.1-1.1-0.3-1.4s-0.5-0.4-1-0.4c-0.3,0-0.7,0.1-0.9,0.3c-0.3,0.2-0.6,0.5-0.9,0.8
			v4.3H1053.4z"/>
		<path d="M1061.7,505.9c-0.7,0-1.3-0.3-1.7-0.8c-0.4-0.5-0.6-1.3-0.6-2.2c0-0.5,0.1-0.9,0.2-1.3c0.1-0.4,0.3-0.7,0.6-1
			c0.2-0.3,0.5-0.5,0.8-0.6c0.3-0.1,0.6-0.2,1-0.2c0.4,0,0.7,0.1,0.9,0.2s0.5,0.3,0.8,0.5l0-1.1v-2.4h0.5v8.6h-0.5l0-0.7h0
			c-0.2,0.2-0.5,0.4-0.8,0.6S1062.1,505.9,1061.7,505.9z M1061.8,505.4c0.3,0,0.6-0.1,0.9-0.2c0.3-0.2,0.6-0.4,0.9-0.7V501
			c-0.3-0.3-0.6-0.5-0.9-0.6c-0.3-0.1-0.5-0.2-0.8-0.2c-0.3,0-0.6,0.1-0.8,0.2c-0.2,0.1-0.5,0.3-0.6,0.5c-0.2,0.2-0.3,0.5-0.4,0.8
			c-0.1,0.3-0.2,0.7-0.2,1c0,0.4,0,0.7,0.1,1c0.1,0.3,0.2,0.6,0.4,0.8c0.2,0.2,0.4,0.4,0.6,0.5S1061.5,505.4,1061.8,505.4z"/>
		<path d="M1070.6,505.9c-0.7,0-1.3-0.3-1.7-0.8c-0.4-0.5-0.6-1.3-0.6-2.2c0-0.5,0.1-0.9,0.2-1.3c0.1-0.4,0.3-0.7,0.6-1
			c0.2-0.3,0.5-0.5,0.8-0.6c0.3-0.1,0.6-0.2,1-0.2c0.4,0,0.7,0.1,0.9,0.2s0.5,0.3,0.8,0.5l0-1.1v-2.4h0.5v8.6h-0.5l0-0.7h0
			c-0.2,0.2-0.5,0.4-0.8,0.6C1071.3,505.8,1071,505.9,1070.6,505.9z M1070.7,505.4c0.3,0,0.6-0.1,0.9-0.2c0.3-0.2,0.6-0.4,0.9-0.7
			V501c-0.3-0.3-0.6-0.5-0.9-0.6c-0.3-0.1-0.5-0.2-0.8-0.2c-0.3,0-0.6,0.1-0.8,0.2s-0.5,0.3-0.6,0.5c-0.2,0.2-0.3,0.5-0.4,0.8
			s-0.2,0.7-0.2,1c0,0.4,0,0.7,0.1,1c0.1,0.3,0.2,0.6,0.4,0.8c0.2,0.2,0.4,0.4,0.6,0.5C1070.1,505.4,1070.4,505.4,1070.7,505.4z"/>
		<path d="M1075.5,498.6c-0.1,0-0.2,0-0.3-0.1c-0.1-0.1-0.1-0.2-0.1-0.3c0-0.2,0-0.3,0.1-0.4c0.1-0.1,0.2-0.1,0.3-0.1
			c0.1,0,0.2,0,0.3,0.1s0.1,0.2,0.1,0.4c0,0.1,0,0.2-0.1,0.3S1075.6,498.6,1075.5,498.6z M1075.2,505.7V500h0.5v5.8H1075.2z"/>
	</g>
	<g class="st0">
		<path d="M1079.4,505.9c-0.4,0-0.8-0.1-1.2-0.2c-0.4-0.2-0.7-0.3-0.9-0.6l0.3-0.4c0.2,0.2,0.5,0.4,0.8,0.5c0.3,0.1,0.6,0.2,1,0.2
			c0.5,0,0.8-0.1,1-0.3c0.2-0.2,0.3-0.5,0.3-0.8c0-0.2,0-0.3-0.1-0.5s-0.2-0.3-0.3-0.3c-0.1-0.1-0.3-0.2-0.5-0.3
			c-0.2-0.1-0.3-0.1-0.5-0.2c-0.2-0.1-0.4-0.2-0.7-0.3s-0.4-0.2-0.6-0.3c-0.2-0.1-0.3-0.3-0.4-0.4c-0.1-0.2-0.2-0.4-0.2-0.6
			c0-0.2,0-0.4,0.1-0.6s0.2-0.4,0.4-0.5c0.2-0.1,0.4-0.2,0.6-0.3c0.2-0.1,0.5-0.1,0.8-0.1c0.3,0,0.6,0.1,0.9,0.2
			c0.3,0.1,0.5,0.3,0.8,0.4l-0.3,0.4c-0.2-0.1-0.4-0.3-0.6-0.4c-0.2-0.1-0.5-0.2-0.8-0.2c-0.2,0-0.4,0-0.6,0.1
			c-0.2,0.1-0.3,0.1-0.4,0.2c-0.1,0.1-0.2,0.2-0.2,0.3c-0.1,0.1-0.1,0.3-0.1,0.4c0,0.2,0,0.3,0.1,0.4c0.1,0.1,0.2,0.2,0.3,0.3
			c0.1,0.1,0.3,0.2,0.4,0.2c0.2,0.1,0.3,0.1,0.5,0.2c0.2,0.1,0.4,0.2,0.7,0.3c0.2,0.1,0.4,0.2,0.6,0.3s0.3,0.3,0.4,0.5
			c0.1,0.2,0.2,0.4,0.2,0.7c0,0.2,0,0.4-0.1,0.6c-0.1,0.2-0.2,0.4-0.4,0.5c-0.2,0.1-0.4,0.3-0.6,0.4
			C1080,505.8,1079.7,505.9,1079.4,505.9z"/>
	</g>
	<g class="st0">
		<path d="M1084.2,505.9c-0.3,0-0.5,0-0.7-0.1c-0.2-0.1-0.3-0.2-0.4-0.4c-0.1-0.2-0.2-0.3-0.2-0.6s-0.1-0.5-0.1-0.7v-3.7h-0.9V500
			l0.9,0l0.1-1.7h0.5v1.7h1.7v0.5h-1.7v3.8c0,0.2,0,0.3,0,0.5c0,0.1,0.1,0.3,0.2,0.4s0.2,0.2,0.3,0.3c0.1,0.1,0.3,0.1,0.5,0.1
			c0.1,0,0.2,0,0.4-0.1c0.1,0,0.2-0.1,0.4-0.1l0.1,0.4c-0.2,0.1-0.3,0.1-0.5,0.2S1084.3,505.9,1084.2,505.9z"/>
	</g>
	<g class="st0">
		<path d="M1087.3,505.9c-0.2,0-0.4,0-0.6-0.1c-0.2-0.1-0.4-0.2-0.5-0.3c-0.2-0.1-0.3-0.3-0.4-0.5c-0.1-0.2-0.1-0.4-0.1-0.7
			c0-0.6,0.3-1.1,0.9-1.5c0.6-0.3,1.5-0.6,2.8-0.7c0-0.2,0-0.4,0-0.7c0-0.2-0.1-0.4-0.2-0.6c-0.1-0.2-0.2-0.3-0.4-0.4
			c-0.2-0.1-0.4-0.2-0.7-0.2c-0.4,0-0.7,0.1-1.1,0.2s-0.6,0.3-0.8,0.4l-0.2-0.4c0.1-0.1,0.2-0.2,0.4-0.2c0.1-0.1,0.3-0.2,0.5-0.2
			c0.2-0.1,0.4-0.1,0.6-0.2c0.2-0.1,0.4-0.1,0.7-0.1c0.3,0,0.6,0.1,0.9,0.2c0.2,0.1,0.4,0.3,0.6,0.5c0.1,0.2,0.2,0.4,0.3,0.7
			c0.1,0.3,0.1,0.6,0.1,0.9v3.7h-0.5l0-0.7h0c-0.3,0.2-0.6,0.4-1,0.6S1087.7,505.9,1087.3,505.9z M1087.4,505.4c0.3,0,0.7-0.1,1-0.2
			c0.3-0.2,0.6-0.4,1-0.7v-2c-0.6,0.1-1.1,0.2-1.5,0.3c-0.4,0.1-0.7,0.2-1,0.4c-0.2,0.1-0.4,0.3-0.5,0.5c-0.1,0.2-0.2,0.4-0.2,0.6
			c0,0.2,0,0.4,0.1,0.5c0.1,0.1,0.2,0.3,0.3,0.4c0.1,0.1,0.2,0.2,0.4,0.2C1087.1,505.4,1087.3,505.4,1087.4,505.4z"/>
		<path d="M1092,505.7V500h0.5l0,0.9h0c0.3-0.3,0.6-0.5,0.9-0.7c0.3-0.2,0.7-0.3,1.1-0.3c0.6,0,1,0.2,1.3,0.5
			c0.3,0.4,0.4,0.9,0.4,1.7v3.7h-0.5v-3.6c0-0.6-0.1-1.1-0.3-1.4c-0.2-0.3-0.5-0.4-1-0.4c-0.3,0-0.7,0.1-0.9,0.3
			c-0.3,0.2-0.6,0.5-0.9,0.8v4.3H1092z"/>
	</g>
	<g class="st0">
		<path d="M1100.5,505.9c-0.4,0-0.7-0.1-1-0.2c-0.3-0.1-0.6-0.3-0.8-0.6c-0.2-0.3-0.4-0.6-0.6-0.9c-0.1-0.4-0.2-0.8-0.2-1.3
			c0-0.5,0.1-0.9,0.2-1.3s0.3-0.7,0.6-1c0.2-0.3,0.5-0.5,0.8-0.6c0.3-0.1,0.7-0.2,1-0.2c0.4,0,0.7,0.1,1,0.2
			c0.3,0.1,0.5,0.3,0.7,0.5l-0.3,0.4c-0.2-0.2-0.4-0.3-0.6-0.4c-0.2-0.1-0.5-0.2-0.8-0.2c-0.3,0-0.6,0.1-0.8,0.2s-0.5,0.3-0.7,0.5
			c-0.2,0.2-0.3,0.5-0.4,0.8c-0.1,0.3-0.2,0.7-0.2,1c0,0.4,0.1,0.7,0.2,1c0.1,0.3,0.2,0.6,0.4,0.8c0.2,0.2,0.4,0.4,0.7,0.5
			s0.5,0.2,0.9,0.2c0.3,0,0.6-0.1,0.8-0.2c0.3-0.1,0.5-0.3,0.7-0.5l0.3,0.4c-0.2,0.2-0.5,0.4-0.8,0.5
			C1101.2,505.8,1100.9,505.9,1100.5,505.9z"/>
	</g>
	<g class="st0">
		<path d="M1105.7,505.9c-0.4,0-0.7-0.1-1-0.2c-0.3-0.1-0.6-0.3-0.8-0.6c-0.2-0.3-0.4-0.6-0.6-0.9c-0.1-0.4-0.2-0.8-0.2-1.3
			c0-0.5,0.1-0.9,0.2-1.3s0.3-0.7,0.6-1c0.2-0.3,0.5-0.5,0.8-0.6c0.3-0.1,0.6-0.2,0.9-0.2c0.7,0,1.2,0.2,1.6,0.7
			c0.4,0.5,0.6,1.1,0.6,2c0,0.1,0,0.1,0,0.2c0,0.1,0,0.1,0,0.2h-4.2c0,0.4,0.1,0.7,0.2,1c0.1,0.3,0.2,0.6,0.4,0.8
			c0.2,0.2,0.4,0.4,0.7,0.5s0.6,0.2,0.9,0.2c0.3,0,0.6,0,0.8-0.1s0.5-0.2,0.7-0.4l0.2,0.4c-0.2,0.1-0.5,0.3-0.8,0.4
			C1106.5,505.8,1106.1,505.9,1105.7,505.9z M1103.6,502.5h3.7c0-0.7-0.2-1.3-0.5-1.7c-0.3-0.4-0.7-0.5-1.2-0.5
			c-0.2,0-0.5,0.1-0.7,0.2c-0.2,0.1-0.4,0.2-0.6,0.4c-0.2,0.2-0.3,0.4-0.4,0.7C1103.7,501.8,1103.6,502.2,1103.6,502.5z"/>
		<path d="M1110.7,505.9c-0.4,0-0.8-0.1-1.2-0.2c-0.4-0.2-0.7-0.3-0.9-0.6l0.3-0.4c0.2,0.2,0.5,0.4,0.8,0.5c0.3,0.1,0.6,0.2,1,0.2
			c0.5,0,0.8-0.1,1-0.3c0.2-0.2,0.3-0.5,0.3-0.8c0-0.2,0-0.3-0.1-0.5s-0.2-0.3-0.3-0.3c-0.1-0.1-0.3-0.2-0.5-0.3
			c-0.2-0.1-0.3-0.1-0.5-0.2c-0.2-0.1-0.4-0.2-0.7-0.3c-0.2-0.1-0.4-0.2-0.6-0.3s-0.3-0.3-0.4-0.4c-0.1-0.2-0.2-0.4-0.2-0.6
			c0-0.2,0-0.4,0.1-0.6s0.2-0.4,0.4-0.5c0.2-0.1,0.4-0.2,0.6-0.3c0.2-0.1,0.5-0.1,0.8-0.1c0.3,0,0.6,0.1,0.9,0.2
			c0.3,0.1,0.5,0.3,0.8,0.4l-0.3,0.4c-0.2-0.1-0.4-0.3-0.6-0.4c-0.2-0.1-0.5-0.2-0.8-0.2c-0.2,0-0.4,0-0.6,0.1
			c-0.2,0.1-0.3,0.1-0.4,0.2c-0.1,0.1-0.2,0.2-0.2,0.3s-0.1,0.3-0.1,0.4c0,0.2,0,0.3,0.1,0.4c0.1,0.1,0.2,0.2,0.3,0.3
			s0.3,0.2,0.4,0.2c0.2,0.1,0.3,0.1,0.5,0.2c0.2,0.1,0.4,0.2,0.7,0.3c0.2,0.1,0.4,0.2,0.6,0.3c0.2,0.1,0.3,0.3,0.4,0.5
			c0.1,0.2,0.2,0.4,0.2,0.7c0,0.2,0,0.4-0.1,0.6c-0.1,0.2-0.2,0.4-0.4,0.5c-0.2,0.1-0.4,0.3-0.6,0.4S1111,505.9,1110.7,505.9z"/>
		<path d="M1116.6,505.7V500h0.5l0,0.9h0c0.3-0.3,0.6-0.5,0.9-0.7c0.3-0.2,0.7-0.3,1.1-0.3c0.6,0,1,0.2,1.3,0.5
			c0.3,0.4,0.4,0.9,0.4,1.7v3.7h-0.5v-3.6c0-0.6-0.1-1.1-0.3-1.4s-0.5-0.4-1-0.4c-0.3,0-0.7,0.1-0.9,0.3c-0.3,0.2-0.6,0.5-0.9,0.8
			v4.3H1116.6z"/>
	</g>
	<g class="st0">
		<path d="M1125.1,505.9c-0.3,0-0.7-0.1-1-0.2c-0.3-0.1-0.6-0.3-0.8-0.6c-0.2-0.3-0.4-0.6-0.6-0.9s-0.2-0.8-0.2-1.3
			c0-0.5,0.1-0.9,0.2-1.3s0.3-0.7,0.6-1c0.2-0.3,0.5-0.5,0.8-0.6c0.3-0.1,0.6-0.2,1-0.2s0.7,0.1,1,0.2c0.3,0.1,0.6,0.3,0.8,0.6
			c0.2,0.3,0.4,0.6,0.6,1s0.2,0.8,0.2,1.3c0,0.5-0.1,0.9-0.2,1.3s-0.3,0.7-0.6,0.9c-0.2,0.3-0.5,0.5-0.8,0.6
			C1125.7,505.8,1125.4,505.9,1125.1,505.9z M1125.1,505.4c0.3,0,0.6-0.1,0.8-0.2s0.5-0.3,0.6-0.5c0.2-0.2,0.3-0.5,0.4-0.8
			c0.1-0.3,0.2-0.7,0.2-1c0-0.4-0.1-0.7-0.2-1c-0.1-0.3-0.2-0.6-0.4-0.8c-0.2-0.2-0.4-0.4-0.6-0.5s-0.5-0.2-0.8-0.2
			s-0.6,0.1-0.8,0.2s-0.5,0.3-0.6,0.5c-0.2,0.2-0.3,0.5-0.4,0.8c-0.1,0.3-0.2,0.7-0.2,1c0,0.4,0.1,0.7,0.2,1
			c0.1,0.3,0.2,0.6,0.4,0.8c0.2,0.2,0.4,0.4,0.6,0.5S1124.8,505.4,1125.1,505.4z"/>
	</g>
	<g class="st0">
		<path d="M1130.8,505.9c-0.3,0-0.5,0-0.7-0.1s-0.3-0.2-0.4-0.4c-0.1-0.2-0.2-0.3-0.2-0.6c0-0.2-0.1-0.5-0.1-0.7v-3.7h-0.9V500
			l0.9,0l0.1-1.7h0.5v1.7h1.7v0.5h-1.7v3.8c0,0.2,0,0.3,0,0.5c0,0.1,0.1,0.3,0.1,0.4c0.1,0.1,0.2,0.2,0.3,0.3
			c0.1,0.1,0.3,0.1,0.5,0.1c0.1,0,0.2,0,0.4-0.1c0.1,0,0.2-0.1,0.4-0.1l0.1,0.4c-0.2,0.1-0.3,0.1-0.5,0.2S1130.9,505.9,1130.8,505.9
			z"/>
		<path d="M1137.3,505.9c-0.7,0-1.3-0.3-1.7-0.8c-0.4-0.5-0.6-1.3-0.6-2.2c0-0.5,0.1-0.9,0.2-1.3s0.3-0.7,0.6-1s0.5-0.5,0.8-0.6
			c0.3-0.1,0.6-0.2,1-0.2c0.4,0,0.7,0.1,0.9,0.2c0.3,0.1,0.5,0.3,0.8,0.5l0-1.1v-2.4h0.5v8.6h-0.5l0-0.7h0c-0.2,0.2-0.5,0.4-0.8,0.6
			C1138,505.8,1137.7,505.9,1137.3,505.9z M1137.4,505.4c0.3,0,0.6-0.1,0.9-0.2c0.3-0.2,0.6-0.4,0.9-0.7V501
			c-0.3-0.3-0.6-0.5-0.9-0.6c-0.3-0.1-0.5-0.2-0.8-0.2c-0.3,0-0.6,0.1-0.8,0.2c-0.2,0.1-0.5,0.3-0.6,0.5c-0.2,0.2-0.3,0.5-0.4,0.8
			c-0.1,0.3-0.2,0.7-0.2,1c0,0.4,0,0.7,0.1,1c0.1,0.3,0.2,0.6,0.4,0.8c0.2,0.2,0.4,0.4,0.6,0.5
			C1136.8,505.4,1137.1,505.4,1137.4,505.4z"/>
	</g>
	<g class="st0">
		<path d="M1141.9,505.7V500h0.5l0,1.1h0c0.2-0.4,0.4-0.7,0.7-0.9c0.3-0.2,0.6-0.3,0.9-0.3c0.1,0,0.2,0,0.3,0c0.1,0,0.2,0,0.3,0.1
			l-0.1,0.5c-0.1,0-0.2-0.1-0.3-0.1s-0.2,0-0.3,0c-0.3,0-0.5,0.1-0.8,0.3c-0.3,0.2-0.5,0.6-0.8,1.1v3.9H1141.9z"/>
	</g>
	<g class="st0">
		<path d="M1146.7,505.9c-0.2,0-0.4,0-0.6-0.1c-0.2-0.1-0.4-0.2-0.5-0.3c-0.2-0.1-0.3-0.3-0.4-0.5c-0.1-0.2-0.1-0.4-0.1-0.7
			c0-0.6,0.3-1.1,0.9-1.5c0.6-0.3,1.5-0.6,2.8-0.7c0-0.2,0-0.4,0-0.7c0-0.2-0.1-0.4-0.2-0.6c-0.1-0.2-0.2-0.3-0.4-0.4
			c-0.2-0.1-0.4-0.2-0.7-0.2c-0.4,0-0.7,0.1-1.1,0.2c-0.3,0.2-0.6,0.3-0.8,0.4l-0.2-0.4c0.1-0.1,0.2-0.2,0.4-0.2
			c0.1-0.1,0.3-0.2,0.5-0.2c0.2-0.1,0.4-0.1,0.6-0.2c0.2-0.1,0.4-0.1,0.7-0.1c0.3,0,0.6,0.1,0.9,0.2c0.2,0.1,0.4,0.3,0.6,0.5
			s0.2,0.4,0.3,0.7c0.1,0.3,0.1,0.6,0.1,0.9v3.7h-0.5l0-0.7h0c-0.3,0.2-0.6,0.4-1,0.6S1147.1,505.9,1146.7,505.9z M1146.8,505.4
			c0.3,0,0.7-0.1,1-0.2s0.6-0.4,1-0.7v-2c-0.6,0.1-1.1,0.2-1.5,0.3c-0.4,0.1-0.7,0.2-1,0.4c-0.2,0.1-0.4,0.3-0.5,0.5
			c-0.1,0.2-0.2,0.4-0.2,0.6c0,0.2,0,0.4,0.1,0.5c0.1,0.1,0.2,0.3,0.3,0.4c0.1,0.1,0.2,0.2,0.4,0.2
			C1146.5,505.4,1146.7,505.4,1146.8,505.4z"/>
		<path d="M1152.3,505.7l-1.7-5.8h0.6l1,3.7c0.1,0.3,0.1,0.5,0.2,0.8c0.1,0.3,0.1,0.5,0.2,0.8h0c0.1-0.3,0.1-0.5,0.2-0.8
			s0.1-0.5,0.2-0.8l1-3.7h0.6l1,3.7c0.1,0.3,0.1,0.5,0.2,0.8c0.1,0.3,0.1,0.5,0.2,0.8h0c0.1-0.3,0.1-0.5,0.2-0.8
			c0.1-0.3,0.1-0.5,0.2-0.8l1-3.7h0.5l-1.7,5.8h-0.7l-1-3.6c-0.1-0.3-0.2-0.6-0.2-0.8c-0.1-0.3-0.1-0.5-0.2-0.8h0
			c-0.1,0.3-0.1,0.6-0.2,0.8c-0.1,0.3-0.2,0.6-0.2,0.8l-1,3.6H1152.3z"/>
		<path d="M1159.6,505.7V500h0.5l0,0.9h0c0.3-0.3,0.6-0.5,0.9-0.7c0.3-0.2,0.7-0.3,1.1-0.3c0.6,0,1,0.2,1.3,0.5
			c0.3,0.4,0.4,0.9,0.4,1.7v3.7h-0.5v-3.6c0-0.6-0.1-1.1-0.3-1.4c-0.2-0.3-0.5-0.4-1-0.4c-0.3,0-0.7,0.1-0.9,0.3
			c-0.3,0.2-0.6,0.5-0.9,0.8v4.3H1159.6z"/>
	</g>
	<g class="st0">
		<path d="M1169.9,505.9c-0.3,0-0.5,0-0.7-0.1s-0.3-0.2-0.4-0.4c-0.1-0.2-0.2-0.3-0.2-0.6c0-0.2-0.1-0.5-0.1-0.7v-3.7h-0.9V500
			l0.9,0l0.1-1.7h0.5v1.7h1.7v0.5h-1.7v3.8c0,0.2,0,0.3,0,0.5c0,0.1,0.1,0.3,0.2,0.4s0.2,0.2,0.3,0.3c0.1,0.1,0.3,0.1,0.5,0.1
			c0.1,0,0.2,0,0.4-0.1s0.2-0.1,0.4-0.1l0.1,0.4c-0.2,0.1-0.3,0.1-0.5,0.2S1170.1,505.9,1169.9,505.9z"/>
	</g>
	<g class="st0">
		<path d="M1174.1,505.9c-0.3,0-0.7-0.1-1-0.2c-0.3-0.1-0.6-0.3-0.8-0.6c-0.2-0.3-0.4-0.6-0.6-0.9s-0.2-0.8-0.2-1.3
			c0-0.5,0.1-0.9,0.2-1.3s0.3-0.7,0.6-1c0.2-0.3,0.5-0.5,0.8-0.6c0.3-0.1,0.6-0.2,1-0.2s0.7,0.1,1,0.2c0.3,0.1,0.6,0.3,0.8,0.6
			c0.2,0.3,0.4,0.6,0.6,1s0.2,0.8,0.2,1.3c0,0.5-0.1,0.9-0.2,1.3s-0.3,0.7-0.6,0.9c-0.2,0.3-0.5,0.5-0.8,0.6
			C1174.8,505.8,1174.4,505.9,1174.1,505.9z M1174.1,505.4c0.3,0,0.6-0.1,0.8-0.2s0.5-0.3,0.6-0.5c0.2-0.2,0.3-0.5,0.4-0.8
			c0.1-0.3,0.2-0.7,0.2-1c0-0.4-0.1-0.7-0.2-1c-0.1-0.3-0.2-0.6-0.4-0.8c-0.2-0.2-0.4-0.4-0.6-0.5s-0.5-0.2-0.8-0.2
			s-0.6,0.1-0.8,0.2s-0.5,0.3-0.6,0.5c-0.2,0.2-0.3,0.5-0.4,0.8c-0.1,0.3-0.2,0.7-0.2,1c0,0.4,0.1,0.7,0.2,1
			c0.1,0.3,0.2,0.6,0.4,0.8c0.2,0.2,0.4,0.4,0.6,0.5S1173.8,505.4,1174.1,505.4z"/>
		<path d="M1182.2,505.9c-0.4,0-0.8-0.1-1.2-0.2s-0.7-0.3-0.9-0.6l0.3-0.4c0.2,0.2,0.5,0.4,0.8,0.5c0.3,0.1,0.6,0.2,1,0.2
			c0.5,0,0.8-0.1,1-0.3c0.2-0.2,0.3-0.5,0.3-0.8c0-0.2,0-0.3-0.1-0.5s-0.2-0.3-0.3-0.3c-0.1-0.1-0.3-0.2-0.5-0.3
			c-0.2-0.1-0.3-0.1-0.5-0.2c-0.2-0.1-0.4-0.2-0.7-0.3c-0.2-0.1-0.4-0.2-0.6-0.3s-0.3-0.3-0.4-0.4c-0.1-0.2-0.2-0.4-0.2-0.6
			c0-0.2,0-0.4,0.1-0.6s0.2-0.4,0.4-0.5c0.2-0.1,0.4-0.2,0.6-0.3s0.5-0.1,0.8-0.1s0.6,0.1,0.9,0.2c0.3,0.1,0.5,0.3,0.8,0.4l-0.3,0.4
			c-0.2-0.1-0.4-0.3-0.6-0.4s-0.5-0.2-0.8-0.2c-0.2,0-0.4,0-0.6,0.1c-0.2,0.1-0.3,0.1-0.4,0.2s-0.2,0.2-0.2,0.3s-0.1,0.3-0.1,0.4
			c0,0.2,0,0.3,0.1,0.4c0.1,0.1,0.2,0.2,0.3,0.3c0.1,0.1,0.3,0.2,0.4,0.2c0.2,0.1,0.3,0.1,0.5,0.2c0.2,0.1,0.4,0.2,0.7,0.3
			c0.2,0.1,0.4,0.2,0.6,0.3c0.2,0.1,0.3,0.3,0.4,0.5c0.1,0.2,0.2,0.4,0.2,0.7c0,0.2,0,0.4-0.1,0.6c-0.1,0.2-0.2,0.4-0.4,0.5
			c-0.2,0.1-0.4,0.3-0.6,0.4S1182.5,505.9,1182.2,505.9z"/>
	</g>
	<g class="st0">
		<path d="M1187.8,505.9c-0.4,0-0.7-0.1-1-0.2c-0.3-0.1-0.6-0.3-0.8-0.6c-0.2-0.3-0.4-0.6-0.6-0.9s-0.2-0.8-0.2-1.3
			c0-0.5,0.1-0.9,0.2-1.3c0.1-0.4,0.3-0.7,0.6-1c0.2-0.3,0.5-0.5,0.8-0.6c0.3-0.1,0.6-0.2,1-0.2c0.4,0,0.7,0.1,1,0.2
			c0.3,0.1,0.5,0.3,0.7,0.5l-0.3,0.4c-0.2-0.2-0.4-0.3-0.6-0.4c-0.2-0.1-0.5-0.2-0.8-0.2c-0.3,0-0.6,0.1-0.8,0.2s-0.5,0.3-0.7,0.5
			c-0.2,0.2-0.3,0.5-0.4,0.8c-0.1,0.3-0.2,0.7-0.2,1c0,0.4,0,0.7,0.2,1c0.1,0.3,0.2,0.6,0.4,0.8c0.2,0.2,0.4,0.4,0.7,0.5
			c0.3,0.1,0.5,0.2,0.9,0.2c0.3,0,0.6-0.1,0.8-0.2s0.5-0.3,0.7-0.5l0.3,0.4c-0.2,0.2-0.5,0.4-0.8,0.5
			C1188.5,505.8,1188.2,505.9,1187.8,505.9z"/>
	</g>
	<g class="st0">
		<path d="M1192.2,505.9c-0.2,0-0.4,0-0.6-0.1c-0.2-0.1-0.4-0.2-0.5-0.3c-0.2-0.1-0.3-0.3-0.4-0.5c-0.1-0.2-0.1-0.4-0.1-0.7
			c0-0.6,0.3-1.1,0.9-1.5c0.6-0.3,1.5-0.6,2.8-0.7c0-0.2,0-0.4,0-0.7c0-0.2-0.1-0.4-0.2-0.6c-0.1-0.2-0.2-0.3-0.4-0.4
			c-0.2-0.1-0.4-0.2-0.7-0.2c-0.4,0-0.7,0.1-1.1,0.2s-0.6,0.3-0.8,0.4l-0.2-0.4c0.1-0.1,0.2-0.2,0.4-0.2c0.1-0.1,0.3-0.2,0.5-0.2
			c0.2-0.1,0.4-0.1,0.6-0.2c0.2-0.1,0.4-0.1,0.7-0.1c0.3,0,0.6,0.1,0.9,0.2c0.2,0.1,0.4,0.3,0.6,0.5s0.2,0.4,0.3,0.7
			c0.1,0.3,0.1,0.6,0.1,0.9v3.7h-0.5l0-0.7h0c-0.3,0.2-0.6,0.4-1,0.6C1192.9,505.8,1192.6,505.9,1192.2,505.9z M1192.3,505.4
			c0.3,0,0.7-0.1,1-0.2s0.6-0.4,1-0.7v-2c-0.6,0.1-1.1,0.2-1.5,0.3c-0.4,0.1-0.7,0.2-1,0.4c-0.2,0.1-0.4,0.3-0.5,0.5
			c-0.1,0.2-0.2,0.4-0.2,0.6c0,0.2,0,0.4,0.1,0.5c0.1,0.1,0.2,0.3,0.3,0.4c0.1,0.1,0.2,0.2,0.4,0.2
			C1192,505.4,1192.1,505.4,1192.3,505.4z"/>
		<path d="M1197.5,505.9c-0.5,0-0.7-0.3-0.7-0.9v-7.9h0.5v7.9c0,0.1,0,0.2,0.1,0.3c0,0.1,0.1,0.1,0.2,0.1c0,0,0.1,0,0.1,0
			c0,0,0.1,0,0.1,0l0.1,0.4c-0.1,0-0.1,0-0.2,0C1197.7,505.9,1197.6,505.9,1197.5,505.9z"/>
		<path d="M1201.9,505.9c-0.4,0-0.7-0.1-1-0.2c-0.3-0.1-0.6-0.3-0.8-0.6c-0.2-0.3-0.4-0.6-0.6-0.9c-0.1-0.4-0.2-0.8-0.2-1.3
			c0-0.5,0.1-0.9,0.2-1.3c0.1-0.4,0.3-0.7,0.6-1s0.5-0.5,0.8-0.6c0.3-0.1,0.6-0.2,0.9-0.2c0.7,0,1.2,0.2,1.6,0.7
			c0.4,0.5,0.6,1.1,0.6,2c0,0.1,0,0.1,0,0.2c0,0.1,0,0.1,0,0.2h-4.2c0,0.4,0.1,0.7,0.2,1c0.1,0.3,0.2,0.6,0.4,0.8
			c0.2,0.2,0.4,0.4,0.7,0.5s0.6,0.2,0.9,0.2c0.3,0,0.6,0,0.8-0.1s0.5-0.2,0.7-0.4l0.2,0.4c-0.2,0.1-0.5,0.3-0.8,0.4
			C1202.6,505.8,1202.3,505.9,1201.9,505.9z M1199.7,502.5h3.7c0-0.7-0.2-1.3-0.5-1.7c-0.3-0.4-0.7-0.5-1.2-0.5
			c-0.2,0-0.5,0.1-0.7,0.2c-0.2,0.1-0.4,0.2-0.6,0.4c-0.2,0.2-0.3,0.4-0.4,0.7C1199.8,501.8,1199.8,502.2,1199.7,502.5z"/>
	</g>
</g>
<g id="b">
</g>
<g id="c">
</g>
<g id="d">
</g>
<g id="e">
</g>
</svg>
