<?xml version="1.0" encoding="utf-8"?>
<!-- Generator: Adobe Illustrator 26.1.0, SVG Export Plug-In . SVG Version: 6.00 Build 0)  -->
<svg version="1.1" id="Layer_1" xmlns="http://www.w3.org/2000/svg" xmlns:xlink="http://www.w3.org/1999/xlink" x="0px" y="0px"
	 viewBox="0 0 1260 560" style="enable-background:new 0 0 1260 560;" xml:space="preserve">
<style type="text/css">
	.st0{enable-background:new    ;}
	.st1{fill:none;stroke:#313333;stroke-miterlimit:10;}
	.st2{fill:#3CAE3F;}
	.st3{fill:#ED4C4C;}
	.st4{fill:#F8DA86;}
	.st5{fill:#F1B571;}
	.st6{fill:none;stroke:#1F2121;stroke-width:3;stroke-miterlimit:10;}
	.st7{fill:none;stroke:#FFFFFF;stroke-width:6;stroke-miterlimit:10;}
</style>
<g id="a">
	<g>
		<g class="st0">
			<path d="M1050.3,83.7c-1.8,0-3.5-0.3-5.1-1c-1.6-0.7-3.1-1.6-4.3-2.8l2.7-3.2c0.9,0.9,2,1.6,3.2,2.1c1.2,0.5,2.4,0.8,3.6,0.8
				c1.5,0,2.6-0.3,3.4-0.9c0.8-0.6,1.2-1.4,1.2-2.4c0-0.5-0.1-1-0.3-1.4c-0.2-0.4-0.5-0.7-0.8-1c-0.4-0.3-0.8-0.5-1.3-0.8
				c-0.5-0.2-1-0.5-1.6-0.7l-3.6-1.6c-0.6-0.3-1.3-0.6-1.9-1c-0.6-0.4-1.2-0.9-1.7-1.4c-0.5-0.6-0.9-1.2-1.2-2
				c-0.3-0.7-0.5-1.6-0.5-2.6c0-1,0.2-2,0.7-2.9s1-1.7,1.8-2.3c0.8-0.7,1.7-1.2,2.8-1.6c1.1-0.4,2.3-0.6,3.5-0.6
				c1.5,0,3,0.3,4.4,0.9c1.4,0.6,2.6,1.4,3.6,2.4l-2.4,3c-0.9-0.7-1.7-1.2-2.6-1.6c-0.9-0.4-1.9-0.6-3-0.6c-1.3,0-2.3,0.3-3,0.8
				c-0.7,0.5-1.1,1.3-1.1,2.3c0,0.5,0.1,0.9,0.3,1.3c0.2,0.4,0.5,0.7,0.9,1c0.4,0.3,0.8,0.5,1.3,0.8c0.5,0.2,1,0.4,1.6,0.7l3.6,1.5
				c0.8,0.3,1.5,0.7,2.1,1.1c0.6,0.4,1.2,0.9,1.7,1.5c0.5,0.6,0.8,1.2,1.1,1.9c0.3,0.7,0.4,1.6,0.4,2.5c0,1.1-0.2,2.1-0.6,3
				c-0.4,0.9-1,1.8-1.9,2.5c-0.8,0.7-1.8,1.3-3,1.7C1053.1,83.5,1051.8,83.7,1050.3,83.7z"/>
		</g>
		<g class="st0">
			<path d="M1065.9,60.1c-0.8,0-1.5-0.2-2-0.7c-0.5-0.5-0.8-1.1-0.8-1.9s0.3-1.4,0.8-1.9c0.5-0.5,1.2-0.7,2-0.7c0.8,0,1.5,0.2,2,0.7
				c0.5,0.5,0.8,1.1,0.8,1.9s-0.3,1.4-0.8,1.9C1067.4,59.9,1066.7,60.1,1065.9,60.1z M1063.5,83.2V63.6h4.6v19.6H1063.5z"/>
		</g>
		<g class="st0">
			<path d="M1080.4,83.7c-2.5,0-4.4-0.9-5.9-2.7c-1.5-1.8-2.2-4.3-2.2-7.6c0-1.6,0.2-3,0.7-4.3c0.5-1.3,1.1-2.4,1.9-3.2
				s1.7-1.6,2.7-2c1-0.5,2-0.7,3.1-0.7c1.1,0,2.1,0.2,2.8,0.6c0.8,0.4,1.5,0.9,2.3,1.6l-0.2-3.2V55h4.6v28.2h-3.8l-0.3-2.1h-0.2
				c-0.7,0.7-1.6,1.3-2.5,1.8C1082.4,83.4,1081.4,83.7,1080.4,83.7z M1081.5,79.9c1.5,0,2.8-0.7,4.1-2.2v-9.2c-0.7-0.6-1.4-1-2-1.3
				c-0.7-0.2-1.3-0.4-2-0.4c-1.3,0-2.4,0.6-3.2,1.7c-0.9,1.1-1.3,2.7-1.3,4.8c0,2.1,0.4,3.8,1.1,4.9
				C1078.9,79.3,1080,79.9,1081.5,79.9z"/>
		</g>
		<g class="st0">
			<path d="M1104,83.7c-1.4,0-2.6-0.2-3.8-0.7c-1.2-0.5-2.2-1.1-3.1-2c-0.9-0.9-1.6-2-2.1-3.2s-0.7-2.7-0.7-4.3c0-1.6,0.3-3,0.8-4.3
				c0.5-1.3,1.2-2.4,2-3.2s1.8-1.6,2.9-2c1.1-0.5,2.2-0.7,3.4-0.7c1.3,0,2.5,0.2,3.5,0.7c1,0.5,1.9,1.1,2.5,1.9
				c0.7,0.8,1.2,1.8,1.5,3c0.3,1.1,0.5,2.4,0.5,3.8c0,0.5,0,0.9-0.1,1.3c0,0.4-0.1,0.7-0.1,1h-12.5c0.2,1.8,0.8,3.1,1.9,4.1
				c1,0.9,2.3,1.4,3.9,1.4c0.9,0,1.6-0.1,2.4-0.4c0.7-0.3,1.5-0.6,2.2-1.1l1.6,2.9c-0.9,0.6-2,1.1-3.1,1.5
				C1106.4,83.5,1105.2,83.7,1104,83.7z M1098.7,71.5h8.7c0-1.5-0.3-2.7-1-3.6c-0.7-0.9-1.7-1.3-3-1.3c-1.2,0-2.2,0.4-3.1,1.2
				C1099.5,68.7,1099,69.9,1098.7,71.5z"/>
		</g>
		<g class="st0">
			<path d="M1128.9,83.2l-8.2-26.2h4.9l3.7,13.2c0.4,1.5,0.8,2.9,1.1,4.2c0.3,1.3,0.7,2.8,1.2,4.3h0.2c0.5-1.5,0.8-2.9,1.2-4.3
				c0.3-1.3,0.7-2.7,1.1-4.2l3.6-13.2h4.8l-8.1,26.2H1128.9z"/>
		</g>
		<g class="st0">
			<path d="M1148,60.1c-0.8,0-1.5-0.2-2-0.7c-0.5-0.5-0.8-1.1-0.8-1.9s0.3-1.4,0.8-1.9c0.5-0.5,1.2-0.7,2-0.7c0.8,0,1.5,0.2,2,0.7
				c0.5,0.5,0.8,1.1,0.8,1.9s-0.3,1.4-0.8,1.9C1149.5,59.9,1148.8,60.1,1148,60.1z M1145.6,83.2V63.6h4.6v19.6H1145.6z"/>
		</g>
		<g class="st0">
			<path d="M1163.9,83.7c-1.4,0-2.6-0.2-3.8-0.7c-1.2-0.5-2.2-1.1-3.1-2s-1.6-2-2.1-3.2c-0.5-1.3-0.7-2.7-0.7-4.3
				c0-1.6,0.3-3,0.8-4.3c0.5-1.3,1.2-2.4,2-3.2s1.8-1.6,2.9-2c1.1-0.5,2.2-0.7,3.4-0.7c1.3,0,2.5,0.2,3.5,0.7c1,0.5,1.9,1.1,2.5,1.9
				c0.7,0.8,1.2,1.8,1.5,3s0.5,2.4,0.5,3.8c0,0.5,0,0.9-0.1,1.3c0,0.4-0.1,0.7-0.1,1h-12.5c0.2,1.8,0.8,3.1,1.9,4.1
				c1,0.9,2.3,1.4,3.9,1.4c0.9,0,1.6-0.1,2.4-0.4c0.7-0.3,1.5-0.6,2.2-1.1l1.6,2.9c-0.9,0.6-2,1.1-3.1,1.5
				C1166.4,83.5,1165.2,83.7,1163.9,83.7z M1158.7,71.5h8.7c0-1.5-0.3-2.7-1-3.6c-0.7-0.9-1.7-1.3-3-1.3c-1.2,0-2.2,0.4-3.1,1.2
				C1159.4,68.7,1158.9,69.9,1158.7,71.5z"/>
		</g>
		<g class="st0">
			<path d="M1178.4,83.2l-5.2-19.6h4.6l2.4,10.2c0.2,0.9,0.4,1.9,0.5,2.8s0.3,1.9,0.5,2.8h0.2c0.2-1,0.4-1.9,0.6-2.8
				c0.2-0.9,0.4-1.9,0.7-2.8l2.6-10.2h4.2l2.6,10.2c0.2,0.9,0.5,1.9,0.7,2.8c0.2,0.9,0.4,1.9,0.6,2.8h0.2c0.2-1,0.4-1.9,0.5-2.8
				s0.3-1.9,0.5-2.8l2.4-10.2h4.3l-5,19.6h-5.5l-2.3-9.2c-0.2-0.9-0.4-1.9-0.6-2.8c-0.2-0.9-0.4-1.9-0.6-2.9h-0.2
				c-0.2,1-0.4,2-0.6,3c-0.2,0.9-0.4,1.9-0.6,2.8l-2.2,9.1H1178.4z"/>
		</g>
		<g class="st0">
			<path d="M425,307.3c-0.7,0-1.2-0.1-1.7-0.4c-0.4-0.3-0.8-0.6-1.1-1.2l1.3-1c0.2,0.3,0.3,0.5,0.6,0.6c0.2,0.1,0.4,0.2,0.6,0.2
				c0.4,0,0.6-0.1,0.8-0.3s0.3-0.6,0.3-1.2v-5.6h1.9v5.8c0,0.4-0.1,0.8-0.2,1.2c-0.1,0.4-0.3,0.7-0.5,1c-0.2,0.3-0.5,0.5-0.9,0.7
				C425.9,307.2,425.5,307.3,425,307.3z"/>
			<path d="M431.6,307.3c-0.7,0-1.2-0.2-1.6-0.7c-0.3-0.5-0.5-1.1-0.5-1.9v-4.1h1.9v3.8c0,0.5,0.1,0.8,0.2,1
				c0.1,0.2,0.3,0.3,0.6,0.3c0.2,0,0.5-0.1,0.6-0.2c0.2-0.1,0.3-0.3,0.5-0.6v-4.3h1.9v6.6h-1.6l-0.1-0.9h0c-0.3,0.3-0.6,0.6-0.9,0.8
				C432.4,307.2,432,307.3,431.6,307.3z"/>
			<path d="M437.1,309.6v-9h1.6l0.1,0.7h0.1c0.3-0.2,0.5-0.4,0.9-0.6s0.7-0.2,1-0.2c0.4,0,0.8,0.1,1.1,0.2s0.6,0.4,0.8,0.7
				c0.2,0.3,0.4,0.6,0.5,1.1s0.2,0.9,0.2,1.4c0,0.6-0.1,1.1-0.2,1.5s-0.4,0.8-0.6,1.1c-0.3,0.3-0.6,0.5-0.9,0.7
				c-0.3,0.2-0.7,0.2-1,0.2c-0.3,0-0.6-0.1-0.8-0.2c-0.3-0.1-0.5-0.3-0.7-0.5l0.1,1v1.9H437.1z M440.1,305.7c0.3,0,0.6-0.2,0.9-0.5
				s0.4-0.8,0.4-1.5c0-1.2-0.4-1.8-1.1-1.8c-0.4,0-0.8,0.2-1.1,0.6v2.7c0.2,0.2,0.4,0.3,0.5,0.3C439.8,305.7,440,305.7,440.1,305.7z
				"/>
			<path d="M445.7,299.6c-0.3,0-0.6-0.1-0.8-0.3c-0.2-0.2-0.3-0.4-0.3-0.7c0-0.3,0.1-0.5,0.3-0.7c0.2-0.2,0.5-0.3,0.8-0.3
				c0.3,0,0.6,0.1,0.8,0.3c0.2,0.2,0.3,0.4,0.3,0.7c0,0.3-0.1,0.5-0.3,0.7C446.3,299.5,446,299.6,445.7,299.6z M444.7,307.1v-6.6
				h1.9v6.6H444.7z"/>
		</g>
		<g class="st0">
			<path d="M450.9,307.3c-0.4,0-0.8-0.1-1-0.2s-0.5-0.3-0.7-0.5c-0.2-0.2-0.3-0.5-0.4-0.8s-0.1-0.7-0.1-1v-2.7h-0.9v-1.4l1-0.1
				l0.2-1.8h1.6v1.8h1.6v1.5h-1.6v2.6c0,0.4,0.1,0.6,0.2,0.8c0.2,0.2,0.4,0.2,0.6,0.2c0.1,0,0.2,0,0.3,0c0.1,0,0.2-0.1,0.3-0.1
				l0.3,1.4c-0.2,0.1-0.4,0.1-0.6,0.2C451.5,307.3,451.3,307.3,450.9,307.3z"/>
		</g>
		<g class="st0">
			<path d="M456.2,307.3c-0.5,0-0.9-0.1-1.3-0.2c-0.4-0.2-0.8-0.4-1.1-0.7c-0.3-0.3-0.5-0.7-0.7-1.1c-0.2-0.4-0.3-0.9-0.3-1.5
				c0-0.5,0.1-1,0.3-1.4c0.2-0.4,0.4-0.8,0.7-1.1c0.3-0.3,0.6-0.5,1-0.7c0.4-0.2,0.8-0.2,1.2-0.2c0.5,0,0.9,0.1,1.2,0.2
				s0.6,0.4,0.9,0.7c0.2,0.3,0.4,0.6,0.5,1s0.2,0.8,0.2,1.3c0,0.2,0,0.3,0,0.5c0,0.2,0,0.3-0.1,0.4h-3.9c0.1,0.5,0.3,0.8,0.6,1.1
				c0.3,0.2,0.7,0.3,1.1,0.3c0.5,0,0.9-0.1,1.4-0.4l0.6,1.2c-0.3,0.2-0.7,0.4-1.1,0.5S456.6,307.3,456.2,307.3z M454.7,303.1h2.4
				c0-0.4-0.1-0.7-0.3-0.9c-0.2-0.2-0.5-0.3-0.8-0.3c-0.3,0-0.6,0.1-0.8,0.3C454.9,302.4,454.8,302.7,454.7,303.1z"/>
			<path d="M460.1,307.1v-6.6h1.6l0.1,1.2h0.1c0.2-0.5,0.5-0.8,0.9-1s0.7-0.3,1-0.3c0.2,0,0.3,0,0.5,0c0.1,0,0.2,0.1,0.3,0.1
				l-0.3,1.7c-0.1,0-0.2-0.1-0.3-0.1c-0.1,0-0.2,0-0.4,0c-0.2,0-0.5,0.1-0.8,0.3c-0.3,0.2-0.5,0.5-0.7,0.9v3.8H460.1z"/>
		</g>
		<g class="st0">
			<path d="M336.4,307.1v-8.6h2.1l1.4,3.8c0.1,0.3,0.2,0.5,0.3,0.8s0.2,0.5,0.3,0.8h0.1c0.1-0.3,0.2-0.5,0.2-0.8
				c0.1-0.3,0.2-0.5,0.2-0.8l1.4-3.8h2.1v8.6h-1.8V304c0-0.2,0-0.4,0-0.7c0-0.3,0-0.5,0.1-0.8c0-0.3,0.1-0.5,0.1-0.8
				c0-0.3,0.1-0.5,0.1-0.7h-0.1l-0.7,2.1l-1.2,3.3h-1.1l-1.2-3.3l-0.7-2.1h-0.1c0,0.2,0.1,0.4,0.1,0.7c0,0.3,0.1,0.5,0.1,0.8
				c0,0.3,0,0.5,0.1,0.8c0,0.3,0,0.5,0,0.7v3.2H336.4z"/>
			<path d="M348,307.3c-0.3,0-0.6-0.1-0.8-0.2c-0.2-0.1-0.4-0.2-0.6-0.4c-0.2-0.2-0.3-0.4-0.4-0.6c-0.1-0.2-0.1-0.5-0.1-0.8
				c0-0.7,0.3-1.2,0.9-1.6c0.6-0.4,1.5-0.7,2.8-0.8c0-0.3-0.1-0.5-0.3-0.7c-0.2-0.2-0.4-0.3-0.8-0.3c-0.3,0-0.6,0.1-0.8,0.2
				c-0.3,0.1-0.6,0.3-0.9,0.4l-0.7-1.3c0.4-0.3,0.9-0.5,1.3-0.6c0.5-0.2,1-0.2,1.5-0.2c0.8,0,1.5,0.2,1.9,0.7
				c0.4,0.5,0.7,1.2,0.7,2.2v3.8h-1.6l-0.1-0.7h-0.1c-0.3,0.2-0.6,0.4-0.9,0.6C348.7,307.2,348.3,307.3,348,307.3z M348.6,305.8
				c0.2,0,0.4,0,0.6-0.1c0.2-0.1,0.3-0.2,0.5-0.4v-1.2c-0.7,0.1-1.2,0.2-1.4,0.4s-0.4,0.4-0.4,0.7c0,0.2,0.1,0.4,0.2,0.5
				C348.2,305.7,348.4,305.8,348.6,305.8z"/>
		</g>
		<g class="st0">
			<path d="M353.3,307.1v-6.6h1.6l0.1,1.2h0.1c0.2-0.5,0.5-0.8,0.9-1s0.7-0.3,1-0.3c0.2,0,0.3,0,0.5,0c0.1,0,0.2,0.1,0.3,0.1
				l-0.3,1.7c-0.1,0-0.2-0.1-0.3-0.1c-0.1,0-0.2,0-0.4,0c-0.2,0-0.5,0.1-0.8,0.3c-0.3,0.2-0.5,0.5-0.7,0.9v3.8H353.3z"/>
		</g>
		<g class="st0">
			<path d="M360.4,307.3c-0.4,0-0.9-0.1-1.3-0.3c-0.5-0.2-0.9-0.4-1.2-0.7l0.9-1.2c0.3,0.2,0.6,0.4,0.9,0.5c0.3,0.1,0.6,0.2,0.8,0.2
				c0.3,0,0.5,0,0.6-0.1c0.1-0.1,0.2-0.2,0.2-0.4c0-0.1,0-0.2-0.1-0.3c-0.1-0.1-0.2-0.2-0.3-0.2c-0.1-0.1-0.3-0.1-0.4-0.2
				c-0.2-0.1-0.3-0.1-0.5-0.2c-0.2-0.1-0.4-0.2-0.6-0.3c-0.2-0.1-0.4-0.2-0.6-0.4c-0.2-0.2-0.3-0.3-0.4-0.5s-0.2-0.4-0.2-0.7
				c0-0.3,0.1-0.6,0.2-0.8c0.1-0.3,0.3-0.5,0.5-0.6c0.2-0.2,0.5-0.3,0.8-0.4c0.3-0.1,0.7-0.2,1-0.2c0.5,0,0.9,0.1,1.3,0.3
				c0.4,0.2,0.7,0.4,1,0.6l-0.9,1.2c-0.2-0.2-0.5-0.3-0.7-0.4c-0.2-0.1-0.5-0.1-0.7-0.1c-0.5,0-0.7,0.2-0.7,0.5c0,0.1,0,0.2,0.1,0.3
				s0.2,0.1,0.3,0.2c0.1,0.1,0.3,0.1,0.4,0.2c0.2,0.1,0.3,0.1,0.5,0.2c0.2,0.1,0.4,0.2,0.6,0.3c0.2,0.1,0.4,0.2,0.6,0.4
				s0.3,0.3,0.4,0.5s0.2,0.5,0.2,0.8c0,0.3-0.1,0.6-0.2,0.8c-0.1,0.3-0.3,0.5-0.5,0.7c-0.2,0.2-0.5,0.3-0.8,0.5
				S360.8,307.3,360.4,307.3z"/>
		</g>
		<ellipse class="st1" cx="353.5" cy="311.6" rx="189.8" ry="185.6"/>
		<ellipse class="st1" cx="338.2" cy="282" rx="238" ry="203.1"/>
		<ellipse class="st1" cx="328" cy="270.2" rx="144.3" ry="201"/>
		<ellipse class="st1" cx="287.5" cy="283.3" rx="213.3" ry="147.2"/>
		<ellipse class="st1" cx="315.9" cy="267.1" rx="248.1" ry="111.7"/>
		<ellipse class="st1" cx="382.8" cy="250.8" rx="211.5" ry="179.7"/>
		<circle class="st2" cx="1154.7" cy="300.6" r="5.3"/>
		<g class="st0">
			<path d="M1128.1,340.6V332h2l2.3,4.3l0.8,1.9h0.1c0-0.5-0.1-1-0.2-1.5c-0.1-0.6-0.1-1.1-0.1-1.6v-3h1.9v8.6h-2l-2.3-4.3l-0.8-1.9
				h-0.1c0,0.5,0.1,1,0.2,1.5s0.1,1.1,0.1,1.6v3.1H1128.1z"/>
			<path d="M1139.7,340.8c-0.5,0-0.9-0.1-1.3-0.2c-0.4-0.2-0.8-0.4-1.1-0.7s-0.5-0.7-0.7-1.1c-0.2-0.4-0.3-0.9-0.3-1.5
				c0-0.5,0.1-1,0.3-1.4c0.2-0.4,0.4-0.8,0.7-1.1s0.6-0.5,1-0.7c0.4-0.2,0.8-0.2,1.2-0.2c0.5,0,0.9,0.1,1.2,0.2
				c0.3,0.2,0.6,0.4,0.9,0.7c0.2,0.3,0.4,0.6,0.5,1c0.1,0.4,0.2,0.8,0.2,1.3c0,0.2,0,0.3,0,0.5c0,0.2,0,0.3-0.1,0.4h-3.9
				c0.1,0.5,0.3,0.8,0.6,1.1s0.7,0.3,1.1,0.3c0.5,0,0.9-0.1,1.4-0.4l0.6,1.2c-0.3,0.2-0.7,0.4-1.1,0.5S1140.1,340.8,1139.7,340.8z
				 M1138.2,336.6h2.4c0-0.4-0.1-0.7-0.3-0.9c-0.2-0.2-0.5-0.3-0.8-0.3c-0.3,0-0.6,0.1-0.8,0.3
				C1138.4,335.9,1138.3,336.2,1138.2,336.6z"/>
		</g>
		<g class="st0">
			<path d="M1143.6,343v-9h1.6l0.1,0.7h0.1c0.3-0.2,0.5-0.4,0.9-0.6s0.7-0.2,1-0.2c0.4,0,0.8,0.1,1.1,0.2s0.6,0.4,0.8,0.7
				s0.4,0.6,0.5,1.1s0.2,0.9,0.2,1.4c0,0.6-0.1,1.1-0.2,1.5c-0.2,0.4-0.4,0.8-0.6,1.1c-0.3,0.3-0.6,0.5-0.9,0.7
				c-0.3,0.2-0.7,0.2-1,0.2c-0.3,0-0.6-0.1-0.8-0.2c-0.3-0.1-0.5-0.3-0.7-0.5l0.1,1v1.9H1143.6z M1146.6,339.2
				c0.3,0,0.6-0.2,0.9-0.5c0.2-0.3,0.4-0.8,0.4-1.5c0-1.2-0.4-1.8-1.1-1.8c-0.4,0-0.8,0.2-1.1,0.6v2.7c0.2,0.2,0.4,0.3,0.5,0.3
				C1146.2,339.1,1146.4,339.2,1146.6,339.2z"/>
		</g>
		<g class="st0">
			<path d="M1153.4,340.8c-0.4,0-0.8-0.1-1-0.2s-0.5-0.3-0.7-0.5c-0.2-0.2-0.3-0.5-0.4-0.8s-0.1-0.7-0.1-1v-2.7h-0.9v-1.4l1-0.1
				l0.2-1.8h1.6v1.8h1.6v1.5h-1.6v2.6c0,0.4,0.1,0.6,0.2,0.8c0.2,0.2,0.4,0.2,0.6,0.2c0.1,0,0.2,0,0.3,0c0.1,0,0.2-0.1,0.3-0.1
				l0.3,1.4c-0.2,0.1-0.4,0.1-0.6,0.2C1154,340.7,1153.7,340.8,1153.4,340.8z"/>
			<path d="M1157.9,340.8c-0.7,0-1.2-0.2-1.6-0.7c-0.3-0.5-0.5-1.1-0.5-1.9V334h1.9v3.8c0,0.5,0.1,0.8,0.2,1
				c0.1,0.2,0.3,0.3,0.6,0.3c0.2,0,0.5-0.1,0.6-0.2c0.2-0.1,0.3-0.3,0.5-0.6V334h1.9v6.6h-1.6l-0.1-0.9h0c-0.3,0.3-0.6,0.6-0.9,0.8
				S1158.4,340.8,1157.9,340.8z"/>
			<path d="M1163.5,340.6V334h1.6l0.1,0.8h0.1c0.3-0.3,0.6-0.5,0.9-0.7c0.3-0.2,0.7-0.3,1.2-0.3c0.7,0,1.2,0.2,1.6,0.7
				c0.3,0.5,0.5,1.1,0.5,1.9v4.1h-1.9v-3.8c0-0.5-0.1-0.8-0.2-1c-0.1-0.2-0.3-0.3-0.6-0.3c-0.2,0-0.5,0.1-0.6,0.2
				c-0.2,0.1-0.4,0.3-0.6,0.5v4.4H1163.5z"/>
			<path d="M1174,340.8c-0.5,0-0.9-0.1-1.3-0.2c-0.4-0.2-0.8-0.4-1.1-0.7c-0.3-0.3-0.5-0.7-0.7-1.1c-0.2-0.4-0.3-0.9-0.3-1.5
				c0-0.5,0.1-1,0.3-1.4c0.2-0.4,0.4-0.8,0.7-1.1c0.3-0.3,0.6-0.5,1-0.7s0.8-0.2,1.2-0.2c0.5,0,0.9,0.1,1.2,0.2
				c0.3,0.2,0.6,0.4,0.9,0.7c0.2,0.3,0.4,0.6,0.5,1c0.1,0.4,0.2,0.8,0.2,1.3c0,0.2,0,0.3,0,0.5s0,0.3-0.1,0.4h-3.9
				c0.1,0.5,0.3,0.8,0.6,1.1c0.3,0.2,0.7,0.3,1.1,0.3c0.5,0,0.9-0.1,1.4-0.4l0.6,1.2c-0.3,0.2-0.7,0.4-1.1,0.5
				S1174.4,340.8,1174,340.8z M1172.5,336.6h2.4c0-0.4-0.1-0.7-0.3-0.9c-0.2-0.2-0.5-0.3-0.8-0.3c-0.3,0-0.6,0.1-0.8,0.3
				C1172.8,335.9,1172.6,336.2,1172.5,336.6z"/>
		</g>
		<g class="st0">
			<path d="M1010.1,342.9c-0.7,0-1.2-0.1-1.7-0.4c-0.4-0.3-0.8-0.6-1.1-1.2l1.3-1c0.2,0.3,0.3,0.5,0.6,0.6c0.2,0.1,0.4,0.2,0.6,0.2
				c0.4,0,0.6-0.1,0.8-0.3c0.2-0.2,0.3-0.6,0.3-1.2v-5.6h1.9v5.8c0,0.4-0.1,0.8-0.2,1.2c-0.1,0.4-0.3,0.7-0.5,1
				c-0.2,0.3-0.5,0.5-0.9,0.7C1011,342.8,1010.6,342.9,1010.1,342.9z"/>
			<path d="M1016.7,342.9c-0.7,0-1.2-0.2-1.6-0.7c-0.3-0.5-0.5-1.1-0.5-1.9v-4.1h1.9v3.8c0,0.5,0.1,0.8,0.2,1
				c0.1,0.2,0.3,0.3,0.6,0.3c0.2,0,0.5-0.1,0.6-0.2c0.2-0.1,0.3-0.3,0.5-0.6v-4.3h1.9v6.6h-1.6l-0.1-0.9h0c-0.3,0.3-0.6,0.6-0.9,0.8
				S1017.2,342.9,1016.7,342.9z"/>
			<path d="M1022.3,345.1v-9h1.6l0.1,0.7h0.1c0.3-0.2,0.5-0.4,0.9-0.6c0.3-0.2,0.7-0.2,1-0.2c0.4,0,0.8,0.1,1.1,0.2s0.6,0.4,0.8,0.7
				s0.4,0.6,0.5,1.1s0.2,0.9,0.2,1.4c0,0.6-0.1,1.1-0.2,1.5s-0.4,0.8-0.6,1.1c-0.3,0.3-0.6,0.5-0.9,0.7c-0.3,0.2-0.7,0.2-1,0.2
				c-0.3,0-0.6-0.1-0.8-0.2c-0.3-0.1-0.5-0.3-0.7-0.5l0.1,1v1.9H1022.3z M1025.3,341.3c0.3,0,0.6-0.2,0.9-0.5s0.4-0.8,0.4-1.5
				c0-1.2-0.4-1.8-1.1-1.8c-0.4,0-0.8,0.2-1.1,0.6v2.7c0.2,0.2,0.4,0.3,0.5,0.3C1024.9,341.2,1025.1,341.3,1025.3,341.3z"/>
			<path d="M1030.8,335.2c-0.3,0-0.6-0.1-0.8-0.3s-0.3-0.4-0.3-0.7c0-0.3,0.1-0.5,0.3-0.7s0.5-0.3,0.8-0.3c0.3,0,0.6,0.1,0.8,0.3
				c0.2,0.2,0.3,0.4,0.3,0.7c0,0.3-0.1,0.5-0.3,0.7C1031.5,335.1,1031.2,335.2,1030.8,335.2z M1029.9,342.7v-6.6h1.9v6.6H1029.9z"/>
		</g>
		<g class="st0">
			<path d="M1036.1,342.9c-0.4,0-0.8-0.1-1-0.2s-0.5-0.3-0.7-0.5c-0.2-0.2-0.3-0.5-0.4-0.8s-0.1-0.7-0.1-1v-2.7h-0.9v-1.4l1-0.1
				l0.2-1.8h1.6v1.8h1.6v1.5h-1.6v2.6c0,0.4,0.1,0.6,0.2,0.8c0.2,0.2,0.4,0.2,0.6,0.2c0.1,0,0.2,0,0.3,0c0.1,0,0.2-0.1,0.3-0.1
				l0.3,1.4c-0.2,0.1-0.4,0.1-0.6,0.2C1036.7,342.8,1036.4,342.9,1036.1,342.9z"/>
		</g>
		<g class="st0">
			<path d="M1041.3,342.9c-0.5,0-0.9-0.1-1.3-0.2c-0.4-0.2-0.8-0.4-1.1-0.7c-0.3-0.3-0.5-0.7-0.7-1.1c-0.2-0.4-0.3-0.9-0.3-1.5
				c0-0.5,0.1-1,0.3-1.4c0.2-0.4,0.4-0.8,0.7-1.1c0.3-0.3,0.6-0.5,1-0.7s0.8-0.2,1.2-0.2c0.5,0,0.9,0.1,1.2,0.2
				c0.3,0.2,0.6,0.4,0.9,0.7c0.2,0.3,0.4,0.6,0.5,1c0.1,0.4,0.2,0.8,0.2,1.3c0,0.2,0,0.3,0,0.5s0,0.3-0.1,0.4h-3.9
				c0.1,0.5,0.3,0.8,0.6,1.1c0.3,0.2,0.7,0.3,1.1,0.3c0.5,0,0.9-0.1,1.4-0.4l0.6,1.2c-0.3,0.2-0.7,0.4-1.1,0.5
				S1041.7,342.9,1041.3,342.9z M1039.9,338.7h2.4c0-0.4-0.1-0.7-0.3-0.9c-0.2-0.2-0.5-0.3-0.8-0.3c-0.3,0-0.6,0.1-0.8,0.3
				C1040.1,338,1039.9,338.3,1039.9,338.7z"/>
			<path d="M1045.2,342.7v-6.6h1.6l0.1,1.2h0.1c0.2-0.5,0.5-0.8,0.9-1s0.7-0.3,1-0.3c0.2,0,0.3,0,0.5,0c0.1,0,0.2,0.1,0.3,0.1
				l-0.3,1.7c-0.1,0-0.2-0.1-0.3-0.1c-0.1,0-0.2,0-0.4,0c-0.2,0-0.5,0.1-0.8,0.3c-0.3,0.2-0.5,0.5-0.7,0.9v3.8H1045.2z"/>
		</g>
		<circle class="st3" cx="918" cy="304.6" r="3.8"/>
		<g class="st0">
			<path d="M926.8,300.8v-8.6h2.1l1.4,3.8c0.1,0.3,0.2,0.5,0.3,0.8c0.1,0.3,0.2,0.5,0.3,0.8h0.1c0.1-0.3,0.2-0.5,0.2-0.8
				s0.2-0.5,0.2-0.8l1.4-3.8h2.1v8.6h-1.8v-3.2c0-0.2,0-0.4,0-0.7c0-0.3,0-0.5,0.1-0.8s0.1-0.5,0.1-0.8c0-0.3,0.1-0.5,0.1-0.7h-0.1
				l-0.7,2.1l-1.2,3.3h-1.1l-1.2-3.3l-0.7-2.1h-0.1c0,0.2,0.1,0.4,0.1,0.7c0,0.3,0.1,0.5,0.1,0.8s0,0.5,0.1,0.8c0,0.3,0,0.5,0,0.7
				v3.2H926.8z"/>
			<path d="M938.4,301c-0.3,0-0.6-0.1-0.8-0.2c-0.2-0.1-0.4-0.2-0.6-0.4c-0.2-0.2-0.3-0.4-0.4-0.6c-0.1-0.2-0.1-0.5-0.1-0.8
				c0-0.7,0.3-1.2,0.9-1.6c0.6-0.4,1.5-0.7,2.8-0.8c0-0.3-0.1-0.5-0.3-0.7c-0.2-0.2-0.4-0.3-0.8-0.3c-0.3,0-0.6,0.1-0.8,0.2
				c-0.3,0.1-0.6,0.3-0.9,0.4l-0.7-1.3c0.4-0.3,0.9-0.5,1.3-0.6c0.5-0.2,1-0.2,1.5-0.2c0.8,0,1.5,0.2,1.9,0.7
				c0.4,0.5,0.7,1.2,0.7,2.2v3.8h-1.6l-0.1-0.7h-0.1c-0.3,0.2-0.6,0.4-0.9,0.6C939.1,300.9,938.8,301,938.4,301z M939.1,299.5
				c0.2,0,0.4,0,0.6-0.1c0.2-0.1,0.3-0.2,0.5-0.4v-1.2c-0.7,0.1-1.2,0.2-1.4,0.4c-0.3,0.2-0.4,0.4-0.4,0.7c0,0.2,0.1,0.4,0.2,0.5
				S938.9,299.5,939.1,299.5z"/>
		</g>
		<g class="st0">
			<path d="M943.8,300.8v-6.6h1.6l0.1,1.2h0.1c0.2-0.5,0.5-0.8,0.9-1s0.7-0.3,1-0.3c0.2,0,0.3,0,0.5,0c0.1,0,0.2,0.1,0.3,0.1
				l-0.3,1.7c-0.1,0-0.2-0.1-0.3-0.1c-0.1,0-0.2,0-0.4,0c-0.2,0-0.5,0.1-0.8,0.3c-0.3,0.2-0.5,0.5-0.7,0.9v3.8H943.8z"/>
		</g>
		<g class="st0">
			<path d="M950.9,301c-0.4,0-0.9-0.1-1.3-0.3s-0.9-0.4-1.2-0.7l0.9-1.2c0.3,0.2,0.6,0.4,0.9,0.5c0.3,0.1,0.6,0.2,0.8,0.2
				c0.3,0,0.5,0,0.6-0.1c0.1-0.1,0.2-0.2,0.2-0.4c0-0.1,0-0.2-0.1-0.3s-0.2-0.2-0.3-0.2c-0.1-0.1-0.3-0.1-0.4-0.2s-0.3-0.1-0.5-0.2
				c-0.2-0.1-0.4-0.2-0.6-0.3c-0.2-0.1-0.4-0.2-0.6-0.4c-0.2-0.2-0.3-0.3-0.4-0.5s-0.2-0.4-0.2-0.7c0-0.3,0.1-0.6,0.2-0.8
				c0.1-0.3,0.3-0.5,0.5-0.6s0.5-0.3,0.8-0.4c0.3-0.1,0.7-0.2,1-0.2c0.5,0,0.9,0.1,1.3,0.3c0.4,0.2,0.7,0.4,1,0.6l-0.9,1.2
				c-0.2-0.2-0.5-0.3-0.7-0.4c-0.2-0.1-0.5-0.1-0.7-0.1c-0.5,0-0.7,0.2-0.7,0.5c0,0.1,0,0.2,0.1,0.3c0.1,0.1,0.2,0.1,0.3,0.2
				c0.1,0.1,0.3,0.1,0.4,0.2c0.2,0.1,0.3,0.1,0.5,0.2c0.2,0.1,0.4,0.2,0.6,0.3c0.2,0.1,0.4,0.2,0.6,0.4s0.3,0.3,0.4,0.5
				c0.1,0.2,0.2,0.5,0.2,0.8c0,0.3-0.1,0.6-0.2,0.8s-0.3,0.5-0.5,0.7c-0.2,0.2-0.5,0.3-0.8,0.5S951.3,301,950.9,301z"/>
		</g>
		<circle class="st4" cx="851.3" cy="304.6" r="13.6"/>
		<ellipse class="st1" cx="882.3" cy="294.2" rx="232.1" ry="12.5"/>
		<ellipse class="st1" cx="870.2" cy="299.6" rx="187.7" ry="23"/>
		<ellipse class="st1" cx="909.7" cy="297.7" rx="229.5" ry="23"/>
		<ellipse class="st1" cx="881.2" cy="300" rx="215.8" ry="18.9"/>
		
			<ellipse transform="matrix(0.796 -0.6053 0.6053 0.796 -11.3086 579.6876)" class="st1" cx="854.4" cy="306.6" rx="229.3" ry="29"/>
		
			<ellipse transform="matrix(0.7071 -0.7071 0.7071 0.7071 36.3551 688.1842)" class="st1" cx="848.9" cy="300.2" rx="57.7" ry="184.5"/>
		
			<ellipse transform="matrix(0.3788 -0.9255 0.9255 0.3788 294.8551 989.947)" class="st1" cx="884.9" cy="275.3" rx="79.2" ry="178.1"/>
		
			<ellipse transform="matrix(0.9912 -0.1324 0.1324 0.9912 -31.6055 119.8217)" class="st1" cx="885" cy="297.5" rx="238.9" ry="19.3"/>
		
			<ellipse transform="matrix(0.1381 -0.9904 0.9904 0.1381 506.5241 1144.3242)" class="st1" cx="910.8" cy="281.1" rx="33.3" ry="207.9"/>
		<ellipse class="st1" cx="901.1" cy="294.4" rx="232.3" ry="14.1"/>
		
			<ellipse transform="matrix(0.3827 -0.9239 0.9239 0.3827 355.1906 1136.9799)" class="st5" cx="1028.4" cy="302.7" rx="5.7" ry="5.7"/>
		<g class="st0">
			<path d="M65.3,502.7c-1.2,0-2.3-0.2-3.3-0.7c-1-0.5-1.9-1.1-2.7-1.8l1.3-1.5c0.6,0.6,1.3,1.2,2.1,1.5c0.8,0.4,1.7,0.6,2.6,0.6
				c1.1,0,2-0.3,2.6-0.8c0.6-0.5,0.9-1.2,0.9-2c0-0.4-0.1-0.8-0.2-1.1c-0.1-0.3-0.3-0.6-0.6-0.8s-0.6-0.4-0.9-0.6
				c-0.3-0.2-0.7-0.4-1.1-0.5l-2.4-1.1c-0.4-0.2-0.8-0.4-1.2-0.6c-0.4-0.2-0.8-0.5-1.1-0.9c-0.3-0.3-0.6-0.8-0.8-1.2
				c-0.2-0.5-0.3-1-0.3-1.7c0-0.6,0.1-1.2,0.4-1.8c0.3-0.6,0.6-1,1.1-1.4s1-0.7,1.7-0.9c0.7-0.2,1.4-0.3,2.1-0.3c1,0,2,0.2,2.8,0.6
				c0.9,0.4,1.6,0.9,2.2,1.5l-1.2,1.4c-0.5-0.5-1.1-0.9-1.7-1.2s-1.3-0.4-2.1-0.4c-1,0-1.7,0.2-2.3,0.7c-0.6,0.4-0.9,1.1-0.9,1.8
				c0,0.4,0.1,0.8,0.2,1.1c0.2,0.3,0.4,0.5,0.7,0.8c0.3,0.2,0.6,0.4,0.9,0.6c0.3,0.2,0.7,0.3,1,0.5l2.4,1c0.5,0.2,0.9,0.4,1.4,0.7
				s0.8,0.6,1.1,0.9c0.3,0.4,0.6,0.8,0.7,1.2c0.2,0.5,0.3,1,0.3,1.7c0,0.7-0.1,1.3-0.4,1.9c-0.3,0.6-0.7,1.1-1.2,1.5
				c-0.5,0.4-1.1,0.8-1.8,1C67,502.6,66.2,502.7,65.3,502.7z"/>
		</g>
		<g class="st0">
			<path d="M77.7,502.7c-0.7,0-1.2-0.1-1.7-0.3c-0.5-0.2-0.8-0.5-1.1-0.9c-0.3-0.4-0.5-0.8-0.6-1.3c-0.1-0.5-0.2-1.1-0.2-1.7v-7
				h-1.9v-1.6l2-0.1l0.3-3.5h1.8v3.5h3.4v1.7h-3.4v7c0,0.8,0.1,1.4,0.4,1.8c0.3,0.4,0.8,0.6,1.5,0.6c0.2,0,0.5,0,0.7-0.1
				c0.3-0.1,0.5-0.1,0.7-0.2l0.4,1.6c-0.3,0.1-0.7,0.2-1.1,0.3C78.5,502.7,78.1,502.7,77.7,502.7z"/>
		</g>
		<g class="st0">
			<path d="M85.9,502.7c-1.4,0-2.3-0.4-3-1.2c-0.6-0.8-0.9-2.1-0.9-3.7v-8h2.2v7.7c0,1.2,0.2,2.1,0.6,2.6c0.4,0.5,1,0.8,1.8,0.8
				c0.7,0,1.2-0.2,1.7-0.5s1.1-0.9,1.7-1.6v-9h2.1v12.6h-1.8l-0.2-2h-0.1c-0.6,0.7-1.2,1.2-1.9,1.7
				C87.6,502.5,86.8,502.7,85.9,502.7z"/>
		</g>
		<g class="st0">
			<path d="M100.5,502.7c-1.6,0-2.9-0.6-3.8-1.7c-0.9-1.1-1.4-2.8-1.4-4.9c0-1,0.2-1.9,0.5-2.8s0.7-1.5,1.2-2.1
				c0.5-0.6,1.1-1,1.7-1.3c0.7-0.3,1.4-0.5,2.1-0.5s1.4,0.1,1.9,0.4c0.5,0.3,1.1,0.6,1.6,1.1l-0.1-2.2v-4.9h2.2v18.5h-1.8l-0.2-1.5
				h-0.1c-0.5,0.5-1.1,0.9-1.7,1.3C101.9,502.5,101.2,502.7,100.5,502.7z M100.9,500.9c0.6,0,1.1-0.1,1.7-0.4s1-0.7,1.6-1.3v-6.6
				c-0.5-0.5-1.1-0.8-1.5-1c-0.5-0.2-1-0.3-1.5-0.3c-0.5,0-1,0.1-1.4,0.4c-0.4,0.2-0.8,0.6-1.2,1c-0.3,0.4-0.6,0.9-0.8,1.5
				c-0.2,0.6-0.3,1.2-0.3,2c0,1.5,0.3,2.7,0.9,3.6S99.8,500.9,100.9,500.9z"/>
		</g>
		<g class="st0">
			<path d="M115.4,502.7c-0.8,0-1.6-0.2-2.4-0.5c-0.7-0.3-1.4-0.7-1.9-1.3c-0.5-0.6-1-1.3-1.3-2.1s-0.5-1.7-0.5-2.8s0.2-2,0.5-2.8
				s0.7-1.5,1.3-2.1c0.5-0.6,1.1-1,1.8-1.3c0.7-0.3,1.4-0.5,2.1-0.5c0.8,0,1.5,0.1,2.1,0.4c0.6,0.3,1.2,0.7,1.6,1.2
				c0.4,0.5,0.7,1.1,1,1.9c0.2,0.7,0.3,1.5,0.3,2.4c0,0.2,0,0.4,0,0.7c0,0.2,0,0.4-0.1,0.6h-8.5c0.1,1.4,0.5,2.4,1.3,3.2
				s1.7,1.2,3,1.2c0.6,0,1.2-0.1,1.7-0.3c0.5-0.2,1-0.4,1.5-0.7l0.8,1.4c-0.6,0.3-1.2,0.7-1.8,0.9
				C117.1,502.6,116.3,502.7,115.4,502.7z M111.5,495.1h6.8c0-1.3-0.3-2.3-0.8-2.9c-0.5-0.7-1.3-1-2.3-1c-0.5,0-0.9,0.1-1.3,0.3
				c-0.4,0.2-0.8,0.4-1.1,0.8c-0.3,0.3-0.6,0.8-0.8,1.2C111.7,493.9,111.5,494.5,111.5,495.1z"/>
		</g>
		<g class="st0">
			<path d="M123,502.4v-12.6h1.8l0.2,1.8h0.1c0.6-0.6,1.2-1.1,1.9-1.5s1.4-0.6,2.3-0.6c1.3,0,2.3,0.4,2.9,1.2
				c0.6,0.8,0.9,2.1,0.9,3.7v8H131v-7.7c0-1.2-0.2-2.1-0.6-2.6c-0.4-0.5-1-0.8-1.8-0.8c-0.7,0-1.2,0.2-1.7,0.5
				c-0.5,0.3-1.1,0.8-1.7,1.5v9.2H123z"/>
		</g>
		<g class="st0">
			<path d="M140.8,502.7c-0.7,0-1.2-0.1-1.7-0.3c-0.5-0.2-0.8-0.5-1.1-0.9c-0.3-0.4-0.5-0.8-0.6-1.3c-0.1-0.5-0.2-1.1-0.2-1.7v-7
				h-1.9v-1.6l2-0.1l0.3-3.5h1.8v3.5h3.4v1.7h-3.4v7c0,0.8,0.1,1.4,0.4,1.8c0.3,0.4,0.8,0.6,1.5,0.6c0.2,0,0.5,0,0.7-0.1
				c0.3-0.1,0.5-0.1,0.7-0.2l0.4,1.6c-0.3,0.1-0.7,0.2-1.1,0.3C141.7,502.7,141.2,502.7,140.8,502.7z"/>
		</g>
		<g class="st0">
			<path d="M154.6,502.4v-15.2h-5.1v-1.8h12.5v1.8h-5.1v15.2H154.6z"/>
		</g>
		<g class="st0">
			<path d="M167.8,502.7c-0.8,0-1.6-0.2-2.4-0.5c-0.7-0.3-1.4-0.7-1.9-1.3c-0.5-0.6-1-1.3-1.3-2.1s-0.5-1.7-0.5-2.8s0.2-2,0.5-2.8
				s0.7-1.5,1.3-2.1c0.5-0.6,1.1-1,1.8-1.3c0.7-0.3,1.4-0.5,2.1-0.5c0.8,0,1.5,0.1,2.1,0.4c0.6,0.3,1.2,0.7,1.6,1.2
				c0.4,0.5,0.7,1.1,1,1.9c0.2,0.7,0.3,1.5,0.3,2.4c0,0.2,0,0.4,0,0.7c0,0.2,0,0.4-0.1,0.6h-8.5c0.1,1.4,0.5,2.4,1.3,3.2
				s1.7,1.2,3,1.2c0.6,0,1.2-0.1,1.7-0.3c0.5-0.2,1-0.4,1.5-0.7l0.8,1.4c-0.6,0.3-1.2,0.7-1.8,0.9
				C169.4,502.6,168.6,502.7,167.8,502.7z M163.8,495.1h6.8c0-1.3-0.3-2.3-0.8-2.9c-0.5-0.7-1.3-1-2.3-1c-0.5,0-0.9,0.1-1.3,0.3
				c-0.4,0.2-0.8,0.4-1.1,0.8c-0.3,0.3-0.6,0.8-0.8,1.2C164,493.9,163.9,494.5,163.8,495.1z"/>
		</g>
		<g class="st0">
			<path d="M178.1,502.7c-1.1,0-1.9-0.3-2.6-0.9c-0.7-0.6-1.1-1.5-1.1-2.7c0-1.4,0.6-2.4,1.8-3.2c1.2-0.7,3.2-1.3,5.9-1.5
				c0-0.4,0-0.8-0.1-1.2s-0.2-0.7-0.4-1c-0.2-0.3-0.5-0.5-0.8-0.7c-0.3-0.2-0.8-0.3-1.3-0.3c-0.7,0-1.4,0.1-2.1,0.4
				s-1.2,0.6-1.7,0.9l-0.8-1.5c0.6-0.4,1.3-0.8,2.2-1.1c0.8-0.4,1.8-0.5,2.8-0.5c1.5,0,2.7,0.5,3.4,1.4c0.7,0.9,1,2.2,1,3.8v7.7
				h-1.8l-0.2-1.5h-0.1c-0.6,0.5-1.3,0.9-2,1.3C179.7,502.5,178.9,502.7,178.1,502.7z M178.7,501c0.6,0,1.2-0.1,1.7-0.4
				s1.1-0.7,1.7-1.3v-3.5c-1.1,0.1-1.9,0.3-2.7,0.5c-0.7,0.2-1.3,0.4-1.7,0.7c-0.4,0.3-0.8,0.6-1,0.9s-0.3,0.7-0.3,1.1
				c0,0.7,0.2,1.2,0.6,1.6C177.6,500.9,178.1,501,178.7,501z"/>
		</g>
		<g class="st0">
			<path d="M188,502.4v-12.6h1.8l0.2,1.8h0.1c0.6-0.6,1.2-1.1,1.8-1.5c0.7-0.4,1.4-0.6,2.1-0.6c1,0,1.7,0.2,2.3,0.6
				c0.5,0.4,0.9,1,1.2,1.8c0.7-0.7,1.3-1.3,2-1.8c0.7-0.4,1.4-0.7,2.2-0.7c1.3,0,2.3,0.4,2.9,1.2s0.9,2.1,0.9,3.7v8h-2.1v-7.7
				c0-1.2-0.2-2.1-0.6-2.6c-0.4-0.5-1-0.8-1.8-0.8c-1,0-2,0.6-3.2,1.9v9.2h-2.1v-7.7c0-1.2-0.2-2.1-0.6-2.6c-0.4-0.5-1-0.8-1.8-0.8
				c-1,0-2,0.6-3.2,1.9v9.2H188z"/>
			<path d="M215,502.4v-17.1h5.1c0.9,0,1.7,0.1,2.4,0.2c0.7,0.2,1.3,0.4,1.8,0.7s0.9,0.8,1.2,1.3c0.3,0.5,0.4,1.2,0.4,1.9
				c0,0.8-0.2,1.6-0.6,2.3c-0.4,0.7-1,1.2-1.9,1.4v0.1c1,0.2,1.9,0.6,2.5,1.3c0.6,0.7,1,1.6,1,2.8c0,0.8-0.2,1.6-0.5,2.2
				s-0.8,1.1-1.3,1.6c-0.6,0.4-1.3,0.7-2.1,0.9s-1.7,0.3-2.6,0.3H215z M217.1,492.6h2.5c1.5,0,2.5-0.3,3.1-0.8c0.6-0.5,1-1.2,1-2.1
				c0-1-0.3-1.7-1-2.1c-0.7-0.4-1.7-0.6-3-0.6h-2.6V492.6z M217.1,500.7h3c1.5,0,2.6-0.3,3.4-0.8c0.8-0.5,1.2-1.4,1.2-2.5
				c0-1.1-0.4-1.8-1.2-2.3c-0.8-0.5-1.9-0.7-3.5-0.7h-3V500.7z"/>
		</g>
		<g>
			<rect x="40" y="40" class="st6" width="1180" height="480"/>
			<line class="st6" x1="630" y1="40" x2="630" y2="520"/>
		</g>
		<g class="st0">
			<path d="M66.8,83.2V61h-7.6V57H79V61h-7.6v22.2H66.8z"/>
		</g>
		<g class="st0">
			<path d="M87.6,83.7c-1.2,0-2.4-0.2-3.5-0.7s-2.1-1.1-3-2c-0.9-0.9-1.6-2-2.1-3.2c-0.5-1.3-0.8-2.7-0.8-4.4c0-1.6,0.3-3.1,0.8-4.4
				c0.5-1.3,1.2-2.4,2.1-3.2c0.9-0.9,1.9-1.6,3-2s2.3-0.7,3.5-0.7c1.2,0,2.4,0.2,3.5,0.7c1.1,0.5,2.1,1.1,3,2c0.9,0.9,1.5,2,2.1,3.2
				s0.8,2.7,0.8,4.4c0,1.6-0.3,3.1-0.8,4.4C95.7,79,95,80.1,94.2,81c-0.9,0.9-1.8,1.5-3,2C90,83.5,88.9,83.7,87.6,83.7z M87.6,79.9
				c1.4,0,2.6-0.6,3.4-1.8c0.8-1.2,1.2-2.8,1.2-4.7c0-2-0.4-3.6-1.2-4.8c-0.8-1.2-2-1.8-3.4-1.8s-2.6,0.6-3.4,1.8
				c-0.8,1.2-1.2,2.8-1.2,4.8c0,2,0.4,3.6,1.2,4.7C85.1,79.3,86.2,79.9,87.6,79.9z"/>
		</g>
		<g class="st0">
			<path d="M101,91V63.6h3.8l0.3,2.1h0.2c0.8-0.7,1.7-1.3,2.8-1.8c1-0.5,2.1-0.8,3.2-0.8c1.2,0,2.3,0.2,3.3,0.7
				c0.9,0.5,1.8,1.1,2.4,2c0.7,0.9,1.2,1.9,1.5,3.2c0.3,1.2,0.5,2.6,0.5,4.1c0,1.7-0.2,3.2-0.7,4.5c-0.5,1.3-1.1,2.4-1.9,3.3
				s-1.7,1.6-2.7,2.1c-1,0.5-2.1,0.7-3.2,0.7c-0.9,0-1.7-0.2-2.6-0.6c-0.9-0.4-1.7-0.9-2.5-1.6l0.1,3.3V91H101z M109.6,79.9
				c1.3,0,2.4-0.6,3.3-1.7c0.9-1.1,1.3-2.8,1.3-5.1c0-2-0.3-3.5-1-4.6c-0.7-1.1-1.7-1.6-3.2-1.6c-1.4,0-2.8,0.7-4.3,2.2v9.2
				c0.7,0.6,1.4,1,2.1,1.3C108.4,79.8,109,79.9,109.6,79.9z"/>
		</g>
		<g class="st0">
			<path d="M136.7,83.2L128.5,57h4.9l3.7,13.2c0.4,1.5,0.8,2.9,1.1,4.2c0.3,1.3,0.7,2.8,1.2,4.3h0.2c0.5-1.5,0.8-2.9,1.2-4.3
				c0.3-1.3,0.7-2.7,1.1-4.2l3.6-13.2h4.8l-8.1,26.2H136.7z"/>
		</g>
		<g class="st0">
			<path d="M155.7,60.1c-0.8,0-1.5-0.2-2-0.7c-0.5-0.5-0.8-1.1-0.8-1.9s0.3-1.4,0.8-1.9c0.5-0.5,1.2-0.7,2-0.7c0.8,0,1.5,0.2,2,0.7
				c0.5,0.5,0.8,1.1,0.8,1.9s-0.3,1.4-0.8,1.9C157.2,59.9,156.5,60.1,155.7,60.1z M153.4,83.2V63.6h4.6v19.6H153.4z"/>
		</g>
		<g class="st0">
			<path d="M171.7,83.7c-1.4,0-2.6-0.2-3.8-0.7c-1.2-0.5-2.2-1.1-3.1-2s-1.6-2-2.1-3.2c-0.5-1.3-0.7-2.7-0.7-4.3
				c0-1.6,0.3-3,0.8-4.3c0.5-1.3,1.2-2.4,2-3.2s1.8-1.6,2.9-2c1.1-0.5,2.2-0.7,3.4-0.7c1.3,0,2.5,0.2,3.5,0.7c1,0.5,1.9,1.1,2.5,1.9
				c0.7,0.8,1.2,1.8,1.5,3s0.5,2.4,0.5,3.8c0,0.5,0,0.9-0.1,1.3c0,0.4-0.1,0.7-0.1,1h-12.5c0.2,1.8,0.8,3.1,1.9,4.1
				c1,0.9,2.3,1.4,3.9,1.4c0.9,0,1.6-0.1,2.4-0.4c0.7-0.3,1.5-0.6,2.2-1.1l1.6,2.9c-0.9,0.6-2,1.1-3.1,1.5
				C174.1,83.5,172.9,83.7,171.7,83.7z M166.4,71.5h8.7c0-1.5-0.3-2.7-1-3.6c-0.7-0.9-1.7-1.3-3-1.3c-1.2,0-2.2,0.4-3.1,1.2
				C167.2,68.7,166.6,69.9,166.4,71.5z"/>
		</g>
		<g class="st0">
			<path d="M186.1,83.2l-5.2-19.6h4.6l2.4,10.2c0.2,0.9,0.4,1.9,0.5,2.8c0.1,0.9,0.3,1.9,0.5,2.8h0.2c0.2-1,0.4-1.9,0.6-2.8
				c0.2-0.9,0.4-1.9,0.7-2.8l2.6-10.2h4.2l2.6,10.2c0.2,0.9,0.5,1.9,0.7,2.8c0.2,0.9,0.4,1.9,0.6,2.8h0.2c0.2-1,0.4-1.9,0.5-2.8
				c0.2-0.9,0.3-1.9,0.5-2.8l2.4-10.2h4.3l-5,19.6h-5.5l-2.3-9.2c-0.2-0.9-0.4-1.9-0.6-2.8c-0.2-0.9-0.4-1.9-0.6-2.9h-0.2
				c-0.2,1-0.4,2-0.6,3s-0.4,1.9-0.6,2.8l-2.2,9.1H186.1z"/>
		</g>
		<circle class="st4" cx="292.2" cy="267.1" r="13.6"/>
		<circle class="st2" cx="606.6" cy="267.1" r="5.3"/>
		<circle class="st5" cx="443.3" cy="267.1" r="5.7"/>
		<circle class="st3" cx="349.4" cy="267.1" r="3.8"/>
		<g class="st0">
			<path d="M559.9,285.9v-8.6h2l2.3,4.3l0.8,1.9h0.1c0-0.5-0.1-1-0.2-1.5c-0.1-0.6-0.1-1.1-0.1-1.6v-3h1.9v8.6h-2l-2.3-4.3l-0.8-1.9
				h-0.1c0,0.5,0.1,1,0.2,1.5s0.1,1.1,0.1,1.6v3.1H559.9z"/>
			<path d="M571.5,286.1c-0.5,0-0.9-0.1-1.3-0.2c-0.4-0.2-0.8-0.4-1.1-0.7c-0.3-0.3-0.5-0.7-0.7-1.1c-0.2-0.4-0.3-0.9-0.3-1.5
				c0-0.5,0.1-1,0.3-1.4c0.2-0.4,0.4-0.8,0.7-1.1c0.3-0.3,0.6-0.5,1-0.7c0.4-0.2,0.8-0.2,1.2-0.2c0.5,0,0.9,0.1,1.2,0.2
				s0.6,0.4,0.9,0.7c0.2,0.3,0.4,0.6,0.5,1s0.2,0.8,0.2,1.3c0,0.2,0,0.3,0,0.5c0,0.2,0,0.3-0.1,0.4h-3.9c0.1,0.5,0.3,0.8,0.6,1.1
				c0.3,0.2,0.7,0.3,1.1,0.3c0.5,0,0.9-0.1,1.4-0.4l0.6,1.2c-0.3,0.2-0.7,0.4-1.1,0.5S571.9,286.1,571.5,286.1z M570.1,281.9h2.4
				c0-0.4-0.1-0.7-0.3-0.9c-0.2-0.2-0.5-0.3-0.8-0.3c-0.3,0-0.6,0.1-0.8,0.3C570.3,281.2,570.1,281.5,570.1,281.9z"/>
		</g>
		<g class="st0">
			<path class="st7" d="M559.9,285.9v-8.6h2l2.3,4.3l0.8,1.9h0.1c0-0.5-0.1-1-0.2-1.5c-0.1-0.6-0.1-1.1-0.1-1.6v-3h1.9v8.6h-2
				l-2.3-4.3l-0.8-1.9h-0.1c0,0.5,0.1,1,0.2,1.5s0.1,1.1,0.1,1.6v3.1H559.9z"/>
			<path class="st7" d="M571.5,286.1c-0.5,0-0.9-0.1-1.3-0.2c-0.4-0.2-0.8-0.4-1.1-0.7c-0.3-0.3-0.5-0.7-0.7-1.1
				c-0.2-0.4-0.3-0.9-0.3-1.5c0-0.5,0.1-1,0.3-1.4c0.2-0.4,0.4-0.8,0.7-1.1c0.3-0.3,0.6-0.5,1-0.7c0.4-0.2,0.8-0.2,1.2-0.2
				c0.5,0,0.9,0.1,1.2,0.2s0.6,0.4,0.9,0.7c0.2,0.3,0.4,0.6,0.5,1s0.2,0.8,0.2,1.3c0,0.2,0,0.3,0,0.5c0,0.2,0,0.3-0.1,0.4h-3.9
				c0.1,0.5,0.3,0.8,0.6,1.1c0.3,0.2,0.7,0.3,1.1,0.3c0.5,0,0.9-0.1,1.4-0.4l0.6,1.2c-0.3,0.2-0.7,0.4-1.1,0.5
				S571.9,286.1,571.5,286.1z M570.1,281.9h2.4c0-0.4-0.1-0.7-0.3-0.9c-0.2-0.2-0.5-0.3-0.8-0.3c-0.3,0-0.6,0.1-0.8,0.3
				C570.3,281.2,570.1,281.5,570.1,281.9z"/>
		</g>
		<g class="st0">
			<path d="M575.4,288.4v-9h1.6l0.1,0.7h0.1c0.3-0.2,0.5-0.4,0.9-0.6c0.3-0.2,0.7-0.2,1-0.2c0.4,0,0.8,0.1,1.1,0.2s0.6,0.4,0.8,0.7
				c0.2,0.3,0.4,0.6,0.5,1.1s0.2,0.9,0.2,1.4c0,0.6-0.1,1.1-0.2,1.5c-0.2,0.4-0.4,0.8-0.6,1.1c-0.3,0.3-0.6,0.5-0.9,0.7
				c-0.3,0.2-0.7,0.2-1,0.2c-0.3,0-0.6-0.1-0.8-0.2c-0.3-0.1-0.5-0.3-0.7-0.5l0.1,1v1.9H575.4z M578.4,284.5c0.3,0,0.6-0.2,0.9-0.5
				c0.2-0.3,0.4-0.8,0.4-1.5c0-1.2-0.4-1.8-1.1-1.8c-0.4,0-0.8,0.2-1.1,0.6v2.7c0.2,0.2,0.4,0.3,0.5,0.3
				C578.1,284.5,578.3,284.5,578.4,284.5z"/>
		</g>
		<g class="st0">
			<path class="st7" d="M575.4,288.4v-9h1.6l0.1,0.7h0.1c0.3-0.2,0.5-0.4,0.9-0.6c0.3-0.2,0.7-0.2,1-0.2c0.4,0,0.8,0.1,1.1,0.2
				s0.6,0.4,0.8,0.7c0.2,0.3,0.4,0.6,0.5,1.1s0.2,0.9,0.2,1.4c0,0.6-0.1,1.1-0.2,1.5c-0.2,0.4-0.4,0.8-0.6,1.1
				c-0.3,0.3-0.6,0.5-0.9,0.7c-0.3,0.2-0.7,0.2-1,0.2c-0.3,0-0.6-0.1-0.8-0.2c-0.3-0.1-0.5-0.3-0.7-0.5l0.1,1v1.9H575.4z
				 M578.4,284.5c0.3,0,0.6-0.2,0.9-0.5c0.2-0.3,0.4-0.8,0.4-1.5c0-1.2-0.4-1.8-1.1-1.8c-0.4,0-0.8,0.2-1.1,0.6v2.7
				c0.2,0.2,0.4,0.3,0.5,0.3C578.1,284.5,578.3,284.5,578.4,284.5z"/>
		</g>
		<g class="st0">
			<path d="M585.2,286.1c-0.4,0-0.8-0.1-1-0.2s-0.5-0.3-0.7-0.5c-0.2-0.2-0.3-0.5-0.4-0.8s-0.1-0.7-0.1-1v-2.7h-0.9v-1.4l1-0.1
				l0.2-1.8h1.6v1.8h1.6v1.5h-1.6v2.6c0,0.4,0.1,0.6,0.2,0.8c0.2,0.2,0.4,0.2,0.6,0.2c0.1,0,0.2,0,0.3,0c0.1,0,0.2-0.1,0.3-0.1
				l0.3,1.4c-0.2,0.1-0.4,0.1-0.6,0.2C585.8,286.1,585.5,286.1,585.2,286.1z"/>
			<path d="M589.7,286.1c-0.7,0-1.2-0.2-1.6-0.7c-0.3-0.5-0.5-1.1-0.5-1.9v-4.1h1.9v3.8c0,0.5,0.1,0.8,0.2,1
				c0.1,0.2,0.3,0.3,0.6,0.3c0.2,0,0.5-0.1,0.6-0.2c0.2-0.1,0.3-0.3,0.5-0.6v-4.3h1.9v6.6H592l-0.1-0.9h0c-0.3,0.3-0.6,0.6-0.9,0.8
				C590.6,286,590.2,286.1,589.7,286.1z"/>
			<path d="M595.3,285.9v-6.6h1.6l0.1,0.8h0.1c0.3-0.3,0.6-0.5,0.9-0.7c0.3-0.2,0.7-0.3,1.2-0.3c0.7,0,1.2,0.2,1.6,0.7
				s0.5,1.1,0.5,1.9v4.1h-1.9v-3.8c0-0.5-0.1-0.8-0.2-1c-0.1-0.2-0.3-0.3-0.6-0.3c-0.2,0-0.5,0.1-0.6,0.2c-0.2,0.1-0.4,0.3-0.6,0.5
				v4.4H595.3z"/>
			<path d="M605.8,286.1c-0.5,0-0.9-0.1-1.3-0.2c-0.4-0.2-0.8-0.4-1.1-0.7c-0.3-0.3-0.5-0.7-0.7-1.1c-0.2-0.4-0.3-0.9-0.3-1.5
				c0-0.5,0.1-1,0.3-1.4c0.2-0.4,0.4-0.8,0.7-1.1c0.3-0.3,0.6-0.5,1-0.7c0.4-0.2,0.8-0.2,1.2-0.2c0.5,0,0.9,0.1,1.2,0.2
				s0.6,0.4,0.9,0.7c0.2,0.3,0.4,0.6,0.5,1s0.2,0.8,0.2,1.3c0,0.2,0,0.3,0,0.5c0,0.2,0,0.3-0.1,0.4h-3.9c0.1,0.5,0.3,0.8,0.6,1.1
				c0.3,0.2,0.7,0.3,1.1,0.3c0.5,0,0.9-0.1,1.4-0.4l0.6,1.2c-0.3,0.2-0.7,0.4-1.1,0.5S606.2,286.1,605.8,286.1z M604.4,281.9h2.4
				c0-0.4-0.1-0.7-0.3-0.9c-0.2-0.2-0.5-0.3-0.8-0.3c-0.3,0-0.6,0.1-0.8,0.3C604.6,281.2,604.4,281.5,604.4,281.9z"/>
		</g>
		<g class="st0">
			<path class="st7" d="M585.2,286.1c-0.4,0-0.8-0.1-1-0.2s-0.5-0.3-0.7-0.5c-0.2-0.2-0.3-0.5-0.4-0.8s-0.1-0.7-0.1-1v-2.7h-0.9
				v-1.4l1-0.1l0.2-1.8h1.6v1.8h1.6v1.5h-1.6v2.6c0,0.4,0.1,0.6,0.2,0.8c0.2,0.2,0.4,0.2,0.6,0.2c0.1,0,0.2,0,0.3,0
				c0.1,0,0.2-0.1,0.3-0.1l0.3,1.4c-0.2,0.1-0.4,0.1-0.6,0.2C585.8,286.1,585.5,286.1,585.2,286.1z"/>
			<path class="st7" d="M589.7,286.1c-0.7,0-1.2-0.2-1.6-0.7c-0.3-0.5-0.5-1.1-0.5-1.9v-4.1h1.9v3.8c0,0.5,0.1,0.8,0.2,1
				c0.1,0.2,0.3,0.3,0.6,0.3c0.2,0,0.5-0.1,0.6-0.2c0.2-0.1,0.3-0.3,0.5-0.6v-4.3h1.9v6.6H592l-0.1-0.9h0c-0.3,0.3-0.6,0.6-0.9,0.8
				C590.6,286,590.2,286.1,589.7,286.1z"/>
			<path class="st7" d="M595.3,285.9v-6.6h1.6l0.1,0.8h0.1c0.3-0.3,0.6-0.5,0.9-0.7c0.3-0.2,0.7-0.3,1.2-0.3c0.7,0,1.2,0.2,1.6,0.7
				s0.5,1.1,0.5,1.9v4.1h-1.9v-3.8c0-0.5-0.1-0.8-0.2-1c-0.1-0.2-0.3-0.3-0.6-0.3c-0.2,0-0.5,0.1-0.6,0.2c-0.2,0.1-0.4,0.3-0.6,0.5
				v4.4H595.3z"/>
			<path class="st7" d="M605.8,286.1c-0.5,0-0.9-0.1-1.3-0.2c-0.4-0.2-0.8-0.4-1.1-0.7c-0.3-0.3-0.5-0.7-0.7-1.1
				c-0.2-0.4-0.3-0.9-0.3-1.5c0-0.5,0.1-1,0.3-1.4c0.2-0.4,0.4-0.8,0.7-1.1c0.3-0.3,0.6-0.5,1-0.7c0.4-0.2,0.8-0.2,1.2-0.2
				c0.5,0,0.9,0.1,1.2,0.2s0.6,0.4,0.9,0.7c0.2,0.3,0.4,0.6,0.5,1s0.2,0.8,0.2,1.3c0,0.2,0,0.3,0,0.5c0,0.2,0,0.3-0.1,0.4h-3.9
				c0.1,0.5,0.3,0.8,0.6,1.1c0.3,0.2,0.7,0.3,1.1,0.3c0.5,0,0.9-0.1,1.4-0.4l0.6,1.2c-0.3,0.2-0.7,0.4-1.1,0.5
				S606.2,286.1,605.8,286.1z M604.4,281.9h2.4c0-0.4-0.1-0.7-0.3-0.9c-0.2-0.2-0.5-0.3-0.8-0.3c-0.3,0-0.6,0.1-0.8,0.3
				C604.6,281.2,604.4,281.5,604.4,281.9z"/>
		</g>
		<g class="st0">
			<path d="M559.9,285.9v-8.6h2l2.3,4.3l0.8,1.9h0.1c0-0.5-0.1-1-0.2-1.5c-0.1-0.6-0.1-1.1-0.1-1.6v-3h1.9v8.6h-2l-2.3-4.3l-0.8-1.9
				h-0.1c0,0.5,0.1,1,0.2,1.5s0.1,1.1,0.1,1.6v3.1H559.9z"/>
			<path d="M571.5,286.1c-0.5,0-0.9-0.1-1.3-0.2c-0.4-0.2-0.8-0.4-1.1-0.7c-0.3-0.3-0.5-0.7-0.7-1.1c-0.2-0.4-0.3-0.9-0.3-1.5
				c0-0.5,0.1-1,0.3-1.4c0.2-0.4,0.4-0.8,0.7-1.1c0.3-0.3,0.6-0.5,1-0.7c0.4-0.2,0.8-0.2,1.2-0.2c0.5,0,0.9,0.1,1.2,0.2
				s0.6,0.4,0.9,0.7c0.2,0.3,0.4,0.6,0.5,1s0.2,0.8,0.2,1.3c0,0.2,0,0.3,0,0.5c0,0.2,0,0.3-0.1,0.4h-3.9c0.1,0.5,0.3,0.8,0.6,1.1
				c0.3,0.2,0.7,0.3,1.1,0.3c0.5,0,0.9-0.1,1.4-0.4l0.6,1.2c-0.3,0.2-0.7,0.4-1.1,0.5S571.9,286.1,571.5,286.1z M570.1,281.9h2.4
				c0-0.4-0.1-0.7-0.3-0.9c-0.2-0.2-0.5-0.3-0.8-0.3c-0.3,0-0.6,0.1-0.8,0.3C570.3,281.2,570.1,281.5,570.1,281.9z"/>
		</g>
		<g class="st0">
			<path d="M575.4,288.4v-9h1.6l0.1,0.7h0.1c0.3-0.2,0.5-0.4,0.9-0.6c0.3-0.2,0.7-0.2,1-0.2c0.4,0,0.8,0.1,1.1,0.2s0.6,0.4,0.8,0.7
				c0.2,0.3,0.4,0.6,0.5,1.1s0.2,0.9,0.2,1.4c0,0.6-0.1,1.1-0.2,1.5c-0.2,0.4-0.4,0.8-0.6,1.1c-0.3,0.3-0.6,0.5-0.9,0.7
				c-0.3,0.2-0.7,0.2-1,0.2c-0.3,0-0.6-0.1-0.8-0.2c-0.3-0.1-0.5-0.3-0.7-0.5l0.1,1v1.9H575.4z M578.4,284.5c0.3,0,0.6-0.2,0.9-0.5
				c0.2-0.3,0.4-0.8,0.4-1.5c0-1.2-0.4-1.8-1.1-1.8c-0.4,0-0.8,0.2-1.1,0.6v2.7c0.2,0.2,0.4,0.3,0.5,0.3
				C578.1,284.5,578.3,284.5,578.4,284.5z"/>
		</g>
		<g class="st0">
			<path d="M585.2,286.1c-0.4,0-0.8-0.1-1-0.2s-0.5-0.3-0.7-0.5c-0.2-0.2-0.3-0.5-0.4-0.8s-0.1-0.7-0.1-1v-2.7h-0.9v-1.4l1-0.1
				l0.2-1.8h1.6v1.8h1.6v1.5h-1.6v2.6c0,0.4,0.1,0.6,0.2,0.8c0.2,0.2,0.4,0.2,0.6,0.2c0.1,0,0.2,0,0.3,0c0.1,0,0.2-0.1,0.3-0.1
				l0.3,1.4c-0.2,0.1-0.4,0.1-0.6,0.2C585.8,286.1,585.5,286.1,585.2,286.1z"/>
			<path d="M589.7,286.1c-0.7,0-1.2-0.2-1.6-0.7c-0.3-0.5-0.5-1.1-0.5-1.9v-4.1h1.9v3.8c0,0.5,0.1,0.8,0.2,1
				c0.1,0.2,0.3,0.3,0.6,0.3c0.2,0,0.5-0.1,0.6-0.2c0.2-0.1,0.3-0.3,0.5-0.6v-4.3h1.9v6.6H592l-0.1-0.9h0c-0.3,0.3-0.6,0.6-0.9,0.8
				C590.6,286,590.2,286.1,589.7,286.1z"/>
			<path d="M595.3,285.9v-6.6h1.6l0.1,0.8h0.1c0.3-0.3,0.6-0.5,0.9-0.7c0.3-0.2,0.7-0.3,1.2-0.3c0.7,0,1.2,0.2,1.6,0.7
				s0.5,1.1,0.5,1.9v4.1h-1.9v-3.8c0-0.5-0.1-0.8-0.2-1c-0.1-0.2-0.3-0.3-0.6-0.3c-0.2,0-0.5,0.1-0.6,0.2c-0.2,0.1-0.4,0.3-0.6,0.5
				v4.4H595.3z"/>
			<path d="M605.8,286.1c-0.5,0-0.9-0.1-1.3-0.2c-0.4-0.2-0.8-0.4-1.1-0.7c-0.3-0.3-0.5-0.7-0.7-1.1c-0.2-0.4-0.3-0.9-0.3-1.5
				c0-0.5,0.1-1,0.3-1.4c0.2-0.4,0.4-0.8,0.7-1.1c0.3-0.3,0.6-0.5,1-0.7c0.4-0.2,0.8-0.2,1.2-0.2c0.5,0,0.9,0.1,1.2,0.2
				s0.6,0.4,0.9,0.7c0.2,0.3,0.4,0.6,0.5,1s0.2,0.8,0.2,1.3c0,0.2,0,0.3,0,0.5c0,0.2,0,0.3-0.1,0.4h-3.9c0.1,0.5,0.3,0.8,0.6,1.1
				c0.3,0.2,0.7,0.3,1.1,0.3c0.5,0,0.9-0.1,1.4-0.4l0.6,1.2c-0.3,0.2-0.7,0.4-1.1,0.5S606.2,286.1,605.8,286.1z M604.4,281.9h2.4
				c0-0.4-0.1-0.7-0.3-0.9c-0.2-0.2-0.5-0.3-0.8-0.3c-0.3,0-0.6,0.1-0.8,0.3C604.6,281.2,604.4,281.5,604.4,281.9z"/>
		</g>
		<g class="st0">
			<path d="M426.7,505.9c-0.6,0-1.1-0.1-1.5-0.3c-0.4-0.2-0.8-0.5-1.1-0.9l0.4-0.4c0.3,0.3,0.6,0.6,1,0.8c0.4,0.2,0.8,0.3,1.3,0.3
				c0.6,0,1.1-0.1,1.4-0.4s0.5-0.7,0.5-1.1c0-0.2,0-0.5-0.1-0.6c-0.1-0.2-0.2-0.3-0.3-0.4s-0.3-0.2-0.4-0.3
				c-0.2-0.1-0.4-0.2-0.5-0.3l-1.2-0.5c-0.2-0.1-0.3-0.2-0.5-0.3c-0.2-0.1-0.4-0.2-0.5-0.4c-0.2-0.2-0.3-0.3-0.4-0.6
				s-0.2-0.5-0.2-0.8c0-0.3,0.1-0.5,0.2-0.8c0.1-0.2,0.3-0.4,0.5-0.6s0.4-0.3,0.7-0.4c0.3-0.1,0.6-0.1,0.9-0.1
				c0.5,0,0.9,0.1,1.3,0.3c0.4,0.2,0.7,0.4,0.9,0.7l-0.3,0.4c-0.2-0.2-0.5-0.4-0.8-0.6c-0.3-0.1-0.7-0.2-1.1-0.2
				c-0.5,0-1,0.1-1.3,0.4s-0.5,0.6-0.5,1c0,0.2,0,0.4,0.1,0.6c0.1,0.2,0.2,0.3,0.3,0.4c0.1,0.1,0.3,0.2,0.4,0.3
				c0.2,0.1,0.3,0.2,0.5,0.2l1.2,0.5c0.2,0.1,0.4,0.2,0.6,0.3c0.2,0.1,0.4,0.3,0.5,0.4s0.3,0.3,0.4,0.6c0.1,0.2,0.1,0.5,0.1,0.8
				c0,0.3-0.1,0.6-0.2,0.8s-0.3,0.5-0.5,0.7c-0.2,0.2-0.5,0.3-0.8,0.4C427.4,505.8,427.1,505.9,426.7,505.9z"/>
			<path d="M431.1,498.6c-0.1,0-0.2,0-0.3-0.1c-0.1-0.1-0.1-0.2-0.1-0.3c0-0.2,0-0.3,0.1-0.4c0.1-0.1,0.2-0.1,0.3-0.1s0.2,0,0.3,0.1
				c0.1,0.1,0.1,0.2,0.1,0.4c0,0.1,0,0.2-0.1,0.3C431.3,498.5,431.2,498.6,431.1,498.6z M430.8,505.7V500h0.5v5.8H430.8z"/>
		</g>
		<g class="st0">
			<path d="M432.8,505.7v-0.3l3.4-5h-3V500h3.7v0.3l-3.4,5h3.5v0.5H432.8z"/>
		</g>
		<g class="st0">
			<path d="M440.5,505.9c-0.4,0-0.7-0.1-1-0.2c-0.3-0.1-0.6-0.3-0.8-0.6c-0.2-0.3-0.4-0.6-0.6-0.9c-0.1-0.4-0.2-0.8-0.2-1.3
				c0-0.5,0.1-0.9,0.2-1.3c0.1-0.4,0.3-0.7,0.6-1s0.5-0.5,0.8-0.6c0.3-0.1,0.6-0.2,0.9-0.2c0.7,0,1.2,0.2,1.6,0.7s0.6,1.1,0.6,2
				c0,0.1,0,0.1,0,0.2c0,0.1,0,0.1,0,0.2h-4.2c0,0.4,0.1,0.7,0.2,1c0.1,0.3,0.2,0.6,0.4,0.8c0.2,0.2,0.4,0.4,0.7,0.5
				c0.3,0.1,0.6,0.2,0.9,0.2c0.3,0,0.6,0,0.8-0.1s0.5-0.2,0.7-0.4l0.2,0.4c-0.2,0.1-0.5,0.3-0.8,0.4S440.9,505.9,440.5,505.9z
				 M438.3,502.5h3.7c0-0.7-0.2-1.3-0.5-1.7c-0.3-0.4-0.7-0.5-1.2-0.5c-0.2,0-0.5,0.1-0.7,0.2c-0.2,0.1-0.4,0.2-0.6,0.4
				c-0.2,0.2-0.3,0.4-0.4,0.7C438.4,501.8,438.4,502.2,438.3,502.5z"/>
			<path d="M445.5,505.9c-0.4,0-0.8-0.1-1.2-0.2s-0.7-0.3-0.9-0.6l0.3-0.4c0.2,0.2,0.5,0.4,0.8,0.5c0.3,0.1,0.6,0.2,1,0.2
				c0.5,0,0.8-0.1,1-0.3c0.2-0.2,0.3-0.5,0.3-0.8c0-0.2,0-0.3-0.1-0.5s-0.2-0.3-0.3-0.3c-0.1-0.1-0.3-0.2-0.4-0.3
				c-0.2-0.1-0.3-0.1-0.5-0.2c-0.2-0.1-0.4-0.2-0.7-0.3c-0.2-0.1-0.4-0.2-0.6-0.3c-0.2-0.1-0.3-0.3-0.4-0.4
				c-0.1-0.2-0.2-0.4-0.2-0.6c0-0.2,0-0.4,0.1-0.6s0.2-0.4,0.4-0.5c0.2-0.1,0.4-0.2,0.6-0.3s0.5-0.1,0.8-0.1c0.3,0,0.6,0.1,0.9,0.2
				c0.3,0.1,0.5,0.3,0.8,0.4l-0.3,0.4c-0.2-0.1-0.4-0.3-0.6-0.4c-0.2-0.1-0.5-0.2-0.8-0.2c-0.2,0-0.4,0-0.6,0.1
				c-0.2,0.1-0.3,0.1-0.4,0.2s-0.2,0.2-0.2,0.3c-0.1,0.1-0.1,0.3-0.1,0.4c0,0.2,0,0.3,0.1,0.4c0.1,0.1,0.2,0.2,0.3,0.3
				c0.1,0.1,0.3,0.2,0.4,0.2c0.2,0.1,0.3,0.1,0.5,0.2c0.2,0.1,0.4,0.2,0.7,0.3c0.2,0.1,0.4,0.2,0.6,0.3s0.3,0.3,0.4,0.5
				c0.1,0.2,0.2,0.4,0.2,0.7c0,0.2,0,0.4-0.1,0.6c-0.1,0.2-0.2,0.4-0.4,0.5c-0.2,0.1-0.4,0.3-0.6,0.4
				C446,505.8,445.8,505.9,445.5,505.9z"/>
			<path d="M452.6,505.9c-0.2,0-0.4,0-0.6-0.1c-0.2-0.1-0.4-0.2-0.5-0.3s-0.3-0.3-0.4-0.5c-0.1-0.2-0.1-0.4-0.1-0.7
				c0-0.6,0.3-1.1,0.9-1.5c0.6-0.3,1.5-0.6,2.8-0.7c0-0.2,0-0.4,0-0.7c0-0.2-0.1-0.4-0.2-0.6c-0.1-0.2-0.2-0.3-0.4-0.4
				c-0.2-0.1-0.4-0.2-0.7-0.2c-0.4,0-0.7,0.1-1.1,0.2c-0.3,0.2-0.6,0.3-0.8,0.4l-0.2-0.4c0.1-0.1,0.2-0.2,0.4-0.2
				c0.1-0.1,0.3-0.2,0.5-0.2c0.2-0.1,0.4-0.1,0.6-0.2c0.2-0.1,0.4-0.1,0.7-0.1c0.3,0,0.6,0.1,0.9,0.2c0.2,0.1,0.4,0.3,0.6,0.5
				s0.2,0.4,0.3,0.7c0.1,0.3,0.1,0.6,0.1,0.9v3.7h-0.5l0-0.7h0c-0.3,0.2-0.6,0.4-1,0.6C453.3,505.8,453,505.9,452.6,505.9z
				 M452.7,505.4c0.3,0,0.7-0.1,1-0.2s0.6-0.4,1-0.7v-2c-0.6,0.1-1.1,0.2-1.5,0.3c-0.4,0.1-0.7,0.2-1,0.4c-0.2,0.1-0.4,0.3-0.5,0.5
				c-0.1,0.2-0.2,0.4-0.2,0.6c0,0.2,0,0.4,0.1,0.5c0.1,0.1,0.2,0.3,0.3,0.4c0.1,0.1,0.2,0.2,0.4,0.2S452.5,505.4,452.7,505.4z"/>
			<path d="M457.2,505.7V500h0.5l0,0.9h0c0.3-0.3,0.6-0.5,0.9-0.7c0.3-0.2,0.7-0.3,1.1-0.3c0.6,0,1,0.2,1.3,0.5
				c0.3,0.4,0.4,0.9,0.4,1.7v3.7H461v-3.6c0-0.6-0.1-1.1-0.3-1.4c-0.2-0.3-0.5-0.4-1-0.4c-0.3,0-0.7,0.1-0.9,0.3
				c-0.3,0.2-0.6,0.5-0.9,0.8v4.3H457.2z"/>
			<path d="M465.5,505.9c-0.7,0-1.3-0.3-1.7-0.8c-0.4-0.5-0.6-1.3-0.6-2.2c0-0.5,0.1-0.9,0.2-1.3c0.1-0.4,0.3-0.7,0.6-1
				c0.2-0.3,0.5-0.5,0.8-0.6c0.3-0.1,0.6-0.2,1-0.2c0.4,0,0.7,0.1,0.9,0.2c0.3,0.1,0.5,0.3,0.8,0.5l0-1.1v-2.4h0.5v8.6h-0.5l0-0.7h0
				c-0.2,0.2-0.5,0.4-0.8,0.6S465.9,505.9,465.5,505.9z M465.6,505.4c0.3,0,0.6-0.1,0.9-0.2c0.3-0.2,0.6-0.4,0.9-0.7V501
				c-0.3-0.3-0.6-0.5-0.9-0.6c-0.3-0.1-0.5-0.2-0.8-0.2c-0.3,0-0.6,0.1-0.8,0.2c-0.2,0.1-0.5,0.3-0.6,0.5c-0.2,0.2-0.3,0.5-0.4,0.8
				c-0.1,0.3-0.2,0.7-0.2,1c0,0.4,0,0.7,0.1,1c0.1,0.3,0.2,0.6,0.4,0.8c0.2,0.2,0.4,0.4,0.6,0.5S465.3,505.4,465.6,505.4z"/>
			<path d="M474.4,505.9c-0.7,0-1.3-0.3-1.7-0.8c-0.4-0.5-0.6-1.3-0.6-2.2c0-0.5,0.1-0.9,0.2-1.3c0.1-0.4,0.3-0.7,0.6-1
				c0.2-0.3,0.5-0.5,0.8-0.6c0.3-0.1,0.6-0.2,1-0.2c0.4,0,0.7,0.1,0.9,0.2c0.3,0.1,0.5,0.3,0.8,0.5l0-1.1v-2.4h0.5v8.6h-0.5l0-0.7h0
				c-0.2,0.2-0.5,0.4-0.8,0.6S474.8,505.9,474.4,505.9z M474.5,505.4c0.3,0,0.6-0.1,0.9-0.2c0.3-0.2,0.6-0.4,0.9-0.7V501
				c-0.3-0.3-0.6-0.5-0.9-0.6c-0.3-0.1-0.5-0.2-0.8-0.2c-0.3,0-0.6,0.1-0.8,0.2c-0.2,0.1-0.5,0.3-0.6,0.5c-0.2,0.2-0.3,0.5-0.4,0.8
				c-0.1,0.3-0.2,0.7-0.2,1c0,0.4,0,0.7,0.1,1c0.1,0.3,0.2,0.6,0.4,0.8c0.2,0.2,0.4,0.4,0.6,0.5S474.2,505.4,474.5,505.4z"/>
			<path d="M479.3,498.6c-0.1,0-0.2,0-0.3-0.1c-0.1-0.1-0.1-0.2-0.1-0.3c0-0.2,0-0.3,0.1-0.4c0.1-0.1,0.2-0.1,0.3-0.1s0.2,0,0.3,0.1
				c0.1,0.1,0.1,0.2,0.1,0.4c0,0.1,0,0.2-0.1,0.3C479.6,498.5,479.5,498.6,479.3,498.6z M479.1,505.7V500h0.5v5.8H479.1z"/>
		</g>
		<g class="st0">
			<path d="M483.2,505.9c-0.4,0-0.8-0.1-1.2-0.2c-0.4-0.2-0.7-0.3-0.9-0.6l0.3-0.4c0.2,0.2,0.5,0.4,0.8,0.5c0.3,0.1,0.6,0.2,1,0.2
				c0.5,0,0.8-0.1,1-0.3c0.2-0.2,0.3-0.5,0.3-0.8c0-0.2,0-0.3-0.1-0.5s-0.2-0.3-0.3-0.3c-0.1-0.1-0.3-0.2-0.4-0.3
				c-0.2-0.1-0.3-0.1-0.5-0.2c-0.2-0.1-0.4-0.2-0.7-0.3s-0.4-0.2-0.6-0.3c-0.2-0.1-0.3-0.3-0.4-0.4c-0.1-0.2-0.2-0.4-0.2-0.6
				c0-0.2,0-0.4,0.1-0.6s0.2-0.4,0.4-0.5c0.2-0.1,0.4-0.2,0.6-0.3c0.2-0.1,0.5-0.1,0.8-0.1s0.6,0.1,0.9,0.2c0.3,0.1,0.5,0.3,0.8,0.4
				l-0.3,0.4c-0.2-0.1-0.4-0.3-0.6-0.4s-0.5-0.2-0.8-0.2c-0.2,0-0.4,0-0.6,0.1c-0.2,0.1-0.3,0.1-0.4,0.2c-0.1,0.1-0.2,0.2-0.2,0.3
				c-0.1,0.1-0.1,0.3-0.1,0.4c0,0.2,0,0.3,0.1,0.4c0.1,0.1,0.2,0.2,0.3,0.3c0.1,0.1,0.3,0.2,0.4,0.2c0.2,0.1,0.3,0.1,0.5,0.2
				c0.2,0.1,0.4,0.2,0.7,0.3s0.4,0.2,0.6,0.3c0.2,0.1,0.3,0.3,0.4,0.5c0.1,0.2,0.2,0.4,0.2,0.7c0,0.2,0,0.4-0.1,0.6
				c-0.1,0.2-0.2,0.4-0.4,0.5c-0.2,0.1-0.4,0.3-0.6,0.4C483.8,505.8,483.5,505.9,483.2,505.9z"/>
		</g>
		<g class="st0">
			<path d="M488,505.9c-0.3,0-0.5,0-0.7-0.1c-0.2-0.1-0.3-0.2-0.4-0.4c-0.1-0.2-0.2-0.3-0.2-0.6s-0.1-0.5-0.1-0.7v-3.7h-0.9V500
				l0.9,0l0.1-1.7h0.5v1.7h1.7v0.5h-1.7v3.8c0,0.2,0,0.3,0,0.5c0,0.1,0.1,0.3,0.2,0.4s0.2,0.2,0.3,0.3c0.1,0.1,0.3,0.1,0.5,0.1
				c0.1,0,0.2,0,0.4-0.1c0.1,0,0.2-0.1,0.4-0.1l0.1,0.4c-0.2,0.1-0.3,0.1-0.5,0.2S488.1,505.9,488,505.9z"/>
		</g>
		<g class="st0">
			<path d="M491.2,505.9c-0.2,0-0.4,0-0.6-0.1c-0.2-0.1-0.4-0.2-0.5-0.3c-0.2-0.1-0.3-0.3-0.4-0.5c-0.1-0.2-0.1-0.4-0.1-0.7
				c0-0.6,0.3-1.1,0.9-1.5c0.6-0.3,1.5-0.6,2.8-0.7c0-0.2,0-0.4,0-0.7c0-0.2-0.1-0.4-0.2-0.6c-0.1-0.2-0.2-0.3-0.4-0.4
				c-0.2-0.1-0.4-0.2-0.7-0.2c-0.4,0-0.7,0.1-1.1,0.2s-0.6,0.3-0.8,0.4l-0.2-0.4c0.1-0.1,0.2-0.2,0.4-0.2c0.1-0.1,0.3-0.2,0.5-0.2
				c0.2-0.1,0.4-0.1,0.6-0.2c0.2-0.1,0.4-0.1,0.7-0.1c0.3,0,0.6,0.1,0.9,0.2c0.2,0.1,0.4,0.3,0.6,0.5c0.1,0.2,0.2,0.4,0.3,0.7
				c0.1,0.3,0.1,0.6,0.1,0.9v3.7h-0.5l0-0.7h0c-0.3,0.2-0.6,0.4-1,0.6S491.5,505.9,491.2,505.9z M491.3,505.4c0.3,0,0.7-0.1,1-0.2
				c0.3-0.2,0.6-0.4,1-0.7v-2c-0.6,0.1-1.1,0.2-1.5,0.3c-0.4,0.1-0.7,0.2-1,0.4c-0.2,0.1-0.4,0.3-0.5,0.5c-0.1,0.2-0.2,0.4-0.2,0.6
				c0,0.2,0,0.4,0.1,0.5c0.1,0.1,0.2,0.3,0.3,0.4c0.1,0.1,0.2,0.2,0.4,0.2C490.9,505.4,491.1,505.4,491.3,505.4z"/>
			<path d="M495.8,505.7V500h0.5l0,0.9h0c0.3-0.3,0.6-0.5,0.9-0.7c0.3-0.2,0.7-0.3,1.1-0.3c0.6,0,1,0.2,1.3,0.5
				c0.3,0.4,0.4,0.9,0.4,1.7v3.7h-0.5v-3.6c0-0.6-0.1-1.1-0.3-1.4c-0.2-0.3-0.5-0.4-1-0.4c-0.3,0-0.7,0.1-0.9,0.3
				c-0.3,0.2-0.6,0.5-0.9,0.8v4.3H495.8z"/>
		</g>
		<g class="st0">
			<path d="M504.3,505.9c-0.4,0-0.7-0.1-1-0.2c-0.3-0.1-0.6-0.3-0.8-0.6c-0.2-0.3-0.4-0.6-0.6-0.9c-0.1-0.4-0.2-0.8-0.2-1.3
				c0-0.5,0.1-0.9,0.2-1.3s0.3-0.7,0.6-1c0.2-0.3,0.5-0.5,0.8-0.6c0.3-0.1,0.6-0.2,1-0.2c0.4,0,0.7,0.1,1,0.2
				c0.3,0.1,0.5,0.3,0.7,0.5l-0.3,0.4c-0.2-0.2-0.4-0.3-0.6-0.4c-0.2-0.1-0.5-0.2-0.8-0.2c-0.3,0-0.6,0.1-0.8,0.2s-0.5,0.3-0.7,0.5
				c-0.2,0.2-0.3,0.5-0.4,0.8c-0.1,0.3-0.2,0.7-0.2,1c0,0.4,0.1,0.7,0.2,1c0.1,0.3,0.2,0.6,0.4,0.8c0.2,0.2,0.4,0.4,0.7,0.5
				c0.3,0.1,0.5,0.2,0.9,0.2c0.3,0,0.6-0.1,0.8-0.2c0.3-0.1,0.5-0.3,0.7-0.5l0.3,0.4c-0.2,0.2-0.5,0.4-0.8,0.5
				C505,505.8,504.7,505.9,504.3,505.9z"/>
		</g>
		<g class="st0">
			<path d="M509.5,505.9c-0.4,0-0.7-0.1-1-0.2c-0.3-0.1-0.6-0.3-0.8-0.6c-0.2-0.3-0.4-0.6-0.6-0.9c-0.1-0.4-0.2-0.8-0.2-1.3
				c0-0.5,0.1-0.9,0.2-1.3s0.3-0.7,0.6-1c0.2-0.3,0.5-0.5,0.8-0.6c0.3-0.1,0.6-0.2,0.9-0.2c0.7,0,1.2,0.2,1.6,0.7
				c0.4,0.5,0.6,1.1,0.6,2c0,0.1,0,0.1,0,0.2c0,0.1,0,0.1,0,0.2h-4.2c0,0.4,0.1,0.7,0.2,1c0.1,0.3,0.2,0.6,0.4,0.8
				c0.2,0.2,0.4,0.4,0.7,0.5s0.6,0.2,0.9,0.2c0.3,0,0.6,0,0.8-0.1s0.5-0.2,0.7-0.4l0.2,0.4c-0.2,0.1-0.5,0.3-0.8,0.4
				C510.3,505.8,510,505.9,509.5,505.9z M507.4,502.5h3.7c0-0.7-0.2-1.3-0.5-1.7c-0.3-0.4-0.7-0.5-1.2-0.5c-0.2,0-0.5,0.1-0.7,0.2
				c-0.2,0.1-0.4,0.2-0.6,0.4c-0.2,0.2-0.3,0.4-0.4,0.7C507.5,501.8,507.5,502.2,507.4,502.5z"/>
			<path d="M514.6,505.9c-0.4,0-0.8-0.1-1.2-0.2c-0.4-0.2-0.7-0.3-0.9-0.6l0.3-0.4c0.2,0.2,0.5,0.4,0.8,0.5c0.3,0.1,0.6,0.2,1,0.2
				c0.5,0,0.8-0.1,1-0.3c0.2-0.2,0.3-0.5,0.3-0.8c0-0.2,0-0.3-0.1-0.5s-0.2-0.3-0.3-0.3c-0.1-0.1-0.3-0.2-0.5-0.3
				c-0.2-0.1-0.3-0.1-0.5-0.2c-0.2-0.1-0.4-0.2-0.7-0.3c-0.2-0.1-0.4-0.2-0.6-0.3s-0.3-0.3-0.4-0.4c-0.1-0.2-0.2-0.4-0.2-0.6
				c0-0.2,0-0.4,0.1-0.6s0.2-0.4,0.4-0.5c0.2-0.1,0.4-0.2,0.6-0.3c0.2-0.1,0.5-0.1,0.8-0.1c0.3,0,0.6,0.1,0.9,0.2
				c0.3,0.1,0.5,0.3,0.8,0.4l-0.3,0.4c-0.2-0.1-0.4-0.3-0.6-0.4c-0.2-0.1-0.5-0.2-0.8-0.2c-0.2,0-0.4,0-0.6,0.1
				c-0.2,0.1-0.3,0.1-0.4,0.2c-0.1,0.1-0.2,0.2-0.2,0.3s-0.1,0.3-0.1,0.4c0,0.2,0,0.3,0.1,0.4c0.1,0.1,0.2,0.2,0.3,0.3
				s0.3,0.2,0.4,0.2c0.2,0.1,0.3,0.1,0.5,0.2c0.2,0.1,0.4,0.2,0.7,0.3c0.2,0.1,0.4,0.2,0.6,0.3c0.2,0.1,0.3,0.3,0.4,0.5
				c0.1,0.2,0.2,0.4,0.2,0.7c0,0.2,0,0.4-0.1,0.6c-0.1,0.2-0.2,0.4-0.4,0.5c-0.2,0.1-0.4,0.3-0.6,0.4S514.9,505.9,514.6,505.9z"/>
			<path d="M520.4,505.7V500h0.5l0,0.9h0c0.3-0.3,0.6-0.5,0.9-0.7c0.3-0.2,0.7-0.3,1.1-0.3c0.6,0,1,0.2,1.3,0.5
				c0.3,0.4,0.4,0.9,0.4,1.7v3.7h-0.5v-3.6c0-0.6-0.1-1.1-0.3-1.4s-0.5-0.4-1-0.4c-0.3,0-0.7,0.1-0.9,0.3c-0.3,0.2-0.6,0.5-0.9,0.8
				v4.3H520.4z"/>
		</g>
		<g class="st0">
			<path d="M528.9,505.9c-0.3,0-0.7-0.1-1-0.2c-0.3-0.1-0.6-0.3-0.8-0.6c-0.2-0.3-0.4-0.6-0.6-0.9c-0.1-0.4-0.2-0.8-0.2-1.3
				c0-0.5,0.1-0.9,0.2-1.3c0.1-0.4,0.3-0.7,0.6-1c0.2-0.3,0.5-0.5,0.8-0.6c0.3-0.1,0.6-0.2,1-0.2c0.3,0,0.7,0.1,1,0.2
				c0.3,0.1,0.6,0.3,0.8,0.6c0.2,0.3,0.4,0.6,0.6,1c0.1,0.4,0.2,0.8,0.2,1.3c0,0.5-0.1,0.9-0.2,1.3c-0.1,0.4-0.3,0.7-0.6,0.9
				c-0.2,0.3-0.5,0.5-0.8,0.6C529.6,505.8,529.2,505.9,528.9,505.9z M528.9,505.4c0.3,0,0.6-0.1,0.8-0.2s0.5-0.3,0.6-0.5
				c0.2-0.2,0.3-0.5,0.4-0.8c0.1-0.3,0.2-0.7,0.2-1c0-0.4-0.1-0.7-0.2-1c-0.1-0.3-0.2-0.6-0.4-0.8c-0.2-0.2-0.4-0.4-0.6-0.5
				s-0.5-0.2-0.8-0.2s-0.6,0.1-0.8,0.2s-0.5,0.3-0.6,0.5c-0.2,0.2-0.3,0.5-0.4,0.8c-0.1,0.3-0.2,0.7-0.2,1c0,0.4,0.1,0.7,0.2,1
				c0.1,0.3,0.2,0.6,0.4,0.8c0.2,0.2,0.4,0.4,0.6,0.5S528.6,505.4,528.9,505.4z"/>
		</g>
		<g class="st0">
			<path d="M534.7,505.9c-0.3,0-0.5,0-0.7-0.1s-0.3-0.2-0.4-0.4c-0.1-0.2-0.2-0.3-0.2-0.6s-0.1-0.5-0.1-0.7v-3.7h-0.9V500l0.9,0
				l0.1-1.7h0.5v1.7h1.7v0.5h-1.7v3.8c0,0.2,0,0.3,0,0.5c0,0.1,0.1,0.3,0.1,0.4c0.1,0.1,0.2,0.2,0.3,0.3c0.1,0.1,0.3,0.1,0.5,0.1
				c0.1,0,0.2,0,0.4-0.1c0.1,0,0.2-0.1,0.4-0.1l0.1,0.4c-0.2,0.1-0.3,0.1-0.5,0.2S534.8,505.9,534.7,505.9z"/>
			<path d="M541.1,505.9c-0.7,0-1.3-0.3-1.7-0.8c-0.4-0.5-0.6-1.3-0.6-2.2c0-0.5,0.1-0.9,0.2-1.3c0.1-0.4,0.3-0.7,0.6-1
				c0.2-0.3,0.5-0.5,0.8-0.6c0.3-0.1,0.6-0.2,1-0.2c0.4,0,0.7,0.1,0.9,0.2c0.3,0.1,0.5,0.3,0.8,0.5l0-1.1v-2.4h0.5v8.6h-0.5l0-0.7h0
				c-0.2,0.2-0.5,0.4-0.8,0.6S541.5,505.9,541.1,505.9z M541.2,505.4c0.3,0,0.6-0.1,0.9-0.2c0.3-0.2,0.6-0.4,0.9-0.7V501
				c-0.3-0.3-0.6-0.5-0.9-0.6c-0.3-0.1-0.5-0.2-0.8-0.2c-0.3,0-0.6,0.1-0.8,0.2c-0.2,0.1-0.5,0.3-0.6,0.5c-0.2,0.2-0.3,0.5-0.4,0.8
				c-0.1,0.3-0.2,0.7-0.2,1c0,0.4,0,0.7,0.1,1c0.1,0.3,0.2,0.6,0.4,0.8c0.2,0.2,0.4,0.4,0.6,0.5S540.9,505.4,541.2,505.4z"/>
		</g>
		<g class="st0">
			<path d="M545.8,505.7V500h0.5l0,1.1h0c0.2-0.4,0.4-0.7,0.7-0.9c0.3-0.2,0.6-0.3,0.9-0.3c0.1,0,0.2,0,0.3,0c0.1,0,0.2,0,0.3,0.1
				l-0.1,0.5c-0.1,0-0.2-0.1-0.3-0.1s-0.2,0-0.3,0c-0.3,0-0.5,0.1-0.8,0.3c-0.3,0.2-0.5,0.6-0.8,1.1v3.9H545.8z"/>
		</g>
		<g class="st0">
			<path d="M550.6,505.9c-0.2,0-0.4,0-0.6-0.1c-0.2-0.1-0.4-0.2-0.5-0.3c-0.2-0.1-0.3-0.3-0.4-0.5c-0.1-0.2-0.1-0.4-0.1-0.7
				c0-0.6,0.3-1.1,0.9-1.5c0.6-0.3,1.5-0.6,2.8-0.7c0-0.2,0-0.4,0-0.7c0-0.2-0.1-0.4-0.2-0.6c-0.1-0.2-0.2-0.3-0.4-0.4
				c-0.2-0.1-0.4-0.2-0.7-0.2c-0.4,0-0.7,0.1-1.1,0.2c-0.3,0.2-0.6,0.3-0.8,0.4l-0.2-0.4c0.1-0.1,0.2-0.2,0.4-0.2
				c0.1-0.1,0.3-0.2,0.5-0.2c0.2-0.1,0.4-0.1,0.6-0.2c0.2-0.1,0.4-0.1,0.7-0.1c0.3,0,0.6,0.1,0.9,0.2c0.2,0.1,0.4,0.3,0.6,0.5
				c0.1,0.2,0.2,0.4,0.3,0.7c0.1,0.3,0.1,0.6,0.1,0.9v3.7h-0.5l0-0.7h0c-0.3,0.2-0.6,0.4-1,0.6C551.3,505.8,550.9,505.9,550.6,505.9
				z M550.7,505.4c0.3,0,0.7-0.1,1-0.2c0.3-0.2,0.6-0.4,1-0.7v-2c-0.6,0.1-1.1,0.2-1.5,0.3c-0.4,0.1-0.7,0.2-1,0.4
				c-0.2,0.1-0.4,0.3-0.5,0.5c-0.1,0.2-0.2,0.4-0.2,0.6c0,0.2,0,0.4,0.1,0.5c0.1,0.1,0.2,0.3,0.3,0.4s0.2,0.2,0.4,0.2
				C550.3,505.4,550.5,505.4,550.7,505.4z"/>
			<path d="M556.1,505.7l-1.7-5.8h0.6l1,3.7c0.1,0.3,0.1,0.5,0.2,0.8c0.1,0.3,0.1,0.5,0.2,0.8h0c0.1-0.3,0.1-0.5,0.2-0.8
				c0.1-0.3,0.1-0.5,0.2-0.8l1-3.7h0.6l1,3.7c0.1,0.3,0.1,0.5,0.2,0.8s0.1,0.5,0.2,0.8h0c0.1-0.3,0.1-0.5,0.2-0.8
				c0.1-0.3,0.1-0.5,0.2-0.8l1-3.7h0.5l-1.7,5.8h-0.7l-1-3.6c-0.1-0.3-0.2-0.6-0.2-0.8c-0.1-0.3-0.1-0.5-0.2-0.8h0
				c-0.1,0.3-0.1,0.6-0.2,0.8c-0.1,0.3-0.2,0.6-0.2,0.8l-1,3.6H556.1z"/>
			<path d="M563.4,505.7V500h0.5l0,0.9h0c0.3-0.3,0.6-0.5,0.9-0.7c0.3-0.2,0.7-0.3,1.1-0.3c0.6,0,1,0.2,1.3,0.5
				c0.3,0.4,0.4,0.9,0.4,1.7v3.7h-0.5v-3.6c0-0.6-0.1-1.1-0.3-1.4s-0.5-0.4-1-0.4c-0.3,0-0.7,0.1-0.9,0.3c-0.3,0.2-0.6,0.5-0.9,0.8
				v4.3H563.4z"/>
		</g>
		<g class="st0">
			<path d="M573.8,505.9c-0.3,0-0.5,0-0.7-0.1s-0.3-0.2-0.4-0.4c-0.1-0.2-0.2-0.3-0.2-0.6s-0.1-0.5-0.1-0.7v-3.7h-0.9V500l0.9,0
				l0.1-1.7h0.5v1.7h1.7v0.5h-1.7v3.8c0,0.2,0,0.3,0,0.5c0,0.1,0.1,0.3,0.1,0.4c0.1,0.1,0.2,0.2,0.3,0.3c0.1,0.1,0.3,0.1,0.5,0.1
				c0.1,0,0.2,0,0.4-0.1c0.1,0,0.2-0.1,0.4-0.1l0.1,0.4c-0.2,0.1-0.3,0.1-0.5,0.2S573.9,505.9,573.8,505.9z"/>
		</g>
		<g class="st0">
			<path d="M577.9,505.9c-0.3,0-0.7-0.1-1-0.2c-0.3-0.1-0.6-0.3-0.8-0.6c-0.2-0.3-0.4-0.6-0.6-0.9c-0.1-0.4-0.2-0.8-0.2-1.3
				c0-0.5,0.1-0.9,0.2-1.3c0.1-0.4,0.3-0.7,0.6-1c0.2-0.3,0.5-0.5,0.8-0.6c0.3-0.1,0.6-0.2,1-0.2c0.3,0,0.7,0.1,1,0.2
				c0.3,0.1,0.6,0.3,0.8,0.6c0.2,0.3,0.4,0.6,0.6,1s0.2,0.8,0.2,1.3c0,0.5-0.1,0.9-0.2,1.3s-0.3,0.7-0.6,0.9
				c-0.2,0.3-0.5,0.5-0.8,0.6C578.6,505.8,578.3,505.9,577.9,505.9z M577.9,505.4c0.3,0,0.6-0.1,0.8-0.2s0.5-0.3,0.6-0.5
				c0.2-0.2,0.3-0.5,0.4-0.8c0.1-0.3,0.2-0.7,0.2-1c0-0.4-0.1-0.7-0.2-1c-0.1-0.3-0.2-0.6-0.4-0.8c-0.2-0.2-0.4-0.4-0.6-0.5
				s-0.5-0.2-0.8-0.2s-0.6,0.1-0.8,0.2s-0.5,0.3-0.6,0.5c-0.2,0.2-0.3,0.5-0.4,0.8c-0.1,0.3-0.2,0.7-0.2,1c0,0.4,0.1,0.7,0.2,1
				c0.1,0.3,0.2,0.6,0.4,0.8c0.2,0.2,0.4,0.4,0.6,0.5S577.6,505.4,577.9,505.4z"/>
			<path d="M586,505.9c-0.4,0-0.8-0.1-1.2-0.2s-0.7-0.3-0.9-0.6l0.3-0.4c0.2,0.2,0.5,0.4,0.8,0.5c0.3,0.1,0.6,0.2,1,0.2
				c0.5,0,0.8-0.1,1-0.3c0.2-0.2,0.3-0.5,0.3-0.8c0-0.2,0-0.3-0.1-0.5s-0.2-0.3-0.3-0.3c-0.1-0.1-0.3-0.2-0.4-0.3
				c-0.2-0.1-0.3-0.1-0.5-0.2c-0.2-0.1-0.4-0.2-0.7-0.3c-0.2-0.1-0.4-0.2-0.6-0.3c-0.2-0.1-0.3-0.3-0.4-0.4
				c-0.1-0.2-0.2-0.4-0.2-0.6c0-0.2,0-0.4,0.1-0.6s0.2-0.4,0.4-0.5c0.2-0.1,0.4-0.2,0.6-0.3s0.5-0.1,0.8-0.1c0.3,0,0.6,0.1,0.9,0.2
				c0.3,0.1,0.5,0.3,0.8,0.4l-0.3,0.4c-0.2-0.1-0.4-0.3-0.6-0.4c-0.2-0.1-0.5-0.2-0.8-0.2c-0.2,0-0.4,0-0.6,0.1
				c-0.2,0.1-0.3,0.1-0.4,0.2s-0.2,0.2-0.2,0.3c-0.1,0.1-0.1,0.3-0.1,0.4c0,0.2,0,0.3,0.1,0.4c0.1,0.1,0.2,0.2,0.3,0.3
				c0.1,0.1,0.3,0.2,0.4,0.2c0.2,0.1,0.3,0.1,0.5,0.2c0.2,0.1,0.4,0.2,0.7,0.3c0.2,0.1,0.4,0.2,0.6,0.3s0.3,0.3,0.4,0.5
				c0.1,0.2,0.2,0.4,0.2,0.7c0,0.2,0,0.4-0.1,0.6c-0.1,0.2-0.2,0.4-0.4,0.5c-0.2,0.1-0.4,0.3-0.6,0.4
				C586.6,505.8,586.3,505.9,586,505.9z"/>
		</g>
		<g class="st0">
			<path d="M591.6,505.9c-0.4,0-0.7-0.1-1-0.2c-0.3-0.1-0.6-0.3-0.8-0.6c-0.2-0.3-0.4-0.6-0.6-0.9c-0.1-0.4-0.2-0.8-0.2-1.3
				c0-0.5,0.1-0.9,0.2-1.3s0.3-0.7,0.6-1c0.2-0.3,0.5-0.5,0.8-0.6c0.3-0.1,0.6-0.2,1-0.2c0.4,0,0.7,0.1,1,0.2
				c0.3,0.1,0.5,0.3,0.7,0.5l-0.3,0.4c-0.2-0.2-0.4-0.3-0.6-0.4c-0.2-0.1-0.5-0.2-0.8-0.2c-0.3,0-0.6,0.1-0.8,0.2s-0.5,0.3-0.7,0.5
				c-0.2,0.2-0.3,0.5-0.4,0.8c-0.1,0.3-0.2,0.7-0.2,1c0,0.4,0.1,0.7,0.2,1c0.1,0.3,0.2,0.6,0.4,0.8c0.2,0.2,0.4,0.4,0.7,0.5
				c0.3,0.1,0.5,0.2,0.9,0.2c0.3,0,0.6-0.1,0.8-0.2c0.3-0.1,0.5-0.3,0.7-0.5l0.3,0.4c-0.2,0.2-0.5,0.4-0.8,0.5
				C592.3,505.8,592,505.9,591.6,505.9z"/>
		</g>
		<g class="st0">
			<path d="M596,505.9c-0.2,0-0.4,0-0.6-0.1c-0.2-0.1-0.4-0.2-0.5-0.3s-0.3-0.3-0.4-0.5c-0.1-0.2-0.1-0.4-0.1-0.7
				c0-0.6,0.3-1.1,0.9-1.5c0.6-0.3,1.5-0.6,2.8-0.7c0-0.2,0-0.4,0-0.7c0-0.2-0.1-0.4-0.2-0.6c-0.1-0.2-0.2-0.3-0.4-0.4
				c-0.2-0.1-0.4-0.2-0.7-0.2c-0.4,0-0.7,0.1-1.1,0.2c-0.3,0.2-0.6,0.3-0.8,0.4l-0.2-0.4c0.1-0.1,0.2-0.2,0.4-0.2
				c0.1-0.1,0.3-0.2,0.5-0.2c0.2-0.1,0.4-0.1,0.6-0.2c0.2-0.1,0.4-0.1,0.7-0.1c0.3,0,0.6,0.1,0.9,0.2c0.2,0.1,0.4,0.3,0.6,0.5
				s0.2,0.4,0.3,0.7c0.1,0.3,0.1,0.6,0.1,0.9v3.7h-0.5l0-0.7h0c-0.3,0.2-0.6,0.4-1,0.6C596.8,505.8,596.4,505.9,596,505.9z
				 M596.1,505.4c0.3,0,0.7-0.1,1-0.2s0.6-0.4,1-0.7v-2c-0.6,0.1-1.1,0.2-1.5,0.3c-0.4,0.1-0.7,0.2-1,0.4c-0.2,0.1-0.4,0.3-0.5,0.5
				c-0.1,0.2-0.2,0.4-0.2,0.6c0,0.2,0,0.4,0.1,0.5c0.1,0.1,0.2,0.3,0.3,0.4c0.1,0.1,0.2,0.2,0.4,0.2S596,505.4,596.1,505.4z"/>
			<path d="M601.4,505.9c-0.5,0-0.7-0.3-0.7-0.9v-7.9h0.5v7.9c0,0.1,0,0.2,0.1,0.3c0,0.1,0.1,0.1,0.2,0.1c0,0,0.1,0,0.1,0
				s0.1,0,0.1,0l0.1,0.4c-0.1,0-0.1,0-0.2,0C601.5,505.9,601.5,505.9,601.4,505.9z"/>
			<path d="M605.7,505.9c-0.4,0-0.7-0.1-1-0.2c-0.3-0.1-0.6-0.3-0.8-0.6c-0.2-0.3-0.4-0.6-0.6-0.9c-0.1-0.4-0.2-0.8-0.2-1.3
				c0-0.5,0.1-0.9,0.2-1.3c0.1-0.4,0.3-0.7,0.6-1s0.5-0.5,0.8-0.6c0.3-0.1,0.6-0.2,0.9-0.2c0.7,0,1.2,0.2,1.6,0.7s0.6,1.1,0.6,2
				c0,0.1,0,0.1,0,0.2c0,0.1,0,0.1,0,0.2h-4.2c0,0.4,0.1,0.7,0.2,1c0.1,0.3,0.2,0.6,0.4,0.8c0.2,0.2,0.4,0.4,0.7,0.5
				c0.3,0.1,0.6,0.2,0.9,0.2c0.3,0,0.6,0,0.8-0.1s0.5-0.2,0.7-0.4l0.2,0.4c-0.2,0.1-0.5,0.3-0.8,0.4S606.1,505.9,605.7,505.9z
				 M603.6,502.5h3.7c0-0.7-0.2-1.3-0.5-1.7c-0.3-0.4-0.7-0.5-1.2-0.5c-0.2,0-0.5,0.1-0.7,0.2c-0.2,0.1-0.4,0.2-0.6,0.4
				c-0.2,0.2-0.3,0.4-0.4,0.7C603.7,501.8,603.6,502.2,603.6,502.5z"/>
		</g>
		<g class="st0">
			<path d="M1020.6,505.9c-0.6,0-1.1-0.1-1.5-0.3c-0.4-0.2-0.8-0.5-1.1-0.9l0.4-0.4c0.3,0.3,0.6,0.6,1,0.8c0.4,0.2,0.8,0.3,1.3,0.3
				c0.6,0,1.1-0.1,1.4-0.4s0.5-0.7,0.5-1.1c0-0.2,0-0.5-0.1-0.6s-0.2-0.3-0.3-0.4c-0.1-0.1-0.3-0.2-0.4-0.3s-0.4-0.2-0.5-0.3
				l-1.2-0.5c-0.2-0.1-0.3-0.2-0.5-0.3c-0.2-0.1-0.4-0.2-0.5-0.4s-0.3-0.3-0.4-0.6s-0.2-0.5-0.2-0.8c0-0.3,0.1-0.5,0.2-0.8
				c0.1-0.2,0.3-0.4,0.5-0.6s0.4-0.3,0.7-0.4c0.3-0.1,0.6-0.1,0.9-0.1c0.5,0,0.9,0.1,1.3,0.3c0.4,0.2,0.7,0.4,0.9,0.7l-0.3,0.4
				c-0.2-0.2-0.5-0.4-0.8-0.6c-0.3-0.1-0.7-0.2-1.1-0.2c-0.5,0-1,0.1-1.3,0.4s-0.5,0.6-0.5,1c0,0.2,0,0.4,0.1,0.6s0.2,0.3,0.3,0.4
				c0.1,0.1,0.3,0.2,0.4,0.3s0.3,0.2,0.5,0.2l1.2,0.5c0.2,0.1,0.4,0.2,0.6,0.3c0.2,0.1,0.4,0.3,0.5,0.4s0.3,0.3,0.4,0.6
				c0.1,0.2,0.1,0.5,0.1,0.8c0,0.3-0.1,0.6-0.2,0.8s-0.3,0.5-0.5,0.7c-0.2,0.2-0.5,0.3-0.8,0.4
				C1021.4,505.8,1021,505.9,1020.6,505.9z"/>
			<path d="M1025.1,498.6c-0.1,0-0.2,0-0.3-0.1c-0.1-0.1-0.1-0.2-0.1-0.3c0-0.2,0-0.3,0.1-0.4c0.1-0.1,0.2-0.1,0.3-0.1
				s0.2,0,0.3,0.1c0.1,0.1,0.1,0.2,0.1,0.4c0,0.1,0,0.2-0.1,0.3C1025.3,498.5,1025.2,498.6,1025.1,498.6z M1024.8,505.7V500h0.5v5.8
				H1024.8z"/>
		</g>
		<g class="st0">
			<path d="M1026.7,505.7v-0.3l3.4-5h-3V500h3.7v0.3l-3.4,5h3.5v0.5H1026.7z"/>
		</g>
		<g class="st0">
			<path d="M1034.4,505.9c-0.4,0-0.7-0.1-1-0.2c-0.3-0.1-0.6-0.3-0.8-0.6c-0.2-0.3-0.4-0.6-0.6-0.9c-0.1-0.4-0.2-0.8-0.2-1.3
				c0-0.5,0.1-0.9,0.2-1.3c0.1-0.4,0.3-0.7,0.6-1s0.5-0.5,0.8-0.6c0.3-0.1,0.6-0.2,0.9-0.2c0.7,0,1.2,0.2,1.6,0.7
				c0.4,0.5,0.6,1.1,0.6,2c0,0.1,0,0.1,0,0.2c0,0.1,0,0.1,0,0.2h-4.2c0,0.4,0.1,0.7,0.2,1c0.1,0.3,0.2,0.6,0.4,0.8
				c0.2,0.2,0.4,0.4,0.7,0.5s0.6,0.2,0.9,0.2c0.3,0,0.6,0,0.8-0.1s0.5-0.2,0.7-0.4l0.2,0.4c-0.2,0.1-0.5,0.3-0.8,0.4
				C1035.2,505.8,1034.9,505.9,1034.4,505.9z M1032.3,502.5h3.7c0-0.7-0.2-1.3-0.5-1.7c-0.3-0.4-0.7-0.5-1.2-0.5
				c-0.2,0-0.5,0.1-0.7,0.2c-0.2,0.1-0.4,0.2-0.6,0.4c-0.2,0.2-0.3,0.4-0.4,0.7C1032.4,501.8,1032.3,502.2,1032.3,502.5z"/>
			<path d="M1039.4,505.9c-0.4,0-0.8-0.1-1.2-0.2s-0.7-0.3-0.9-0.6l0.3-0.4c0.2,0.2,0.5,0.4,0.8,0.5c0.3,0.1,0.6,0.2,1,0.2
				c0.5,0,0.8-0.1,1-0.3c0.2-0.2,0.3-0.5,0.3-0.8c0-0.2,0-0.3-0.1-0.5s-0.2-0.3-0.3-0.3c-0.1-0.1-0.3-0.2-0.5-0.3
				c-0.2-0.1-0.3-0.1-0.5-0.2c-0.2-0.1-0.4-0.2-0.7-0.3c-0.2-0.1-0.4-0.2-0.6-0.3s-0.3-0.3-0.4-0.4c-0.1-0.2-0.2-0.4-0.2-0.6
				c0-0.2,0-0.4,0.1-0.6s0.2-0.4,0.4-0.5c0.2-0.1,0.4-0.2,0.6-0.3s0.5-0.1,0.8-0.1s0.6,0.1,0.9,0.2c0.3,0.1,0.5,0.3,0.8,0.4
				l-0.3,0.4c-0.2-0.1-0.4-0.3-0.6-0.4s-0.5-0.2-0.8-0.2c-0.2,0-0.4,0-0.6,0.1c-0.2,0.1-0.3,0.1-0.4,0.2s-0.2,0.2-0.2,0.3
				s-0.1,0.3-0.1,0.4c0,0.2,0,0.3,0.1,0.4c0.1,0.1,0.2,0.2,0.3,0.3c0.1,0.1,0.3,0.2,0.4,0.2c0.2,0.1,0.3,0.1,0.5,0.2
				c0.2,0.1,0.4,0.2,0.7,0.3c0.2,0.1,0.4,0.2,0.6,0.3c0.2,0.1,0.3,0.3,0.4,0.5c0.1,0.2,0.2,0.4,0.2,0.7c0,0.2,0,0.4-0.1,0.6
				c-0.1,0.2-0.2,0.4-0.4,0.5c-0.2,0.1-0.4,0.3-0.6,0.4S1039.8,505.9,1039.4,505.9z"/>
			<path d="M1046.6,505.9c-0.2,0-0.4,0-0.6-0.1c-0.2-0.1-0.4-0.2-0.5-0.3s-0.3-0.3-0.4-0.5c-0.1-0.2-0.1-0.4-0.1-0.7
				c0-0.6,0.3-1.1,0.9-1.5c0.6-0.3,1.5-0.6,2.8-0.7c0-0.2,0-0.4,0-0.7c0-0.2-0.1-0.4-0.2-0.6c-0.1-0.2-0.2-0.3-0.4-0.4
				c-0.2-0.1-0.4-0.2-0.7-0.2c-0.4,0-0.7,0.1-1.1,0.2s-0.6,0.3-0.8,0.4l-0.2-0.4c0.1-0.1,0.2-0.2,0.4-0.2c0.1-0.1,0.3-0.2,0.5-0.2
				c0.2-0.1,0.4-0.1,0.6-0.2c0.2-0.1,0.4-0.1,0.7-0.1c0.3,0,0.6,0.1,0.9,0.2c0.2,0.1,0.4,0.3,0.6,0.5c0.1,0.2,0.2,0.4,0.3,0.7
				c0.1,0.3,0.1,0.6,0.1,0.9v3.7h-0.5l0-0.7h0c-0.3,0.2-0.6,0.4-1,0.6C1047.3,505.8,1047,505.9,1046.6,505.9z M1046.7,505.4
				c0.3,0,0.7-0.1,1-0.2c0.3-0.2,0.6-0.4,1-0.7v-2c-0.6,0.1-1.1,0.2-1.5,0.3c-0.4,0.1-0.7,0.2-1,0.4c-0.2,0.1-0.4,0.3-0.5,0.5
				c-0.1,0.2-0.2,0.4-0.2,0.6c0,0.2,0,0.4,0.1,0.5c0.1,0.1,0.2,0.3,0.3,0.4s0.2,0.2,0.4,0.2S1046.5,505.4,1046.7,505.4z"/>
			<path d="M1051.2,505.7V500h0.5l0,0.9h0c0.3-0.3,0.6-0.5,0.9-0.7c0.3-0.2,0.7-0.3,1.1-0.3c0.6,0,1,0.2,1.3,0.5
				c0.3,0.4,0.4,0.9,0.4,1.7v3.7h-0.5v-3.6c0-0.6-0.1-1.1-0.3-1.4c-0.2-0.3-0.5-0.4-1-0.4c-0.3,0-0.7,0.1-0.9,0.3
				c-0.3,0.2-0.6,0.5-0.9,0.8v4.3H1051.2z"/>
			<path d="M1059.5,505.9c-0.7,0-1.3-0.3-1.7-0.8c-0.4-0.5-0.6-1.3-0.6-2.2c0-0.5,0.1-0.9,0.2-1.3s0.3-0.7,0.6-1s0.5-0.5,0.8-0.6
				c0.3-0.1,0.6-0.2,1-0.2c0.4,0,0.7,0.1,0.9,0.2c0.3,0.1,0.5,0.3,0.8,0.5l0-1.1v-2.4h0.5v8.6h-0.5l0-0.7h0
				c-0.2,0.2-0.5,0.4-0.8,0.6C1060.2,505.8,1059.9,505.9,1059.5,505.9z M1059.6,505.4c0.3,0,0.6-0.1,0.9-0.2
				c0.3-0.2,0.6-0.4,0.9-0.7V501c-0.3-0.3-0.6-0.5-0.9-0.6c-0.3-0.1-0.5-0.2-0.8-0.2c-0.3,0-0.6,0.1-0.8,0.2
				c-0.2,0.1-0.5,0.3-0.6,0.5c-0.2,0.2-0.3,0.5-0.4,0.8c-0.1,0.3-0.2,0.7-0.2,1c0,0.4,0,0.7,0.1,1c0.1,0.3,0.2,0.6,0.4,0.8
				c0.2,0.2,0.4,0.4,0.6,0.5C1059,505.4,1059.3,505.4,1059.6,505.4z"/>
			<path d="M1068.4,505.9c-0.7,0-1.3-0.3-1.7-0.8c-0.4-0.5-0.6-1.3-0.6-2.2c0-0.5,0.1-0.9,0.2-1.3c0.1-0.4,0.3-0.7,0.6-1
				c0.2-0.3,0.5-0.5,0.8-0.6c0.3-0.1,0.6-0.2,1-0.2c0.4,0,0.7,0.1,0.9,0.2s0.5,0.3,0.8,0.5l0-1.1v-2.4h0.5v8.6h-0.5l0-0.7h0
				c-0.2,0.2-0.5,0.4-0.8,0.6S1068.8,505.9,1068.4,505.9z M1068.5,505.4c0.3,0,0.6-0.1,0.9-0.2c0.3-0.2,0.6-0.4,0.9-0.7V501
				c-0.3-0.3-0.6-0.5-0.9-0.6c-0.3-0.1-0.5-0.2-0.8-0.2c-0.3,0-0.6,0.1-0.8,0.2c-0.2,0.1-0.5,0.3-0.6,0.5c-0.2,0.2-0.3,0.5-0.4,0.8
				c-0.1,0.3-0.2,0.7-0.2,1c0,0.4,0,0.7,0.1,1c0.1,0.3,0.2,0.6,0.4,0.8c0.2,0.2,0.4,0.4,0.6,0.5S1068.2,505.4,1068.5,505.4z"/>
			<path d="M1073.3,498.6c-0.1,0-0.2,0-0.3-0.1c-0.1-0.1-0.1-0.2-0.1-0.3c0-0.2,0-0.3,0.1-0.4c0.1-0.1,0.2-0.1,0.3-0.1
				s0.2,0,0.3,0.1c0.1,0.1,0.1,0.2,0.1,0.4c0,0.1,0,0.2-0.1,0.3C1073.6,498.5,1073.5,498.6,1073.3,498.6z M1073,505.7V500h0.5v5.8
				H1073z"/>
		</g>
		<g class="st0">
			<path d="M1077.2,505.9c-0.4,0-0.8-0.1-1.2-0.2c-0.4-0.2-0.7-0.3-0.9-0.6l0.3-0.4c0.2,0.2,0.5,0.4,0.8,0.5c0.3,0.1,0.6,0.2,1,0.2
				c0.5,0,0.8-0.1,1-0.3c0.2-0.2,0.3-0.5,0.3-0.8c0-0.2,0-0.3-0.1-0.5s-0.2-0.3-0.3-0.3c-0.1-0.1-0.3-0.2-0.5-0.3
				c-0.2-0.1-0.3-0.1-0.5-0.2c-0.2-0.1-0.4-0.2-0.7-0.3c-0.2-0.1-0.4-0.2-0.6-0.3s-0.3-0.3-0.4-0.4c-0.1-0.2-0.2-0.4-0.2-0.6
				c0-0.2,0-0.4,0.1-0.6s0.2-0.4,0.4-0.5c0.2-0.1,0.4-0.2,0.6-0.3c0.2-0.1,0.5-0.1,0.8-0.1c0.3,0,0.6,0.1,0.9,0.2
				c0.3,0.1,0.5,0.3,0.8,0.4l-0.3,0.4c-0.2-0.1-0.4-0.3-0.6-0.4c-0.2-0.1-0.5-0.2-0.8-0.2c-0.2,0-0.4,0-0.6,0.1
				c-0.2,0.1-0.3,0.1-0.4,0.2c-0.1,0.1-0.2,0.2-0.2,0.3s-0.1,0.3-0.1,0.4c0,0.2,0,0.3,0.1,0.4c0.1,0.1,0.2,0.2,0.3,0.3
				s0.3,0.2,0.4,0.2c0.2,0.1,0.3,0.1,0.5,0.2c0.2,0.1,0.4,0.2,0.7,0.3c0.2,0.1,0.4,0.2,0.6,0.3c0.2,0.1,0.3,0.3,0.4,0.5
				c0.1,0.2,0.2,0.4,0.2,0.7c0,0.2,0,0.4-0.1,0.6c-0.1,0.2-0.2,0.4-0.4,0.5c-0.2,0.1-0.4,0.3-0.6,0.4S1077.5,505.9,1077.2,505.9z"/>
		</g>
		<g class="st0">
			<path d="M1082,505.9c-0.3,0-0.5,0-0.7-0.1c-0.2-0.1-0.3-0.2-0.4-0.4c-0.1-0.2-0.2-0.3-0.2-0.6s-0.1-0.5-0.1-0.7v-3.7h-0.9V500
				l0.9,0l0.1-1.7h0.5v1.7h1.7v0.5h-1.7v3.8c0,0.2,0,0.3,0,0.5c0,0.1,0.1,0.3,0.2,0.4s0.2,0.2,0.3,0.3c0.1,0.1,0.3,0.1,0.5,0.1
				c0.1,0,0.2,0,0.4-0.1c0.1,0,0.2-0.1,0.4-0.1l0.1,0.4c-0.2,0.1-0.3,0.1-0.5,0.2S1082.1,505.9,1082,505.9z"/>
		</g>
		<g class="st0">
			<path d="M1085.1,505.9c-0.2,0-0.4,0-0.6-0.1c-0.2-0.1-0.4-0.2-0.5-0.3c-0.2-0.1-0.3-0.3-0.4-0.5c-0.1-0.2-0.1-0.4-0.1-0.7
				c0-0.6,0.3-1.1,0.9-1.5c0.6-0.3,1.5-0.6,2.8-0.7c0-0.2,0-0.4,0-0.7c0-0.2-0.1-0.4-0.2-0.6c-0.1-0.2-0.2-0.3-0.4-0.4
				c-0.2-0.1-0.4-0.2-0.7-0.2c-0.4,0-0.7,0.1-1.1,0.2c-0.3,0.2-0.6,0.3-0.8,0.4l-0.2-0.4c0.1-0.1,0.2-0.2,0.4-0.2
				c0.1-0.1,0.3-0.2,0.5-0.2c0.2-0.1,0.4-0.1,0.6-0.2c0.2-0.1,0.4-0.1,0.7-0.1c0.3,0,0.6,0.1,0.9,0.2c0.2,0.1,0.4,0.3,0.6,0.5
				c0.1,0.2,0.2,0.4,0.3,0.7c0.1,0.3,0.1,0.6,0.1,0.9v3.7h-0.5l0-0.7h0c-0.3,0.2-0.6,0.4-1,0.6
				C1085.9,505.8,1085.5,505.9,1085.1,505.9z M1085.2,505.4c0.3,0,0.7-0.1,1-0.2c0.3-0.2,0.6-0.4,1-0.7v-2c-0.6,0.1-1.1,0.2-1.5,0.3
				c-0.4,0.1-0.7,0.2-1,0.4c-0.2,0.1-0.4,0.3-0.5,0.5c-0.1,0.2-0.2,0.4-0.2,0.6c0,0.2,0,0.4,0.1,0.5c0.1,0.1,0.2,0.3,0.3,0.4
				s0.2,0.2,0.4,0.2C1084.9,505.4,1085.1,505.4,1085.2,505.4z"/>
			<path d="M1089.8,505.7V500h0.5l0,0.9h0c0.3-0.3,0.6-0.5,0.9-0.7c0.3-0.2,0.7-0.3,1.1-0.3c0.6,0,1,0.2,1.3,0.5
				c0.3,0.4,0.4,0.9,0.4,1.7v3.7h-0.5v-3.6c0-0.6-0.1-1.1-0.3-1.4s-0.5-0.4-1-0.4c-0.3,0-0.7,0.1-0.9,0.3c-0.3,0.2-0.6,0.5-0.9,0.8
				v4.3H1089.8z"/>
		</g>
		<g class="st0">
			<path d="M1098.3,505.9c-0.4,0-0.7-0.1-1-0.2c-0.3-0.1-0.6-0.3-0.8-0.6c-0.2-0.3-0.4-0.6-0.6-0.9s-0.2-0.8-0.2-1.3
				c0-0.5,0.1-0.9,0.2-1.3c0.1-0.4,0.3-0.7,0.6-1c0.2-0.3,0.5-0.5,0.8-0.6c0.3-0.1,0.6-0.2,1-0.2c0.4,0,0.7,0.1,1,0.2
				c0.3,0.1,0.5,0.3,0.7,0.5l-0.3,0.4c-0.2-0.2-0.4-0.3-0.6-0.4c-0.2-0.1-0.5-0.2-0.8-0.2c-0.3,0-0.6,0.1-0.8,0.2s-0.5,0.3-0.7,0.5
				c-0.2,0.2-0.3,0.5-0.4,0.8c-0.1,0.3-0.2,0.7-0.2,1c0,0.4,0,0.7,0.2,1c0.1,0.3,0.2,0.6,0.4,0.8c0.2,0.2,0.4,0.4,0.7,0.5
				c0.3,0.1,0.5,0.2,0.9,0.2c0.3,0,0.6-0.1,0.8-0.2s0.5-0.3,0.7-0.5l0.3,0.4c-0.2,0.2-0.5,0.4-0.8,0.5
				C1099,505.8,1098.7,505.9,1098.3,505.9z"/>
		</g>
		<g class="st0">
			<path d="M1103.5,505.9c-0.4,0-0.7-0.1-1-0.2c-0.3-0.1-0.6-0.3-0.8-0.6c-0.2-0.3-0.4-0.6-0.6-0.9c-0.1-0.4-0.2-0.8-0.2-1.3
				c0-0.5,0.1-0.9,0.2-1.3c0.1-0.4,0.3-0.7,0.6-1c0.2-0.3,0.5-0.5,0.8-0.6c0.3-0.1,0.6-0.2,0.9-0.2c0.7,0,1.2,0.2,1.6,0.7
				c0.4,0.5,0.6,1.1,0.6,2c0,0.1,0,0.1,0,0.2c0,0.1,0,0.1,0,0.2h-4.2c0,0.4,0.1,0.7,0.2,1c0.1,0.3,0.2,0.6,0.4,0.8
				c0.2,0.2,0.4,0.4,0.7,0.5c0.3,0.1,0.6,0.2,0.9,0.2c0.3,0,0.6,0,0.8-0.1s0.5-0.2,0.7-0.4l0.2,0.4c-0.2,0.1-0.5,0.3-0.8,0.4
				C1104.3,505.8,1104,505.9,1103.5,505.9z M1101.4,502.5h3.7c0-0.7-0.2-1.3-0.5-1.7c-0.3-0.4-0.7-0.5-1.2-0.5
				c-0.2,0-0.5,0.1-0.7,0.2s-0.4,0.2-0.6,0.4c-0.2,0.2-0.3,0.4-0.4,0.7C1101.5,501.8,1101.4,502.2,1101.4,502.5z"/>
			<path d="M1108.5,505.9c-0.4,0-0.8-0.1-1.2-0.2c-0.4-0.2-0.7-0.3-0.9-0.6l0.3-0.4c0.2,0.2,0.5,0.4,0.8,0.5c0.3,0.1,0.6,0.2,1,0.2
				c0.5,0,0.8-0.1,1-0.3c0.2-0.2,0.3-0.5,0.3-0.8c0-0.2,0-0.3-0.1-0.5s-0.2-0.3-0.3-0.3c-0.1-0.1-0.3-0.2-0.4-0.3
				c-0.2-0.1-0.3-0.1-0.5-0.2c-0.2-0.1-0.4-0.2-0.7-0.3s-0.4-0.2-0.6-0.3c-0.2-0.1-0.3-0.3-0.4-0.4c-0.1-0.2-0.2-0.4-0.2-0.6
				c0-0.2,0-0.4,0.1-0.6s0.2-0.4,0.4-0.5c0.2-0.1,0.4-0.2,0.6-0.3c0.2-0.1,0.5-0.1,0.8-0.1s0.6,0.1,0.9,0.2c0.3,0.1,0.5,0.3,0.8,0.4
				l-0.3,0.4c-0.2-0.1-0.4-0.3-0.6-0.4s-0.5-0.2-0.8-0.2c-0.2,0-0.4,0-0.6,0.1c-0.2,0.1-0.3,0.1-0.4,0.2c-0.1,0.1-0.2,0.2-0.2,0.3
				c-0.1,0.1-0.1,0.3-0.1,0.4c0,0.2,0,0.3,0.1,0.4c0.1,0.1,0.2,0.2,0.3,0.3c0.1,0.1,0.3,0.2,0.4,0.2c0.2,0.1,0.3,0.1,0.5,0.2
				c0.2,0.1,0.4,0.2,0.7,0.3s0.4,0.2,0.6,0.3c0.2,0.1,0.3,0.3,0.4,0.5c0.1,0.2,0.2,0.4,0.2,0.7c0,0.2,0,0.4-0.1,0.6
				c-0.1,0.2-0.2,0.4-0.4,0.5c-0.2,0.1-0.4,0.3-0.6,0.4C1109.1,505.8,1108.8,505.9,1108.5,505.9z"/>
			<path d="M1114.4,505.7V500h0.5l0,0.9h0c0.3-0.3,0.6-0.5,0.9-0.7c0.3-0.2,0.7-0.3,1.1-0.3c0.6,0,1,0.2,1.3,0.5
				c0.3,0.4,0.4,0.9,0.4,1.7v3.7h-0.5v-3.6c0-0.6-0.1-1.1-0.3-1.4c-0.2-0.3-0.5-0.4-1-0.4c-0.3,0-0.7,0.1-0.9,0.3
				c-0.3,0.2-0.6,0.5-0.9,0.8v4.3H1114.4z"/>
		</g>
		<g class="st0">
			<path d="M1122.9,505.9c-0.3,0-0.7-0.1-1-0.2c-0.3-0.1-0.6-0.3-0.8-0.6c-0.2-0.3-0.4-0.6-0.6-0.9s-0.2-0.8-0.2-1.3
				c0-0.5,0.1-0.9,0.2-1.3s0.3-0.7,0.6-1c0.2-0.3,0.5-0.5,0.8-0.6c0.3-0.1,0.6-0.2,1-0.2s0.7,0.1,1,0.2c0.3,0.1,0.6,0.3,0.8,0.6
				c0.2,0.3,0.4,0.6,0.6,1c0.1,0.4,0.2,0.8,0.2,1.3c0,0.5-0.1,0.9-0.2,1.3c-0.1,0.4-0.3,0.7-0.6,0.9c-0.2,0.3-0.5,0.5-0.8,0.6
				C1123.6,505.8,1123.2,505.9,1122.9,505.9z M1122.9,505.4c0.3,0,0.6-0.1,0.8-0.2s0.5-0.3,0.6-0.5c0.2-0.2,0.3-0.5,0.4-0.8
				c0.1-0.3,0.2-0.7,0.2-1c0-0.4-0.1-0.7-0.2-1c-0.1-0.3-0.2-0.6-0.4-0.8c-0.2-0.2-0.4-0.4-0.6-0.5s-0.5-0.2-0.8-0.2
				s-0.6,0.1-0.8,0.2s-0.5,0.3-0.6,0.5c-0.2,0.2-0.3,0.5-0.4,0.8c-0.1,0.3-0.2,0.7-0.2,1c0,0.4,0.1,0.7,0.2,1
				c0.1,0.3,0.2,0.6,0.4,0.8c0.2,0.2,0.4,0.4,0.6,0.5S1122.6,505.4,1122.9,505.4z"/>
		</g>
		<g class="st0">
			<path d="M1128.6,505.9c-0.3,0-0.5,0-0.7-0.1c-0.2-0.1-0.3-0.2-0.4-0.4c-0.1-0.2-0.2-0.3-0.2-0.6s-0.1-0.5-0.1-0.7v-3.7h-0.9V500
				l0.9,0l0.1-1.7h0.5v1.7h1.7v0.5h-1.7v3.8c0,0.2,0,0.3,0,0.5c0,0.1,0.1,0.3,0.2,0.4s0.2,0.2,0.3,0.3c0.1,0.1,0.3,0.1,0.5,0.1
				c0.1,0,0.2,0,0.4-0.1c0.1,0,0.2-0.1,0.4-0.1l0.1,0.4c-0.2,0.1-0.3,0.1-0.5,0.2S1128.8,505.9,1128.6,505.9z"/>
			<path d="M1135.1,505.9c-0.7,0-1.3-0.3-1.7-0.8c-0.4-0.5-0.6-1.3-0.6-2.2c0-0.5,0.1-0.9,0.2-1.3c0.1-0.4,0.3-0.7,0.6-1
				s0.5-0.5,0.8-0.6c0.3-0.1,0.6-0.2,1-0.2c0.4,0,0.7,0.1,0.9,0.2c0.3,0.1,0.5,0.3,0.8,0.5l0-1.1v-2.4h0.5v8.6h-0.5l0-0.7h0
				c-0.2,0.2-0.5,0.4-0.8,0.6S1135.5,505.9,1135.1,505.9z M1135.2,505.4c0.3,0,0.6-0.1,0.9-0.2c0.3-0.2,0.6-0.4,0.9-0.7V501
				c-0.3-0.3-0.6-0.5-0.9-0.6c-0.3-0.1-0.5-0.2-0.8-0.2c-0.3,0-0.6,0.1-0.8,0.2s-0.5,0.3-0.6,0.5c-0.2,0.2-0.3,0.5-0.4,0.8
				c-0.1,0.3-0.2,0.7-0.2,1c0,0.4,0,0.7,0.1,1c0.1,0.3,0.2,0.6,0.4,0.8c0.2,0.2,0.4,0.4,0.6,0.5S1134.9,505.4,1135.2,505.4z"/>
		</g>
		<g class="st0">
			<path d="M1139.7,505.7V500h0.5l0,1.1h0c0.2-0.4,0.4-0.7,0.7-0.9c0.3-0.2,0.6-0.3,0.9-0.3c0.1,0,0.2,0,0.3,0c0.1,0,0.2,0,0.3,0.1
				l-0.1,0.5c-0.1,0-0.2-0.1-0.3-0.1c-0.1,0-0.2,0-0.3,0c-0.3,0-0.5,0.1-0.8,0.3c-0.3,0.2-0.5,0.6-0.8,1.1v3.9H1139.7z"/>
		</g>
		<g class="st0">
			<path d="M1144.5,505.9c-0.2,0-0.4,0-0.6-0.1c-0.2-0.1-0.4-0.2-0.5-0.3c-0.2-0.1-0.3-0.3-0.4-0.5c-0.1-0.2-0.1-0.4-0.1-0.7
				c0-0.6,0.3-1.1,0.9-1.5c0.6-0.3,1.5-0.6,2.8-0.7c0-0.2,0-0.4,0-0.7c0-0.2-0.1-0.4-0.2-0.6c-0.1-0.2-0.2-0.3-0.4-0.4
				c-0.2-0.1-0.4-0.2-0.7-0.2c-0.4,0-0.7,0.1-1.1,0.2s-0.6,0.3-0.8,0.4l-0.2-0.4c0.1-0.1,0.2-0.2,0.4-0.2c0.1-0.1,0.3-0.2,0.5-0.2
				c0.2-0.1,0.4-0.1,0.6-0.2c0.2-0.1,0.4-0.1,0.7-0.1c0.3,0,0.6,0.1,0.9,0.2c0.2,0.1,0.4,0.3,0.6,0.5c0.1,0.2,0.2,0.4,0.3,0.7
				c0.1,0.3,0.1,0.6,0.1,0.9v3.7h-0.5l0-0.7h0c-0.3,0.2-0.6,0.4-1,0.6S1144.9,505.9,1144.5,505.9z M1144.6,505.4
				c0.3,0,0.7-0.1,1-0.2c0.3-0.2,0.6-0.4,1-0.7v-2c-0.6,0.1-1.1,0.2-1.5,0.3c-0.4,0.1-0.7,0.2-1,0.4c-0.2,0.1-0.4,0.3-0.5,0.5
				c-0.1,0.2-0.2,0.4-0.2,0.6c0,0.2,0,0.4,0.1,0.5c0.1,0.1,0.2,0.3,0.3,0.4c0.1,0.1,0.2,0.2,0.4,0.2
				C1144.3,505.4,1144.5,505.4,1144.6,505.4z"/>
			<path d="M1150.1,505.7l-1.7-5.8h0.6l1,3.7c0.1,0.3,0.1,0.5,0.2,0.8s0.1,0.5,0.2,0.8h0c0.1-0.3,0.1-0.5,0.2-0.8s0.1-0.5,0.2-0.8
				l1-3.7h0.6l1,3.7c0.1,0.3,0.1,0.5,0.2,0.8c0.1,0.3,0.1,0.5,0.2,0.8h0c0.1-0.3,0.1-0.5,0.2-0.8s0.1-0.5,0.2-0.8l1-3.7h0.5
				l-1.7,5.8h-0.7l-1-3.6c-0.1-0.3-0.2-0.6-0.2-0.8c-0.1-0.3-0.1-0.5-0.2-0.8h0c-0.1,0.3-0.1,0.6-0.2,0.8c-0.1,0.3-0.2,0.6-0.2,0.8
				l-1,3.6H1150.1z"/>
			<path d="M1157.4,505.7V500h0.5l0,0.9h0c0.3-0.3,0.6-0.5,0.9-0.7c0.3-0.2,0.7-0.3,1.1-0.3c0.6,0,1,0.2,1.3,0.5
				c0.3,0.4,0.4,0.9,0.4,1.7v3.7h-0.5v-3.6c0-0.6-0.1-1.1-0.3-1.4c-0.2-0.3-0.5-0.4-1-0.4c-0.3,0-0.7,0.1-0.9,0.3
				c-0.3,0.2-0.6,0.5-0.9,0.8v4.3H1157.4z"/>
		</g>
		<g class="st0">
			<path d="M1167.8,505.9c-0.3,0-0.5,0-0.7-0.1c-0.2-0.1-0.3-0.2-0.4-0.4s-0.2-0.3-0.2-0.6s-0.1-0.5-0.1-0.7v-3.7h-0.9V500l0.9,0
				l0.1-1.7h0.5v1.7h1.7v0.5h-1.7v3.8c0,0.2,0,0.3,0,0.5c0,0.1,0.1,0.3,0.1,0.4c0.1,0.1,0.2,0.2,0.3,0.3c0.1,0.1,0.3,0.1,0.5,0.1
				c0.1,0,0.2,0,0.4-0.1c0.1,0,0.2-0.1,0.4-0.1l0.1,0.4c-0.2,0.1-0.3,0.1-0.5,0.2S1167.9,505.9,1167.8,505.9z"/>
		</g>
		<g class="st0">
			<path d="M1171.9,505.9c-0.3,0-0.7-0.1-1-0.2c-0.3-0.1-0.6-0.3-0.8-0.6c-0.2-0.3-0.4-0.6-0.6-0.9c-0.1-0.4-0.2-0.8-0.2-1.3
				c0-0.5,0.1-0.9,0.2-1.3c0.1-0.4,0.3-0.7,0.6-1c0.2-0.3,0.5-0.5,0.8-0.6c0.3-0.1,0.6-0.2,1-0.2c0.3,0,0.7,0.1,1,0.2
				c0.3,0.1,0.6,0.3,0.8,0.6c0.2,0.3,0.4,0.6,0.6,1c0.1,0.4,0.2,0.8,0.2,1.3c0,0.5-0.1,0.9-0.2,1.3c-0.1,0.4-0.3,0.7-0.6,0.9
				c-0.2,0.3-0.5,0.5-0.8,0.6C1172.6,505.8,1172.2,505.9,1171.9,505.9z M1171.9,505.4c0.3,0,0.6-0.1,0.8-0.2s0.5-0.3,0.6-0.5
				c0.2-0.2,0.3-0.5,0.4-0.8c0.1-0.3,0.2-0.7,0.2-1c0-0.4-0.1-0.7-0.2-1c-0.1-0.3-0.2-0.6-0.4-0.8c-0.2-0.2-0.4-0.4-0.6-0.5
				s-0.5-0.2-0.8-0.2c-0.3,0-0.6,0.1-0.8,0.2s-0.5,0.3-0.6,0.5c-0.2,0.2-0.3,0.5-0.4,0.8c-0.1,0.3-0.2,0.7-0.2,1
				c0,0.4,0.1,0.7,0.2,1c0.1,0.3,0.2,0.6,0.4,0.8c0.2,0.2,0.4,0.4,0.6,0.5S1171.6,505.4,1171.9,505.4z"/>
			<path d="M1180,505.9c-0.4,0-0.8-0.1-1.2-0.2c-0.4-0.2-0.7-0.3-0.9-0.6l0.3-0.4c0.2,0.2,0.5,0.4,0.8,0.5c0.3,0.1,0.6,0.2,1,0.2
				c0.5,0,0.8-0.1,1-0.3c0.2-0.2,0.3-0.5,0.3-0.8c0-0.2,0-0.3-0.1-0.5s-0.2-0.3-0.3-0.3c-0.1-0.1-0.3-0.2-0.4-0.3
				c-0.2-0.1-0.3-0.1-0.5-0.2c-0.2-0.1-0.4-0.2-0.7-0.3c-0.2-0.1-0.4-0.2-0.6-0.3s-0.3-0.3-0.4-0.4c-0.1-0.2-0.2-0.4-0.2-0.6
				c0-0.2,0-0.4,0.1-0.6s0.2-0.4,0.4-0.5c0.2-0.1,0.4-0.2,0.6-0.3c0.2-0.1,0.5-0.1,0.8-0.1c0.3,0,0.6,0.1,0.9,0.2
				c0.3,0.1,0.5,0.3,0.8,0.4l-0.3,0.4c-0.2-0.1-0.4-0.3-0.6-0.4c-0.2-0.1-0.5-0.2-0.8-0.2c-0.2,0-0.4,0-0.6,0.1
				c-0.2,0.1-0.3,0.1-0.4,0.2c-0.1,0.1-0.2,0.2-0.2,0.3c-0.1,0.1-0.1,0.3-0.1,0.4c0,0.2,0,0.3,0.1,0.4c0.1,0.1,0.2,0.2,0.3,0.3
				s0.3,0.2,0.4,0.2c0.2,0.1,0.3,0.1,0.5,0.2c0.2,0.1,0.4,0.2,0.7,0.3c0.2,0.1,0.4,0.2,0.6,0.3s0.3,0.3,0.4,0.5
				c0.1,0.2,0.2,0.4,0.2,0.7c0,0.2,0,0.4-0.1,0.6c-0.1,0.2-0.2,0.4-0.4,0.5c-0.2,0.1-0.4,0.3-0.6,0.4S1180.3,505.9,1180,505.9z"/>
		</g>
		<g class="st0">
			<path d="M1185.6,505.9c-0.4,0-0.7-0.1-1-0.2c-0.3-0.1-0.6-0.3-0.8-0.6c-0.2-0.3-0.4-0.6-0.6-0.9c-0.1-0.4-0.2-0.8-0.2-1.3
				c0-0.5,0.1-0.9,0.2-1.3s0.3-0.7,0.6-1c0.2-0.3,0.5-0.5,0.8-0.6c0.3-0.1,0.6-0.2,1-0.2c0.4,0,0.7,0.1,1,0.2
				c0.3,0.1,0.5,0.3,0.7,0.5l-0.3,0.4c-0.2-0.2-0.4-0.3-0.6-0.4c-0.2-0.1-0.5-0.2-0.8-0.2c-0.3,0-0.6,0.1-0.8,0.2s-0.5,0.3-0.7,0.5
				c-0.2,0.2-0.3,0.5-0.4,0.8c-0.1,0.3-0.2,0.7-0.2,1c0,0.4,0,0.7,0.2,1c0.1,0.3,0.2,0.6,0.4,0.8c0.2,0.2,0.4,0.4,0.7,0.5
				c0.3,0.1,0.5,0.2,0.9,0.2c0.3,0,0.6-0.1,0.8-0.2s0.5-0.3,0.7-0.5l0.3,0.4c-0.2,0.2-0.5,0.4-0.8,0.5
				C1186.3,505.8,1186,505.9,1185.6,505.9z"/>
		</g>
		<g class="st0">
			<path d="M1190,505.9c-0.2,0-0.4,0-0.6-0.1c-0.2-0.1-0.4-0.2-0.5-0.3s-0.3-0.3-0.4-0.5c-0.1-0.2-0.1-0.4-0.1-0.7
				c0-0.6,0.3-1.1,0.9-1.5c0.6-0.3,1.5-0.6,2.8-0.7c0-0.2,0-0.4,0-0.7c0-0.2-0.1-0.4-0.2-0.6c-0.1-0.2-0.2-0.3-0.4-0.4
				c-0.2-0.1-0.4-0.2-0.7-0.2c-0.4,0-0.7,0.1-1.1,0.2c-0.3,0.2-0.6,0.3-0.8,0.4l-0.2-0.4c0.1-0.1,0.2-0.2,0.4-0.2
				c0.1-0.1,0.3-0.2,0.5-0.2c0.2-0.1,0.4-0.1,0.6-0.2c0.2-0.1,0.4-0.1,0.7-0.1c0.3,0,0.6,0.1,0.9,0.2c0.2,0.1,0.4,0.3,0.6,0.5
				c0.1,0.2,0.2,0.4,0.3,0.7c0.1,0.3,0.1,0.6,0.1,0.9v3.7h-0.5l0-0.7h0c-0.3,0.2-0.6,0.4-1,0.6S1190.4,505.9,1190,505.9z
				 M1190.1,505.4c0.3,0,0.7-0.1,1-0.2c0.3-0.2,0.6-0.4,1-0.7v-2c-0.6,0.1-1.1,0.2-1.5,0.3c-0.4,0.1-0.7,0.2-1,0.4
				c-0.2,0.1-0.4,0.3-0.5,0.5c-0.1,0.2-0.2,0.4-0.2,0.6c0,0.2,0,0.4,0.1,0.5c0.1,0.1,0.2,0.3,0.3,0.4c0.1,0.1,0.2,0.2,0.4,0.2
				S1189.9,505.4,1190.1,505.4z"/>
			<path d="M1195.3,505.9c-0.5,0-0.7-0.3-0.7-0.9v-7.9h0.5v7.9c0,0.1,0,0.2,0.1,0.3c0,0.1,0.1,0.1,0.2,0.1c0,0,0.1,0,0.1,0
				s0.1,0,0.1,0l0.1,0.4c-0.1,0-0.1,0-0.2,0C1195.5,505.9,1195.4,505.9,1195.3,505.9z"/>
			<path d="M1199.7,505.9c-0.4,0-0.7-0.1-1-0.2c-0.3-0.1-0.6-0.3-0.8-0.6c-0.2-0.3-0.4-0.6-0.6-0.9c-0.1-0.4-0.2-0.8-0.2-1.3
				c0-0.5,0.1-0.9,0.2-1.3s0.3-0.7,0.6-1c0.2-0.3,0.5-0.5,0.8-0.6c0.3-0.1,0.6-0.2,0.9-0.2c0.7,0,1.2,0.2,1.6,0.7s0.6,1.1,0.6,2
				c0,0.1,0,0.1,0,0.2c0,0.1,0,0.1,0,0.2h-4.2c0,0.4,0.1,0.7,0.2,1c0.1,0.3,0.2,0.6,0.4,0.8c0.2,0.2,0.4,0.4,0.7,0.5
				s0.6,0.2,0.9,0.2c0.3,0,0.6,0,0.8-0.1s0.5-0.2,0.7-0.4l0.2,0.4c-0.2,0.1-0.5,0.3-0.8,0.4S1200.1,505.9,1199.7,505.9z
				 M1197.5,502.5h3.7c0-0.7-0.2-1.3-0.5-1.7c-0.3-0.4-0.7-0.5-1.2-0.5c-0.2,0-0.5,0.1-0.7,0.2c-0.2,0.1-0.4,0.2-0.6,0.4
				c-0.2,0.2-0.3,0.4-0.4,0.7C1197.6,501.8,1197.6,502.2,1197.5,502.5z"/>
		</g>
	</g>
</g>
<g id="b">
</g>
<g id="c">
</g>
<g id="d">
</g>
<g id="e">
</g>
</svg>
