<?xml version="1.0" encoding="utf-8"?>
<!-- Generator: Adobe Illustrator 26.1.0, SVG Export Plug-In . SVG Version: 6.00 Build 0)  -->
<svg version="1.1" id="Layer_1" xmlns="http://www.w3.org/2000/svg" xmlns:xlink="http://www.w3.org/1999/xlink" x="0px" y="0px"
	 viewBox="0 0 1260 560" style="enable-background:new 0 0 1260 560;" xml:space="preserve">
<style type="text/css">
	.st0{enable-background:new    ;}
	.st1{fill:#F8DA86;}
	.st2{fill:#3CAE3F;}
	.st3{fill:#F1B571;}
	.st4{fill:#ED4C4C;}
	.st5{fill:none;stroke:#313333;stroke-miterlimit:10;}
	.st6{fill:none;stroke:#1F2121;stroke-width:3;stroke-miterlimit:10;}
	.st7{fill:none;stroke:#FFFFFF;stroke-width:6;stroke-miterlimit:10;}
</style>
<g id="a">
	<g>
		<g class="st0">
			<path d="M1050.2,83.7c-1.8,0-3.5-0.3-5.1-1c-1.6-0.7-3.1-1.6-4.3-2.8l2.7-3.2c0.9,0.9,2,1.6,3.2,2.1c1.2,0.5,2.4,0.8,3.6,0.8
				c1.5,0,2.6-0.3,3.4-0.9c0.8-0.6,1.2-1.4,1.2-2.4c0-0.5-0.1-1-0.3-1.4c-0.2-0.4-0.5-0.7-0.8-1c-0.4-0.3-0.8-0.5-1.3-0.8
				c-0.5-0.2-1-0.5-1.6-0.7l-3.6-1.6c-0.6-0.3-1.3-0.6-1.9-1c-0.6-0.4-1.2-0.9-1.7-1.4c-0.5-0.6-0.9-1.2-1.2-2
				c-0.3-0.7-0.5-1.6-0.5-2.6c0-1,0.2-2,0.7-2.9c0.4-0.9,1-1.7,1.8-2.3c0.8-0.7,1.7-1.2,2.8-1.6c1.1-0.4,2.3-0.6,3.5-0.6
				c1.5,0,3,0.3,4.4,0.9c1.4,0.6,2.6,1.4,3.6,2.4l-2.4,3c-0.9-0.7-1.7-1.2-2.6-1.6s-1.9-0.6-3-0.6c-1.3,0-2.3,0.3-3,0.8
				c-0.7,0.5-1.1,1.3-1.1,2.3c0,0.5,0.1,0.9,0.3,1.3c0.2,0.4,0.5,0.7,0.9,1c0.4,0.3,0.8,0.5,1.3,0.8c0.5,0.2,1,0.4,1.6,0.7l3.6,1.5
				c0.8,0.3,1.5,0.7,2.1,1.1c0.6,0.4,1.2,0.9,1.7,1.5c0.5,0.6,0.8,1.2,1.1,1.9c0.3,0.7,0.4,1.6,0.4,2.5c0,1.1-0.2,2.1-0.6,3
				c-0.4,0.9-1,1.8-1.9,2.5c-0.8,0.7-1.8,1.3-3,1.7C1052.9,83.5,1051.6,83.7,1050.2,83.7z"/>
		</g>
		<g class="st0">
			<path d="M1065.7,60.1c-0.8,0-1.5-0.2-2-0.7c-0.5-0.5-0.8-1.1-0.8-1.9s0.3-1.4,0.8-1.9c0.5-0.5,1.2-0.7,2-0.7s1.5,0.2,2,0.7
				c0.5,0.5,0.8,1.1,0.8,1.9s-0.3,1.4-0.8,1.9C1067.2,59.9,1066.5,60.1,1065.7,60.1z M1063.4,83.2V63.6h4.6v19.6H1063.4z"/>
		</g>
		<g class="st0">
			<path d="M1080.2,83.7c-2.5,0-4.4-0.9-5.9-2.7s-2.2-4.3-2.2-7.6c0-1.6,0.2-3,0.7-4.3c0.5-1.3,1.1-2.4,1.9-3.2s1.7-1.6,2.7-2
				c1-0.5,2-0.7,3.1-0.7c1.1,0,2.1,0.2,2.8,0.6c0.8,0.4,1.5,0.9,2.3,1.6l-0.2-3.2V55h4.6v28.2h-3.8l-0.3-2.1h-0.2
				c-0.7,0.7-1.6,1.3-2.5,1.8C1082.3,83.4,1081.2,83.7,1080.2,83.7z M1081.3,79.9c1.5,0,2.8-0.7,4.1-2.2v-9.2c-0.7-0.6-1.4-1-2-1.3
				c-0.7-0.2-1.3-0.4-2-0.4c-1.3,0-2.4,0.6-3.2,1.7c-0.9,1.1-1.3,2.7-1.3,4.8c0,2.1,0.4,3.8,1.1,4.9
				C1078.8,79.3,1079.9,79.9,1081.3,79.9z"/>
		</g>
		<g class="st0">
			<path d="M1103.8,83.7c-1.4,0-2.6-0.2-3.8-0.7c-1.2-0.5-2.2-1.1-3.1-2s-1.6-2-2.1-3.2c-0.5-1.3-0.7-2.7-0.7-4.3
				c0-1.6,0.3-3,0.8-4.3s1.2-2.4,2-3.2s1.8-1.6,2.9-2c1.1-0.5,2.2-0.7,3.4-0.7c1.3,0,2.5,0.2,3.5,0.7c1,0.5,1.9,1.1,2.5,1.9
				c0.7,0.8,1.2,1.8,1.5,3s0.5,2.4,0.5,3.8c0,0.5,0,0.9-0.1,1.3c0,0.4-0.1,0.7-0.1,1h-12.5c0.2,1.8,0.8,3.1,1.9,4.1
				c1,0.9,2.3,1.4,3.9,1.4c0.9,0,1.6-0.1,2.4-0.4c0.7-0.3,1.5-0.6,2.2-1.1l1.6,2.9c-0.9,0.6-2,1.1-3.1,1.5
				C1106.3,83.5,1105.1,83.7,1103.8,83.7z M1098.6,71.5h8.7c0-1.5-0.3-2.7-1-3.6s-1.7-1.3-3-1.3c-1.2,0-2.2,0.4-3.1,1.2
				C1099.3,68.7,1098.8,69.9,1098.6,71.5z"/>
		</g>
		<g class="st0">
			<path d="M1128.8,83.2l-8.2-26.2h4.9l3.7,13.2c0.4,1.5,0.8,2.9,1.1,4.2c0.3,1.3,0.7,2.8,1.2,4.3h0.2c0.5-1.5,0.8-2.9,1.2-4.3
				c0.3-1.3,0.7-2.7,1.1-4.2l3.6-13.2h4.8l-8.1,26.2H1128.8z"/>
		</g>
		<g class="st0">
			<path d="M1147.8,60.1c-0.8,0-1.5-0.2-2-0.7c-0.5-0.5-0.8-1.1-0.8-1.9s0.3-1.4,0.8-1.9c0.5-0.5,1.2-0.7,2-0.7s1.5,0.2,2,0.7
				c0.5,0.5,0.8,1.1,0.8,1.9s-0.3,1.4-0.8,1.9C1149.3,59.9,1148.6,60.1,1147.8,60.1z M1145.4,83.2V63.6h4.6v19.6H1145.4z"/>
		</g>
		<g class="st0">
			<path d="M1163.8,83.7c-1.4,0-2.6-0.2-3.8-0.7c-1.2-0.5-2.2-1.1-3.1-2s-1.6-2-2.1-3.2s-0.7-2.7-0.7-4.3c0-1.6,0.3-3,0.8-4.3
				c0.5-1.3,1.2-2.4,2-3.2s1.8-1.6,2.9-2c1.1-0.5,2.2-0.7,3.4-0.7c1.3,0,2.5,0.2,3.5,0.7c1,0.5,1.9,1.1,2.5,1.9
				c0.7,0.8,1.2,1.8,1.5,3s0.5,2.4,0.5,3.8c0,0.5,0,0.9-0.1,1.3c0,0.4-0.1,0.7-0.1,1h-12.5c0.2,1.8,0.8,3.1,1.9,4.1
				c1,0.9,2.3,1.4,3.9,1.4c0.9,0,1.6-0.1,2.4-0.4c0.7-0.3,1.5-0.6,2.2-1.1l1.6,2.9c-0.9,0.6-2,1.1-3.1,1.5
				C1166.2,83.5,1165,83.7,1163.8,83.7z M1158.5,71.5h8.7c0-1.5-0.3-2.7-1-3.6c-0.7-0.9-1.7-1.3-3-1.3c-1.2,0-2.2,0.4-3.1,1.2
				C1159.3,68.7,1158.7,69.9,1158.5,71.5z"/>
		</g>
		<g class="st0">
			<path d="M1178.2,83.2l-5.2-19.6h4.6l2.4,10.2c0.2,0.9,0.4,1.9,0.5,2.8c0.1,0.9,0.3,1.9,0.5,2.8h0.2c0.2-1,0.4-1.9,0.6-2.8
				c0.2-0.9,0.4-1.9,0.7-2.8l2.6-10.2h4.2l2.6,10.2c0.2,0.9,0.5,1.9,0.7,2.8c0.2,0.9,0.4,1.9,0.6,2.8h0.2c0.2-1,0.4-1.9,0.5-2.8
				s0.3-1.9,0.5-2.8l2.4-10.2h4.3l-5,19.6h-5.5l-2.3-9.2c-0.2-0.9-0.4-1.9-0.6-2.8c-0.2-0.9-0.4-1.9-0.6-2.9h-0.2
				c-0.2,1-0.4,2-0.6,3s-0.4,1.9-0.6,2.8l-2.2,9.1H1178.2z"/>
		</g>
		<circle class="st1" cx="292" cy="275.4" r="13.6"/>
		<circle class="st2" cx="606.6" cy="275.4" r="5.3"/>
		<circle class="st3" cx="441.3" cy="275.4" r="5.7"/>
		<circle class="st4" cx="347.4" cy="275.4" r="3.8"/>
		<g class="st0">
			<path d="M334.4,315.4v-8.6h2.1l1.4,3.8c0.1,0.3,0.2,0.5,0.3,0.8s0.2,0.5,0.3,0.8h0.1c0.1-0.3,0.2-0.5,0.2-0.8
				c0.1-0.3,0.2-0.5,0.2-0.8l1.4-3.8h2.1v8.6h-1.8v-3.2c0-0.2,0-0.4,0-0.7c0-0.3,0-0.5,0.1-0.8c0-0.3,0.1-0.5,0.1-0.8
				c0-0.3,0.1-0.5,0.1-0.7h-0.1l-0.7,2.1l-1.2,3.3h-1.1l-1.2-3.3l-0.7-2.1h-0.1c0,0.2,0.1,0.4,0.1,0.7c0,0.3,0.1,0.5,0.1,0.8
				c0,0.3,0,0.5,0.1,0.8c0,0.3,0,0.5,0,0.7v3.2H334.4z"/>
			<path d="M346,315.6c-0.3,0-0.6-0.1-0.8-0.2c-0.2-0.1-0.4-0.2-0.6-0.4c-0.2-0.2-0.3-0.4-0.4-0.6c-0.1-0.2-0.1-0.5-0.1-0.8
				c0-0.7,0.3-1.2,0.9-1.6c0.6-0.4,1.5-0.7,2.8-0.8c0-0.3-0.1-0.5-0.3-0.7c-0.2-0.2-0.4-0.3-0.8-0.3c-0.3,0-0.6,0.1-0.8,0.2
				c-0.3,0.1-0.6,0.3-0.9,0.4l-0.7-1.3c0.4-0.3,0.9-0.5,1.3-0.6c0.5-0.2,1-0.2,1.5-0.2c0.8,0,1.5,0.2,1.9,0.7
				c0.4,0.5,0.7,1.2,0.7,2.2v3.8h-1.6l-0.1-0.7h-0.1c-0.3,0.2-0.6,0.4-0.9,0.6C346.7,315.5,346.4,315.6,346,315.6z M346.7,314.1
				c0.2,0,0.4,0,0.6-0.1c0.2-0.1,0.3-0.2,0.5-0.4v-1.2c-0.7,0.1-1.2,0.2-1.4,0.4s-0.4,0.4-0.4,0.7c0,0.2,0.1,0.4,0.2,0.5
				C346.2,314,346.4,314.1,346.7,314.1z"/>
		</g>
		<g class="st0">
			<path d="M351.3,315.4v-6.6h1.6l0.1,1.2h0.1c0.2-0.5,0.5-0.8,0.9-1s0.7-0.3,1-0.3c0.2,0,0.3,0,0.5,0c0.1,0,0.2,0.1,0.3,0.1
				l-0.3,1.7c-0.1,0-0.2-0.1-0.3-0.1c-0.1,0-0.2,0-0.4,0c-0.2,0-0.5,0.1-0.8,0.3c-0.3,0.2-0.5,0.5-0.7,0.9v3.8H351.3z"/>
		</g>
		<g class="st0">
			<path d="M358.4,315.6c-0.4,0-0.9-0.1-1.3-0.3c-0.5-0.2-0.9-0.4-1.2-0.7l0.9-1.2c0.3,0.2,0.6,0.4,0.9,0.5c0.3,0.1,0.6,0.2,0.8,0.2
				c0.3,0,0.5,0,0.6-0.1c0.1-0.1,0.2-0.2,0.2-0.4c0-0.1,0-0.2-0.1-0.3c-0.1-0.1-0.2-0.2-0.3-0.2c-0.1-0.1-0.3-0.1-0.4-0.2
				c-0.2-0.1-0.3-0.1-0.5-0.2c-0.2-0.1-0.4-0.2-0.6-0.3c-0.2-0.1-0.4-0.2-0.6-0.4c-0.2-0.2-0.3-0.3-0.4-0.5s-0.2-0.4-0.2-0.7
				c0-0.3,0.1-0.6,0.2-0.8c0.1-0.3,0.3-0.5,0.5-0.6c0.2-0.2,0.5-0.3,0.8-0.4c0.3-0.1,0.7-0.2,1-0.2c0.5,0,0.9,0.1,1.3,0.3
				c0.4,0.2,0.7,0.4,1,0.6l-0.9,1.2c-0.2-0.2-0.5-0.3-0.7-0.4c-0.2-0.1-0.5-0.1-0.7-0.1c-0.5,0-0.7,0.2-0.7,0.5c0,0.1,0,0.2,0.1,0.3
				s0.2,0.1,0.3,0.2c0.1,0.1,0.3,0.1,0.4,0.2c0.2,0.1,0.3,0.1,0.5,0.2c0.2,0.1,0.4,0.2,0.6,0.3c0.2,0.1,0.4,0.2,0.6,0.4
				s0.3,0.3,0.4,0.5s0.2,0.5,0.2,0.8c0,0.3-0.1,0.6-0.2,0.8c-0.1,0.3-0.3,0.5-0.5,0.7c-0.2,0.2-0.5,0.3-0.8,0.5
				S358.9,315.6,358.4,315.6z"/>
		</g>
		<ellipse class="st5" cx="381" cy="280.4" rx="213.2" ry="211.4"/>
		<ellipse class="st5" cx="346.5" cy="288.5" rx="234.7" ry="207.1"/>
		<ellipse class="st5" cx="305.8" cy="263.2" rx="241.8" ry="159.6"/>
		<ellipse class="st5" cx="300.5" cy="280.4" rx="200.3" ry="136.4"/>
		<ellipse class="st5" cx="338.2" cy="275.4" rx="210.9" ry="100.8"/>
		<ellipse class="st5" cx="331.3" cy="294.1" rx="165.6" ry="150"/>
		<circle class="st2" cx="1151.3" cy="308.1" r="5.3"/>
		<g class="st0">
			<path d="M1127.4,337.1v-8.6h2l2.3,4.3l0.8,1.9h0.1c0-0.5-0.1-1-0.2-1.5c-0.1-0.6-0.1-1.1-0.1-1.6v-3.1h1.9v8.6h-2l-2.3-4.3
				l-0.8-1.9h-0.1c0,0.5,0.1,1,0.2,1.5c0.1,0.5,0.1,1.1,0.1,1.6v3.1H1127.4z"/>
			<path d="M1139,337.2c-0.5,0-0.9-0.1-1.3-0.2c-0.4-0.2-0.8-0.4-1.1-0.7c-0.3-0.3-0.5-0.7-0.7-1.1c-0.2-0.4-0.3-0.9-0.3-1.5
				c0-0.5,0.1-1,0.3-1.4c0.2-0.4,0.4-0.8,0.7-1.1c0.3-0.3,0.6-0.5,1-0.7c0.4-0.2,0.8-0.2,1.2-0.2c0.5,0,0.9,0.1,1.2,0.2
				c0.3,0.2,0.6,0.4,0.9,0.7c0.2,0.3,0.4,0.6,0.5,1c0.1,0.4,0.2,0.8,0.2,1.3c0,0.2,0,0.3,0,0.5c0,0.2,0,0.3-0.1,0.4h-3.9
				c0.1,0.5,0.3,0.8,0.6,1.1c0.3,0.2,0.7,0.3,1.1,0.3c0.5,0,0.9-0.1,1.4-0.4l0.6,1.2c-0.3,0.2-0.7,0.4-1.1,0.5
				C1139.8,337.2,1139.4,337.2,1139,337.2z M1137.5,333.1h2.4c0-0.4-0.1-0.7-0.3-0.9s-0.5-0.3-0.8-0.3c-0.3,0-0.6,0.1-0.8,0.3
				C1137.7,332.3,1137.6,332.6,1137.5,333.1z"/>
		</g>
		<g class="st0">
			<path d="M1142.9,339.5v-9h1.6l0.1,0.7h0.1c0.3-0.2,0.5-0.4,0.9-0.6c0.3-0.2,0.7-0.2,1-0.2c0.4,0,0.8,0.1,1.1,0.2
				c0.3,0.2,0.6,0.4,0.8,0.7c0.2,0.3,0.4,0.6,0.5,1.1c0.1,0.4,0.2,0.9,0.2,1.4c0,0.6-0.1,1.1-0.2,1.5c-0.2,0.4-0.4,0.8-0.6,1.1
				c-0.3,0.3-0.6,0.5-0.9,0.7s-0.7,0.2-1,0.2c-0.3,0-0.6-0.1-0.8-0.2c-0.3-0.1-0.5-0.3-0.7-0.5l0.1,1v1.9H1142.9z M1145.9,335.6
				c0.3,0,0.6-0.2,0.9-0.5c0.2-0.3,0.4-0.8,0.4-1.5c0-1.2-0.4-1.8-1.1-1.8c-0.4,0-0.8,0.2-1.1,0.6v2.7c0.2,0.2,0.4,0.3,0.5,0.3
				S1145.7,335.6,1145.9,335.6z"/>
		</g>
		<g class="st0">
			<path d="M1152.7,337.2c-0.4,0-0.8-0.1-1-0.2c-0.3-0.1-0.5-0.3-0.7-0.5c-0.2-0.2-0.3-0.5-0.4-0.8c-0.1-0.3-0.1-0.7-0.1-1V332h-0.9
				v-1.4l1-0.1l0.2-1.8h1.6v1.8h1.6v1.5h-1.6v2.6c0,0.4,0.1,0.6,0.2,0.8c0.2,0.2,0.4,0.2,0.6,0.2c0.1,0,0.2,0,0.3,0
				c0.1,0,0.2-0.1,0.3-0.1l0.3,1.4c-0.2,0.1-0.4,0.1-0.6,0.2C1153.3,337.2,1153,337.2,1152.7,337.2z"/>
			<path d="M1157.2,337.2c-0.7,0-1.2-0.2-1.6-0.7c-0.3-0.5-0.5-1.1-0.5-1.9v-4.1h1.9v3.8c0,0.5,0.1,0.8,0.2,1
				c0.1,0.2,0.3,0.3,0.6,0.3c0.2,0,0.5-0.1,0.6-0.2c0.2-0.1,0.3-0.3,0.5-0.6v-4.3h1.9v6.6h-1.6l-0.1-0.9h0c-0.3,0.3-0.6,0.6-0.9,0.8
				C1158,337.1,1157.7,337.2,1157.2,337.2z"/>
			<path d="M1162.8,337.1v-6.6h1.6l0.1,0.8h0.1c0.3-0.3,0.6-0.5,0.9-0.7c0.3-0.2,0.7-0.3,1.2-0.3c0.7,0,1.2,0.2,1.6,0.7
				s0.5,1.1,0.5,1.9v4.1h-1.9v-3.8c0-0.5-0.1-0.8-0.2-1c-0.1-0.2-0.3-0.3-0.6-0.3c-0.2,0-0.5,0.1-0.6,0.2c-0.2,0.1-0.4,0.3-0.6,0.5
				v4.4H1162.8z"/>
			<path d="M1173.3,337.2c-0.5,0-0.9-0.1-1.3-0.2c-0.4-0.2-0.8-0.4-1.1-0.7c-0.3-0.3-0.5-0.7-0.7-1.1c-0.2-0.4-0.3-0.9-0.3-1.5
				c0-0.5,0.1-1,0.3-1.4c0.2-0.4,0.4-0.8,0.7-1.1c0.3-0.3,0.6-0.5,1-0.7c0.4-0.2,0.8-0.2,1.2-0.2c0.5,0,0.9,0.1,1.2,0.2
				c0.3,0.2,0.6,0.4,0.9,0.7c0.2,0.3,0.4,0.6,0.5,1s0.2,0.8,0.2,1.3c0,0.2,0,0.3,0,0.5c0,0.2,0,0.3-0.1,0.4h-3.9
				c0.1,0.5,0.3,0.8,0.6,1.1c0.3,0.2,0.7,0.3,1.1,0.3c0.5,0,0.9-0.1,1.4-0.4l0.6,1.2c-0.3,0.2-0.7,0.4-1.1,0.5
				S1173.7,337.2,1173.3,337.2z M1171.8,333.1h2.4c0-0.4-0.1-0.7-0.3-0.9s-0.5-0.3-0.8-0.3c-0.3,0-0.6,0.1-0.8,0.3
				C1172.1,332.3,1171.9,332.6,1171.8,333.1z"/>
		</g>
		<g class="st0">
			<path d="M1008.2,283.1c-0.7,0-1.2-0.1-1.7-0.4c-0.4-0.3-0.8-0.6-1.1-1.2l1.3-1c0.2,0.3,0.3,0.5,0.6,0.6c0.2,0.1,0.4,0.2,0.6,0.2
				c0.4,0,0.6-0.1,0.8-0.3s0.3-0.6,0.3-1.2v-5.6h1.9v5.8c0,0.4-0.1,0.8-0.2,1.2s-0.3,0.7-0.5,1c-0.2,0.3-0.5,0.5-0.9,0.7
				C1009.1,283,1008.6,283.1,1008.2,283.1z"/>
			<path d="M1014.8,283.1c-0.7,0-1.2-0.2-1.6-0.7c-0.3-0.5-0.5-1.1-0.5-1.9v-4.1h1.9v3.8c0,0.5,0.1,0.8,0.2,1
				c0.1,0.2,0.3,0.3,0.6,0.3c0.2,0,0.5-0.1,0.6-0.2c0.2-0.1,0.3-0.3,0.5-0.6v-4.3h1.9v6.6h-1.6l-0.1-0.9h0c-0.3,0.3-0.6,0.6-0.9,0.8
				C1015.6,283,1015.2,283.1,1014.8,283.1z"/>
			<path d="M1020.3,285.4v-9h1.6l0.1,0.7h0.1c0.3-0.2,0.5-0.4,0.9-0.6s0.7-0.2,1-0.2c0.4,0,0.8,0.1,1.1,0.2s0.6,0.4,0.8,0.7
				s0.4,0.6,0.5,1.1s0.2,0.9,0.2,1.4c0,0.6-0.1,1.1-0.2,1.5c-0.2,0.4-0.4,0.8-0.6,1.1c-0.3,0.3-0.6,0.5-0.9,0.7
				c-0.3,0.2-0.7,0.2-1,0.2c-0.3,0-0.6-0.1-0.8-0.2c-0.3-0.1-0.5-0.3-0.7-0.5l0.1,1v1.9H1020.3z M1023.3,281.5
				c0.3,0,0.6-0.2,0.9-0.5c0.2-0.3,0.4-0.8,0.4-1.5c0-1.2-0.4-1.8-1.1-1.8c-0.4,0-0.8,0.2-1.1,0.6v2.7c0.2,0.2,0.4,0.3,0.5,0.3
				C1023,281.5,1023.1,281.5,1023.3,281.5z"/>
			<path d="M1028.9,275.4c-0.3,0-0.6-0.1-0.8-0.3c-0.2-0.2-0.3-0.4-0.3-0.7c0-0.3,0.1-0.5,0.3-0.7c0.2-0.2,0.5-0.3,0.8-0.3
				c0.3,0,0.6,0.1,0.8,0.3s0.3,0.4,0.3,0.7c0,0.3-0.1,0.5-0.3,0.7S1029.2,275.4,1028.9,275.4z M1027.9,283v-6.6h1.9v6.6H1027.9z"/>
		</g>
		<g class="st0">
			<path d="M1034.1,283.1c-0.4,0-0.8-0.1-1-0.2s-0.5-0.3-0.7-0.5c-0.2-0.2-0.3-0.5-0.4-0.8s-0.1-0.7-0.1-1v-2.7h-0.9v-1.4l1-0.1
				l0.2-1.8h1.6v1.8h1.6v1.5h-1.6v2.6c0,0.4,0.1,0.6,0.2,0.8c0.2,0.2,0.4,0.2,0.6,0.2c0.1,0,0.2,0,0.3,0s0.2-0.1,0.3-0.1l0.3,1.4
				c-0.2,0.1-0.4,0.1-0.6,0.2C1034.7,283.1,1034.4,283.1,1034.1,283.1z"/>
		</g>
		<g class="st0">
			<path d="M1039.3,283.1c-0.5,0-0.9-0.1-1.3-0.2c-0.4-0.2-0.8-0.4-1.1-0.7c-0.3-0.3-0.5-0.7-0.7-1.1c-0.2-0.4-0.3-0.9-0.3-1.5
				c0-0.5,0.1-1,0.3-1.4c0.2-0.4,0.4-0.8,0.7-1.1s0.6-0.5,1-0.7s0.8-0.2,1.2-0.2c0.5,0,0.9,0.1,1.2,0.2s0.6,0.4,0.9,0.7
				c0.2,0.3,0.4,0.6,0.5,1c0.1,0.4,0.2,0.8,0.2,1.3c0,0.2,0,0.3,0,0.5c0,0.2,0,0.3-0.1,0.4h-3.9c0.1,0.5,0.3,0.8,0.6,1.1
				s0.7,0.3,1.1,0.3c0.5,0,0.9-0.1,1.4-0.4l0.7,1.2c-0.3,0.2-0.7,0.4-1.1,0.5C1040.1,283.1,1039.7,283.1,1039.3,283.1z M1037.9,279
				h2.4c0-0.4-0.1-0.7-0.3-0.9c-0.2-0.2-0.5-0.3-0.8-0.3c-0.3,0-0.6,0.1-0.8,0.3C1038.1,278.2,1038,278.5,1037.9,279z"/>
			<path d="M1043.3,283v-6.6h1.6l0.1,1.2h0.1c0.2-0.5,0.5-0.8,0.9-1s0.7-0.3,1-0.3c0.2,0,0.3,0,0.5,0c0.1,0,0.2,0.1,0.3,0.1
				l-0.3,1.7c-0.1,0-0.2-0.1-0.3-0.1c-0.1,0-0.2,0-0.4,0c-0.2,0-0.5,0.1-0.8,0.3c-0.3,0.2-0.5,0.5-0.7,0.9v3.8H1043.3z"/>
		</g>
		<ellipse class="st5" cx="904" cy="303.6" rx="235.2" ry="4.5"/>
		<ellipse class="st5" cx="895.9" cy="314" rx="215.6" ry="23"/>
		<circle class="st1" cx="849.3" cy="311.9" r="13.6"/>
		<ellipse class="st5" cx="908.9" cy="314.1" rx="235.1" ry="23"/>
		<ellipse class="st5" cx="895.6" cy="310" rx="201.5" ry="23"/>
		<ellipse class="st5" cx="885.8" cy="306.2" rx="235.5" ry="19.3"/>
		<ellipse class="st5" cx="871.7" cy="304.4" rx="215.6" ry="9.6"/>
		<g class="st0">
			<path d="M423,315.6c-0.7,0-1.2-0.1-1.7-0.4c-0.4-0.3-0.8-0.6-1.1-1.2l1.3-1c0.2,0.3,0.3,0.5,0.6,0.6c0.2,0.1,0.4,0.2,0.6,0.2
				c0.4,0,0.6-0.1,0.8-0.3s0.3-0.6,0.3-1.2v-5.6h1.9v5.8c0,0.4-0.1,0.8-0.2,1.2c-0.1,0.4-0.3,0.7-0.5,1c-0.2,0.3-0.5,0.5-0.9,0.7
				C423.9,315.5,423.5,315.6,423,315.6z"/>
			<path d="M429.6,315.6c-0.7,0-1.2-0.2-1.6-0.7c-0.3-0.5-0.5-1.1-0.5-1.9v-4.1h1.9v3.8c0,0.5,0.1,0.8,0.2,1
				c0.1,0.2,0.3,0.3,0.6,0.3c0.2,0,0.5-0.1,0.6-0.2c0.2-0.1,0.3-0.3,0.5-0.6v-4.3h1.9v6.6h-1.6l-0.1-0.9h0c-0.3,0.3-0.6,0.6-0.9,0.8
				C430.4,315.5,430.1,315.6,429.6,315.6z"/>
			<path d="M435.2,317.9v-9h1.6l0.1,0.7h0.1c0.3-0.2,0.5-0.4,0.9-0.6s0.7-0.2,1-0.2c0.4,0,0.8,0.1,1.1,0.2s0.6,0.4,0.8,0.7
				c0.2,0.3,0.4,0.6,0.5,1.1s0.2,0.9,0.2,1.4c0,0.6-0.1,1.1-0.2,1.5s-0.4,0.8-0.6,1.1c-0.3,0.3-0.6,0.5-0.9,0.7
				c-0.3,0.2-0.7,0.2-1,0.2c-0.3,0-0.6-0.1-0.8-0.2c-0.3-0.1-0.5-0.3-0.7-0.5l0.1,1v1.9H435.2z M438.2,314c0.3,0,0.6-0.2,0.9-0.5
				s0.4-0.8,0.4-1.5c0-1.2-0.4-1.8-1.1-1.8c-0.4,0-0.8,0.2-1.1,0.6v2.7c0.2,0.2,0.4,0.3,0.5,0.3C437.8,314,438,314,438.2,314z"/>
			<path d="M443.7,307.9c-0.3,0-0.6-0.1-0.8-0.3c-0.2-0.2-0.3-0.4-0.3-0.7c0-0.3,0.1-0.5,0.3-0.7c0.2-0.2,0.5-0.3,0.8-0.3
				c0.3,0,0.6,0.1,0.8,0.3c0.2,0.2,0.3,0.4,0.3,0.7c0,0.3-0.1,0.5-0.3,0.7C444.3,307.8,444.1,307.9,443.7,307.9z M442.8,315.4v-6.6
				h1.9v6.6H442.8z"/>
		</g>
		<g class="st0">
			<path d="M449,315.6c-0.4,0-0.8-0.1-1-0.2s-0.5-0.3-0.7-0.5c-0.2-0.2-0.3-0.5-0.4-0.8s-0.1-0.7-0.1-1v-2.7h-0.9v-1.4l1-0.1
				l0.2-1.8h1.6v1.8h1.6v1.5h-1.6v2.6c0,0.4,0.1,0.6,0.2,0.8c0.2,0.2,0.4,0.2,0.6,0.2c0.1,0,0.2,0,0.3,0c0.1,0,0.2-0.1,0.3-0.1
				l0.3,1.4c-0.2,0.1-0.4,0.1-0.6,0.2C449.6,315.6,449.3,315.6,449,315.6z"/>
		</g>
		<g class="st0">
			<path d="M454.2,315.6c-0.5,0-0.9-0.1-1.3-0.2c-0.4-0.2-0.8-0.4-1.1-0.7c-0.3-0.3-0.5-0.7-0.7-1.1c-0.2-0.4-0.3-0.9-0.3-1.5
				c0-0.5,0.1-1,0.3-1.4c0.2-0.4,0.4-0.8,0.7-1.1c0.3-0.3,0.6-0.5,1-0.7c0.4-0.2,0.8-0.2,1.2-0.2c0.5,0,0.9,0.1,1.2,0.2
				s0.6,0.4,0.9,0.7c0.2,0.3,0.4,0.6,0.5,1s0.2,0.8,0.2,1.3c0,0.2,0,0.3,0,0.5c0,0.2,0,0.3-0.1,0.4h-3.9c0.1,0.5,0.3,0.8,0.6,1.1
				c0.3,0.2,0.7,0.3,1.1,0.3c0.5,0,0.9-0.1,1.4-0.4l0.6,1.2c-0.3,0.2-0.7,0.4-1.1,0.5S454.6,315.6,454.2,315.6z M452.7,311.4h2.4
				c0-0.4-0.1-0.7-0.3-0.9c-0.2-0.2-0.5-0.3-0.8-0.3c-0.3,0-0.6,0.1-0.8,0.3C453,310.7,452.8,311,452.7,311.4z"/>
			<path d="M458.1,315.4v-6.6h1.6l0.1,1.2h0.1c0.2-0.5,0.5-0.8,0.9-1s0.7-0.3,1-0.3c0.2,0,0.3,0,0.5,0c0.1,0,0.2,0.1,0.3,0.1
				l-0.3,1.7c-0.1,0-0.2-0.1-0.3-0.1c-0.1,0-0.2,0-0.4,0c-0.2,0-0.5,0.1-0.8,0.3c-0.3,0.2-0.5,0.5-0.7,0.9v3.8H458.1z"/>
		</g>
		<g class="st0">
			<path d="M903,351.9v-8.6h2.1l1.4,3.8c0.1,0.3,0.2,0.5,0.3,0.8s0.2,0.5,0.3,0.8h0.1c0.1-0.3,0.2-0.5,0.2-0.8
				c0.1-0.3,0.2-0.5,0.2-0.8l1.4-3.8h2.1v8.6h-1.8v-3.2c0-0.2,0-0.4,0-0.7c0-0.3,0-0.5,0.1-0.8s0.1-0.5,0.1-0.8
				c0-0.3,0.1-0.5,0.1-0.7h-0.1l-0.7,2.1l-1.2,3.3h-1.1l-1.2-3.3l-0.7-2.1h-0.1c0,0.2,0.1,0.4,0.1,0.7c0,0.3,0.1,0.5,0.1,0.8
				c0,0.3,0,0.5,0.1,0.8c0,0.3,0,0.5,0,0.7v3.2H903z"/>
			<path d="M914.6,352c-0.3,0-0.6-0.1-0.8-0.2c-0.2-0.1-0.4-0.2-0.6-0.4c-0.2-0.2-0.3-0.4-0.4-0.6c-0.1-0.2-0.1-0.5-0.1-0.8
				c0-0.7,0.3-1.2,0.9-1.6c0.6-0.4,1.5-0.7,2.8-0.8c0-0.3-0.1-0.5-0.3-0.7c-0.2-0.2-0.4-0.3-0.8-0.3c-0.3,0-0.6,0.1-0.8,0.2
				c-0.3,0.1-0.6,0.3-0.9,0.4l-0.7-1.3c0.4-0.3,0.9-0.5,1.3-0.6c0.5-0.2,1-0.2,1.5-0.2c0.8,0,1.5,0.2,1.9,0.7
				c0.4,0.5,0.7,1.2,0.7,2.2v3.8h-1.6l-0.1-0.7h-0.1c-0.3,0.2-0.6,0.4-0.9,0.6C915.3,352,914.9,352,914.6,352z M915.2,350.5
				c0.2,0,0.4,0,0.6-0.1c0.2-0.1,0.3-0.2,0.5-0.4v-1.2c-0.7,0.1-1.2,0.2-1.4,0.4s-0.4,0.4-0.4,0.7c0,0.2,0.1,0.4,0.2,0.5
				S915,350.5,915.2,350.5z"/>
		</g>
		<g class="st0">
			<path d="M919.9,351.9v-6.6h1.6l0.1,1.2h0.1c0.2-0.5,0.5-0.8,0.9-1s0.7-0.3,1-0.3c0.2,0,0.3,0,0.5,0c0.1,0,0.2,0.1,0.3,0.1
				L924,347c-0.1,0-0.2-0.1-0.3-0.1c-0.1,0-0.2,0-0.4,0c-0.2,0-0.5,0.1-0.8,0.3c-0.3,0.2-0.5,0.5-0.7,0.9v3.8H919.9z"/>
		</g>
		<g class="st0">
			<path d="M927,352c-0.4,0-0.9-0.1-1.3-0.3s-0.9-0.4-1.2-0.7l0.9-1.2c0.3,0.2,0.6,0.4,0.9,0.5c0.3,0.1,0.6,0.2,0.8,0.2
				c0.3,0,0.5,0,0.6-0.1c0.1-0.1,0.2-0.2,0.2-0.4c0-0.1,0-0.2-0.1-0.3s-0.2-0.2-0.3-0.2c-0.1-0.1-0.3-0.1-0.4-0.2
				c-0.2-0.1-0.3-0.1-0.5-0.2c-0.2-0.1-0.4-0.2-0.6-0.3c-0.2-0.1-0.4-0.2-0.6-0.4c-0.2-0.2-0.3-0.3-0.4-0.5
				c-0.1-0.2-0.2-0.4-0.2-0.7c0-0.3,0.1-0.6,0.2-0.8c0.1-0.3,0.3-0.5,0.5-0.6c0.2-0.2,0.5-0.3,0.8-0.4c0.3-0.1,0.7-0.2,1-0.2
				c0.5,0,0.9,0.1,1.3,0.3c0.4,0.2,0.7,0.4,1,0.6l-0.9,1.2c-0.2-0.2-0.5-0.3-0.7-0.4c-0.2-0.1-0.5-0.1-0.7-0.1
				c-0.5,0-0.7,0.2-0.7,0.5c0,0.1,0,0.2,0.1,0.3c0.1,0.1,0.2,0.1,0.3,0.2c0.1,0.1,0.3,0.1,0.4,0.2c0.2,0.1,0.3,0.1,0.5,0.2
				c0.2,0.1,0.4,0.2,0.6,0.3s0.4,0.2,0.6,0.4c0.2,0.2,0.3,0.3,0.4,0.5c0.1,0.2,0.2,0.5,0.2,0.8c0,0.3-0.1,0.6-0.2,0.8
				s-0.3,0.5-0.5,0.7c-0.2,0.2-0.5,0.3-0.8,0.5S927.4,352,927,352z"/>
		</g>
		<circle class="st4" cx="916" cy="311.9" r="3.8"/>
		
			<ellipse transform="matrix(0.3827 -0.9239 0.9239 0.3827 347.261 1139.6323)" class="st3" cx="1026.4" cy="310" rx="5.7" ry="5.7"/>
		<g class="st0">
			<path d="M65.1,502.7c-1.2,0-2.3-0.2-3.3-0.7c-1-0.5-1.9-1.1-2.7-1.8l1.3-1.5c0.6,0.6,1.3,1.2,2.1,1.5s1.7,0.6,2.6,0.6
				c1.1,0,2-0.3,2.6-0.8c0.6-0.5,0.9-1.2,0.9-2c0-0.4-0.1-0.8-0.2-1.1c-0.1-0.3-0.3-0.6-0.6-0.8c-0.3-0.2-0.5-0.4-0.9-0.6
				c-0.3-0.2-0.7-0.4-1.1-0.5l-2.4-1.1c-0.4-0.2-0.8-0.4-1.2-0.6c-0.4-0.2-0.8-0.5-1.1-0.9s-0.6-0.8-0.8-1.2c-0.2-0.5-0.3-1-0.3-1.7
				c0-0.6,0.1-1.2,0.4-1.8s0.6-1,1.1-1.4s1-0.7,1.7-0.9c0.7-0.2,1.4-0.3,2.1-0.3c1,0,2,0.2,2.8,0.6c0.9,0.4,1.6,0.9,2.2,1.5
				l-1.2,1.4c-0.5-0.5-1.1-0.9-1.7-1.2s-1.3-0.4-2.1-0.4c-1,0-1.7,0.2-2.3,0.7c-0.6,0.4-0.9,1.1-0.9,1.8c0,0.4,0.1,0.8,0.2,1.1
				c0.2,0.3,0.4,0.5,0.7,0.8c0.3,0.2,0.6,0.4,0.9,0.6c0.3,0.2,0.7,0.3,1,0.5l2.4,1c0.5,0.2,0.9,0.4,1.4,0.7c0.4,0.3,0.8,0.6,1.1,0.9
				c0.3,0.4,0.6,0.8,0.7,1.2c0.2,0.5,0.3,1,0.3,1.7c0,0.7-0.1,1.3-0.4,1.9c-0.3,0.6-0.7,1.1-1.2,1.5c-0.5,0.4-1.1,0.8-1.8,1
				C66.8,502.6,66,502.7,65.1,502.7z"/>
		</g>
		<g class="st0">
			<path d="M77.5,502.7c-0.7,0-1.2-0.1-1.7-0.3c-0.5-0.2-0.8-0.5-1.1-0.9c-0.3-0.4-0.5-0.8-0.6-1.3c-0.1-0.5-0.2-1.1-0.2-1.7v-7
				h-1.9v-1.6l2-0.1l0.3-3.5h1.8v3.5h3.4v1.7h-3.4v7c0,0.8,0.1,1.4,0.4,1.8c0.3,0.4,0.8,0.6,1.5,0.6c0.2,0,0.5,0,0.7-0.1
				c0.3-0.1,0.5-0.1,0.7-0.2l0.4,1.6c-0.3,0.1-0.7,0.2-1.1,0.3C78.3,502.7,77.9,502.7,77.5,502.7z"/>
		</g>
		<g class="st0">
			<path d="M85.8,502.7c-1.4,0-2.3-0.4-3-1.2c-0.6-0.8-0.9-2.1-0.9-3.7v-8H84v7.7c0,1.2,0.2,2.1,0.6,2.6c0.4,0.5,1,0.8,1.8,0.8
				c0.7,0,1.2-0.2,1.7-0.5s1.1-0.9,1.7-1.6v-9h2.1v12.6h-1.8l-0.2-2h-0.1c-0.6,0.7-1.2,1.2-1.9,1.7
				C87.4,502.5,86.6,502.7,85.8,502.7z"/>
		</g>
		<g class="st0">
			<path d="M100.3,502.7c-1.6,0-2.9-0.6-3.8-1.7c-0.9-1.1-1.4-2.8-1.4-4.9c0-1,0.2-1.9,0.5-2.8s0.7-1.5,1.2-2.1
				c0.5-0.6,1.1-1,1.7-1.3c0.7-0.3,1.4-0.5,2.1-0.5s1.4,0.1,1.9,0.4c0.5,0.3,1.1,0.6,1.6,1.1l-0.1-2.2v-4.9h2.2v18.5h-1.8l-0.2-1.5
				h-0.1c-0.5,0.5-1.1,0.9-1.7,1.3C101.7,502.5,101,502.7,100.3,502.7z M100.8,500.9c0.6,0,1.1-0.1,1.7-0.4s1-0.7,1.6-1.3v-6.6
				c-0.5-0.5-1.1-0.8-1.5-1c-0.5-0.2-1-0.3-1.5-0.3c-0.5,0-1,0.1-1.4,0.4c-0.4,0.2-0.8,0.6-1.2,1c-0.3,0.4-0.6,0.9-0.8,1.5
				c-0.2,0.6-0.3,1.2-0.3,2c0,1.5,0.3,2.7,0.9,3.6S99.6,500.9,100.8,500.9z"/>
		</g>
		<g class="st0">
			<path d="M115.3,502.7c-0.8,0-1.6-0.2-2.4-0.5c-0.7-0.3-1.4-0.7-1.9-1.3c-0.5-0.6-1-1.3-1.3-2.1c-0.3-0.8-0.5-1.7-0.5-2.8
				s0.2-2,0.5-2.8c0.3-0.8,0.7-1.5,1.3-2.1c0.5-0.6,1.1-1,1.8-1.3c0.7-0.3,1.4-0.5,2.1-0.5c0.8,0,1.5,0.1,2.1,0.4
				c0.6,0.3,1.2,0.7,1.6,1.2c0.4,0.5,0.7,1.1,1,1.9c0.2,0.7,0.3,1.5,0.3,2.4c0,0.2,0,0.4,0,0.7c0,0.2,0,0.4-0.1,0.6h-8.5
				c0.1,1.4,0.5,2.4,1.3,3.2s1.7,1.2,3,1.2c0.6,0,1.2-0.1,1.7-0.3c0.5-0.2,1-0.4,1.5-0.7l0.8,1.4c-0.6,0.3-1.2,0.7-1.8,0.9
				S116.1,502.7,115.3,502.7z M111.3,495.1h6.8c0-1.3-0.3-2.3-0.8-2.9c-0.5-0.7-1.3-1-2.3-1c-0.5,0-0.9,0.1-1.3,0.3
				c-0.4,0.2-0.8,0.4-1.1,0.8c-0.3,0.3-0.6,0.8-0.8,1.2S111.4,494.5,111.3,495.1z"/>
		</g>
		<g class="st0">
			<path d="M122.9,502.4v-12.6h1.8l0.2,1.8h0.1c0.6-0.6,1.2-1.1,1.9-1.5c0.7-0.4,1.4-0.6,2.3-0.6c1.3,0,2.3,0.4,2.9,1.2
				s0.9,2.1,0.9,3.7v8h-2.1v-7.7c0-1.2-0.2-2.1-0.6-2.6c-0.4-0.5-1-0.8-1.8-0.8c-0.7,0-1.2,0.2-1.7,0.5c-0.5,0.3-1.1,0.8-1.7,1.5
				v9.2H122.9z"/>
		</g>
		<g class="st0">
			<path d="M140.7,502.7c-0.7,0-1.2-0.1-1.7-0.3c-0.5-0.2-0.8-0.5-1.1-0.9c-0.3-0.4-0.5-0.8-0.6-1.3c-0.1-0.5-0.2-1.1-0.2-1.7v-7
				h-1.9v-1.6l2-0.1l0.3-3.5h1.8v3.5h3.4v1.7h-3.4v7c0,0.8,0.1,1.4,0.4,1.8c0.3,0.4,0.8,0.6,1.5,0.6c0.2,0,0.5,0,0.7-0.1
				c0.3-0.1,0.5-0.1,0.7-0.2l0.4,1.6c-0.3,0.1-0.7,0.2-1.1,0.3C141.5,502.7,141.1,502.7,140.7,502.7z"/>
		</g>
		<g class="st0">
			<path d="M154.4,502.4v-15.2h-5.1v-1.8h12.5v1.8h-5.1v15.2H154.4z"/>
		</g>
		<g class="st0">
			<path d="M167.6,502.7c-0.8,0-1.6-0.2-2.4-0.5c-0.7-0.3-1.4-0.7-1.9-1.3c-0.5-0.6-1-1.3-1.3-2.1s-0.5-1.7-0.5-2.8s0.2-2,0.5-2.8
				s0.7-1.5,1.3-2.1c0.5-0.6,1.1-1,1.8-1.3c0.7-0.3,1.4-0.5,2.1-0.5c0.8,0,1.5,0.1,2.1,0.4c0.6,0.3,1.2,0.7,1.6,1.2
				c0.4,0.5,0.7,1.1,1,1.9c0.2,0.7,0.3,1.5,0.3,2.4c0,0.2,0,0.4,0,0.7c0,0.2,0,0.4-0.1,0.6h-8.5c0.1,1.4,0.5,2.4,1.3,3.2
				s1.7,1.2,3,1.2c0.6,0,1.2-0.1,1.7-0.3c0.5-0.2,1-0.4,1.5-0.7l0.8,1.4c-0.6,0.3-1.2,0.7-1.8,0.9
				C169.2,502.6,168.5,502.7,167.6,502.7z M163.6,495.1h6.8c0-1.3-0.3-2.3-0.8-2.9c-0.5-0.7-1.3-1-2.3-1c-0.5,0-0.9,0.1-1.3,0.3
				c-0.4,0.2-0.8,0.4-1.1,0.8c-0.3,0.3-0.6,0.8-0.8,1.2C163.8,493.9,163.7,494.5,163.6,495.1z"/>
		</g>
		<g class="st0">
			<path d="M177.9,502.7c-1.1,0-1.9-0.3-2.6-0.9c-0.7-0.6-1.1-1.5-1.1-2.7c0-1.4,0.6-2.4,1.8-3.2c1.2-0.7,3.2-1.3,5.9-1.5
				c0-0.4,0-0.8-0.1-1.2s-0.2-0.7-0.4-1c-0.2-0.3-0.5-0.5-0.8-0.7c-0.3-0.2-0.8-0.3-1.3-0.3c-0.7,0-1.4,0.1-2.1,0.4
				s-1.2,0.6-1.7,0.9l-0.8-1.5c0.6-0.4,1.3-0.8,2.2-1.1c0.8-0.4,1.8-0.5,2.8-0.5c1.5,0,2.7,0.5,3.4,1.4c0.7,0.9,1,2.2,1,3.8v7.7
				h-1.8l-0.2-1.5h-0.1c-0.6,0.5-1.3,0.9-2,1.3C179.5,502.5,178.7,502.7,177.9,502.7z M178.6,501c0.6,0,1.2-0.1,1.7-0.4
				s1.1-0.7,1.7-1.3v-3.5c-1.1,0.1-1.9,0.3-2.7,0.5c-0.7,0.2-1.3,0.4-1.7,0.7c-0.4,0.3-0.8,0.6-1,0.9s-0.3,0.7-0.3,1.1
				c0,0.7,0.2,1.2,0.6,1.6C177.4,500.9,177.9,501,178.6,501z"/>
		</g>
		<g class="st0">
			<path d="M187.8,502.4v-12.6h1.8l0.2,1.8h0.1c0.6-0.6,1.2-1.1,1.8-1.5c0.7-0.4,1.4-0.6,2.1-0.6c1,0,1.7,0.2,2.3,0.6s0.9,1,1.2,1.8
				c0.7-0.7,1.3-1.3,2-1.8c0.7-0.4,1.4-0.7,2.2-0.7c1.3,0,2.3,0.4,2.9,1.2s0.9,2.1,0.9,3.7v8h-2.1v-7.7c0-1.2-0.2-2.1-0.6-2.6
				c-0.4-0.5-1-0.8-1.8-0.8c-1,0-2,0.6-3.2,1.9v9.2h-2.1v-7.7c0-1.2-0.2-2.1-0.6-2.6c-0.4-0.5-1-0.8-1.8-0.8c-1,0-2,0.6-3.2,1.9v9.2
				H187.8z"/>
			<path d="M212.5,502.4l5.8-17.1h2.4l5.8,17.1h-2.3l-1.6-5.2h-6.2l-1.6,5.2H212.5z M217.7,492.9l-0.8,2.6h5.1l-0.8-2.6
				c-0.3-1-0.6-1.9-0.9-2.8c-0.3-0.9-0.6-1.9-0.8-2.9h-0.1c-0.3,1-0.5,2-0.8,2.9C218.3,491,218,491.9,217.7,492.9z"/>
		</g>
		<g class="st0">
			<path d="M66.6,83.2V61H59V57h19.8V61h-7.6v22.2H66.6z"/>
		</g>
		<g class="st0">
			<path d="M87.5,83.7c-1.2,0-2.4-0.2-3.5-0.7s-2.1-1.1-3-2c-0.9-0.9-1.6-2-2.1-3.2c-0.5-1.3-0.8-2.7-0.8-4.4c0-1.6,0.3-3.1,0.8-4.4
				c0.5-1.3,1.2-2.4,2.1-3.2c0.9-0.9,1.9-1.6,3-2s2.3-0.7,3.5-0.7c1.2,0,2.4,0.2,3.5,0.7c1.1,0.5,2.1,1.1,3,2c0.9,0.9,1.5,2,2.1,3.2
				s0.8,2.7,0.8,4.4c0,1.6-0.3,3.1-0.8,4.4C95.5,79,94.8,80.1,94,81c-0.9,0.9-1.8,1.5-3,2C89.9,83.5,88.7,83.7,87.5,83.7z
				 M87.5,79.9c1.4,0,2.6-0.6,3.4-1.8c0.8-1.2,1.2-2.8,1.2-4.7c0-2-0.4-3.6-1.2-4.8c-0.8-1.2-2-1.8-3.4-1.8s-2.6,0.6-3.4,1.8
				c-0.8,1.2-1.2,2.8-1.2,4.8c0,2,0.4,3.6,1.2,4.7C84.9,79.3,86,79.9,87.5,79.9z"/>
		</g>
		<g class="st0">
			<path d="M100.8,91V63.6h3.8l0.3,2.1h0.2c0.8-0.7,1.7-1.3,2.8-1.8c1-0.5,2.1-0.8,3.2-0.8c1.2,0,2.3,0.2,3.3,0.7s1.8,1.1,2.4,2
				c0.7,0.9,1.2,1.9,1.5,3.2c0.3,1.2,0.5,2.6,0.5,4.1c0,1.7-0.2,3.2-0.7,4.5c-0.5,1.3-1.1,2.4-1.9,3.3s-1.7,1.6-2.7,2.1
				c-1,0.5-2.1,0.7-3.2,0.7c-0.9,0-1.7-0.2-2.6-0.6s-1.7-0.9-2.5-1.6l0.1,3.3V91H100.8z M109.4,79.9c1.3,0,2.4-0.6,3.3-1.7
				c0.9-1.1,1.3-2.8,1.3-5.1c0-2-0.3-3.5-1-4.6c-0.7-1.1-1.7-1.6-3.2-1.6c-1.4,0-2.8,0.7-4.3,2.2v9.2c0.7,0.6,1.4,1,2.1,1.3
				C108.2,79.8,108.8,79.9,109.4,79.9z"/>
		</g>
		<g class="st0">
			<path d="M136.5,83.2L128.3,57h4.9l3.7,13.2c0.4,1.5,0.8,2.9,1.1,4.2c0.3,1.3,0.7,2.8,1.2,4.3h0.2c0.5-1.5,0.8-2.9,1.2-4.3
				c0.3-1.3,0.7-2.7,1.1-4.2l3.6-13.2h4.8L142,83.2H136.5z"/>
		</g>
		<g class="st0">
			<path d="M155.5,60.1c-0.8,0-1.5-0.2-2-0.7c-0.5-0.5-0.8-1.1-0.8-1.9s0.3-1.4,0.8-1.9c0.5-0.5,1.2-0.7,2-0.7c0.8,0,1.5,0.2,2,0.7
				c0.5,0.5,0.8,1.1,0.8,1.9s-0.3,1.4-0.8,1.9C157,59.9,156.3,60.1,155.5,60.1z M153.2,83.2V63.6h4.6v19.6H153.2z"/>
		</g>
		<g class="st0">
			<path d="M171.5,83.7c-1.4,0-2.6-0.2-3.8-0.7c-1.2-0.5-2.2-1.1-3.1-2s-1.6-2-2.1-3.2c-0.5-1.3-0.7-2.7-0.7-4.3
				c0-1.6,0.3-3,0.8-4.3c0.5-1.3,1.2-2.4,2-3.2s1.8-1.6,2.9-2c1.1-0.5,2.2-0.7,3.4-0.7c1.3,0,2.5,0.2,3.5,0.7c1,0.5,1.9,1.1,2.5,1.9
				c0.7,0.8,1.2,1.8,1.5,3s0.5,2.4,0.5,3.8c0,0.5,0,0.9-0.1,1.3c0,0.4-0.1,0.7-0.1,1h-12.5c0.2,1.8,0.8,3.1,1.9,4.1
				c1,0.9,2.3,1.4,3.9,1.4c0.9,0,1.6-0.1,2.4-0.4c0.7-0.3,1.5-0.6,2.2-1.1l1.6,2.9c-0.9,0.6-2,1.1-3.1,1.5
				C173.9,83.5,172.7,83.7,171.5,83.7z M166.2,71.5h8.7c0-1.5-0.3-2.7-1-3.6c-0.7-0.9-1.7-1.3-3-1.3c-1.2,0-2.2,0.4-3.1,1.2
				C167,68.7,166.5,69.9,166.2,71.5z"/>
		</g>
		<g class="st0">
			<path d="M186,83.2l-5.2-19.6h4.6l2.4,10.2c0.2,0.9,0.4,1.9,0.5,2.8s0.3,1.9,0.5,2.8h0.2c0.2-1,0.4-1.9,0.6-2.8s0.4-1.9,0.7-2.8
				l2.6-10.2h4.2l2.6,10.2c0.2,0.9,0.5,1.9,0.7,2.8c0.2,0.9,0.4,1.9,0.6,2.8h0.2c0.2-1,0.4-1.9,0.5-2.8c0.2-0.9,0.3-1.9,0.5-2.8
				l2.4-10.2h4.3l-5,19.6h-5.5L196,74c-0.2-0.9-0.4-1.9-0.6-2.8c-0.2-0.9-0.4-1.9-0.6-2.9h-0.2c-0.2,1-0.4,2-0.6,3s-0.4,1.9-0.6,2.8
				l-2.2,9.1H186z"/>
		</g>
		<g>
			<rect x="40" y="40" class="st6" width="1180" height="480"/>
			<line class="st6" x1="630" y1="40" x2="630" y2="520"/>
		</g>
		<g class="st0">
			<path d="M559.9,294.2v-8.6h2l2.3,4.3l0.8,1.9h0.1c0-0.5-0.1-1-0.2-1.5c-0.1-0.6-0.1-1.1-0.1-1.6v-3h1.9v8.6h-2l-2.3-4.3l-0.8-1.9
				h-0.1c0,0.5,0.1,1,0.2,1.5s0.1,1.1,0.1,1.6v3.1H559.9z"/>
			<path d="M571.5,294.4c-0.5,0-0.9-0.1-1.3-0.2c-0.4-0.2-0.8-0.4-1.1-0.7c-0.3-0.3-0.5-0.7-0.7-1.1c-0.2-0.4-0.3-0.9-0.3-1.5
				c0-0.5,0.1-1,0.3-1.4c0.2-0.4,0.4-0.8,0.7-1.1c0.3-0.3,0.6-0.5,1-0.7c0.4-0.2,0.8-0.2,1.2-0.2c0.5,0,0.9,0.1,1.2,0.2
				s0.6,0.4,0.9,0.7c0.2,0.3,0.4,0.6,0.5,1s0.2,0.8,0.2,1.3c0,0.2,0,0.3,0,0.5c0,0.2,0,0.3-0.1,0.4h-3.9c0.1,0.5,0.3,0.8,0.6,1.1
				c0.3,0.2,0.7,0.3,1.1,0.3c0.5,0,0.9-0.1,1.4-0.4l0.6,1.2c-0.3,0.2-0.7,0.4-1.1,0.5S571.9,294.4,571.5,294.4z M570.1,290.2h2.4
				c0-0.4-0.1-0.7-0.3-0.9c-0.2-0.2-0.5-0.3-0.8-0.3c-0.3,0-0.6,0.1-0.8,0.3C570.3,289.5,570.1,289.8,570.1,290.2z"/>
		</g>
		<g class="st0">
			<path class="st7" d="M559.9,294.2v-8.6h2l2.3,4.3l0.8,1.9h0.1c0-0.5-0.1-1-0.2-1.5c-0.1-0.6-0.1-1.1-0.1-1.6v-3h1.9v8.6h-2
				l-2.3-4.3l-0.8-1.9h-0.1c0,0.5,0.1,1,0.2,1.5s0.1,1.1,0.1,1.6v3.1H559.9z"/>
			<path class="st7" d="M571.5,294.4c-0.5,0-0.9-0.1-1.3-0.2c-0.4-0.2-0.8-0.4-1.1-0.7c-0.3-0.3-0.5-0.7-0.7-1.1
				c-0.2-0.4-0.3-0.9-0.3-1.5c0-0.5,0.1-1,0.3-1.4c0.2-0.4,0.4-0.8,0.7-1.1c0.3-0.3,0.6-0.5,1-0.7c0.4-0.2,0.8-0.2,1.2-0.2
				c0.5,0,0.9,0.1,1.2,0.2s0.6,0.4,0.9,0.7c0.2,0.3,0.4,0.6,0.5,1s0.2,0.8,0.2,1.3c0,0.2,0,0.3,0,0.5c0,0.2,0,0.3-0.1,0.4h-3.9
				c0.1,0.5,0.3,0.8,0.6,1.1c0.3,0.2,0.7,0.3,1.1,0.3c0.5,0,0.9-0.1,1.4-0.4l0.6,1.2c-0.3,0.2-0.7,0.4-1.1,0.5
				S571.9,294.4,571.5,294.4z M570.1,290.2h2.4c0-0.4-0.1-0.7-0.3-0.9c-0.2-0.2-0.5-0.3-0.8-0.3c-0.3,0-0.6,0.1-0.8,0.3
				C570.3,289.5,570.1,289.8,570.1,290.2z"/>
		</g>
		<g class="st0">
			<path d="M575.4,296.7v-9h1.6l0.1,0.7h0.1c0.3-0.2,0.5-0.4,0.9-0.6c0.3-0.2,0.7-0.2,1-0.2c0.4,0,0.8,0.1,1.1,0.2s0.6,0.4,0.8,0.7
				c0.2,0.3,0.4,0.6,0.5,1.1s0.2,0.9,0.2,1.4c0,0.6-0.1,1.1-0.2,1.5c-0.2,0.4-0.4,0.8-0.6,1.1c-0.3,0.3-0.6,0.5-0.9,0.7
				c-0.3,0.2-0.7,0.2-1,0.2c-0.3,0-0.6-0.1-0.8-0.2c-0.3-0.1-0.5-0.3-0.7-0.5l0.1,1v1.9H575.4z M578.4,292.8c0.3,0,0.6-0.2,0.9-0.5
				c0.2-0.3,0.4-0.8,0.4-1.5c0-1.2-0.4-1.8-1.1-1.8c-0.4,0-0.8,0.2-1.1,0.6v2.7c0.2,0.2,0.4,0.3,0.5,0.3
				C578.1,292.8,578.3,292.8,578.4,292.8z"/>
		</g>
		<g class="st0">
			<path class="st7" d="M575.4,296.7v-9h1.6l0.1,0.7h0.1c0.3-0.2,0.5-0.4,0.9-0.6c0.3-0.2,0.7-0.2,1-0.2c0.4,0,0.8,0.1,1.1,0.2
				s0.6,0.4,0.8,0.7c0.2,0.3,0.4,0.6,0.5,1.1s0.2,0.9,0.2,1.4c0,0.6-0.1,1.1-0.2,1.5c-0.2,0.4-0.4,0.8-0.6,1.1
				c-0.3,0.3-0.6,0.5-0.9,0.7c-0.3,0.2-0.7,0.2-1,0.2c-0.3,0-0.6-0.1-0.8-0.2c-0.3-0.1-0.5-0.3-0.7-0.5l0.1,1v1.9H575.4z
				 M578.4,292.8c0.3,0,0.6-0.2,0.9-0.5c0.2-0.3,0.4-0.8,0.4-1.5c0-1.2-0.4-1.8-1.1-1.8c-0.4,0-0.8,0.2-1.1,0.6v2.7
				c0.2,0.2,0.4,0.3,0.5,0.3C578.1,292.8,578.3,292.8,578.4,292.8z"/>
		</g>
		<g class="st0">
			<path d="M585.2,294.4c-0.4,0-0.8-0.1-1-0.2s-0.5-0.3-0.7-0.5c-0.2-0.2-0.3-0.5-0.4-0.8s-0.1-0.7-0.1-1v-2.7h-0.9v-1.4l1-0.1
				l0.2-1.8h1.6v1.8h1.6v1.5h-1.6v2.6c0,0.4,0.1,0.6,0.2,0.8c0.2,0.2,0.4,0.2,0.6,0.2c0.1,0,0.2,0,0.3,0c0.1,0,0.2-0.1,0.3-0.1
				l0.3,1.4c-0.2,0.1-0.4,0.1-0.6,0.2C585.8,294.4,585.5,294.4,585.2,294.4z"/>
			<path d="M589.7,294.4c-0.7,0-1.2-0.2-1.6-0.7c-0.3-0.5-0.5-1.1-0.5-1.9v-4.1h1.9v3.8c0,0.5,0.1,0.8,0.2,1
				c0.1,0.2,0.3,0.3,0.6,0.3c0.2,0,0.5-0.1,0.6-0.2c0.2-0.1,0.3-0.3,0.5-0.6v-4.3h1.9v6.6H592l-0.1-0.9h0c-0.3,0.3-0.6,0.6-0.9,0.8
				C590.6,294.3,590.2,294.4,589.7,294.4z"/>
			<path d="M595.3,294.2v-6.6h1.6l0.1,0.8h0.1c0.3-0.3,0.6-0.5,0.9-0.7c0.3-0.2,0.7-0.3,1.2-0.3c0.7,0,1.2,0.2,1.6,0.7
				s0.5,1.1,0.5,1.9v4.1h-1.9v-3.8c0-0.5-0.1-0.8-0.2-1c-0.1-0.2-0.3-0.3-0.6-0.3c-0.2,0-0.5,0.1-0.6,0.2c-0.2,0.1-0.4,0.3-0.6,0.5
				v4.4H595.3z"/>
			<path d="M605.8,294.4c-0.5,0-0.9-0.1-1.3-0.2c-0.4-0.2-0.8-0.4-1.1-0.7c-0.3-0.3-0.5-0.7-0.7-1.1c-0.2-0.4-0.3-0.9-0.3-1.5
				c0-0.5,0.1-1,0.3-1.4c0.2-0.4,0.4-0.8,0.7-1.1c0.3-0.3,0.6-0.5,1-0.7c0.4-0.2,0.8-0.2,1.2-0.2c0.5,0,0.9,0.1,1.2,0.2
				s0.6,0.4,0.9,0.7c0.2,0.3,0.4,0.6,0.5,1s0.2,0.8,0.2,1.3c0,0.2,0,0.3,0,0.5c0,0.2,0,0.3-0.1,0.4h-3.9c0.1,0.5,0.3,0.8,0.6,1.1
				c0.3,0.2,0.7,0.3,1.1,0.3c0.5,0,0.9-0.1,1.4-0.4l0.6,1.2c-0.3,0.2-0.7,0.4-1.1,0.5S606.2,294.4,605.8,294.4z M604.4,290.2h2.4
				c0-0.4-0.1-0.7-0.3-0.9c-0.2-0.2-0.5-0.3-0.8-0.3c-0.3,0-0.6,0.1-0.8,0.3C604.6,289.5,604.4,289.8,604.4,290.2z"/>
		</g>
		<g class="st0">
			<path class="st7" d="M585.2,294.4c-0.4,0-0.8-0.1-1-0.2s-0.5-0.3-0.7-0.5c-0.2-0.2-0.3-0.5-0.4-0.8s-0.1-0.7-0.1-1v-2.7h-0.9
				v-1.4l1-0.1l0.2-1.8h1.6v1.8h1.6v1.5h-1.6v2.6c0,0.4,0.1,0.6,0.2,0.8c0.2,0.2,0.4,0.2,0.6,0.2c0.1,0,0.2,0,0.3,0
				c0.1,0,0.2-0.1,0.3-0.1l0.3,1.4c-0.2,0.1-0.4,0.1-0.6,0.2C585.8,294.4,585.5,294.4,585.2,294.4z"/>
			<path class="st7" d="M589.7,294.4c-0.7,0-1.2-0.2-1.6-0.7c-0.3-0.5-0.5-1.1-0.5-1.9v-4.1h1.9v3.8c0,0.5,0.1,0.8,0.2,1
				c0.1,0.2,0.3,0.3,0.6,0.3c0.2,0,0.5-0.1,0.6-0.2c0.2-0.1,0.3-0.3,0.5-0.6v-4.3h1.9v6.6H592l-0.1-0.9h0c-0.3,0.3-0.6,0.6-0.9,0.8
				C590.6,294.3,590.2,294.4,589.7,294.4z"/>
			<path class="st7" d="M595.3,294.2v-6.6h1.6l0.1,0.8h0.1c0.3-0.3,0.6-0.5,0.9-0.7c0.3-0.2,0.7-0.3,1.2-0.3c0.7,0,1.2,0.2,1.6,0.7
				s0.5,1.1,0.5,1.9v4.1h-1.9v-3.8c0-0.5-0.1-0.8-0.2-1c-0.1-0.2-0.3-0.3-0.6-0.3c-0.2,0-0.5,0.1-0.6,0.2c-0.2,0.1-0.4,0.3-0.6,0.5
				v4.4H595.3z"/>
			<path class="st7" d="M605.8,294.4c-0.5,0-0.9-0.1-1.3-0.2c-0.4-0.2-0.8-0.4-1.1-0.7c-0.3-0.3-0.5-0.7-0.7-1.1
				c-0.2-0.4-0.3-0.9-0.3-1.5c0-0.5,0.1-1,0.3-1.4c0.2-0.4,0.4-0.8,0.7-1.1c0.3-0.3,0.6-0.5,1-0.7c0.4-0.2,0.8-0.2,1.2-0.2
				c0.5,0,0.9,0.1,1.2,0.2s0.6,0.4,0.9,0.7c0.2,0.3,0.4,0.6,0.5,1s0.2,0.8,0.2,1.3c0,0.2,0,0.3,0,0.5c0,0.2,0,0.3-0.1,0.4h-3.9
				c0.1,0.5,0.3,0.8,0.6,1.1c0.3,0.2,0.7,0.3,1.1,0.3c0.5,0,0.9-0.1,1.4-0.4l0.6,1.2c-0.3,0.2-0.7,0.4-1.1,0.5
				S606.2,294.4,605.8,294.4z M604.4,290.2h2.4c0-0.4-0.1-0.7-0.3-0.9c-0.2-0.2-0.5-0.3-0.8-0.3c-0.3,0-0.6,0.1-0.8,0.3
				C604.6,289.5,604.4,289.8,604.4,290.2z"/>
		</g>
		<g class="st0">
			<path d="M559.9,294.2v-8.6h2l2.3,4.3l0.8,1.9h0.1c0-0.5-0.1-1-0.2-1.5c-0.1-0.6-0.1-1.1-0.1-1.6v-3h1.9v8.6h-2l-2.3-4.3l-0.8-1.9
				h-0.1c0,0.5,0.1,1,0.2,1.5s0.1,1.1,0.1,1.6v3.1H559.9z"/>
			<path d="M571.5,294.4c-0.5,0-0.9-0.1-1.3-0.2c-0.4-0.2-0.8-0.4-1.1-0.7c-0.3-0.3-0.5-0.7-0.7-1.1c-0.2-0.4-0.3-0.9-0.3-1.5
				c0-0.5,0.1-1,0.3-1.4c0.2-0.4,0.4-0.8,0.7-1.1c0.3-0.3,0.6-0.5,1-0.7c0.4-0.2,0.8-0.2,1.2-0.2c0.5,0,0.9,0.1,1.2,0.2
				s0.6,0.4,0.9,0.7c0.2,0.3,0.4,0.6,0.5,1s0.2,0.8,0.2,1.3c0,0.2,0,0.3,0,0.5c0,0.2,0,0.3-0.1,0.4h-3.9c0.1,0.5,0.3,0.8,0.6,1.1
				c0.3,0.2,0.7,0.3,1.1,0.3c0.5,0,0.9-0.1,1.4-0.4l0.6,1.2c-0.3,0.2-0.7,0.4-1.1,0.5S571.9,294.4,571.5,294.4z M570.1,290.2h2.4
				c0-0.4-0.1-0.7-0.3-0.9c-0.2-0.2-0.5-0.3-0.8-0.3c-0.3,0-0.6,0.1-0.8,0.3C570.3,289.5,570.1,289.8,570.1,290.2z"/>
		</g>
		<g class="st0">
			<path d="M575.4,296.7v-9h1.6l0.1,0.7h0.1c0.3-0.2,0.5-0.4,0.9-0.6c0.3-0.2,0.7-0.2,1-0.2c0.4,0,0.8,0.1,1.1,0.2s0.6,0.4,0.8,0.7
				c0.2,0.3,0.4,0.6,0.5,1.1s0.2,0.9,0.2,1.4c0,0.6-0.1,1.1-0.2,1.5c-0.2,0.4-0.4,0.8-0.6,1.1c-0.3,0.3-0.6,0.5-0.9,0.7
				c-0.3,0.2-0.7,0.2-1,0.2c-0.3,0-0.6-0.1-0.8-0.2c-0.3-0.1-0.5-0.3-0.7-0.5l0.1,1v1.9H575.4z M578.4,292.8c0.3,0,0.6-0.2,0.9-0.5
				c0.2-0.3,0.4-0.8,0.4-1.5c0-1.2-0.4-1.8-1.1-1.8c-0.4,0-0.8,0.2-1.1,0.6v2.7c0.2,0.2,0.4,0.3,0.5,0.3
				C578.1,292.8,578.3,292.8,578.4,292.8z"/>
		</g>
		<g class="st0">
			<path d="M585.2,294.4c-0.4,0-0.8-0.1-1-0.2s-0.5-0.3-0.7-0.5c-0.2-0.2-0.3-0.5-0.4-0.8s-0.1-0.7-0.1-1v-2.7h-0.9v-1.4l1-0.1
				l0.2-1.8h1.6v1.8h1.6v1.5h-1.6v2.6c0,0.4,0.1,0.6,0.2,0.8c0.2,0.2,0.4,0.2,0.6,0.2c0.1,0,0.2,0,0.3,0c0.1,0,0.2-0.1,0.3-0.1
				l0.3,1.4c-0.2,0.1-0.4,0.1-0.6,0.2C585.8,294.4,585.5,294.4,585.2,294.4z"/>
			<path d="M589.7,294.4c-0.7,0-1.2-0.2-1.6-0.7c-0.3-0.5-0.5-1.1-0.5-1.9v-4.1h1.9v3.8c0,0.5,0.1,0.8,0.2,1
				c0.1,0.2,0.3,0.3,0.6,0.3c0.2,0,0.5-0.1,0.6-0.2c0.2-0.1,0.3-0.3,0.5-0.6v-4.3h1.9v6.6H592l-0.1-0.9h0c-0.3,0.3-0.6,0.6-0.9,0.8
				C590.6,294.3,590.2,294.4,589.7,294.4z"/>
			<path d="M595.3,294.2v-6.6h1.6l0.1,0.8h0.1c0.3-0.3,0.6-0.5,0.9-0.7c0.3-0.2,0.7-0.3,1.2-0.3c0.7,0,1.2,0.2,1.6,0.7
				s0.5,1.1,0.5,1.9v4.1h-1.9v-3.8c0-0.5-0.1-0.8-0.2-1c-0.1-0.2-0.3-0.3-0.6-0.3c-0.2,0-0.5,0.1-0.6,0.2c-0.2,0.1-0.4,0.3-0.6,0.5
				v4.4H595.3z"/>
			<path d="M605.8,294.4c-0.5,0-0.9-0.1-1.3-0.2c-0.4-0.2-0.8-0.4-1.1-0.7c-0.3-0.3-0.5-0.7-0.7-1.1c-0.2-0.4-0.3-0.9-0.3-1.5
				c0-0.5,0.1-1,0.3-1.4c0.2-0.4,0.4-0.8,0.7-1.1c0.3-0.3,0.6-0.5,1-0.7c0.4-0.2,0.8-0.2,1.2-0.2c0.5,0,0.9,0.1,1.2,0.2
				s0.6,0.4,0.9,0.7c0.2,0.3,0.4,0.6,0.5,1s0.2,0.8,0.2,1.3c0,0.2,0,0.3,0,0.5c0,0.2,0,0.3-0.1,0.4h-3.9c0.1,0.5,0.3,0.8,0.6,1.1
				c0.3,0.2,0.7,0.3,1.1,0.3c0.5,0,0.9-0.1,1.4-0.4l0.6,1.2c-0.3,0.2-0.7,0.4-1.1,0.5S606.2,294.4,605.8,294.4z M604.4,290.2h2.4
				c0-0.4-0.1-0.7-0.3-0.9c-0.2-0.2-0.5-0.3-0.8-0.3c-0.3,0-0.6,0.1-0.8,0.3C604.6,289.5,604.4,289.8,604.4,290.2z"/>
		</g>
		<g class="st0">
			<path d="M426.5,505.9c-0.6,0-1.1-0.1-1.5-0.3c-0.4-0.2-0.8-0.5-1.1-0.9l0.4-0.4c0.3,0.3,0.6,0.6,1,0.8c0.4,0.2,0.8,0.3,1.3,0.3
				c0.6,0,1.1-0.1,1.4-0.4c0.4-0.3,0.5-0.7,0.5-1.1c0-0.2,0-0.5-0.1-0.6s-0.2-0.3-0.3-0.4s-0.3-0.2-0.5-0.3s-0.4-0.2-0.5-0.3
				l-1.2-0.5c-0.2-0.1-0.3-0.2-0.5-0.3c-0.2-0.1-0.4-0.2-0.5-0.4c-0.2-0.2-0.3-0.3-0.4-0.6c-0.1-0.2-0.2-0.5-0.2-0.8
				c0-0.3,0.1-0.5,0.2-0.8c0.1-0.2,0.3-0.4,0.5-0.6s0.4-0.3,0.7-0.4c0.3-0.1,0.6-0.1,0.9-0.1c0.5,0,0.9,0.1,1.3,0.3
				c0.4,0.2,0.7,0.4,0.9,0.7l-0.3,0.4c-0.2-0.2-0.5-0.4-0.8-0.6c-0.3-0.1-0.7-0.2-1.1-0.2c-0.5,0-1,0.1-1.3,0.4
				c-0.3,0.3-0.5,0.6-0.5,1c0,0.2,0,0.4,0.1,0.6s0.2,0.3,0.3,0.4s0.3,0.2,0.4,0.3c0.2,0.1,0.3,0.2,0.5,0.2l1.2,0.5
				c0.2,0.1,0.4,0.2,0.6,0.3c0.2,0.1,0.4,0.3,0.5,0.4c0.2,0.2,0.3,0.3,0.4,0.6c0.1,0.2,0.1,0.5,0.1,0.8c0,0.3-0.1,0.6-0.2,0.8
				s-0.3,0.5-0.5,0.7s-0.5,0.3-0.8,0.4C427.2,505.8,426.9,505.9,426.5,505.9z"/>
			<path d="M430.9,498.6c-0.1,0-0.2,0-0.3-0.1s-0.1-0.2-0.1-0.3c0-0.2,0-0.3,0.1-0.4s0.2-0.1,0.3-0.1c0.1,0,0.2,0,0.3,0.1
				c0.1,0.1,0.1,0.2,0.1,0.4c0,0.1,0,0.2-0.1,0.3C431.1,498.5,431,498.6,430.9,498.6z M430.6,505.7V500h0.5v5.8H430.6z"/>
		</g>
		<g class="st0">
			<path d="M432.6,505.7v-0.3l3.4-5h-3V500h3.7v0.3l-3.4,5h3.5v0.5H432.6z"/>
		</g>
		<g class="st0">
			<path d="M440.3,505.9c-0.4,0-0.7-0.1-1-0.2c-0.3-0.1-0.6-0.3-0.8-0.6c-0.2-0.3-0.4-0.6-0.6-0.9c-0.1-0.4-0.2-0.8-0.2-1.3
				c0-0.5,0.1-0.9,0.2-1.3c0.1-0.4,0.3-0.7,0.6-1c0.2-0.3,0.5-0.5,0.8-0.6c0.3-0.1,0.6-0.2,0.9-0.2c0.7,0,1.2,0.2,1.6,0.7
				c0.4,0.5,0.6,1.1,0.6,2c0,0.1,0,0.1,0,0.2c0,0.1,0,0.1,0,0.2h-4.2c0,0.4,0.1,0.7,0.2,1c0.1,0.3,0.2,0.6,0.4,0.8
				c0.2,0.2,0.4,0.4,0.7,0.5c0.3,0.1,0.6,0.2,0.9,0.2c0.3,0,0.6,0,0.8-0.1s0.5-0.2,0.7-0.4l0.2,0.4c-0.2,0.1-0.5,0.3-0.8,0.4
				C441.1,505.8,440.7,505.9,440.3,505.9z M438.2,502.5h3.7c0-0.7-0.2-1.3-0.5-1.7c-0.3-0.4-0.7-0.5-1.2-0.5c-0.2,0-0.5,0.1-0.7,0.2
				s-0.4,0.2-0.6,0.4c-0.2,0.2-0.3,0.4-0.4,0.7C438.3,501.8,438.2,502.2,438.2,502.5z"/>
			<path d="M445.3,505.9c-0.4,0-0.8-0.1-1.2-0.2c-0.4-0.2-0.7-0.3-0.9-0.6l0.3-0.4c0.2,0.2,0.5,0.4,0.8,0.5c0.3,0.1,0.6,0.2,1,0.2
				c0.5,0,0.8-0.1,1-0.3c0.2-0.2,0.3-0.5,0.3-0.8c0-0.2,0-0.3-0.1-0.5s-0.2-0.3-0.3-0.3c-0.1-0.1-0.3-0.2-0.4-0.3
				c-0.2-0.1-0.3-0.1-0.5-0.2c-0.2-0.1-0.4-0.2-0.7-0.3s-0.4-0.2-0.6-0.3c-0.2-0.1-0.3-0.3-0.4-0.4c-0.1-0.2-0.2-0.4-0.2-0.6
				c0-0.2,0-0.4,0.1-0.6s0.2-0.4,0.4-0.5c0.2-0.1,0.4-0.2,0.6-0.3c0.2-0.1,0.5-0.1,0.8-0.1s0.6,0.1,0.9,0.2c0.3,0.1,0.5,0.3,0.8,0.4
				l-0.3,0.4c-0.2-0.1-0.4-0.3-0.6-0.4s-0.5-0.2-0.8-0.2c-0.2,0-0.4,0-0.6,0.1c-0.2,0.1-0.3,0.1-0.4,0.2c-0.1,0.1-0.2,0.2-0.2,0.3
				c-0.1,0.1-0.1,0.3-0.1,0.4c0,0.2,0,0.3,0.1,0.4c0.1,0.1,0.2,0.2,0.3,0.3c0.1,0.1,0.3,0.2,0.4,0.2c0.2,0.1,0.3,0.1,0.5,0.2
				c0.2,0.1,0.4,0.2,0.7,0.3s0.4,0.2,0.6,0.3c0.2,0.1,0.3,0.3,0.4,0.5c0.1,0.2,0.2,0.4,0.2,0.7c0,0.2,0,0.4-0.1,0.6
				c-0.1,0.2-0.2,0.4-0.4,0.5c-0.2,0.1-0.4,0.3-0.6,0.4C445.9,505.8,445.6,505.9,445.3,505.9z"/>
			<path d="M452.4,505.9c-0.2,0-0.4,0-0.6-0.1c-0.2-0.1-0.4-0.2-0.5-0.3c-0.2-0.1-0.3-0.3-0.4-0.5c-0.1-0.2-0.1-0.4-0.1-0.7
				c0-0.6,0.3-1.1,0.9-1.5c0.6-0.3,1.5-0.6,2.8-0.7c0-0.2,0-0.4,0-0.7c0-0.2-0.1-0.4-0.2-0.6c-0.1-0.2-0.2-0.3-0.4-0.4
				c-0.2-0.1-0.4-0.2-0.7-0.2c-0.4,0-0.7,0.1-1.1,0.2c-0.3,0.2-0.6,0.3-0.8,0.4l-0.2-0.4c0.1-0.1,0.2-0.2,0.4-0.2
				c0.1-0.1,0.3-0.2,0.5-0.2c0.2-0.1,0.4-0.1,0.6-0.2c0.2-0.1,0.4-0.1,0.7-0.1c0.3,0,0.6,0.1,0.9,0.2c0.2,0.1,0.4,0.3,0.6,0.5
				c0.1,0.2,0.2,0.4,0.3,0.7c0.1,0.3,0.1,0.6,0.1,0.9v3.7h-0.5l0-0.7h0c-0.3,0.2-0.6,0.4-1,0.6C453.2,505.8,452.8,505.9,452.4,505.9
				z M452.5,505.4c0.3,0,0.7-0.1,1-0.2c0.3-0.2,0.6-0.4,1-0.7v-2c-0.6,0.1-1.1,0.2-1.5,0.3c-0.4,0.1-0.7,0.2-1,0.4
				c-0.2,0.1-0.4,0.3-0.5,0.5c-0.1,0.2-0.2,0.4-0.2,0.6c0,0.2,0,0.4,0.1,0.5c0.1,0.1,0.2,0.3,0.3,0.4s0.2,0.2,0.4,0.2
				C452.2,505.4,452.3,505.4,452.5,505.4z"/>
			<path d="M457,505.7V500h0.5l0,0.9h0c0.3-0.3,0.6-0.5,0.9-0.7c0.3-0.2,0.7-0.3,1.1-0.3c0.6,0,1,0.2,1.3,0.5
				c0.3,0.4,0.4,0.9,0.4,1.7v3.7h-0.5v-3.6c0-0.6-0.1-1.1-0.3-1.4s-0.5-0.4-1-0.4c-0.3,0-0.7,0.1-0.9,0.3c-0.3,0.2-0.6,0.5-0.9,0.8
				v4.3H457z"/>
			<path d="M465.3,505.9c-0.7,0-1.3-0.3-1.7-0.8c-0.4-0.5-0.6-1.3-0.6-2.2c0-0.5,0.1-0.9,0.2-1.3s0.3-0.7,0.6-1
				c0.2-0.3,0.5-0.5,0.8-0.6c0.3-0.1,0.6-0.2,1-0.2c0.4,0,0.7,0.1,0.9,0.2c0.3,0.1,0.5,0.3,0.8,0.5l0-1.1v-2.4h0.5v8.6h-0.5l0-0.7h0
				c-0.2,0.2-0.5,0.4-0.8,0.6C466.1,505.8,465.7,505.9,465.3,505.9z M465.4,505.4c0.3,0,0.6-0.1,0.9-0.2c0.3-0.2,0.6-0.4,0.9-0.7
				V501c-0.3-0.3-0.6-0.5-0.9-0.6c-0.3-0.1-0.5-0.2-0.8-0.2c-0.3,0-0.6,0.1-0.8,0.2s-0.5,0.3-0.6,0.5c-0.2,0.2-0.3,0.5-0.4,0.8
				c-0.1,0.3-0.2,0.7-0.2,1c0,0.4,0,0.7,0.1,1c0.1,0.3,0.2,0.6,0.4,0.8c0.2,0.2,0.4,0.4,0.6,0.5
				C464.8,505.4,465.1,505.4,465.4,505.4z"/>
			<path d="M474.3,505.9c-0.7,0-1.3-0.3-1.7-0.8c-0.4-0.5-0.6-1.3-0.6-2.2c0-0.5,0.1-0.9,0.2-1.3c0.1-0.4,0.3-0.7,0.6-1
				s0.5-0.5,0.8-0.6c0.3-0.1,0.6-0.2,1-0.2c0.4,0,0.7,0.1,0.9,0.2s0.5,0.3,0.8,0.5l0-1.1v-2.4h0.5v8.6h-0.5l0-0.7h0
				c-0.2,0.2-0.5,0.4-0.8,0.6C475,505.8,474.6,505.9,474.3,505.9z M474.3,505.4c0.3,0,0.6-0.1,0.9-0.2c0.3-0.2,0.6-0.4,0.9-0.7V501
				c-0.3-0.3-0.6-0.5-0.9-0.6c-0.3-0.1-0.5-0.2-0.8-0.2c-0.3,0-0.6,0.1-0.8,0.2c-0.2,0.1-0.5,0.3-0.6,0.5c-0.2,0.2-0.3,0.5-0.4,0.8
				c-0.1,0.3-0.2,0.7-0.2,1c0,0.4,0,0.7,0.1,1c0.1,0.3,0.2,0.6,0.4,0.8c0.2,0.2,0.4,0.4,0.6,0.5C473.8,505.4,474,505.4,474.3,505.4z
				"/>
			<path d="M479.2,498.6c-0.1,0-0.2,0-0.3-0.1s-0.1-0.2-0.1-0.3c0-0.2,0-0.3,0.1-0.4s0.2-0.1,0.3-0.1c0.1,0,0.2,0,0.3,0.1
				c0.1,0.1,0.1,0.2,0.1,0.4c0,0.1,0,0.2-0.1,0.3C479.4,498.5,479.3,498.6,479.2,498.6z M478.9,505.7V500h0.5v5.8H478.9z"/>
		</g>
		<g class="st0">
			<path d="M483,505.9c-0.4,0-0.8-0.1-1.2-0.2s-0.7-0.3-0.9-0.6l0.3-0.4c0.2,0.2,0.5,0.4,0.8,0.5c0.3,0.1,0.6,0.2,1,0.2
				c0.5,0,0.8-0.1,1-0.3c0.2-0.2,0.3-0.5,0.3-0.8c0-0.2,0-0.3-0.1-0.5s-0.2-0.3-0.3-0.3c-0.1-0.1-0.3-0.2-0.4-0.3
				c-0.2-0.1-0.3-0.1-0.5-0.2c-0.2-0.1-0.4-0.2-0.7-0.3c-0.2-0.1-0.4-0.2-0.6-0.3c-0.2-0.1-0.3-0.3-0.4-0.4
				c-0.1-0.2-0.2-0.4-0.2-0.6c0-0.2,0-0.4,0.1-0.6s0.2-0.4,0.4-0.5c0.2-0.1,0.4-0.2,0.6-0.3s0.5-0.1,0.8-0.1c0.3,0,0.6,0.1,0.9,0.2
				c0.3,0.1,0.5,0.3,0.8,0.4l-0.3,0.4c-0.2-0.1-0.4-0.3-0.6-0.4c-0.2-0.1-0.5-0.2-0.8-0.2c-0.2,0-0.4,0-0.6,0.1
				c-0.2,0.1-0.3,0.1-0.4,0.2s-0.2,0.2-0.2,0.3c-0.1,0.1-0.1,0.3-0.1,0.4c0,0.2,0,0.3,0.1,0.4c0.1,0.1,0.2,0.2,0.3,0.3
				c0.1,0.1,0.3,0.2,0.4,0.2c0.2,0.1,0.3,0.1,0.5,0.2c0.2,0.1,0.4,0.2,0.7,0.3c0.2,0.1,0.4,0.2,0.6,0.3s0.3,0.3,0.4,0.5
				c0.1,0.2,0.2,0.4,0.2,0.7c0,0.2,0,0.4-0.1,0.6c-0.1,0.2-0.2,0.4-0.4,0.5c-0.2,0.1-0.4,0.3-0.6,0.4
				C483.6,505.8,483.3,505.9,483,505.9z"/>
		</g>
		<g class="st0">
			<path d="M487.8,505.9c-0.3,0-0.5,0-0.7-0.1s-0.3-0.2-0.4-0.4c-0.1-0.2-0.2-0.3-0.2-0.6s-0.1-0.5-0.1-0.7v-3.7h-0.9V500l0.9,0
				l0.1-1.7h0.5v1.7h1.7v0.5h-1.7v3.8c0,0.2,0,0.3,0,0.5c0,0.1,0.1,0.3,0.1,0.4c0.1,0.1,0.2,0.2,0.3,0.3c0.1,0.1,0.3,0.1,0.5,0.1
				c0.1,0,0.2,0,0.4-0.1c0.1,0,0.2-0.1,0.4-0.1l0.1,0.4c-0.2,0.1-0.3,0.1-0.5,0.2S487.9,505.9,487.8,505.9z"/>
		</g>
		<g class="st0">
			<path d="M491,505.9c-0.2,0-0.4,0-0.6-0.1c-0.2-0.1-0.4-0.2-0.5-0.3s-0.3-0.3-0.4-0.5c-0.1-0.2-0.1-0.4-0.1-0.7
				c0-0.6,0.3-1.1,0.9-1.5c0.6-0.3,1.5-0.6,2.8-0.7c0-0.2,0-0.4,0-0.7c0-0.2-0.1-0.4-0.2-0.6c-0.1-0.2-0.2-0.3-0.4-0.4
				c-0.2-0.1-0.4-0.2-0.7-0.2c-0.4,0-0.7,0.1-1.1,0.2c-0.3,0.2-0.6,0.3-0.8,0.4l-0.2-0.4c0.1-0.1,0.2-0.2,0.4-0.2
				c0.1-0.1,0.3-0.2,0.5-0.2c0.2-0.1,0.4-0.1,0.6-0.2c0.2-0.1,0.4-0.1,0.7-0.1c0.3,0,0.6,0.1,0.9,0.2c0.2,0.1,0.4,0.3,0.6,0.5
				s0.2,0.4,0.3,0.7c0.1,0.3,0.1,0.6,0.1,0.9v3.7h-0.5l0-0.7h0c-0.3,0.2-0.6,0.4-1,0.6C491.7,505.8,491.4,505.9,491,505.9z
				 M491.1,505.4c0.3,0,0.7-0.1,1-0.2s0.6-0.4,1-0.7v-2c-0.6,0.1-1.1,0.2-1.5,0.3c-0.4,0.1-0.7,0.2-1,0.4c-0.2,0.1-0.4,0.3-0.5,0.5
				c-0.1,0.2-0.2,0.4-0.2,0.6c0,0.2,0,0.4,0.1,0.5c0.1,0.1,0.2,0.3,0.3,0.4c0.1,0.1,0.2,0.2,0.4,0.2S490.9,505.4,491.1,505.4z"/>
			<path d="M495.6,505.7V500h0.5l0,0.9h0c0.3-0.3,0.6-0.5,0.9-0.7c0.3-0.2,0.7-0.3,1.1-0.3c0.6,0,1,0.2,1.3,0.5
				c0.3,0.4,0.4,0.9,0.4,1.7v3.7h-0.5v-3.6c0-0.6-0.1-1.1-0.3-1.4c-0.2-0.3-0.5-0.4-1-0.4c-0.3,0-0.7,0.1-0.9,0.3
				c-0.3,0.2-0.6,0.5-0.9,0.8v4.3H495.6z"/>
		</g>
		<g class="st0">
			<path d="M504.1,505.9c-0.4,0-0.7-0.1-1-0.2c-0.3-0.1-0.6-0.3-0.8-0.6c-0.2-0.3-0.4-0.6-0.6-0.9c-0.1-0.4-0.2-0.8-0.2-1.3
				c0-0.5,0.1-0.9,0.2-1.3s0.3-0.7,0.6-1c0.2-0.3,0.5-0.5,0.8-0.6c0.3-0.1,0.6-0.2,1-0.2c0.4,0,0.7,0.1,1,0.2
				c0.3,0.1,0.5,0.3,0.7,0.5l-0.3,0.4c-0.2-0.2-0.4-0.3-0.6-0.4c-0.2-0.1-0.5-0.2-0.8-0.2c-0.3,0-0.6,0.1-0.8,0.2s-0.5,0.3-0.7,0.5
				c-0.2,0.2-0.3,0.5-0.4,0.8c-0.1,0.3-0.2,0.7-0.2,1c0,0.4,0.1,0.7,0.2,1c0.1,0.3,0.2,0.6,0.4,0.8c0.2,0.2,0.4,0.4,0.7,0.5
				c0.3,0.1,0.5,0.2,0.9,0.2c0.3,0,0.6-0.1,0.8-0.2c0.3-0.1,0.5-0.3,0.7-0.5l0.3,0.4c-0.2,0.2-0.5,0.4-0.8,0.5
				C504.8,505.8,504.5,505.9,504.1,505.9z"/>
		</g>
		<g class="st0">
			<path d="M509.4,505.9c-0.4,0-0.7-0.1-1-0.2c-0.3-0.1-0.6-0.3-0.8-0.6c-0.2-0.3-0.4-0.6-0.6-0.9c-0.1-0.4-0.2-0.8-0.2-1.3
				c0-0.5,0.1-0.9,0.2-1.3c0.1-0.4,0.3-0.7,0.6-1s0.5-0.5,0.8-0.6c0.3-0.1,0.6-0.2,0.9-0.2c0.7,0,1.2,0.2,1.6,0.7s0.6,1.1,0.6,2
				c0,0.1,0,0.1,0,0.2c0,0.1,0,0.1,0,0.2h-4.2c0,0.4,0.1,0.7,0.2,1c0.1,0.3,0.2,0.6,0.4,0.8c0.2,0.2,0.4,0.4,0.7,0.5
				c0.3,0.1,0.6,0.2,0.9,0.2c0.3,0,0.6,0,0.8-0.1s0.5-0.2,0.7-0.4l0.2,0.4c-0.2,0.1-0.5,0.3-0.8,0.4S509.8,505.9,509.4,505.9z
				 M507.2,502.5h3.7c0-0.7-0.2-1.3-0.5-1.7c-0.3-0.4-0.7-0.5-1.2-0.5c-0.2,0-0.5,0.1-0.7,0.2c-0.2,0.1-0.4,0.2-0.6,0.4
				c-0.2,0.2-0.3,0.4-0.4,0.7C507.4,501.8,507.3,502.2,507.2,502.5z"/>
			<path d="M514.4,505.9c-0.4,0-0.8-0.1-1.2-0.2s-0.7-0.3-0.9-0.6l0.3-0.4c0.2,0.2,0.5,0.4,0.8,0.5c0.3,0.1,0.6,0.2,1,0.2
				c0.5,0,0.8-0.1,1-0.3c0.2-0.2,0.3-0.5,0.3-0.8c0-0.2,0-0.3-0.1-0.5s-0.2-0.3-0.3-0.3c-0.1-0.1-0.3-0.2-0.4-0.3
				c-0.2-0.1-0.3-0.1-0.5-0.2c-0.2-0.1-0.4-0.2-0.7-0.3c-0.2-0.1-0.4-0.2-0.6-0.3c-0.2-0.1-0.3-0.3-0.4-0.4
				c-0.1-0.2-0.2-0.4-0.2-0.6c0-0.2,0-0.4,0.1-0.6s0.2-0.4,0.4-0.5c0.2-0.1,0.4-0.2,0.6-0.3s0.5-0.1,0.8-0.1c0.3,0,0.6,0.1,0.9,0.2
				c0.3,0.1,0.5,0.3,0.8,0.4l-0.3,0.4c-0.2-0.1-0.4-0.3-0.6-0.4c-0.2-0.1-0.5-0.2-0.8-0.2c-0.2,0-0.4,0-0.6,0.1
				c-0.2,0.1-0.3,0.1-0.4,0.2s-0.2,0.2-0.2,0.3c-0.1,0.1-0.1,0.3-0.1,0.4c0,0.2,0,0.3,0.1,0.4c0.1,0.1,0.2,0.2,0.3,0.3
				c0.1,0.1,0.3,0.2,0.4,0.2c0.2,0.1,0.3,0.1,0.5,0.2c0.2,0.1,0.4,0.2,0.7,0.3c0.2,0.1,0.4,0.2,0.6,0.3s0.3,0.3,0.4,0.5
				c0.1,0.2,0.2,0.4,0.2,0.7c0,0.2,0,0.4-0.1,0.6c-0.1,0.2-0.2,0.4-0.4,0.5c-0.2,0.1-0.4,0.3-0.6,0.4
				C515,505.8,514.7,505.9,514.4,505.9z"/>
			<path d="M520.2,505.7V500h0.5l0,0.9h0c0.3-0.3,0.6-0.5,0.9-0.7c0.3-0.2,0.7-0.3,1.1-0.3c0.6,0,1,0.2,1.3,0.5
				c0.3,0.4,0.4,0.9,0.4,1.7v3.7H524v-3.6c0-0.6-0.1-1.1-0.3-1.4c-0.2-0.3-0.5-0.4-1-0.4c-0.3,0-0.7,0.1-0.9,0.3
				c-0.3,0.2-0.6,0.5-0.9,0.8v4.3H520.2z"/>
		</g>
		<g class="st0">
			<path d="M528.7,505.9c-0.3,0-0.7-0.1-1-0.2c-0.3-0.1-0.6-0.3-0.8-0.6c-0.2-0.3-0.4-0.6-0.6-0.9c-0.1-0.4-0.2-0.8-0.2-1.3
				c0-0.5,0.1-0.9,0.2-1.3c0.1-0.4,0.3-0.7,0.6-1c0.2-0.3,0.5-0.5,0.8-0.6c0.3-0.1,0.6-0.2,1-0.2c0.3,0,0.7,0.1,1,0.2
				c0.3,0.1,0.6,0.3,0.8,0.6c0.2,0.3,0.4,0.6,0.6,1s0.2,0.8,0.2,1.3c0,0.5-0.1,0.9-0.2,1.3s-0.3,0.7-0.6,0.9
				c-0.2,0.3-0.5,0.5-0.8,0.6C529.4,505.8,529.1,505.9,528.7,505.9z M528.7,505.4c0.3,0,0.6-0.1,0.8-0.2s0.5-0.3,0.6-0.5
				c0.2-0.2,0.3-0.5,0.4-0.8c0.1-0.3,0.2-0.7,0.2-1c0-0.4-0.1-0.7-0.2-1c-0.1-0.3-0.2-0.6-0.4-0.8c-0.2-0.2-0.4-0.4-0.6-0.5
				s-0.5-0.2-0.8-0.2s-0.6,0.1-0.8,0.2s-0.5,0.3-0.6,0.5c-0.2,0.2-0.3,0.5-0.4,0.8c-0.1,0.3-0.2,0.7-0.2,1c0,0.4,0.1,0.7,0.2,1
				c0.1,0.3,0.2,0.6,0.4,0.8c0.2,0.2,0.4,0.4,0.6,0.5S528.4,505.4,528.7,505.4z"/>
		</g>
		<g class="st0">
			<path d="M534.5,505.9c-0.3,0-0.5,0-0.7-0.1c-0.2-0.1-0.3-0.2-0.4-0.4s-0.2-0.3-0.2-0.6s-0.1-0.5-0.1-0.7v-3.7h-0.9V500l0.9,0
				l0.1-1.7h0.5v1.7h1.7v0.5h-1.7v3.8c0,0.2,0,0.3,0,0.5c0,0.1,0.1,0.3,0.1,0.4c0.1,0.1,0.2,0.2,0.3,0.3c0.1,0.1,0.3,0.1,0.5,0.1
				c0.1,0,0.2,0,0.4-0.1s0.2-0.1,0.4-0.1l0.1,0.4c-0.2,0.1-0.3,0.1-0.5,0.2S534.6,505.9,534.5,505.9z"/>
			<path d="M541,505.9c-0.7,0-1.3-0.3-1.7-0.8c-0.4-0.5-0.6-1.3-0.6-2.2c0-0.5,0.1-0.9,0.2-1.3c0.1-0.4,0.3-0.7,0.6-1
				s0.5-0.5,0.8-0.6c0.3-0.1,0.6-0.2,1-0.2c0.4,0,0.7,0.1,0.9,0.2s0.5,0.3,0.8,0.5l0-1.1v-2.4h0.5v8.6h-0.5l0-0.7h0
				c-0.2,0.2-0.5,0.4-0.8,0.6C541.7,505.8,541.3,505.9,541,505.9z M541,505.4c0.3,0,0.6-0.1,0.9-0.2c0.3-0.2,0.6-0.4,0.9-0.7V501
				c-0.3-0.3-0.6-0.5-0.9-0.6c-0.3-0.1-0.5-0.2-0.8-0.2c-0.3,0-0.6,0.1-0.8,0.2c-0.2,0.1-0.5,0.3-0.6,0.5c-0.2,0.2-0.3,0.5-0.4,0.8
				c-0.1,0.3-0.2,0.7-0.2,1c0,0.4,0,0.7,0.1,1c0.1,0.3,0.2,0.6,0.4,0.8c0.2,0.2,0.4,0.4,0.6,0.5C540.5,505.4,540.7,505.4,541,505.4z
				"/>
		</g>
		<g class="st0">
			<path d="M545.6,505.7V500h0.5l0,1.1h0c0.2-0.4,0.4-0.7,0.7-0.9c0.3-0.2,0.6-0.3,0.9-0.3c0.1,0,0.2,0,0.3,0s0.2,0,0.3,0.1
				l-0.1,0.5c-0.1,0-0.2-0.1-0.3-0.1c-0.1,0-0.2,0-0.3,0c-0.3,0-0.5,0.1-0.8,0.3c-0.3,0.2-0.5,0.6-0.8,1.1v3.9H545.6z"/>
		</g>
		<g class="st0">
			<path d="M550.4,505.9c-0.2,0-0.4,0-0.6-0.1c-0.2-0.1-0.4-0.2-0.5-0.3s-0.3-0.3-0.4-0.5c-0.1-0.2-0.1-0.4-0.1-0.7
				c0-0.6,0.3-1.1,0.9-1.5c0.6-0.3,1.5-0.6,2.8-0.7c0-0.2,0-0.4,0-0.7c0-0.2-0.1-0.4-0.2-0.6c-0.1-0.2-0.2-0.3-0.4-0.4
				c-0.2-0.1-0.4-0.2-0.7-0.2c-0.4,0-0.7,0.1-1.1,0.2c-0.3,0.2-0.6,0.3-0.8,0.4l-0.2-0.4c0.1-0.1,0.2-0.2,0.4-0.2
				c0.1-0.1,0.3-0.2,0.5-0.2c0.2-0.1,0.4-0.1,0.6-0.2c0.2-0.1,0.4-0.1,0.7-0.1c0.3,0,0.6,0.1,0.9,0.2c0.2,0.1,0.4,0.3,0.6,0.5
				s0.2,0.4,0.3,0.7c0.1,0.3,0.1,0.6,0.1,0.9v3.7h-0.5l0-0.7h0c-0.3,0.2-0.6,0.4-1,0.6C551.1,505.8,550.8,505.9,550.4,505.9z
				 M550.5,505.4c0.3,0,0.7-0.1,1-0.2s0.6-0.4,1-0.7v-2c-0.6,0.1-1.1,0.2-1.5,0.3c-0.4,0.1-0.7,0.2-1,0.4c-0.2,0.1-0.4,0.3-0.5,0.5
				c-0.1,0.2-0.2,0.4-0.2,0.6c0,0.2,0,0.4,0.1,0.5c0.1,0.1,0.2,0.3,0.3,0.4c0.1,0.1,0.2,0.2,0.4,0.2S550.3,505.4,550.5,505.4z"/>
			<path d="M555.9,505.7l-1.7-5.8h0.6l1,3.7c0.1,0.3,0.1,0.5,0.2,0.8c0.1,0.3,0.1,0.5,0.2,0.8h0c0.1-0.3,0.1-0.5,0.2-0.8
				c0.1-0.3,0.1-0.5,0.2-0.8l1-3.7h0.6l1,3.7c0.1,0.3,0.1,0.5,0.2,0.8c0.1,0.3,0.1,0.5,0.2,0.8h0c0.1-0.3,0.1-0.5,0.2-0.8
				c0.1-0.3,0.1-0.5,0.2-0.8l1-3.7h0.5l-1.7,5.8h-0.7l-1-3.6c-0.1-0.3-0.2-0.6-0.2-0.8c-0.1-0.3-0.1-0.5-0.2-0.8h0
				c-0.1,0.3-0.1,0.6-0.2,0.8c-0.1,0.3-0.2,0.6-0.2,0.8l-1,3.6H555.9z"/>
			<path d="M563.2,505.7V500h0.5l0,0.9h0c0.3-0.3,0.6-0.5,0.9-0.7c0.3-0.2,0.7-0.3,1.1-0.3c0.6,0,1,0.2,1.3,0.5
				c0.3,0.4,0.4,0.9,0.4,1.7v3.7H567v-3.6c0-0.6-0.1-1.1-0.3-1.4c-0.2-0.3-0.5-0.4-1-0.4c-0.3,0-0.7,0.1-0.9,0.3
				c-0.3,0.2-0.6,0.5-0.9,0.8v4.3H563.2z"/>
		</g>
		<g class="st0">
			<path d="M573.6,505.9c-0.3,0-0.5,0-0.7-0.1s-0.3-0.2-0.4-0.4c-0.1-0.2-0.2-0.3-0.2-0.6s-0.1-0.5-0.1-0.7v-3.7h-0.9V500l0.9,0
				l0.1-1.7h0.5v1.7h1.7v0.5h-1.7v3.8c0,0.2,0,0.3,0,0.5c0,0.1,0.1,0.3,0.1,0.4c0.1,0.1,0.2,0.2,0.3,0.3c0.1,0.1,0.3,0.1,0.5,0.1
				c0.1,0,0.2,0,0.4-0.1c0.1,0,0.2-0.1,0.4-0.1l0.1,0.4c-0.2,0.1-0.3,0.1-0.5,0.2S573.7,505.9,573.6,505.9z"/>
		</g>
		<g class="st0">
			<path d="M577.7,505.9c-0.3,0-0.7-0.1-1-0.2c-0.3-0.1-0.6-0.3-0.8-0.6c-0.2-0.3-0.4-0.6-0.6-0.9c-0.1-0.4-0.2-0.8-0.2-1.3
				c0-0.5,0.1-0.9,0.2-1.3c0.1-0.4,0.3-0.7,0.6-1c0.2-0.3,0.5-0.5,0.8-0.6c0.3-0.1,0.6-0.2,1-0.2c0.3,0,0.7,0.1,1,0.2
				c0.3,0.1,0.6,0.3,0.8,0.6c0.2,0.3,0.4,0.6,0.6,1c0.1,0.4,0.2,0.8,0.2,1.3c0,0.5-0.1,0.9-0.2,1.3c-0.1,0.4-0.3,0.7-0.6,0.9
				c-0.2,0.3-0.5,0.5-0.8,0.6C578.4,505.8,578.1,505.9,577.7,505.9z M577.7,505.4c0.3,0,0.6-0.1,0.8-0.2s0.5-0.3,0.6-0.5
				c0.2-0.2,0.3-0.5,0.4-0.8c0.1-0.3,0.2-0.7,0.2-1c0-0.4-0.1-0.7-0.2-1c-0.1-0.3-0.2-0.6-0.4-0.8c-0.2-0.2-0.4-0.4-0.6-0.5
				s-0.5-0.2-0.8-0.2s-0.6,0.1-0.8,0.2s-0.5,0.3-0.6,0.5c-0.2,0.2-0.3,0.5-0.4,0.8c-0.1,0.3-0.2,0.7-0.2,1c0,0.4,0.1,0.7,0.2,1
				c0.1,0.3,0.2,0.6,0.4,0.8c0.2,0.2,0.4,0.4,0.6,0.5S577.4,505.4,577.7,505.4z"/>
			<path d="M585.8,505.9c-0.4,0-0.8-0.1-1.2-0.2c-0.4-0.2-0.7-0.3-0.9-0.6l0.3-0.4c0.2,0.2,0.5,0.4,0.8,0.5c0.3,0.1,0.6,0.2,1,0.2
				c0.5,0,0.8-0.1,1-0.3c0.2-0.2,0.3-0.5,0.3-0.8c0-0.2,0-0.3-0.1-0.5s-0.2-0.3-0.3-0.3c-0.1-0.1-0.3-0.2-0.5-0.3
				c-0.2-0.1-0.3-0.1-0.5-0.2c-0.2-0.1-0.4-0.2-0.7-0.3c-0.2-0.1-0.4-0.2-0.6-0.3s-0.3-0.3-0.4-0.4c-0.1-0.2-0.2-0.4-0.2-0.6
				c0-0.2,0-0.4,0.1-0.6s0.2-0.4,0.4-0.5c0.2-0.1,0.4-0.2,0.6-0.3c0.2-0.1,0.5-0.1,0.8-0.1c0.3,0,0.6,0.1,0.9,0.2
				c0.3,0.1,0.5,0.3,0.8,0.4l-0.3,0.4c-0.2-0.1-0.4-0.3-0.6-0.4c-0.2-0.1-0.5-0.2-0.8-0.2c-0.2,0-0.4,0-0.6,0.1
				c-0.2,0.1-0.3,0.1-0.4,0.2c-0.1,0.1-0.2,0.2-0.2,0.3s-0.1,0.3-0.1,0.4c0,0.2,0,0.3,0.1,0.4c0.1,0.1,0.2,0.2,0.3,0.3
				s0.3,0.2,0.4,0.2c0.2,0.1,0.3,0.1,0.5,0.2c0.2,0.1,0.4,0.2,0.7,0.3c0.2,0.1,0.4,0.2,0.6,0.3c0.2,0.1,0.3,0.3,0.4,0.5
				c0.1,0.2,0.2,0.4,0.2,0.7c0,0.2,0,0.4-0.1,0.6c-0.1,0.2-0.2,0.4-0.4,0.5c-0.2,0.1-0.4,0.3-0.6,0.4S586.2,505.9,585.8,505.9z"/>
		</g>
		<g class="st0">
			<path d="M591.5,505.9c-0.4,0-0.7-0.1-1-0.2c-0.3-0.1-0.6-0.3-0.8-0.6c-0.2-0.3-0.4-0.6-0.6-0.9c-0.1-0.4-0.2-0.8-0.2-1.3
				c0-0.5,0.1-0.9,0.2-1.3s0.3-0.7,0.6-1c0.2-0.3,0.5-0.5,0.8-0.6c0.3-0.1,0.6-0.2,1-0.2c0.4,0,0.7,0.1,1,0.2
				c0.3,0.1,0.5,0.3,0.7,0.5l-0.3,0.4c-0.2-0.2-0.4-0.3-0.6-0.4c-0.2-0.1-0.5-0.2-0.8-0.2c-0.3,0-0.6,0.1-0.8,0.2s-0.5,0.3-0.7,0.5
				c-0.2,0.2-0.3,0.5-0.4,0.8c-0.1,0.3-0.2,0.7-0.2,1c0,0.4,0.1,0.7,0.2,1c0.1,0.3,0.2,0.6,0.4,0.8c0.2,0.2,0.4,0.4,0.7,0.5
				c0.3,0.1,0.5,0.2,0.9,0.2c0.3,0,0.6-0.1,0.8-0.2c0.3-0.1,0.5-0.3,0.7-0.5l0.3,0.4c-0.2,0.2-0.5,0.4-0.8,0.5
				C592.2,505.8,591.8,505.9,591.5,505.9z"/>
		</g>
		<g class="st0">
			<path d="M595.8,505.9c-0.2,0-0.4,0-0.6-0.1c-0.2-0.1-0.4-0.2-0.5-0.3s-0.3-0.3-0.4-0.5c-0.1-0.2-0.1-0.4-0.1-0.7
				c0-0.6,0.3-1.1,0.9-1.5c0.6-0.3,1.5-0.6,2.8-0.7c0-0.2,0-0.4,0-0.7c0-0.2-0.1-0.4-0.2-0.6c-0.1-0.2-0.2-0.3-0.4-0.4
				c-0.2-0.1-0.4-0.2-0.7-0.2c-0.4,0-0.7,0.1-1.1,0.2c-0.3,0.2-0.6,0.3-0.8,0.4l-0.2-0.4c0.1-0.1,0.2-0.2,0.4-0.2
				c0.1-0.1,0.3-0.2,0.5-0.2c0.2-0.1,0.4-0.1,0.6-0.2c0.2-0.1,0.4-0.1,0.7-0.1c0.3,0,0.6,0.1,0.9,0.2c0.2,0.1,0.4,0.3,0.6,0.5
				s0.2,0.4,0.3,0.7c0.1,0.3,0.1,0.6,0.1,0.9v3.7H598l0-0.7h0c-0.3,0.2-0.6,0.4-1,0.6C596.6,505.8,596.2,505.9,595.8,505.9z
				 M595.9,505.4c0.3,0,0.7-0.1,1-0.2s0.6-0.4,1-0.7v-2c-0.6,0.1-1.1,0.2-1.5,0.3c-0.4,0.1-0.7,0.2-1,0.4c-0.2,0.1-0.4,0.3-0.5,0.5
				c-0.1,0.2-0.2,0.4-0.2,0.6c0,0.2,0,0.4,0.1,0.5c0.1,0.1,0.2,0.3,0.3,0.4c0.1,0.1,0.2,0.2,0.4,0.2S595.8,505.4,595.9,505.4z"/>
			<path d="M601.2,505.9c-0.5,0-0.7-0.3-0.7-0.9v-7.9h0.5v7.9c0,0.1,0,0.2,0.1,0.3c0,0.1,0.1,0.1,0.2,0.1c0,0,0.1,0,0.1,0
				s0.1,0,0.1,0l0.1,0.4c-0.1,0-0.1,0-0.2,0C601.3,505.9,601.3,505.9,601.2,505.9z"/>
			<path d="M605.5,505.9c-0.4,0-0.7-0.1-1-0.2c-0.3-0.1-0.6-0.3-0.8-0.6c-0.2-0.3-0.4-0.6-0.6-0.9c-0.1-0.4-0.2-0.8-0.2-1.3
				c0-0.5,0.1-0.9,0.2-1.3c0.1-0.4,0.3-0.7,0.6-1s0.5-0.5,0.8-0.6c0.3-0.1,0.6-0.2,0.9-0.2c0.7,0,1.2,0.2,1.6,0.7s0.6,1.1,0.6,2
				c0,0.1,0,0.1,0,0.2c0,0.1,0,0.1,0,0.2h-4.2c0,0.4,0.1,0.7,0.2,1c0.1,0.3,0.2,0.6,0.4,0.8c0.2,0.2,0.4,0.4,0.7,0.5
				c0.3,0.1,0.6,0.2,0.9,0.2c0.3,0,0.6,0,0.8-0.1s0.5-0.2,0.7-0.4l0.2,0.4c-0.2,0.1-0.5,0.3-0.8,0.4S605.9,505.9,605.5,505.9z
				 M603.4,502.5h3.7c0-0.7-0.2-1.3-0.5-1.7c-0.3-0.4-0.7-0.5-1.2-0.5c-0.2,0-0.5,0.1-0.7,0.2c-0.2,0.1-0.4,0.2-0.6,0.4
				c-0.2,0.2-0.3,0.4-0.4,0.7C603.5,501.8,603.4,502.2,603.4,502.5z"/>
		</g>
		<g class="st0">
			<path d="M1020.5,505.9c-0.6,0-1.1-0.1-1.5-0.3c-0.4-0.2-0.8-0.5-1.1-0.9l0.4-0.4c0.3,0.3,0.6,0.6,1,0.8c0.4,0.2,0.8,0.3,1.3,0.3
				c0.6,0,1.1-0.1,1.4-0.4c0.4-0.3,0.5-0.7,0.5-1.1c0-0.2,0-0.5-0.1-0.6c-0.1-0.2-0.2-0.3-0.3-0.4s-0.3-0.2-0.4-0.3
				c-0.2-0.1-0.4-0.2-0.5-0.3l-1.2-0.5c-0.2-0.1-0.3-0.2-0.5-0.3c-0.2-0.1-0.4-0.2-0.5-0.4s-0.3-0.3-0.4-0.6
				c-0.1-0.2-0.2-0.5-0.2-0.8c0-0.3,0.1-0.5,0.2-0.8c0.1-0.2,0.3-0.4,0.5-0.6s0.4-0.3,0.7-0.4c0.3-0.1,0.6-0.1,0.9-0.1
				c0.5,0,0.9,0.1,1.3,0.3c0.4,0.2,0.7,0.4,0.9,0.7l-0.3,0.4c-0.2-0.2-0.5-0.4-0.8-0.6c-0.3-0.1-0.7-0.2-1.1-0.2
				c-0.5,0-1,0.1-1.3,0.4c-0.3,0.3-0.5,0.6-0.5,1c0,0.2,0,0.4,0.1,0.6c0.1,0.2,0.2,0.3,0.3,0.4c0.1,0.1,0.3,0.2,0.4,0.3
				s0.3,0.2,0.5,0.2l1.2,0.5c0.2,0.1,0.4,0.2,0.6,0.3s0.4,0.3,0.5,0.4c0.2,0.2,0.3,0.3,0.4,0.6c0.1,0.2,0.1,0.5,0.1,0.8
				c0,0.3-0.1,0.6-0.2,0.8s-0.3,0.5-0.5,0.7c-0.2,0.2-0.5,0.3-0.8,0.4C1021.2,505.8,1020.9,505.9,1020.5,505.9z"/>
			<path d="M1024.9,498.6c-0.1,0-0.2,0-0.3-0.1c-0.1-0.1-0.1-0.2-0.1-0.3c0-0.2,0-0.3,0.1-0.4c0.1-0.1,0.2-0.1,0.3-0.1
				c0.1,0,0.2,0,0.3,0.1s0.1,0.2,0.1,0.4c0,0.1,0,0.2-0.1,0.3S1025,498.6,1024.9,498.6z M1024.6,505.7V500h0.5v5.8H1024.6z"/>
		</g>
		<g class="st0">
			<path d="M1026.6,505.7v-0.3l3.4-5h-3V500h3.7v0.3l-3.4,5h3.5v0.5H1026.6z"/>
		</g>
		<g class="st0">
			<path d="M1034.3,505.9c-0.4,0-0.7-0.1-1-0.2c-0.3-0.1-0.6-0.3-0.8-0.6c-0.2-0.3-0.4-0.6-0.6-0.9c-0.1-0.4-0.2-0.8-0.2-1.3
				c0-0.5,0.1-0.9,0.2-1.3s0.3-0.7,0.6-1c0.2-0.3,0.5-0.5,0.8-0.6c0.3-0.1,0.6-0.2,0.9-0.2c0.7,0,1.2,0.2,1.6,0.7
				c0.4,0.5,0.6,1.1,0.6,2c0,0.1,0,0.1,0,0.2c0,0.1,0,0.1,0,0.2h-4.2c0,0.4,0.1,0.7,0.2,1c0.1,0.3,0.2,0.6,0.4,0.8
				c0.2,0.2,0.4,0.4,0.7,0.5s0.6,0.2,0.9,0.2c0.3,0,0.6,0,0.8-0.1s0.5-0.2,0.7-0.4l0.2,0.4c-0.2,0.1-0.5,0.3-0.8,0.4
				C1035,505.8,1034.7,505.9,1034.3,505.9z M1032.1,502.5h3.7c0-0.7-0.2-1.3-0.5-1.7c-0.3-0.4-0.7-0.5-1.2-0.5
				c-0.2,0-0.5,0.1-0.7,0.2c-0.2,0.1-0.4,0.2-0.6,0.4c-0.2,0.2-0.3,0.4-0.4,0.7C1032.2,501.8,1032.2,502.2,1032.1,502.5z"/>
			<path d="M1039.3,505.9c-0.4,0-0.8-0.1-1.2-0.2c-0.4-0.2-0.7-0.3-0.9-0.6l0.3-0.4c0.2,0.2,0.5,0.4,0.8,0.5c0.3,0.1,0.6,0.2,1,0.2
				c0.5,0,0.8-0.1,1-0.3c0.2-0.2,0.3-0.5,0.3-0.8c0-0.2,0-0.3-0.1-0.5s-0.2-0.3-0.3-0.3c-0.1-0.1-0.3-0.2-0.5-0.3
				c-0.2-0.1-0.3-0.1-0.5-0.2c-0.2-0.1-0.4-0.2-0.7-0.3c-0.2-0.1-0.4-0.2-0.6-0.3s-0.3-0.3-0.4-0.4c-0.1-0.2-0.2-0.4-0.2-0.6
				c0-0.2,0-0.4,0.1-0.6s0.2-0.4,0.4-0.5c0.2-0.1,0.4-0.2,0.6-0.3c0.2-0.1,0.5-0.1,0.8-0.1c0.3,0,0.6,0.1,0.9,0.2
				c0.3,0.1,0.5,0.3,0.8,0.4l-0.3,0.4c-0.2-0.1-0.4-0.3-0.6-0.4c-0.2-0.1-0.5-0.2-0.8-0.2c-0.2,0-0.4,0-0.6,0.1
				c-0.2,0.1-0.3,0.1-0.4,0.2c-0.1,0.1-0.2,0.2-0.2,0.3s-0.1,0.3-0.1,0.4c0,0.2,0,0.3,0.1,0.4c0.1,0.1,0.2,0.2,0.3,0.3
				s0.3,0.2,0.4,0.2c0.2,0.1,0.3,0.1,0.5,0.2c0.2,0.1,0.4,0.2,0.7,0.3c0.2,0.1,0.4,0.2,0.6,0.3c0.2,0.1,0.3,0.3,0.4,0.5
				c0.1,0.2,0.2,0.4,0.2,0.7c0,0.2,0,0.4-0.1,0.6c-0.1,0.2-0.2,0.4-0.4,0.5c-0.2,0.1-0.4,0.3-0.6,0.4S1039.6,505.9,1039.3,505.9z"/>
			<path d="M1046.4,505.9c-0.2,0-0.4,0-0.6-0.1c-0.2-0.1-0.4-0.2-0.5-0.3c-0.2-0.1-0.3-0.3-0.4-0.5c-0.1-0.2-0.1-0.4-0.1-0.7
				c0-0.6,0.3-1.1,0.9-1.5c0.6-0.3,1.5-0.6,2.8-0.7c0-0.2,0-0.4,0-0.7c0-0.2-0.1-0.4-0.2-0.6c-0.1-0.2-0.2-0.3-0.4-0.4
				c-0.2-0.1-0.4-0.2-0.7-0.2c-0.4,0-0.7,0.1-1.1,0.2s-0.6,0.3-0.8,0.4l-0.2-0.4c0.1-0.1,0.2-0.2,0.4-0.2c0.1-0.1,0.3-0.2,0.5-0.2
				c0.2-0.1,0.4-0.1,0.6-0.2c0.2-0.1,0.4-0.1,0.7-0.1c0.3,0,0.6,0.1,0.9,0.2c0.2,0.1,0.4,0.3,0.6,0.5c0.1,0.2,0.2,0.4,0.3,0.7
				c0.1,0.3,0.1,0.6,0.1,0.9v3.7h-0.5l0-0.7h0c-0.3,0.2-0.6,0.4-1,0.6S1046.8,505.9,1046.4,505.9z M1046.5,505.4
				c0.3,0,0.7-0.1,1-0.2c0.3-0.2,0.6-0.4,1-0.7v-2c-0.6,0.1-1.1,0.2-1.5,0.3c-0.4,0.1-0.7,0.2-1,0.4c-0.2,0.1-0.4,0.3-0.5,0.5
				c-0.1,0.2-0.2,0.4-0.2,0.6c0,0.2,0,0.4,0.1,0.5c0.1,0.1,0.2,0.3,0.3,0.4c0.1,0.1,0.2,0.2,0.4,0.2
				C1046.2,505.4,1046.3,505.4,1046.5,505.4z"/>
			<path d="M1051,505.7V500h0.5l0,0.9h0c0.3-0.3,0.6-0.5,0.9-0.7c0.3-0.2,0.7-0.3,1.1-0.3c0.6,0,1,0.2,1.3,0.5
				c0.3,0.4,0.4,0.9,0.4,1.7v3.7h-0.5v-3.6c0-0.6-0.1-1.1-0.3-1.4c-0.2-0.3-0.5-0.4-1-0.4c-0.3,0-0.7,0.1-0.9,0.3
				c-0.3,0.2-0.6,0.5-0.9,0.8v4.3H1051z"/>
			<path d="M1059.3,505.9c-0.7,0-1.3-0.3-1.7-0.8c-0.4-0.5-0.6-1.3-0.6-2.2c0-0.5,0.1-0.9,0.2-1.3c0.1-0.4,0.3-0.7,0.6-1
				s0.5-0.5,0.8-0.6c0.3-0.1,0.6-0.2,1-0.2c0.4,0,0.7,0.1,0.9,0.2s0.5,0.3,0.8,0.5l0-1.1v-2.4h0.5v8.6h-0.5l0-0.7h0
				c-0.2,0.2-0.5,0.4-0.8,0.6C1060,505.8,1059.7,505.9,1059.3,505.9z M1059.4,505.4c0.3,0,0.6-0.1,0.9-0.2c0.3-0.2,0.6-0.4,0.9-0.7
				V501c-0.3-0.3-0.6-0.5-0.9-0.6c-0.3-0.1-0.5-0.2-0.8-0.2c-0.3,0-0.6,0.1-0.8,0.2c-0.2,0.1-0.5,0.3-0.6,0.5
				c-0.2,0.2-0.3,0.5-0.4,0.8c-0.1,0.3-0.2,0.7-0.2,1c0,0.4,0,0.7,0.1,1c0.1,0.3,0.2,0.6,0.4,0.8c0.2,0.2,0.4,0.4,0.6,0.5
				C1058.8,505.4,1059.1,505.4,1059.4,505.4z"/>
			<path d="M1068.2,505.9c-0.7,0-1.3-0.3-1.7-0.8c-0.4-0.5-0.6-1.3-0.6-2.2c0-0.5,0.1-0.9,0.2-1.3s0.3-0.7,0.6-1
				c0.2-0.3,0.5-0.5,0.8-0.6c0.3-0.1,0.6-0.2,1-0.2c0.4,0,0.7,0.1,0.9,0.2c0.3,0.1,0.5,0.3,0.8,0.5l0-1.1v-2.4h0.5v8.6h-0.5l0-0.7h0
				c-0.2,0.2-0.5,0.4-0.8,0.6C1069,505.8,1068.6,505.9,1068.2,505.9z M1068.3,505.4c0.3,0,0.6-0.1,0.9-0.2c0.3-0.2,0.6-0.4,0.9-0.7
				V501c-0.3-0.3-0.6-0.5-0.9-0.6c-0.3-0.1-0.5-0.2-0.8-0.2c-0.3,0-0.6,0.1-0.8,0.2s-0.5,0.3-0.6,0.5c-0.2,0.2-0.3,0.5-0.4,0.8
				c-0.1,0.3-0.2,0.7-0.2,1c0,0.4,0,0.7,0.1,1c0.1,0.3,0.2,0.6,0.4,0.8c0.2,0.2,0.4,0.4,0.6,0.5
				C1067.7,505.4,1068,505.4,1068.3,505.4z"/>
			<path d="M1073.1,498.6c-0.1,0-0.2,0-0.3-0.1c-0.1-0.1-0.1-0.2-0.1-0.3c0-0.2,0-0.3,0.1-0.4c0.1-0.1,0.2-0.1,0.3-0.1
				c0.1,0,0.2,0,0.3,0.1s0.1,0.2,0.1,0.4c0,0.1,0,0.2-0.1,0.3S1073.3,498.6,1073.1,498.6z M1072.9,505.7V500h0.5v5.8H1072.9z"/>
		</g>
		<g class="st0">
			<path d="M1077,505.9c-0.4,0-0.8-0.1-1.2-0.2c-0.4-0.2-0.7-0.3-0.9-0.6l0.3-0.4c0.2,0.2,0.5,0.4,0.8,0.5c0.3,0.1,0.6,0.2,1,0.2
				c0.5,0,0.8-0.1,1-0.3c0.2-0.2,0.3-0.5,0.3-0.8c0-0.2,0-0.3-0.1-0.5s-0.2-0.3-0.3-0.3c-0.1-0.1-0.3-0.2-0.4-0.3
				c-0.2-0.1-0.3-0.1-0.5-0.2c-0.2-0.1-0.4-0.2-0.7-0.3c-0.2-0.1-0.4-0.2-0.6-0.3s-0.3-0.3-0.4-0.4c-0.1-0.2-0.2-0.4-0.2-0.6
				c0-0.2,0-0.4,0.1-0.6s0.2-0.4,0.4-0.5c0.2-0.1,0.4-0.2,0.6-0.3c0.2-0.1,0.5-0.1,0.8-0.1c0.3,0,0.6,0.1,0.9,0.2
				c0.3,0.1,0.5,0.3,0.8,0.4l-0.3,0.4c-0.2-0.1-0.4-0.3-0.6-0.4c-0.2-0.1-0.5-0.2-0.8-0.2c-0.2,0-0.4,0-0.6,0.1
				c-0.2,0.1-0.3,0.1-0.4,0.2c-0.1,0.1-0.2,0.2-0.2,0.3c-0.1,0.1-0.1,0.3-0.1,0.4c0,0.2,0,0.3,0.1,0.4c0.1,0.1,0.2,0.2,0.3,0.3
				s0.3,0.2,0.4,0.2c0.2,0.1,0.3,0.1,0.5,0.2c0.2,0.1,0.4,0.2,0.7,0.3c0.2,0.1,0.4,0.2,0.6,0.3s0.3,0.3,0.4,0.5
				c0.1,0.2,0.2,0.4,0.2,0.7c0,0.2,0,0.4-0.1,0.6c-0.1,0.2-0.2,0.4-0.4,0.5c-0.2,0.1-0.4,0.3-0.6,0.4S1077.3,505.9,1077,505.9z"/>
		</g>
		<g class="st0">
			<path d="M1081.8,505.9c-0.3,0-0.5,0-0.7-0.1c-0.2-0.1-0.3-0.2-0.4-0.4c-0.1-0.2-0.2-0.3-0.2-0.6s-0.1-0.5-0.1-0.7v-3.7h-0.9V500
				l0.9,0l0.1-1.7h0.5v1.7h1.7v0.5h-1.7v3.8c0,0.2,0,0.3,0,0.5c0,0.1,0.1,0.3,0.2,0.4s0.2,0.2,0.3,0.3c0.1,0.1,0.3,0.1,0.5,0.1
				c0.1,0,0.2,0,0.4-0.1c0.1,0,0.2-0.1,0.4-0.1l0.1,0.4c-0.2,0.1-0.3,0.1-0.5,0.2S1081.9,505.9,1081.8,505.9z"/>
		</g>
		<g class="st0">
			<path d="M1085,505.9c-0.2,0-0.4,0-0.6-0.1c-0.2-0.1-0.4-0.2-0.5-0.3s-0.3-0.3-0.4-0.5c-0.1-0.2-0.1-0.4-0.1-0.7
				c0-0.6,0.3-1.1,0.9-1.5c0.6-0.3,1.5-0.6,2.8-0.7c0-0.2,0-0.4,0-0.7c0-0.2-0.1-0.4-0.2-0.6c-0.1-0.2-0.2-0.3-0.4-0.4
				c-0.2-0.1-0.4-0.2-0.7-0.2c-0.4,0-0.7,0.1-1.1,0.2s-0.6,0.3-0.8,0.4l-0.2-0.4c0.1-0.1,0.2-0.2,0.4-0.2c0.1-0.1,0.3-0.2,0.5-0.2
				c0.2-0.1,0.4-0.1,0.6-0.2c0.2-0.1,0.4-0.1,0.7-0.1c0.3,0,0.6,0.1,0.9,0.2c0.2,0.1,0.4,0.3,0.6,0.5c0.1,0.2,0.2,0.4,0.3,0.7
				c0.1,0.3,0.1,0.6,0.1,0.9v3.7h-0.5l0-0.7h0c-0.3,0.2-0.6,0.4-1,0.6C1085.7,505.8,1085.3,505.9,1085,505.9z M1085.1,505.4
				c0.3,0,0.7-0.1,1-0.2c0.3-0.2,0.6-0.4,1-0.7v-2c-0.6,0.1-1.1,0.2-1.5,0.3c-0.4,0.1-0.7,0.2-1,0.4c-0.2,0.1-0.4,0.3-0.5,0.5
				c-0.1,0.2-0.2,0.4-0.2,0.6c0,0.2,0,0.4,0.1,0.5c0.1,0.1,0.2,0.3,0.3,0.4s0.2,0.2,0.4,0.2S1084.9,505.4,1085.1,505.4z"/>
			<path d="M1089.6,505.7V500h0.5l0,0.9h0c0.3-0.3,0.6-0.5,0.9-0.7c0.3-0.2,0.7-0.3,1.1-0.3c0.6,0,1,0.2,1.3,0.5
				c0.3,0.4,0.4,0.9,0.4,1.7v3.7h-0.5v-3.6c0-0.6-0.1-1.1-0.3-1.4c-0.2-0.3-0.5-0.4-1-0.4c-0.3,0-0.7,0.1-0.9,0.3
				c-0.3,0.2-0.6,0.5-0.9,0.8v4.3H1089.6z"/>
		</g>
		<g class="st0">
			<path d="M1098.1,505.9c-0.4,0-0.7-0.1-1-0.2c-0.3-0.1-0.6-0.3-0.8-0.6c-0.2-0.3-0.4-0.6-0.6-0.9c-0.1-0.4-0.2-0.8-0.2-1.3
				c0-0.5,0.1-0.9,0.2-1.3s0.3-0.7,0.6-1c0.2-0.3,0.5-0.5,0.8-0.6c0.3-0.1,0.6-0.2,1-0.2c0.4,0,0.7,0.1,1,0.2
				c0.3,0.1,0.5,0.3,0.7,0.5l-0.3,0.4c-0.2-0.2-0.4-0.3-0.6-0.4c-0.2-0.1-0.5-0.2-0.8-0.2c-0.3,0-0.6,0.1-0.8,0.2s-0.5,0.3-0.7,0.5
				c-0.2,0.2-0.3,0.5-0.4,0.8c-0.1,0.3-0.2,0.7-0.2,1c0,0.4,0,0.7,0.2,1c0.1,0.3,0.2,0.6,0.4,0.8c0.2,0.2,0.4,0.4,0.7,0.5
				c0.3,0.1,0.5,0.2,0.9,0.2c0.3,0,0.6-0.1,0.8-0.2s0.5-0.3,0.7-0.5l0.3,0.4c-0.2,0.2-0.5,0.4-0.8,0.5
				C1098.8,505.8,1098.5,505.9,1098.1,505.9z"/>
		</g>
		<g class="st0">
			<path d="M1103.3,505.9c-0.4,0-0.7-0.1-1-0.2c-0.3-0.1-0.6-0.3-0.8-0.6c-0.2-0.3-0.4-0.6-0.6-0.9c-0.1-0.4-0.2-0.8-0.2-1.3
				c0-0.5,0.1-0.9,0.2-1.3c0.1-0.4,0.3-0.7,0.6-1s0.5-0.5,0.8-0.6c0.3-0.1,0.6-0.2,0.9-0.2c0.7,0,1.2,0.2,1.6,0.7
				c0.4,0.5,0.6,1.1,0.6,2c0,0.1,0,0.1,0,0.2c0,0.1,0,0.1,0,0.2h-4.2c0,0.4,0.1,0.7,0.2,1c0.1,0.3,0.2,0.6,0.4,0.8
				c0.2,0.2,0.4,0.4,0.7,0.5s0.6,0.2,0.9,0.2c0.3,0,0.6,0,0.8-0.1s0.5-0.2,0.7-0.4l0.2,0.4c-0.2,0.1-0.5,0.3-0.8,0.4
				C1104.1,505.8,1103.8,505.9,1103.3,505.9z M1101.2,502.5h3.7c0-0.7-0.2-1.3-0.5-1.7c-0.3-0.4-0.7-0.5-1.2-0.5
				c-0.2,0-0.5,0.1-0.7,0.2c-0.2,0.1-0.4,0.2-0.6,0.4c-0.2,0.2-0.3,0.4-0.4,0.7C1101.3,501.8,1101.3,502.2,1101.2,502.5z"/>
			<path d="M1108.4,505.9c-0.4,0-0.8-0.1-1.2-0.2s-0.7-0.3-0.9-0.6l0.3-0.4c0.2,0.2,0.5,0.4,0.8,0.5c0.3,0.1,0.6,0.2,1,0.2
				c0.5,0,0.8-0.1,1-0.3c0.2-0.2,0.3-0.5,0.3-0.8c0-0.2,0-0.3-0.1-0.5s-0.2-0.3-0.3-0.3c-0.1-0.1-0.3-0.2-0.5-0.3
				c-0.2-0.1-0.3-0.1-0.5-0.2c-0.2-0.1-0.4-0.2-0.7-0.3c-0.2-0.1-0.4-0.2-0.6-0.3s-0.3-0.3-0.4-0.4c-0.1-0.2-0.2-0.4-0.2-0.6
				c0-0.2,0-0.4,0.1-0.6s0.2-0.4,0.4-0.5c0.2-0.1,0.4-0.2,0.6-0.3s0.5-0.1,0.8-0.1s0.6,0.1,0.9,0.2c0.3,0.1,0.5,0.3,0.8,0.4
				l-0.3,0.4c-0.2-0.1-0.4-0.3-0.6-0.4s-0.5-0.2-0.8-0.2c-0.2,0-0.4,0-0.6,0.1c-0.2,0.1-0.3,0.1-0.4,0.2s-0.2,0.2-0.2,0.3
				s-0.1,0.3-0.1,0.4c0,0.2,0,0.3,0.1,0.4c0.1,0.1,0.2,0.2,0.3,0.3c0.1,0.1,0.3,0.2,0.4,0.2c0.2,0.1,0.3,0.1,0.5,0.2
				c0.2,0.1,0.4,0.2,0.7,0.3c0.2,0.1,0.4,0.2,0.6,0.3c0.2,0.1,0.3,0.3,0.4,0.5c0.1,0.2,0.2,0.4,0.2,0.7c0,0.2,0,0.4-0.1,0.6
				c-0.1,0.2-0.2,0.4-0.4,0.5c-0.2,0.1-0.4,0.3-0.6,0.4S1108.7,505.9,1108.4,505.9z"/>
			<path d="M1114.2,505.7V500h0.5l0,0.9h0c0.3-0.3,0.6-0.5,0.9-0.7c0.3-0.2,0.7-0.3,1.1-0.3c0.6,0,1,0.2,1.3,0.5
				c0.3,0.4,0.4,0.9,0.4,1.7v3.7h-0.5v-3.6c0-0.6-0.1-1.1-0.3-1.4s-0.5-0.4-1-0.4c-0.3,0-0.7,0.1-0.9,0.3c-0.3,0.2-0.6,0.5-0.9,0.8
				v4.3H1114.2z"/>
		</g>
		<g class="st0">
			<path d="M1122.7,505.9c-0.3,0-0.7-0.1-1-0.2c-0.3-0.1-0.6-0.3-0.8-0.6c-0.2-0.3-0.4-0.6-0.6-0.9c-0.1-0.4-0.2-0.8-0.2-1.3
				c0-0.5,0.1-0.9,0.2-1.3c0.1-0.4,0.3-0.7,0.6-1c0.2-0.3,0.5-0.5,0.8-0.6c0.3-0.1,0.6-0.2,1-0.2c0.3,0,0.7,0.1,1,0.2
				c0.3,0.1,0.6,0.3,0.8,0.6c0.2,0.3,0.4,0.6,0.6,1s0.2,0.8,0.2,1.3c0,0.5-0.1,0.9-0.2,1.3s-0.3,0.7-0.6,0.9
				c-0.2,0.3-0.5,0.5-0.8,0.6C1123.4,505.8,1123,505.9,1122.7,505.9z M1122.7,505.4c0.3,0,0.6-0.1,0.8-0.2s0.5-0.3,0.6-0.5
				c0.2-0.2,0.3-0.5,0.4-0.8c0.1-0.3,0.2-0.7,0.2-1c0-0.4-0.1-0.7-0.2-1c-0.1-0.3-0.2-0.6-0.4-0.8c-0.2-0.2-0.4-0.4-0.6-0.5
				s-0.5-0.2-0.8-0.2s-0.6,0.1-0.8,0.2s-0.5,0.3-0.6,0.5c-0.2,0.2-0.3,0.5-0.4,0.8c-0.1,0.3-0.2,0.7-0.2,1c0,0.4,0.1,0.7,0.2,1
				c0.1,0.3,0.2,0.6,0.4,0.8c0.2,0.2,0.4,0.4,0.6,0.5S1122.4,505.4,1122.7,505.4z"/>
		</g>
		<g class="st0">
			<path d="M1128.5,505.9c-0.3,0-0.5,0-0.7-0.1c-0.2-0.1-0.3-0.2-0.4-0.4c-0.1-0.2-0.2-0.3-0.2-0.6s-0.1-0.5-0.1-0.7v-3.7h-0.9V500
				l0.9,0l0.1-1.7h0.5v1.7h1.7v0.5h-1.7v3.8c0,0.2,0,0.3,0,0.5c0,0.1,0.1,0.3,0.2,0.4s0.2,0.2,0.3,0.3c0.1,0.1,0.3,0.1,0.5,0.1
				c0.1,0,0.2,0,0.4-0.1c0.1,0,0.2-0.1,0.4-0.1l0.1,0.4c-0.2,0.1-0.3,0.1-0.5,0.2S1128.6,505.9,1128.5,505.9z"/>
			<path d="M1134.9,505.9c-0.7,0-1.3-0.3-1.7-0.8c-0.4-0.5-0.6-1.3-0.6-2.2c0-0.5,0.1-0.9,0.2-1.3s0.3-0.7,0.6-1
				c0.2-0.3,0.5-0.5,0.8-0.6c0.3-0.1,0.6-0.2,1-0.2c0.4,0,0.7,0.1,0.9,0.2c0.3,0.1,0.5,0.3,0.8,0.5l0-1.1v-2.4h0.5v8.6h-0.5l0-0.7h0
				c-0.2,0.2-0.5,0.4-0.8,0.6C1135.7,505.8,1135.3,505.9,1134.9,505.9z M1135,505.4c0.3,0,0.6-0.1,0.9-0.2c0.3-0.2,0.6-0.4,0.9-0.7
				V501c-0.3-0.3-0.6-0.5-0.9-0.6c-0.3-0.1-0.5-0.2-0.8-0.2c-0.3,0-0.6,0.1-0.8,0.2s-0.5,0.3-0.6,0.5c-0.2,0.2-0.3,0.5-0.4,0.8
				c-0.1,0.3-0.2,0.7-0.2,1c0,0.4,0,0.7,0.1,1c0.1,0.3,0.2,0.6,0.4,0.8c0.2,0.2,0.4,0.4,0.6,0.5
				C1134.4,505.4,1134.7,505.4,1135,505.4z"/>
		</g>
		<g class="st0">
			<path d="M1139.6,505.7V500h0.5l0,1.1h0c0.2-0.4,0.4-0.7,0.7-0.9c0.3-0.2,0.6-0.3,0.9-0.3c0.1,0,0.2,0,0.3,0c0.1,0,0.2,0,0.3,0.1
				l-0.1,0.5c-0.1,0-0.2-0.1-0.3-0.1c-0.1,0-0.2,0-0.3,0c-0.3,0-0.5,0.1-0.8,0.3c-0.3,0.2-0.5,0.6-0.8,1.1v3.9H1139.6z"/>
		</g>
		<g class="st0">
			<path d="M1144.4,505.9c-0.2,0-0.4,0-0.6-0.1c-0.2-0.1-0.4-0.2-0.5-0.3c-0.2-0.1-0.3-0.3-0.4-0.5c-0.1-0.2-0.1-0.4-0.1-0.7
				c0-0.6,0.3-1.1,0.9-1.5c0.6-0.3,1.5-0.6,2.8-0.7c0-0.2,0-0.4,0-0.7c0-0.2-0.1-0.4-0.2-0.6c-0.1-0.2-0.2-0.3-0.4-0.4
				c-0.2-0.1-0.4-0.2-0.7-0.2c-0.4,0-0.7,0.1-1.1,0.2s-0.6,0.3-0.8,0.4l-0.2-0.4c0.1-0.1,0.2-0.2,0.4-0.2c0.1-0.1,0.3-0.2,0.5-0.2
				c0.2-0.1,0.4-0.1,0.6-0.2c0.2-0.1,0.4-0.1,0.7-0.1c0.3,0,0.6,0.1,0.9,0.2c0.2,0.1,0.4,0.3,0.6,0.5s0.2,0.4,0.3,0.7
				c0.1,0.3,0.1,0.6,0.1,0.9v3.7h-0.5l0-0.7h0c-0.3,0.2-0.6,0.4-1,0.6C1145.1,505.8,1144.7,505.9,1144.4,505.9z M1144.5,505.4
				c0.3,0,0.7-0.1,1-0.2s0.6-0.4,1-0.7v-2c-0.6,0.1-1.1,0.2-1.5,0.3c-0.4,0.1-0.7,0.2-1,0.4c-0.2,0.1-0.4,0.3-0.5,0.5
				c-0.1,0.2-0.2,0.4-0.2,0.6c0,0.2,0,0.4,0.1,0.5c0.1,0.1,0.2,0.3,0.3,0.4c0.1,0.1,0.2,0.2,0.4,0.2
				C1144.1,505.4,1144.3,505.4,1144.5,505.4z"/>
			<path d="M1149.9,505.7l-1.7-5.8h0.6l1,3.7c0.1,0.3,0.1,0.5,0.2,0.8s0.1,0.5,0.2,0.8h0c0.1-0.3,0.1-0.5,0.2-0.8
				c0.1-0.3,0.1-0.5,0.2-0.8l1-3.7h0.6l1,3.7c0.1,0.3,0.1,0.5,0.2,0.8s0.1,0.5,0.2,0.8h0c0.1-0.3,0.1-0.5,0.2-0.8s0.1-0.5,0.2-0.8
				l1-3.7h0.5l-1.7,5.8h-0.7l-1-3.6c-0.1-0.3-0.2-0.6-0.2-0.8c-0.1-0.3-0.1-0.5-0.2-0.8h0c-0.1,0.3-0.1,0.6-0.2,0.8
				c-0.1,0.3-0.2,0.6-0.2,0.8l-1,3.6H1149.9z"/>
			<path d="M1157.2,505.7V500h0.5l0,0.9h0c0.3-0.3,0.6-0.5,0.9-0.7c0.3-0.2,0.7-0.3,1.1-0.3c0.6,0,1,0.2,1.3,0.5
				c0.3,0.4,0.4,0.9,0.4,1.7v3.7h-0.5v-3.6c0-0.6-0.1-1.1-0.3-1.4s-0.5-0.4-1-0.4c-0.3,0-0.7,0.1-0.9,0.3c-0.3,0.2-0.6,0.5-0.9,0.8
				v4.3H1157.2z"/>
		</g>
		<g class="st0">
			<path d="M1167.6,505.9c-0.3,0-0.5,0-0.7-0.1s-0.3-0.2-0.4-0.4c-0.1-0.2-0.2-0.3-0.2-0.6c0-0.2-0.1-0.5-0.1-0.7v-3.7h-0.9V500
				l0.9,0l0.1-1.7h0.5v1.7h1.7v0.5h-1.7v3.8c0,0.2,0,0.3,0,0.5c0,0.1,0.1,0.3,0.1,0.4c0.1,0.1,0.2,0.2,0.3,0.3
				c0.1,0.1,0.3,0.1,0.5,0.1c0.1,0,0.2,0,0.4-0.1c0.1,0,0.2-0.1,0.4-0.1l0.1,0.4c-0.2,0.1-0.3,0.1-0.5,0.2
				S1167.7,505.9,1167.6,505.9z"/>
		</g>
		<g class="st0">
			<path d="M1171.7,505.9c-0.3,0-0.7-0.1-1-0.2c-0.3-0.1-0.6-0.3-0.8-0.6c-0.2-0.3-0.4-0.6-0.6-0.9s-0.2-0.8-0.2-1.3
				c0-0.5,0.1-0.9,0.2-1.3s0.3-0.7,0.6-1c0.2-0.3,0.5-0.5,0.8-0.6c0.3-0.1,0.6-0.2,1-0.2s0.7,0.1,1,0.2c0.3,0.1,0.6,0.3,0.8,0.6
				c0.2,0.3,0.4,0.6,0.6,1c0.1,0.4,0.2,0.8,0.2,1.3c0,0.5-0.1,0.9-0.2,1.3c-0.1,0.4-0.3,0.7-0.6,0.9c-0.2,0.3-0.5,0.5-0.8,0.6
				C1172.4,505.8,1172.1,505.9,1171.7,505.9z M1171.7,505.4c0.3,0,0.6-0.1,0.8-0.2s0.5-0.3,0.6-0.5c0.2-0.2,0.3-0.5,0.4-0.8
				c0.1-0.3,0.2-0.7,0.2-1c0-0.4-0.1-0.7-0.2-1c-0.1-0.3-0.2-0.6-0.4-0.8c-0.2-0.2-0.4-0.4-0.6-0.5s-0.5-0.2-0.8-0.2
				s-0.6,0.1-0.8,0.2s-0.5,0.3-0.6,0.5c-0.2,0.2-0.3,0.5-0.4,0.8c-0.1,0.3-0.2,0.7-0.2,1c0,0.4,0.1,0.7,0.2,1
				c0.1,0.3,0.2,0.6,0.4,0.8c0.2,0.2,0.4,0.4,0.6,0.5S1171.4,505.4,1171.7,505.4z"/>
			<path d="M1179.8,505.9c-0.4,0-0.8-0.1-1.2-0.2c-0.4-0.2-0.7-0.3-0.9-0.6l0.3-0.4c0.2,0.2,0.5,0.4,0.8,0.5c0.3,0.1,0.6,0.2,1,0.2
				c0.5,0,0.8-0.1,1-0.3c0.2-0.2,0.3-0.5,0.3-0.8c0-0.2,0-0.3-0.1-0.5s-0.2-0.3-0.3-0.3c-0.1-0.1-0.3-0.2-0.4-0.3
				c-0.2-0.1-0.3-0.1-0.5-0.2c-0.2-0.1-0.4-0.2-0.7-0.3s-0.4-0.2-0.6-0.3c-0.2-0.1-0.3-0.3-0.4-0.4c-0.1-0.2-0.2-0.4-0.2-0.6
				c0-0.2,0-0.4,0.1-0.6s0.2-0.4,0.4-0.5c0.2-0.1,0.4-0.2,0.6-0.3c0.2-0.1,0.5-0.1,0.8-0.1s0.6,0.1,0.9,0.2c0.3,0.1,0.5,0.3,0.8,0.4
				l-0.3,0.4c-0.2-0.1-0.4-0.3-0.6-0.4s-0.5-0.2-0.8-0.2c-0.2,0-0.4,0-0.6,0.1c-0.2,0.1-0.3,0.1-0.4,0.2c-0.1,0.1-0.2,0.2-0.2,0.3
				c-0.1,0.1-0.1,0.3-0.1,0.4c0,0.2,0,0.3,0.1,0.4c0.1,0.1,0.2,0.2,0.3,0.3c0.1,0.1,0.3,0.2,0.4,0.2c0.2,0.1,0.3,0.1,0.5,0.2
				c0.2,0.1,0.4,0.2,0.7,0.3s0.4,0.2,0.6,0.3c0.2,0.1,0.3,0.3,0.4,0.5c0.1,0.2,0.2,0.4,0.2,0.7c0,0.2,0,0.4-0.1,0.6
				c-0.1,0.2-0.2,0.4-0.4,0.5c-0.2,0.1-0.4,0.3-0.6,0.4C1180.4,505.8,1180.1,505.9,1179.8,505.9z"/>
		</g>
		<g class="st0">
			<path d="M1185.4,505.9c-0.4,0-0.7-0.1-1-0.2c-0.3-0.1-0.6-0.3-0.8-0.6c-0.2-0.3-0.4-0.6-0.6-0.9c-0.1-0.4-0.2-0.8-0.2-1.3
				c0-0.5,0.1-0.9,0.2-1.3c0.1-0.4,0.3-0.7,0.6-1c0.2-0.3,0.5-0.5,0.8-0.6c0.3-0.1,0.7-0.2,1-0.2c0.4,0,0.7,0.1,1,0.2
				c0.3,0.1,0.5,0.3,0.7,0.5l-0.3,0.4c-0.2-0.2-0.4-0.3-0.6-0.4s-0.5-0.2-0.8-0.2c-0.3,0-0.6,0.1-0.8,0.2s-0.5,0.3-0.7,0.5
				c-0.2,0.2-0.3,0.5-0.4,0.8c-0.1,0.3-0.2,0.7-0.2,1c0,0.4,0.1,0.7,0.2,1c0.1,0.3,0.2,0.6,0.4,0.8c0.2,0.2,0.4,0.4,0.7,0.5
				s0.5,0.2,0.9,0.2c0.3,0,0.6-0.1,0.8-0.2c0.3-0.1,0.5-0.3,0.7-0.5l0.3,0.4c-0.2,0.2-0.5,0.4-0.8,0.5
				C1186.1,505.8,1185.8,505.9,1185.4,505.9z"/>
		</g>
		<g class="st0">
			<path d="M1189.8,505.9c-0.2,0-0.4,0-0.6-0.1c-0.2-0.1-0.4-0.2-0.5-0.3c-0.2-0.1-0.3-0.3-0.4-0.5c-0.1-0.2-0.1-0.4-0.1-0.7
				c0-0.6,0.3-1.1,0.9-1.5c0.6-0.3,1.5-0.6,2.8-0.7c0-0.2,0-0.4,0-0.7c0-0.2-0.1-0.4-0.2-0.6c-0.1-0.2-0.2-0.3-0.4-0.4
				c-0.2-0.1-0.4-0.2-0.7-0.2c-0.4,0-0.7,0.1-1.1,0.2c-0.3,0.2-0.6,0.3-0.8,0.4l-0.2-0.4c0.1-0.1,0.2-0.2,0.4-0.2
				c0.1-0.1,0.3-0.2,0.5-0.2c0.2-0.1,0.4-0.1,0.6-0.2c0.2-0.1,0.4-0.1,0.7-0.1c0.3,0,0.6,0.1,0.9,0.2c0.2,0.1,0.4,0.3,0.6,0.5
				s0.2,0.4,0.3,0.7c0.1,0.3,0.1,0.6,0.1,0.9v3.7h-0.5l0-0.7h0c-0.3,0.2-0.6,0.4-1,0.6S1190.2,505.9,1189.8,505.9z M1189.9,505.4
				c0.3,0,0.7-0.1,1-0.2s0.6-0.4,1-0.7v-2c-0.6,0.1-1.1,0.2-1.5,0.3c-0.4,0.1-0.7,0.2-1,0.4c-0.2,0.1-0.4,0.3-0.5,0.5
				c-0.1,0.2-0.2,0.4-0.2,0.6c0,0.2,0,0.4,0.1,0.5c0.1,0.1,0.2,0.3,0.3,0.4c0.1,0.1,0.2,0.2,0.4,0.2
				C1189.6,505.4,1189.8,505.4,1189.9,505.4z"/>
			<path d="M1195.2,505.9c-0.5,0-0.7-0.3-0.7-0.9v-7.9h0.5v7.9c0,0.1,0,0.2,0.1,0.3c0,0.1,0.1,0.1,0.2,0.1c0,0,0,0,0.1,0
				c0,0,0.1,0,0.1,0l0.1,0.4c-0.1,0-0.1,0-0.2,0S1195.3,505.9,1195.2,505.9z"/>
			<path d="M1199.5,505.9c-0.4,0-0.7-0.1-1-0.2c-0.3-0.1-0.6-0.3-0.8-0.6c-0.2-0.3-0.4-0.6-0.6-0.9c-0.1-0.4-0.2-0.8-0.2-1.3
				c0-0.5,0.1-0.9,0.2-1.3c0.1-0.4,0.3-0.7,0.6-1s0.5-0.5,0.8-0.6c0.3-0.1,0.6-0.2,0.9-0.2c0.7,0,1.2,0.2,1.6,0.7
				c0.4,0.5,0.6,1.1,0.6,2c0,0.1,0,0.1,0,0.2c0,0.1,0,0.1,0,0.2h-4.2c0,0.4,0.1,0.7,0.2,1c0.1,0.3,0.2,0.6,0.4,0.8
				c0.2,0.2,0.4,0.4,0.7,0.5c0.3,0.1,0.6,0.2,0.9,0.2c0.3,0,0.6,0,0.8-0.1s0.5-0.2,0.7-0.4l0.2,0.4c-0.2,0.1-0.5,0.3-0.8,0.4
				C1200.3,505.8,1199.9,505.9,1199.5,505.9z M1197.4,502.5h3.7c0-0.7-0.2-1.3-0.5-1.7c-0.3-0.4-0.7-0.5-1.2-0.5
				c-0.2,0-0.5,0.1-0.7,0.2s-0.4,0.2-0.6,0.4c-0.2,0.2-0.3,0.4-0.4,0.7C1197.5,501.8,1197.4,502.2,1197.4,502.5z"/>
		</g>
	</g>
</g>
<g id="b">
</g>
<g id="c">
</g>
<g id="d">
</g>
<g id="e">
</g>
</svg>
