
<svg width="143px" height="35px" viewBox="0 0 143 35" version="1.1" xmlns="http://www.w3.org/2000/svg" xmlns:xlink="http://www.w3.org/1999/xlink">
    <g id="Symbols" stroke="none" stroke-width="1" fill="none" fill-rule="evenodd">
        <g id="Logo">
            <g id="Group-2">
                <path d="M116.854242,9.3848587 C117.100341,8.70260827 117.449773,8.04329063 117.644545,7.34552684 C116.468439,7.24030581 90.7215855,7.19410299 88.5009215,7.23356088 C86.9430915,7.26121512 84.9811028,7.30438272 84.0997034,8.84087949 C83.7693062,9.41655991 83.709821,10.1730047 84.0507557,10.758128 C84.3624576,11.2933388 84.936234,11.6208055 85.4862163,11.8703682 C86.1915397,12.1904155 90.6281089,13.4382289 90.8082638,13.486118 C95.4814137,14.5481084 100.261977,15.5031915 103.681861,17.8089484 C104.571418,18.561009 105.912722,20.0995292 106.035771,20.3861891 C106.19893,20.7669408 106.343054,21.1608451 106.462704,21.5574475 C106.709482,22.3776319 106.764889,23.2204118 106.667673,24.0692622 C106.474941,25.7521241 105.749223,27.302448 104.590793,28.544191 C102.40718,30.8846843 99.1654113,32.1223804 96.1367696,32.9563919 C92.6349664,33.9209179 89.0012762,34.3913773 85.3832221,34.6564534 C83.4807184,34.7957363 81.5748156,34.8399157 79.6706124,34.9421015 C77.6739523,35.0496832 75.674233,34.9791986 73.6765531,34.9535679 C73.5477254,34.9829084 70.4470217,34.7869679 69.1706413,34.6588141 C68.9371198,34.726938 62.5504589,33.6743905 62.3872997,33.676414 C59.7478606,33.187406 57.1767443,32.4683956 54.5797945,31.807729 C54.1518417,31.6987983 53.7874529,31.8839468 53.4043688,32.0633622 C52.9029943,32.2977487 52.3975409,32.5068418 51.8774711,32.6973863 C50.6581964,33.1442384 49.4069697,33.4969986 48.12753,33.725652 L46.0475908,34.0693066 C42.3540755,34.6915271 38.6272487,34.3451745 34.9065402,34.3286494 C31.0940548,34.3121243 23.1431055,34.318532 23.0237954,34.3640603 C16.8448225,34.3616996 3.60343778,34.3205555 3.46611217,34.3640603 L0,34.3640603 C4.05076578,23.0885483 8.14402093,11.8565411 12.2297979,0.615428175 L21.0927389,0.615428175 C20.3965932,2.42981637 15.4110614,16.3041529 15.0069026,17.3884016 C14.8192696,17.8922484 11.6193108,26.8097303 11.2892534,27.6831997 C14.1887275,27.7702094 20.5254209,27.7401944 20.5974829,27.7813386 C22.0618362,27.7786406 23.5265295,27.7789778 24.990543,27.7799896 C25.7862837,27.7803268 31.4791784,27.760092 31.7045419,27.760092 C31.8258916,27.760092 37.4225903,27.6899447 37.6306182,27.6831997 C38.8475135,27.7503118 39.9026093,27.6245188 40.7003896,27.5358228 C41.4981698,27.4467897 42.2840531,27.0764926 43.0767346,26.8481765 C44.001643,26.2701353 45.1250618,25.443206 45.0873312,24.2328269 C45.0462015,22.8956431 43.6389538,22.1132303 42.5495266,21.6663782 C41.2405144,21.1291439 39.8370058,20.7841404 38.4627298,20.4556619 C37.6336774,20.2573607 35.1206866,19.715405 34.6988522,19.6186152 C34.4157031,19.5531893 29.4407087,18.2214014 29.1344454,18.1273095 C28.9172398,18.0608718 27.366888,17.4251615 26.8366207,17.1702028 C26.3345665,16.9294086 25.5541219,16.6413997 25.0738221,16.2845925 C22.5774871,15.1770738 21.8286546,12.0302232 22.3745579,9.56427404 C23.0064597,6.707793 25.3206003,4.80403438 27.8267928,3.51372783 C28.1755455,3.34274366 29.9726756,2.38226456 30.8098859,2.12022374 C31.628401,1.86425336 33.6525942,1.40087615 33.8177928,1.4012134 C35.2209615,1.13917257 36.6200512,0.873759282 38.0759067,0.664328972 C38.3128274,0.642070678 38.598016,0.609357731 38.7689932,0.566190131 C42.9295515,0.0181639569 47.1468755,-0.0523206403 51.3373463,0.0272696226 C53.5046437,0.0684137415 55.6787394,0.123722229 57.8395783,0.297067124 C60.0007572,0.470412018 62.150379,0.764828541 64.2884437,1.11927501 C65.8656488,1.38030409 67.4370754,1.67438337 69.0071423,1.97284685 C69.8157998,2.12663143 70.6281964,2.25006378 71.4399131,2.38766051 C72.1669911,2.51143011 74.0507994,2.91713811 74.2421715,2.95693324 C74.4722939,3.00515954 74.6901794,2.91814985 74.8982073,2.8264187 C75.4359526,2.58967139 75.9679194,2.37180991 76.5270794,2.18935935 C77.6498183,1.82344649 78.797371,1.5192498 79.9524018,1.27339683 C81.1162704,1.02552038 82.2950953,0.84914026 83.4796987,0.737174297 C84.1075215,0.678156094 84.736364,0.649827356 85.3655465,0.609694978 C85.8743991,0.577319278 96.898179,0.615428175 96.898179,0.615428175 C98.8492905,0.620149631 136.489426,0.616777162 142.995397,0.615428175 C143.110289,0.625882828 141.040887,6.02351908 140.519797,7.2962888 C136.099204,7.29123009 131.255417,7.29932402 126.557113,7.2962888 C125.144427,11.0522073 116.688024,33.9553171 116.50583,34.3640603 L107.642549,34.3640603 L116.854242,9.3848587 Z" id="Fill-1" fill="#1A1919"></path>
                <path d="M67.6248759,10.3651447 C67.4834257,16.5878827 71.3945053,17.6467799 77.1407055,19.438296 C80.0138056,20.334389 85.966584,21.7745026 85.9998265,24.2989725 C86.0337474,26.9075245 81.0846883,27.6816819 79.108796,27.8632454 C73.0311887,28.4226754 66.2785554,27.1865695 62.7029535,25.5950413 C62.5211375,19.6044501 59.0466199,17.2712583 53.5154782,15.5500897 C50.4242668,14.5873341 44.0488339,14.0721224 44.0003271,11.33728 C43.9372342,7.82426037 53.0192155,7.84670457 56.7966467,8.09694064 C61.6802385,8.42020411 64.4078179,9.30423757 67.6248759,10.3651447" id="Fill-3" fill="#FFFFFE"></path>
                <path d="M57.1419072,7.48654609 C53.3493494,7.23147319 44.2309996,7.20859517 44.2940046,10.7895181 C44.3430463,13.5772224 50.7440093,14.1023926 53.8475994,15.0837573 C59.4008904,16.8381945 62.8893216,19.2164846 63.0718657,25.3228682 C66.6617859,26.9451591 73.4411193,28.2051577 79.5434048,27.6349144 C81.5272095,27.4498415 86.4957463,26.6607204 86.4620302,24.0017477 C86.4286546,21.4284822 80.4520384,19.9605325 77.5674331,19.0471189 C71.7982225,17.2209745 67.8714811,16.1416099 68.0134977,9.79859236 C64.7832165,8.7171789 62.0447146,7.81605793 57.1419072,7.48654609 M72.9551297,11.4499076 C74.9273551,15.5822934 80.5773672,15.7376591 86.1327016,17.0652674 C90.6060535,18.1347296 97.7419608,19.5558988 97.9919373,24.0017477 C98.3611123,30.549643 85.9596934,31.6450564 79.8727334,31.9288122 C70.617135,32.3611044 63.0027305,30.7978866 57.800905,27.9654507 C58.3665874,22.6437491 56.5731598,20.1695079 51.8709466,18.3863879 C47.2262893,16.625463 33.0978534,16.5257558 32.1047591,11.4499076 C30.8562393,5.07137798 41.0906282,3.52557478 45.6120001,3.19264831 C56.2131801,2.41069794 66.9247039,4.064062 73.2841177,7.15600986 C74.2792555,8.56317907 72.5791434,9.61556817 72.9551297,11.4499076 Z" id="Fill-5" fill="#396BA6"></path>
                <path d="M52.6069209,11.5090122 C54.081616,12.8557011 58.8786481,13.7733802 61.5395258,15.583601 C64.2568071,17.4320304 65.8648195,19.8579475 66.4271453,23.9023715 C68.1079696,24.9219403 70.0325253,25.2158792 72.8311643,25.5999771 C74.5547185,25.8366029 79.3069696,26.6969689 79.4040519,24.5814137 C79.4908792,22.6927646 74.5540348,22.0452277 72.6626375,21.1858672 C68.9290678,19.4896022 65.5561386,16.2552696 65.078589,12.0184615 C64.6564173,10.815893 51.8316292,8.43622863 52.6069209,11.5090122 M62.7192135,25.7695701 C62.8251838,17.7410516 55.9319926,16.4885438 49.2367265,14.5647024 C46.8195802,13.8705777 43.0504592,12.7682233 43.0005506,10.8299699 C42.9414124,8.50862405 47.6594796,7.33555005 50.5845992,7.0949023 C53.5856071,6.84788643 57.197482,7.10596271 60.5283649,7.60435158 C63.0425936,7.98074075 67.6338383,8.37522878 68.6179939,9.98099951 C69.1560491,10.8594644 69.0887068,13.147629 69.460628,14.0555883 C71.3239945,18.6047693 77.1386824,19.0153452 82.4378765,20.6764179 C84.8365634,21.428526 87.9493528,22.5798143 87.9992614,24.7513419 C88.0655782,27.6136424 83.6514063,28.6007004 80.7526083,28.8255955 C74.1660471,29.3367206 66.3317721,28.8403427 62.7192135,25.7695701" id="Fill-7" fill="#BFDEE8"></path>
            </g>
        </g>
    </g>
</svg>