<?xml version="1.0" encoding="utf-8"?>
<!-- Generator: Adobe Illustrator 24.3.0, SVG Export Plug-In . SVG Version: 6.00 Build 0)  -->
<svg version="1.1" id="Layer_1" xmlns="http://www.w3.org/2000/svg" xmlns:xlink="http://www.w3.org/1999/xlink" x="0px" y="0px"
	 viewBox="0 0 720 284" style="enable-background:new 0 0 720 284;" xml:space="preserve">
<style type="text/css">
	.st0{fill:#FFFFFF;}
	.st1{fill:#313233;}
</style>
<path class="st0" d="M222.7,52.9c21.6,0,35.3,9.6,35.3,31.4c0,7.9-3.4,19.6-14.3,26.3l17.9,35.7h-18.4
	c-5.2-10.4-10.1-20.8-15.4-31.1c-1.7,0-4.4,0.1-7.5,0.1h-11.8v31h-16.3V52.9H222.7z M208.4,101.1h15.9c12.2,0,16.9-9.2,16.9-17.4
	c0-7-4.7-16.7-17.2-16.7h-15.6V101.1z"/>
<path class="st0" d="M289.4,75.5V124c0,6.1,2.6,9.5,9.3,9.5c5.8,0,13.6-3.1,20.6-7v-51h16v70.8h-13.5l-1.3-7.8H320
	c-9.2,5.6-18,9.3-25.9,9.3c-12.8,0-20.6-6.5-20.6-20.8V75.5H289.4z"/>
<path class="st0" d="M352.9,143.8V47.3h16V81c7.5-4.4,14.9-7.1,23.2-7.1c13.5,0,25.9,9.7,25.9,35.3c0,29.6-17.4,38.6-37.6,38.6
	C371.1,147.7,361.9,146.3,352.9,143.8z M386.8,87.9c-4.7,0-10.9,2-17.9,6v39.4c3.9,0.8,7.9,1.3,11.9,1.3c14.5,0,20.9-7.7,20.9-24.5
	C401.7,95,396.5,87.9,386.8,87.9z"/>
<path class="st0" d="M448.4,65.9h-16.4V50h16.4V65.9z M448.3,146.3h-16V75.5h16V146.3z"/>
<path class="st0" d="M512.1,146.3V97.8c0-6.1-2.6-9.5-9.5-9.5c-5.8,0-13.5,3.2-20.6,7.1v50.8h-15.8V75.5H481v7.9h0.5
	c9.1-5.4,18-9.5,25.9-9.5c12.8,0,20.5,6.5,20.5,20.9v51.5L512.1,146.3z"/>
<path class="st1" d="M182.1,173.7c15.1,0,22,9.2,22,25s-6.9,25-22,25s-22-9.2-22-25S167,173.7,182.1,173.7z M182.2,181
	c-8.7,0-13.4,5.5-13.4,17.7s4.6,17.7,13.2,17.7s13.4-5.5,13.4-17.7S190.8,181,182.2,181z"/>
<path class="st1" d="M211.6,221.6v-50h8.3v17.5c3.6-2.3,7.7-3.6,12-3.7c7,0,13.4,5,13.4,18.3c0,15.3-9,20-19.5,20
	C221,223.6,216.2,222.9,211.6,221.6z M229.1,192.6c-2.4,0-5.6,1-9.3,3.1v20.4c2,0.4,4.1,0.7,6.2,0.7c7.5,0,10.8-4,10.8-12.7
	C236.8,196.3,234.1,192.6,229.1,192.6L229.1,192.6z"/>
<path class="st1" d="M270.5,212c0-3.3-3.5-3.8-8.1-4.5c-5.2-0.8-11.4-2.6-11.4-10.6c0-8.5,6.5-11.5,15.3-11.5
	c3.6,0,7.2,0.3,10.8,0.9l-0.3,7.1c-3.2-0.6-6.4-0.9-9.6-1c-5.5,0-7.7,1.3-7.7,4c0,3,3.1,3.6,7.5,4.3c5.6,0.9,12.1,2.2,12.1,10.9
	c0,8-5.2,12-15.2,12c-4.2-0.1-8.4-0.3-12.6-0.8l0.3-7.3c3.9,0.6,7.9,1,11.9,1.1C268.3,216.7,270.5,215.1,270.5,212z"/>
<path class="st1" d="M316.8,221.3c-4.6,1.5-9.5,2.3-14.4,2.4c-12,0-18.3-5.9-18.3-19.2c0-12.8,6.5-19.2,17.4-19.2
	c12.8,0,15.9,8.5,15.9,17.6v3.8h-24.7c0.1,7.1,4.3,9.8,11.6,9.8c4.2-0.2,8.4-1,12.4-2.3V221.3z M309.1,200.8c-0.1-4-1.2-8.9-8-8.9
	c-5.6,0-8.4,4-8.4,8.9H309.1z"/>
<path class="st1" d="M346.7,194.5c-4.8,0.8-8.6,2.4-13.5,4.6v23.8H325v-36.7h7.8v6.2c4-2.6,8.1-6.1,13.9-6.4L346.7,194.5z"/>
<path class="st1" d="M360,186.2l8.7,27.7h0.4l8.7-27.7h8.7L374,223h-10.5l-12.2-36.8L360,186.2z"/>
<path class="st1" d="M411.9,200.6v-2.8c0-3.4-2-5.6-8-5.6c-4.1,0.1-8.1,0.6-12,1.7v-7c4.6-0.9,9.3-1.5,14-1.6c9,0,14.3,4.4,14.3,13
	v24.5h-7.1l-0.6-4.1h-0.3c-4,2.9-8.1,4.6-12,4.6c-6.3,0-11.4-3.7-11.4-11.4c0-7.1,5.1-11.4,13.7-11.4L411.9,200.6z M411.9,206.5
	h-8.2c-4.5,0-6.6,1.8-6.6,4.9c0,3.4,2.4,5.1,5.8,5.1c3.2-0.1,6.4-1.2,9-3.2L411.9,206.5z"/>
<path class="st1" d="M439,212.3c0,3.1,2.2,4,4.6,4c1.8-0.1,3.5-0.3,5.2-0.9v7.1c-3.1,0.6-6.3,1-9.4,1.1c-4.6,0-8.7-1.5-8.7-8.5
	v-21.9H426v-5.1l10.4-10h2.7v8.1h11.2v7H439V212.3z"/>
<path class="st1" d="M472.5,185.4c10.1,0,18.5,5.6,18.5,19.2s-8.4,19.2-18.5,19.2s-18.4-5.5-18.4-19.2S462.4,185.4,472.5,185.4z
	 M472.6,216.6c7,0,9.9-4.5,9.9-12.1s-2.9-12-9.9-12s-10,4.5-10,12S465.5,216.6,472.6,216.6L472.6,216.6z"/>
<path class="st1" d="M520,194.5c-4.8,0.8-8.6,2.4-13.5,4.6v23.8h-8.2v-36.7h7.7v6.2c4-2.6,8.1-6.1,13.9-6.4L520,194.5z"/>
<path class="st1" d="M535.2,236.7l4.6-13.8h-3.5c-3.9-12.2-7.8-24.5-11.8-36.7h9c2.8,9.2,5.6,18.6,8.4,27.8h0.6
	c2.9-9.3,5.7-18.6,8.6-27.8h8.8l-16.1,50.5H535.2z"/>
</svg>
