<svg id="Layer_1" data-name="Layer 1" xmlns="http://www.w3.org/2000/svg" viewBox="0 0 162.6 109"><defs><style>.cls-1{fill:#f5f5f5;}</style></defs><path class="cls-1" d="M16.9,77.89c7.4,0,12.54,2.63,12.54,10.71a10.69,10.69,0,0,1-4.5,8.58l5.48,11.31H22.56c-1.49-3.15-2.89-6.29-4.42-9.44H13.29v9.44h-7V77.89ZM13.29,93.1H17.5a4.47,4.47,0,0,0,4.76-4.76c0-2.08-1.15-4.5-4.76-4.5H13.29Z"/><path class="cls-1" d="M40.66,96.8V77.89h7V97.4a5.51,5.51,0,0,0,5.83,5.65,5.51,5.51,0,0,0,5.82-5.65V77.89h7V96.76c0,7.82-3.91,12.24-12.79,12.24S40.66,104.58,40.66,96.8Z"/><path class="cls-1" d="M101.52,86a7.44,7.44,0,0,1-3.87,6.55v.17c3.87,1.32,5,3.95,5,7,0,5.27-4.08,8.8-10.5,8.8H78.87V77.89H91.79C98.55,77.89,101.52,81.75,101.52,86Zm-11,4.25c2.13,0,4.12-.8,4.12-3.44,0-2-1.57-2.93-3.91-2.93h-4.8v6.37Zm5,9c0-2.34-1.62-3.06-4-3.06H85.88v6.42H91.7C94.42,102.54,95.49,101.18,95.49,99.18Z"/><path class="cls-1" d="M114,77.89h7v30.6h-7Z"/><path class="cls-1" d="M140.83,89.53v19h-7V77.89h7.53l12.41,19.59V77.89h6.93v30.6h-7.36Z"/><path class="cls-1" d="M35.35,40.45a4.44,4.44,0,1,0,4.44,4.44A4.44,4.44,0,0,0,35.35,40.45Z"/><path class="cls-1" d="M26.82,24.23a4.3,4.3,0,1,0-4.29-4.3A4.29,4.29,0,0,0,26.82,24.23Z"/><path class="cls-1" d="M44.69,25.58a4.13,4.13,0,1,0,4.13,4.13A4.13,4.13,0,0,0,44.69,25.58Z"/><path class="cls-1" d="M22.71,57.61a.15.15,0,0,1-.08-.08l-2.45-7.25a.15.15,0,0,0-.27,0l-2.45,7.25a.14.14,0,0,1-.09.08l-7.24,2.45a.14.14,0,0,0,0,.27L17.37,63a.2.2,0,0,1,.09.09l2.45,7a.15.15,0,0,0,.27,0l2.45-7.25a.15.15,0,0,1,.08-.08L30,60.33a.14.14,0,0,0,0-.27Z"/><path class="cls-1" d="M37.85,14.73a116,116,0,0,1,46.93-11h.07A1.86,1.86,0,0,0,84.63,0,118.67,118.67,0,0,0,37,13.06a.94.94,0,0,0-.41,1.23A.93.93,0,0,0,37.85,14.73Z"/><path class="cls-1" d="M157.23,52.38a4.49,4.49,0,1,0-1.53-8.65,101.83,101.83,0,0,0-9.72-7.5l-.13-.07-.18-.1-.19-.06-.17,0a.76.76,0,0,0-.21,0l-.17,0-.24,0h-.13l-17.83,3a89.47,89.47,0,0,0-36-8.16,1.92,1.92,0,0,0-.06,3.84,83.53,83.53,0,0,1,9.05.61,85.18,85.18,0,0,1,25.82,7.37,1.84,1.84,0,0,0,.47.22,84.38,84.38,0,0,1,26.81,20,4.37,4.37,0,0,0-.4,1.7A4.49,4.49,0,1,0,157,60.17a4.34,4.34,0,0,0-1.3.17,88.35,88.35,0,0,0-23.07-18.45l11.79-2a96.52,96.52,0,0,1,8.66,6.73,4.61,4.61,0,0,0-.2,1.12A4.5,4.5,0,0,0,157.23,52.38Z"/><path class="cls-1" d="M126.37,53.53a4.48,4.48,0,0,0-2.45.65,73.37,73.37,0,0,0-55.31-5.92,72.54,72.54,0,0,0-18.37,8.22,1,1,0,0,0-.33,1.35,1,1,0,0,0,1.37.35,70.21,70.21,0,0,1,70.55-.88,3.68,3.68,0,0,0-.07.58,4.48,4.48,0,1,0,4.61-4.35Z"/><path class="cls-1" d="M75.61,19.49c-2.31.48-4.6,1-6.87,1.63s-4.51,1.33-6.73,2.1-4.4,1.64-6.56,2.56a1,1,0,0,0,.73,1.77h0q3.23-1.25,6.51-2.28c2.2-.68,4.41-1.29,6.65-1.83s4.48-1,6.74-1.36,4.54-.66,6.82-.89a102.9,102.9,0,0,1,13.71-.38q4.85.2,9.63.86a4.48,4.48,0,1,0,.5-3.66c-3.34-.35-6.7-.53-10-.55a104.06,104.06,0,0,0-14.12.88C80.24,18.65,77.91,19,75.61,19.49Z"/><path class="cls-1" d="M105.82,4.26A116.75,116.75,0,0,1,123.08,8l3.35,12.62s0,0,0,.05a2,2,0,0,0,.23.5l0,0a1.85,1.85,0,0,0,.36.38l.08.07a2.06,2.06,0,0,0,.41.23c2.6,1,5.17,2.14,7.69,3.37v.05A4.48,4.48,0,1,0,139.85,21a4.39,4.39,0,0,0-2.91,1c-2.35-1.15-4.74-2.2-7.15-3.17l-2.5-9.42a117.87,117.87,0,0,1,26.42,12.85,3,3,0,0,0-.08.6,4.48,4.48,0,1,0,4.61-4.35,4.39,4.39,0,0,0-2.46.66A121.73,121.73,0,0,0,106.34.57a1.86,1.86,0,1,0-.52,3.69Z"/><path class="cls-1" d="M12.11,45.19l2.38-9a.22.22,0,0,1,.16-.16l9-2.37a.23.23,0,0,0,0-.44l-9-2.38a.22.22,0,0,1-.16-.16l-2.38-9a.23.23,0,0,0-.44,0l-2.37,9a.22.22,0,0,1-.16.16l-9,2.38a.23.23,0,0,0,0,.44l9,2.37a.22.22,0,0,1,.16.16l2.37,9A.23.23,0,0,0,12.11,45.19Z"/></svg>