<?xml version="1.0" encoding="utf-8"?>
<!-- Generator: Adobe Illustrator 25.0.1, SVG Export Plug-In . SVG Version: 6.00 Build 0)  -->
<svg version="1.1" id="Layer_1" xmlns="http://www.w3.org/2000/svg" xmlns:xlink="http://www.w3.org/1999/xlink" x="0px" y="0px"
	 viewBox="0 0 589.7 400" style="enable-background:new 0 0 589.7 400;" xml:space="preserve">
<style type="text/css">
	.st0{fill:#F5F5F5;}
</style>
<path class="st0" d="M110.7,202.7c-5.9,0-10.7,4.8-10.7,10.7s4.8,10.7,10.7,10.7c5.9,0,10.7-4.8,10.7-10.7l0,0
	C121.4,207.5,116.6,202.7,110.7,202.7z"/>
<circle class="st0" cx="112.4" cy="130.6" r="7.7"/>
<path class="st0" d="M150.1,155.4c0-6.5-5.3-11.8-11.8-11.8c-6.5,0-11.8,5.3-11.8,11.8c0,6.5,5.3,11.8,11.8,11.8c0,0,0,0,0,0
	C144.8,167.1,150.1,161.9,150.1,155.4z"/>
<path class="st0" d="M103.7,175.9l-22.4-5.9c-0.2-0.1-0.4-0.2-0.4-0.4L75,147.2c-0.1-0.3-0.4-0.5-0.7-0.4c-0.2,0.1-0.3,0.2-0.4,0.4
	L68,169.5c-0.1,0.2-0.2,0.3-0.4,0.4l-22.4,5.9c-0.3,0.1-0.5,0.4-0.4,0.7c0.1,0.2,0.2,0.3,0.4,0.4l22.4,5.9c0.2,0.1,0.3,0.2,0.4,0.4
	l5.9,22.4c0.1,0.3,0.4,0.5,0.7,0.4c0.2-0.1,0.3-0.2,0.4-0.4l5.9-22.4c0.1-0.2,0.2-0.3,0.4-0.4l22.4-5.9c0.3-0.1,0.5-0.4,0.4-0.7
	C104.1,176.1,103.9,175.9,103.7,175.9z"/>
<path class="st0" d="M185.8,207.6l-14.6-5.6c-0.1,0-0.1-0.1-0.2-0.2l-5.7-14.6c-0.1-0.2-0.2-0.2-0.4-0.2c-0.1,0-0.1,0.1-0.2,0.2
	l-5.7,14.6c0,0.1-0.1,0.1-0.2,0.2l-14.6,5.7c-0.2,0.1-0.2,0.2-0.2,0.4c0,0.1,0.1,0.1,0.2,0.2l14.6,5.7c0.1,0,0.1,0.1,0.2,0.2
	l5.7,14.6c0.1,0.2,0.2,0.2,0.4,0.2c0.1,0,0.1-0.1,0.2-0.2l5.7-14.6c0-0.1,0.1-0.1,0.2-0.2l14.6-5.7c0.2,0,0.3-0.2,0.2-0.4
	C186,207.7,185.9,207.6,185.8,207.6z"/>
<path class="st0" d="M155.7,99.1c22.4-13,46.3-23.4,71.1-30.9c24.7-7.5,50.2-12,75.9-13.5h0.2c2.2-0.3,3.7-2.3,3.4-4.5
	c-0.3-2-2.1-3.5-4.2-3.4c-26.2,2.6-52,8.3-76.8,17c-24.7,8.7-48.3,20.1-70.3,34.2c-0.3,0.2-0.4,0.6-0.2,1
	C154.9,99.2,155.3,99.3,155.7,99.1L155.7,99.1L155.7,99.1z"/>
<path class="st0" d="M352.6,54.4c27.7,2.1,55,7.7,81.2,16.7l13.8,34.7l1.5,0.6c7.6,3.3,15.1,6.9,22.5,10.9c-0.1,0.6-0.1,1.2,0,1.8
	c0.5,5.3,5.3,9.3,10.6,8.8c5.3-0.5,9.3-5.3,8.8-10.6s-5.3-9.3-10.6-8.8c-1.8,0.2-3.6,0.9-5,2c-7.1-3.8-14.3-7.3-21.7-10.5
	l-10.1-25.3C465.8,83,487,93.7,507,106.5c-0.9,5.3,2.6,10.3,7.9,11.2c5.3,0.9,10.3-2.6,11.2-7.9s-2.6-10.3-7.9-11.2
	c-1.2-0.2-2.4-0.2-3.6,0.1c-1.2,0.2-2.3,0.7-3.4,1.4c-22.8-14.7-47.2-26.6-72.7-35.6c-0.4-0.2-0.8-0.3-1.2-0.4
	c-27.2-9.5-55.5-15.3-84.2-17.5c-2.1-0.2-4,1.5-4.2,3.6C348.8,52.4,350.5,54.2,352.6,54.4L352.6,54.4z"/>
<path class="st0" d="M261.7,128.5c2.1-0.7,3.2-2.9,2.6-5c-0.6-2-2.7-3.1-4.8-2.6c-20.9,6-41,14.3-60,24.9
	c-18.9,10.5-36.5,23.1-52.5,37.5c-0.3,0.3-0.3,0.7-0.1,1c0.2,0.3,0.7,0.3,1,0.1c16.6-13.4,34.6-25,53.8-34.4
	c19-9.4,39.1-16.5,59.8-21.3L261.7,128.5z"/>
<path class="st0" d="M268,100c0.3,1.3,1.6,2.2,2.9,1.9c23.4-4.5,47.3-6.1,71.2-4.7c20.8,1.3,41.4,4.8,61.5,10.4
	c0.7,5.3,5.6,9.1,10.9,8.4c5.3-0.7,9.1-5.6,8.4-10.9c-0.7-5.3-5.6-9.1-10.9-8.4c-2.4,0.3-4.7,1.6-6.2,3.4
	c-20.7-5.4-41.9-8.6-63.3-9.4c-24.3-0.9-48.7,1.2-72.5,6.3C268.7,97.4,267.8,98.7,268,100z"/>
<path class="st0" d="M383.4,151.6c-3,0-5.8,1.4-7.6,3.8c-9.7-1.8-19.5-3.1-29.3-3.7c-25.5-1.6-51.1,0.8-75.8,7.1
	c-12.3,3.2-24.4,7.3-36.1,12.3c-1.3,0.5-1.8,2-1.3,3.3s2,1.8,3.3,1.3l0,0c11.5-4.7,23.4-8.5,35.5-11.3c24.2-5.7,49.1-7.5,73.9-5.4
	c9.4,0.8,18.8,2.1,28.1,4.1c1,5.2,6,8.6,11.2,7.6c5.2-1,8.6-6,7.6-11.2C391.9,154.8,388,151.6,383.4,151.6L383.4,151.6z"/>
<path class="st0" d="M534.4,151.8c5.4,0,9.7-4.4,9.7-9.7c0-5.4-4.4-9.7-9.7-9.7s-9.7,4.4-9.7,9.7C524.7,147.4,529,151.8,534.4,151.8
	z"/>
<path class="st0" d="M534.5,212.1c-1,0-2.1,0.1-3.1,0.5c-5.4-5.8-11-11.4-16.7-16.7c-7.8-7.2-16-13.9-24.5-20.2
	c-3.3-2.4-6.6-4.8-10-7l19.3-4.1c9,6.7,17.6,14,25.8,21.7c-0.4,1.2-0.6,2.4-0.6,3.6c0.1,5.4,4.6,9.6,10,9.5c5.4-0.1,9.6-4.6,9.5-10
	c-0.1-5.4-4.6-9.6-10-9.5c0,0,0,0,0,0c-1.2,0-2.4,0.3-3.5,0.7c-8.9-8.3-18.2-16.1-28-23.3l-1.4-1l-30.4,6.4
	c-20.4-12.6-42.5-22.5-65.5-29.4c-2.1-0.6-4.2,0.6-4.8,2.6c-0.6,2.1,0.6,4.2,2.6,4.8c29.6,8.9,57.5,22.8,82.4,41.2
	c8.3,6.1,16.3,12.7,23.9,19.7c5.5,5.1,10.9,10.5,16.2,16.1c-2.3,4.9-0.2,10.6,4.7,12.9c4.9,2.3,10.6,0.2,12.9-4.7
	c2.3-4.9,0.2-10.6-4.7-12.9C537.3,212.5,536,212.2,534.5,212.1L534.5,212.1z"/>
<polygon class="st0" points="68.8,289.9 67.4,289.9 56.9,254.7 45.5,254.7 60.5,301.7 75,301.7 90,254.7 78.5,254.7 "/>
<polygon class="st0" points="98.7,301.7 131.5,301.7 131.5,292.5 109.5,292.5 109.5,282.5 128.3,282.5 128.3,273.4 109.5,273.4
	109.5,263.9 131.7,263.9 131.7,254.7 98.7,254.7 "/>
<path class="st0" d="M178.4,271.2c0-12.4-7.9-16.4-19.2-16.4h-16.3v46.9h10.8v-14.5h7.4c2.4,4.9,4.5,9.6,6.8,14.5h12.1l-8.4-17.3
	C175.8,281.3,178.3,276.4,178.4,271.2z M160.1,278.1h-6.5v-14.2h6.5c5.5,0,7.3,3.7,7.3,6.9C167.4,274,165.6,278.1,160.1,278.1
	L160.1,278.1z"/>
<path class="st0" d="M202.5,254.7l-15.6,47h11.2l2.9-9h17.5l2.8,9h11.3l-15.6-47H202.5z M203.2,283.3l6.1-19.6h0.5l6,19.6H203.2z"/>
<path class="st0" d="M267.3,277.9c0-10.8,4.7-14.8,13.3-14.8c3.7,0.2,7.4,0.9,10.9,2.1v-9.6c-4.2-1.1-8.6-1.7-13-1.6
	c-14.1,0-22.2,9.2-22.2,24.2c0,15.6,7.4,24.3,22.3,24.3c4.4,0,8.8-0.8,13-2.2v-9.4c-3.7,1.6-7.6,2.5-11.6,2.5
	C273.4,293.3,267.3,289.7,267.3,277.9z"/>
<rect x="302.4" y="294.4" class="st0" width="6.3" height="7.3"/>
<path class="st0" d="M367.3,271.2c0-12.4-7.9-16.4-19.2-16.4h-16.2v46.9h10.7v-14.5h7.4c2.3,4.9,4.5,9.6,6.8,14.5h12l-8.4-17.3
	C364.6,281.3,367.2,276.4,367.3,271.2z M348.9,278.1h-6.5v-14.2h6.5c5.5,0,7.3,3.7,7.3,6.9C356.2,274,354.5,278.1,348.9,278.1z"/>
<path class="st0" d="M406.2,284.7c0,5.5-4.1,8.7-8.9,8.7c-4.8,0-8.9-3.2-8.9-8.7v-29.9h-10.7v29c0,11.9,6,18.7,19.6,18.7
	c13.6,0,19.6-6.8,19.6-18.8v-28.9h-10.7L406.2,284.7z"/>
<path class="st0" d="M458.3,277.4v-0.3c3.7-2,5.9-5.9,5.9-10c0-6.5-4.6-12.4-14.9-12.4h-19.8v46.9h20.3c9.8,0,16.1-5.4,16.1-13.5
	C465.9,283.5,464.2,279.4,458.3,277.4z M440.2,263.9h7.4c3.6,0,6,1.4,6,4.5c0,4-3.1,5.3-6.3,5.3h-7V263.9z M449.1,292.5h-8.9v-9.8
	h8.6c3.6,0,6.1,1.1,6.1,4.7C454.9,290.5,453.3,292.5,449.1,292.5z"/>
<rect x="476.6" y="254.7" class="st0" width="10.8" height="46.9"/>
<polygon class="st0" points="530.7,254.7 530.7,284.8 511.7,254.7 500.1,254.7 500.1,301.7 510.9,301.7 510.9,272.6 530,301.7
	541.3,301.7 541.3,254.7 "/>
<path class="st0" d="M67.2,318.6c10.5,0,15.3,6.4,15.3,17.4c0,11-4.9,17.4-15.3,17.4S51.8,347,51.8,336
	C51.8,324.9,56.7,318.6,67.2,318.6z M67.2,323.7c-6.1,0-9.3,3.9-9.3,12.3s3.2,12.3,9.2,12.3s9.3-3.8,9.3-12.3
	C76.5,327.5,73.2,323.6,67.2,323.7L67.2,323.7z"/>
<path class="st0" d="M128.6,327.8c0,3.3-1.8,6.3-4.7,7.8c4.3,1.3,6,4.3,6,7.9c0,5.6-4.3,9.5-11,9.5h-14v-33.7h13.4
	C125.4,319.1,128.6,323.3,128.6,327.8z M117.4,333.4c2.8,0.1,5.2-2,5.3-4.9c0,0,0,0,0-0.1c0-2.6-1.9-4.3-5.3-4.3h-6.6v9.2H117.4z
	 M123.8,342.9c0-3-2.3-4.5-5.6-4.5h-7.4v9.4h7.7C122.1,347.7,123.8,345.7,123.8,342.9z"/>
<path class="st0" d="M167.4,342.9c0-3.9-3.8-4.4-7.8-4.9c-4.5-0.6-9.5-2.2-9.5-9.6c0-8.2,6.6-9.9,13-9.9c2.9,0.1,5.8,0.3,8.7,0.7
	v5.2c-2.8-0.5-5.7-0.7-8.6-0.8c-4.7,0-7,1.5-7,4.7c0,3.5,3.1,4,6.7,4.6c4.9,0.8,10.5,1.6,10.5,9.8c0,7.5-5.2,10.7-12.8,10.7
	c-3.4,0-6.7-0.3-10-1v-5.3c3.1,0.7,6.3,1.1,9.5,1.2C164.9,348.3,167.4,346.5,167.4,342.9z"/>
<path class="st0" d="M217.9,319.1v5.1h-16.7v9.1h14.4v5.1h-14.4v9.3h16.6v5.1h-22.5v-33.7L217.9,319.1z"/>
<path class="st0" d="M250.9,319.1c7.8,0,12.7,3.5,12.7,11.3c0,3.8-1.9,7.4-5.2,9.5l6.5,12.9h-6.6c-1.9-3.7-3.7-7.5-5.6-11.2
	c-0.6,0-1.6,0-2.7,0h-4.3v11.2h-5.9v-33.7L250.9,319.1z M245.7,336.5h5.8c4.4,0,6.1-3.3,6.1-6.3c0.1-3.3-2.5-6-5.8-6.1
	c-0.1,0-0.3,0-0.4,0h-5.6V336.5z"/>
<path class="st0" d="M302.1,352.8h-8.2l-11.3-33.7h6.4l8.7,27.3h0.9l8.3-27.3h6.4L302.1,352.8z"/>
<path class="st0" d="M339.5,319h8.2l11.5,33.8H353l-2.3-7h-14.1l-2.3,7.1H328L339.5,319z M337.8,340.5h11.3l-5.3-16.4h-0.5
	L337.8,340.5z"/>
<path class="st0" d="M401.7,324.2h-11.1v28.6h-5.9v-28.6h-11.2v-5.1h28.2L401.7,324.2z"/>
<path class="st0" d="M436,318.6c10.5,0,15.3,6.4,15.3,17.4c0,11-4.9,17.4-15.3,17.4c-10.5,0-15.3-6.4-15.3-17.4
	C420.7,325,425.5,318.6,436,318.6z M436,323.7c-6.1,0-9.3,3.9-9.3,12.3s3.2,12.3,9.2,12.3c6,0,9.3-3.8,9.3-12.3
	C445.2,327.5,442.1,323.6,436,323.7L436,323.7z"/>
<path class="st0" d="M484.8,319.1c7.8,0,12.7,3.5,12.7,11.3c0,3.8-1.9,7.4-5.2,9.5l6.5,12.9h-6.7c-1.9-3.7-3.7-7.5-5.6-11.2
	c-0.6,0-1.6,0-2.7,0h-4.3v11.2h-5.9v-33.7L484.8,319.1z M479.7,336.5h5.8c4.4,0,6.1-3.3,6.1-6.3c0.1-3.3-2.5-6-5.8-6.1
	c-0.1,0-0.3,0-0.4,0h-5.6L479.7,336.5z"/>
<path class="st0" d="M527.4,352.8v-11.5l-11.5-22.2h6.7l7.8,16.1h0.3l7.5-16.1h6.6c-3.9,7.4-7.8,14.8-11.5,22.2v11.5H527.4z"/>
</svg>
