<?xml version="1.0" encoding="utf-8"?>
<!-- Generator: Adobe Illustrator 25.0.1, SVG Export Plug-In . SVG Version: 6.00 Build 0)  -->
<svg version="1.1" id="Layer_1" xmlns="http://www.w3.org/2000/svg" xmlns:xlink="http://www.w3.org/1999/xlink" x="0px" y="0px"
	 viewBox="0 0 825.7 410" style="enable-background:new 0 0 825.7 410;" xml:space="preserve">
<style type="text/css">
	.st0{fill:#F5F5F5;}
</style>
<path class="st0" d="M228.7,207.7c-5.9,0-10.7,4.8-10.7,10.7s4.8,10.7,10.7,10.7c5.9,0,10.7-4.8,10.7-10.7l0,0
	C239.4,212.5,234.6,207.7,228.7,207.7z"/>
<circle class="st0" cx="230.4" cy="135.6" r="7.7"/>
<path class="st0" d="M268.1,160.4c0-6.5-5.3-11.8-11.8-11.8c-6.5,0-11.8,5.3-11.8,11.8s5.3,11.8,11.8,11.8l0,0
	C262.8,172.1,268.1,166.9,268.1,160.4z"/>
<path class="st0" d="M221.7,180.9l-22.4-5.9c-0.2-0.1-0.4-0.2-0.4-0.4l-5.9-22.4c-0.1-0.3-0.4-0.5-0.7-0.4c-0.2,0.1-0.3,0.2-0.4,0.4
	l-5.9,22.3c-0.1,0.2-0.2,0.3-0.4,0.4l-22.4,5.9c-0.3,0.1-0.5,0.4-0.4,0.7c0.1,0.2,0.2,0.3,0.4,0.4l22.4,5.9c0.2,0.1,0.3,0.2,0.4,0.4
	l5.9,22.4c0.1,0.3,0.4,0.5,0.7,0.4c0.2-0.1,0.3-0.2,0.4-0.4l5.9-22.4c0.1-0.2,0.2-0.3,0.4-0.4l22.4-5.9c0.3-0.1,0.5-0.4,0.4-0.7
	C222.1,181.1,221.9,180.9,221.7,180.9z"/>
<path class="st0" d="M303.8,212.6l-14.6-5.6c-0.1,0-0.1-0.1-0.2-0.2l-5.7-14.6c-0.1-0.2-0.2-0.2-0.4-0.2c-0.1,0-0.1,0.1-0.2,0.2
	l-5.7,14.6c0,0.1-0.1,0.1-0.2,0.2l-14.6,5.7c-0.2,0.1-0.2,0.2-0.2,0.4c0,0.1,0.1,0.1,0.2,0.2l14.6,5.7c0.1,0,0.1,0.1,0.2,0.2
	l5.7,14.6c0.1,0.2,0.2,0.2,0.4,0.2c0.1,0,0.1-0.1,0.2-0.2l5.7-14.6c0-0.1,0.1-0.1,0.2-0.2l14.6-5.7c0.2,0,0.3-0.2,0.2-0.4
	C304,212.7,303.9,212.6,303.8,212.6z"/>
<path class="st0" d="M273.7,104.1c22.4-13,46.3-23.4,71.1-30.9c24.7-7.5,50.2-12,75.9-13.5h0.2c2.2-0.3,3.7-2.3,3.4-4.5
	c-0.3-2-2.1-3.5-4.2-3.4c-26.2,2.6-52,8.3-76.8,17C318.6,77.5,295,88.9,273,103c-0.3,0.2-0.4,0.6-0.2,1
	C272.9,104.2,273.3,104.3,273.7,104.1L273.7,104.1L273.7,104.1z"/>
<path class="st0" d="M470.6,59.4c27.7,2.1,55,7.7,81.2,16.7l13.8,34.7l1.5,0.6c7.6,3.3,15.1,6.9,22.5,10.9c-0.1,0.6-0.1,1.2,0,1.8
	c0.5,5.3,5.3,9.3,10.6,8.8c5.3-0.5,9.3-5.3,8.8-10.6s-5.3-9.3-10.6-8.8c-1.8,0.2-3.6,0.9-5,2c-7.1-3.8-14.3-7.3-21.7-10.5
	l-10.1-25.3c22.2,8.3,43.4,19,63.4,31.8c-0.9,5.3,2.6,10.3,7.9,11.2c5.3,0.9,10.3-2.6,11.2-7.9s-2.6-10.3-7.9-11.2
	c-1.2-0.2-2.4-0.2-3.6,0.1c-1.2,0.2-2.3,0.7-3.4,1.4c-22.8-14.7-47.2-26.6-72.7-35.6c-0.4-0.2-0.8-0.3-1.2-0.4
	c-27.2-9.5-55.5-15.3-84.2-17.5c-2.1-0.2-4,1.5-4.2,3.6C466.8,57.4,468.5,59.2,470.6,59.4L470.6,59.4z"/>
<path class="st0" d="M379.7,133.5c2.1-0.7,3.2-2.9,2.6-5c-0.6-2-2.7-3.1-4.8-2.6c-20.9,6-41,14.3-60,24.9
	c-18.9,10.5-36.5,23.1-52.5,37.5c-0.3,0.3-0.3,0.7-0.1,1s0.7,0.3,1,0.1c16.6-13.4,34.6-25,53.8-34.4c19-9.4,39.1-16.5,59.8-21.3
	L379.7,133.5z"/>
<path class="st0" d="M386,105c0.3,1.3,1.6,2.2,2.9,1.9c23.4-4.5,47.3-6.1,71.2-4.7c20.8,1.3,41.4,4.8,61.5,10.4
	c0.7,5.3,5.6,9.1,10.9,8.4c5.3-0.7,9.1-5.6,8.4-10.9s-5.6-9.1-10.9-8.4c-2.4,0.3-4.7,1.6-6.2,3.4c-20.7-5.4-41.9-8.6-63.3-9.4
	c-24.3-0.9-48.7,1.2-72.5,6.3C386.7,102.4,385.8,103.7,386,105z"/>
<path class="st0" d="M501.4,156.6c-3,0-5.8,1.4-7.6,3.8c-9.7-1.8-19.5-3.1-29.3-3.7c-25.5-1.6-51.1,0.8-75.8,7.1
	c-12.3,3.2-24.4,7.3-36.1,12.3c-1.3,0.5-1.8,2-1.3,3.3s2,1.8,3.3,1.3l0,0c11.5-4.7,23.4-8.5,35.5-11.3c24.2-5.7,49.1-7.5,73.9-5.4
	c9.4,0.8,18.8,2.1,28.1,4.1c1,5.2,6,8.6,11.2,7.6s8.6-6,7.6-11.2C509.9,159.8,506,156.6,501.4,156.6L501.4,156.6z"/>
<path class="st0" d="M652.4,156.8c5.4,0,9.7-4.4,9.7-9.7c0-5.4-4.4-9.7-9.7-9.7s-9.7,4.4-9.7,9.7C642.7,152.4,647,156.8,652.4,156.8
	z"/>
<path class="st0" d="M652.5,217.1c-1,0-2.1,0.1-3.1,0.5c-5.4-5.8-11-11.4-16.7-16.7c-7.8-7.2-16-13.9-24.5-20.2
	c-3.3-2.4-6.6-4.8-10-7l19.3-4.1c9,6.7,17.6,14,25.8,21.7c-0.4,1.2-0.6,2.4-0.6,3.6c0.1,5.4,4.6,9.6,10,9.5s9.6-4.6,9.5-10
	s-4.6-9.6-10-9.5l0,0c-1.2,0-2.4,0.3-3.5,0.7c-8.9-8.3-18.2-16.1-28-23.3l-1.4-1l-30.4,6.4c-20.4-12.6-42.5-22.5-65.5-29.4
	c-2.1-0.6-4.2,0.6-4.8,2.6c-0.6,2.1,0.6,4.2,2.6,4.8c29.6,8.9,57.5,22.8,82.4,41.2c8.3,6.1,16.3,12.7,23.9,19.7
	c5.5,5.1,10.9,10.5,16.2,16.1c-2.3,4.9-0.2,10.6,4.7,12.9c4.9,2.3,10.6,0.2,12.9-4.7c2.3-4.9,0.2-10.6-4.7-12.9
	C655.3,217.5,654,217.2,652.5,217.1L652.5,217.1z"/>
<polygon class="st0" points="186.8,294.9 185.4,294.9 174.9,259.7 163.5,259.7 178.5,306.7 193,306.7 208,259.7 196.5,259.7 "/>
<polygon class="st0" points="216.7,306.7 249.5,306.7 249.5,297.5 227.5,297.5 227.5,287.5 246.3,287.5 246.3,278.4 227.5,278.4 
	227.5,268.9 249.7,268.9 249.7,259.7 216.7,259.7 "/>
<path class="st0" d="M296.4,276.2c0-12.4-7.9-16.4-19.2-16.4h-16.3v46.9h10.8v-14.5h7.4c2.4,4.9,4.5,9.6,6.8,14.5H298l-8.4-17.3
	C293.8,286.3,296.3,281.4,296.4,276.2z M278.1,283.1h-6.5v-14.2h6.5c5.5,0,7.3,3.7,7.3,6.9C285.4,279,283.6,283.1,278.1,283.1
	L278.1,283.1z"/>
<path class="st0" d="M320.5,259.7l-15.6,47h11.2l2.9-9h17.5l2.8,9h11.3l-15.6-47H320.5L320.5,259.7z M321.2,288.3l6.1-19.6h0.5
	l6,19.6H321.2z"/>
<path class="st0" d="M385.3,282.9c0-10.8,4.7-14.8,13.3-14.8c3.7,0.2,7.4,0.9,10.9,2.1v-9.6c-4.2-1.1-8.6-1.7-13-1.6
	c-14.1,0-22.2,9.2-22.2,24.2c0,15.6,7.4,24.3,22.3,24.3c4.4,0,8.8-0.8,13-2.2v-9.4c-3.7,1.6-7.6,2.5-11.6,2.5
	C391.4,298.3,385.3,294.7,385.3,282.9z"/>
<rect x="420.4" y="299.4" class="st0" width="6.3" height="7.3"/>
<path class="st0" d="M485.3,276.2c0-12.4-7.9-16.4-19.2-16.4h-16.2v46.9h10.7v-14.5h7.4c2.3,4.9,4.5,9.6,6.8,14.5h12l-8.4-17.3
	C482.6,286.3,485.2,281.4,485.3,276.2z M466.9,283.1h-6.5v-14.2h6.5c5.5,0,7.3,3.7,7.3,6.9C474.2,279,472.5,283.1,466.9,283.1z"/>
<path class="st0" d="M524.2,289.7c0,5.5-4.1,8.7-8.9,8.7c-4.8,0-8.9-3.2-8.9-8.7v-29.9h-10.7v29c0,11.9,6,18.7,19.6,18.7
	c13.6,0,19.6-6.8,19.6-18.8v-28.9h-10.7V289.7z"/>
<path class="st0" d="M576.3,282.4v-0.3c3.7-2,5.9-5.9,5.9-10c0-6.5-4.6-12.4-14.9-12.4h-19.8v46.9h20.3c9.8,0,16.1-5.4,16.1-13.5
	C583.9,288.5,582.2,284.4,576.3,282.4z M558.2,268.9h7.4c3.6,0,6,1.4,6,4.5c0,4-3.1,5.3-6.3,5.3h-7v-9.8H558.2z M567.1,297.5h-8.9
	v-9.8h8.6c3.6,0,6.1,1.1,6.1,4.7C572.9,295.5,571.3,297.5,567.1,297.5z"/>
<rect x="594.6" y="259.7" class="st0" width="10.8" height="46.9"/>
<polygon class="st0" points="648.7,259.7 648.7,289.8 629.7,259.7 618.1,259.7 618.1,306.7 628.9,306.7 628.9,277.6 648,306.7 
	659.3,306.7 659.3,259.7 "/>
<path class="st0" d="M185.2,323.6c10.5,0,15.3,6.4,15.3,17.4s-4.9,17.4-15.3,17.4s-15.4-6.4-15.4-17.4
	C169.8,329.9,174.7,323.6,185.2,323.6z M185.2,328.7c-6.1,0-9.3,3.9-9.3,12.3s3.2,12.3,9.2,12.3s9.3-3.8,9.3-12.3
	C194.5,332.5,191.2,328.6,185.2,328.7L185.2,328.7z"/>
<path class="st0" d="M246.6,332.8c0,3.3-1.8,6.3-4.7,7.8c4.3,1.3,6,4.3,6,7.9c0,5.6-4.3,9.5-11,9.5h-14v-33.7h13.4
	C243.4,324.1,246.6,328.3,246.6,332.8z M235.4,338.4c2.8,0.1,5.2-2,5.3-4.9c0,0,0,0,0-0.1c0-2.6-1.9-4.3-5.3-4.3h-6.6v9.2
	L235.4,338.4L235.4,338.4z M241.8,347.9c0-3-2.3-4.5-5.6-4.5h-7.4v9.4h7.7C240.1,352.7,241.8,350.7,241.8,347.9z"/>
<path class="st0" d="M285.4,347.9c0-3.9-3.8-4.4-7.8-4.9c-4.5-0.6-9.5-2.2-9.5-9.6c0-8.2,6.6-9.9,13-9.9c2.9,0.1,5.8,0.3,8.7,0.7
	v5.2c-2.8-0.5-5.7-0.7-8.6-0.8c-4.7,0-7,1.5-7,4.7c0,3.5,3.1,4,6.7,4.6c4.9,0.8,10.5,1.6,10.5,9.8c0,7.5-5.2,10.7-12.8,10.7
	c-3.4,0-6.7-0.3-10-1v-5.3c3.1,0.7,6.3,1.1,9.5,1.2C282.9,353.3,285.4,351.5,285.4,347.9z"/>
<path class="st0" d="M335.9,324.1v5.1h-16.7v9.1h14.4v5.1h-14.4v9.3h16.6v5.1h-22.5v-33.7H335.9z"/>
<path class="st0" d="M368.9,324.1c7.8,0,12.7,3.5,12.7,11.3c0,3.8-1.9,7.4-5.2,9.5l6.5,12.9h-6.6c-1.9-3.7-3.7-7.5-5.6-11.2
	c-0.6,0-1.6,0-2.7,0h-4.3v11.2h-5.9v-33.7L368.9,324.1z M363.7,341.5h5.8c4.4,0,6.1-3.3,6.1-6.3c0.1-3.3-2.5-6-5.8-6.1
	c-0.1,0-0.3,0-0.4,0h-5.6L363.7,341.5L363.7,341.5z"/>
<path class="st0" d="M420.1,357.8h-8.2l-11.3-33.7h6.4l8.7,27.3h0.9l8.3-27.3h6.4L420.1,357.8z"/>
<path class="st0" d="M457.5,324h8.2l11.5,33.8H471l-2.3-7h-14.1l-2.3,7.1H446L457.5,324z M455.8,345.5h11.3l-5.3-16.4h-0.5
	L455.8,345.5z"/>
<path class="st0" d="M519.7,329.2h-11.1v28.6h-5.9v-28.6h-11.2v-5.1h28.2V329.2z"/>
<path class="st0" d="M554,323.6c10.5,0,15.3,6.4,15.3,17.4s-4.9,17.4-15.3,17.4c-10.5,0-15.3-6.4-15.3-17.4S543.5,323.6,554,323.6z
	 M554,328.7c-6.1,0-9.3,3.9-9.3,12.3s3.2,12.3,9.2,12.3s9.3-3.8,9.3-12.3S560.1,328.6,554,328.7L554,328.7z"/>
<path class="st0" d="M602.8,324.1c7.8,0,12.7,3.5,12.7,11.3c0,3.8-1.9,7.4-5.2,9.5l6.5,12.9h-6.7c-1.9-3.7-3.7-7.5-5.6-11.2
	c-0.6,0-1.6,0-2.7,0h-4.3v11.2h-5.9v-33.7L602.8,324.1z M597.7,341.5h5.8c4.4,0,6.1-3.3,6.1-6.3c0.1-3.3-2.5-6-5.8-6.1
	c-0.1,0-0.3,0-0.4,0h-5.6L597.7,341.5z"/>
<path class="st0" d="M645.4,357.8v-11.5l-11.5-22.2h6.7l7.8,16.1h0.3l7.5-16.1h6.6c-3.9,7.4-7.8,14.8-11.5,22.2v11.5H645.4z"/>
</svg>
