<svg xmlns="http://www.w3.org/2000/svg" viewBox="0 0 720 284">
  <defs>
    <style>.cls-1{fill:#231f20;}.cls-2{fill:#0c8b8c;}.cls-3{fill:#58595b;}</style>
  </defs>
  <g id="Layer_1" data-name="Layer 1">
    <rect class="cls-1" width="720" height="284"/>
    <path class="cls-2" d="M222.7,52.9c21.65,0,35.27,9.6,35.27,31.39,0,7.9-3.37,19.57-14.26,26.32l17.89,35.66H243.19c-5.19-10.37-10.12-20.75-15.44-31.12-1.68,0-4.4.13-7.52.13h-11.8v31H192.09V52.9Zm-14.27,48.24h15.95c12.19,0,16.86-9.21,16.86-17.38,0-7-4.67-16.72-17.25-16.72H208.43Z"/>
    <path class="cls-2" d="M289.38,75.46V124c0,6.1,2.59,9.47,9.33,9.47,5.84,0,13.62-3.11,20.62-7v-51h15.95v70.81H321.8l-1.3-7.78H320c-9.21,5.58-18,9.34-25.94,9.34-12.83,0-20.62-6.49-20.62-20.75V75.46Z"/>
    <path class="cls-2" d="M352.94,143.81V47.33h15.95V81c7.52-4.41,14.92-7.13,23.22-7.13,13.48,0,25.93,9.72,25.93,35.28,0,29.56-17.37,38.64-37.61,38.64A105.41,105.41,0,0,1,352.94,143.81Zm33.85-55.9c-4.67,0-10.89,2-17.9,6V133.3a57.58,57.58,0,0,0,11.93,1.3c14.53,0,20.88-7.65,20.88-24.51C401.7,95,396.52,87.91,386.79,87.91Z"/>
    <path class="cls-2" d="M448.41,65.87H432.06V50h16.35Zm-.13,80.4h-16V75.46h16Z"/>
    <path class="cls-2" d="M512.09,146.27V97.77c0-6.09-2.59-9.46-9.47-9.46-5.83,0-13.48,3.23-20.62,7.13v50.83H466.18V75.46H481v7.92h.51c9.08-5.45,18-9.47,25.94-9.47,12.84,0,20.49,6.48,20.49,20.88v51.48Z"/>
    <path class="cls-3" d="M182.1,173.67c15.06,0,22,9.21,22,25s-6.92,25-22,25-22-9.21-22-25S167,173.67,182.1,173.67Zm.06,7.33c-8.74,0-13.38,5.51-13.38,17.68s4.64,17.69,13.25,17.69,13.38-5.51,13.38-17.69S190.77,181,182.16,181Z"/>
    <path class="cls-3" d="M211.56,221.61v-50h8.27v17.48a23.32,23.32,0,0,1,12-3.7c7,0,13.45,5,13.45,18.29,0,15.33-9,20-19.5,20A54.4,54.4,0,0,1,211.56,221.61Zm17.55-29c-2.42,0-5.65,1-9.28,3.1v20.44a29.86,29.86,0,0,0,6.18.67c7.53,0,10.83-4,10.83-12.71C236.84,196.33,234.15,192.63,229.11,192.63Z"/>
    <path class="cls-3" d="M270.53,212c0-3.3-3.49-3.77-8.13-4.51-5.25-.8-11.43-2.55-11.43-10.62,0-8.54,6.45-11.5,15.26-11.5a69.37,69.37,0,0,1,10.82.94l-.26,7.13a64.93,64.93,0,0,0-9.62-1c-5.51,0-7.73,1.28-7.73,4,0,3,3.09,3.64,7.46,4.31,5.65.94,12.1,2.22,12.1,10.89,0,8-5.24,12-15.19,12a120.57,120.57,0,0,1-12.57-.81l.27-7.33a95.15,95.15,0,0,0,11.9,1.15C268.31,216.71,270.53,215.09,270.53,212Z"/>
    <path class="cls-3" d="M316.8,221.34a47.4,47.4,0,0,1-14.39,2.36c-12,0-18.29-5.92-18.29-19.17,0-12.77,6.52-19.16,17.42-19.16,12.84,0,15.93,8.47,15.93,17.62v3.76H292.8c.06,7.06,4.3,9.75,11.56,9.75a46.83,46.83,0,0,0,12.44-2.28Zm-7.73-20.57c-.07-4-1.21-8.88-8-8.88-5.58,0-8.41,4-8.41,8.88Z"/>
    <path class="cls-3" d="M346.73,194.51c-4.84.75-8.61,2.43-13.52,4.58v23.8H325V186.18h7.8v6.18c4-2.55,8.14-6.05,13.92-6.38Z"/>
    <path class="cls-3" d="M360,186.18l8.67,27.7h.41l8.67-27.7h8.67L374,223H363.46l-12.23-36.78Z"/>
    <path class="cls-3" d="M411.89,200.63v-2.75c0-3.37-2-5.65-8-5.65a50,50,0,0,0-12,1.68v-7a76,76,0,0,1,14-1.55c8.95,0,14.33,4.37,14.33,13v24.48h-7.07l-.6-4.1h-.27c-4,2.89-8.07,4.57-12,4.57-6.26,0-11.43-3.7-11.43-11.36,0-7.06,5.1-11.37,13.71-11.37Zm0,5.85h-8.21c-4.5,0-6.59,1.75-6.59,4.91,0,3.43,2.42,5.11,5.79,5.11a16.41,16.41,0,0,0,9-3.16Z"/>
    <path class="cls-3" d="M439,212.33c0,3.1,2.22,4,4.57,4a19.63,19.63,0,0,0,5.25-.88v7.06a56,56,0,0,1-9.42,1.08c-4.57,0-8.67-1.48-8.67-8.47V193.24H426v-5.11l10.42-10h2.69v8.14h11.16v7H439Z"/>
    <path class="cls-3" d="M472.48,185.37c10.09,0,18.49,5.65,18.49,19.16s-8.4,19.17-18.49,19.17-18.42-5.52-18.42-19.17S462.39,185.37,472.48,185.37Zm.07,31.27c7,0,9.88-4.51,9.88-12.11s-2.89-12-9.88-12-10,4.5-10,12S465.49,216.64,472.55,216.64Z"/>
    <path class="cls-3" d="M520,194.51c-4.84.75-8.61,2.43-13.52,4.58v23.8h-8.2V186.18H506v6.18c4-2.55,8.14-6.05,13.92-6.38Z"/>
    <path class="cls-3" d="M535.21,236.67l4.58-13.78h-3.5q-5.85-18.36-11.83-36.71h9c2.82,9.21,5.58,18.56,8.4,27.84h.61c2.89-9.28,5.71-18.63,8.6-27.84h8.81l-16.07,50.49Z"/>
  </g>
</svg>
