<?xml version="1.0" standalone="no"?>
<!DOCTYPE svg PUBLIC "-//W3C//DTD SVG 20010904//EN"
 "http://www.w3.org/TR/2001/REC-SVG-20010904/DTD/svg10.dtd">
<svg version="1.0" xmlns="http://www.w3.org/2000/svg"
 width="512.000000pt" height="512.000000pt" viewBox="0 0 512.000000 512.000000"
 preserveAspectRatio="xMidYMid meet">
<metadata>
Created by potrace 1.14, written by Peter Selinger 2001-2017
</metadata>
<g transform="translate(0.000000,512.000000) scale(0.100000,-0.100000)"
fill="#000000" stroke="none">
<path d="M2435 4580 c3 -5 -39 -9 -92 -10 -54 0 -118 -2 -143 -4 -25 -2 -89
-7 -142 -11 -53 -3 -107 -8 -120 -10 -13 -2 -52 -6 -88 -9 -36 -4 -74 -8 -86
-10 -11 -2 -47 -7 -80 -10 -32 -4 -68 -9 -79 -11 -11 -2 -38 -7 -60 -10 -71
-10 -105 -25 -121 -57 -32 -63 -12 -127 49 -153 18 -7 34 -12 37 -10 3 2 33 6
65 10 33 3 67 8 75 10 8 2 38 7 65 10 28 3 61 8 75 10 14 3 54 7 90 10 36 3
83 8 105 11 46 6 152 13 280 19 228 11 692 3 706 -13 8 -8 82 -142 159 -287
29 -55 56 -104 60 -110 4 -5 32 -57 63 -115 101 -191 115 -214 134 -217 10 -2
34 -5 53 -8 19 -2 46 -7 60 -10 45 -9 125 -24 150 -29 121 -22 128 -25 135
-67 9 -51 67 -138 113 -169 20 -13 39 -25 42 -26 3 0 19 -7 35 -14 48 -21 162
-17 220 9 143 63 210 217 163 371 -22 72 -73 129 -152 169 -113 56 -252 34
-340 -54 -34 -34 -41 -37 -74 -30 -21 3 -46 8 -57 10 -24 5 -59 12 -100 22
-42 9 -55 12 -93 16 -18 3 -34 6 -36 8 -3 3 -59 107 -247 457 -25 47 -27 55
-9 54 41 -1 370 -51 445 -67 17 -4 39 -8 50 -10 32 -5 115 -23 190 -40 39 -9
77 -18 85 -20 8 -2 67 -17 130 -35 63 -18 125 -34 138 -37 13 -3 22 -13 22
-24 0 -35 41 -126 74 -165 19 -22 58 -53 87 -69 47 -25 65 -29 134 -30 68 0
89 4 137 28 110 54 174 166 165 288 -9 113 -65 196 -170 251 -34 18 -58 22
-127 22 -94 0 -137 -16 -204 -75 -28 -24 -40 -29 -58 -23 -13 4 -27 9 -33 10
-5 2 -71 19 -145 39 -127 34 -311 76 -390 90 -19 3 -66 12 -105 20 -134 26
-391 61 -525 71 -41 3 -78 8 -81 10 -3 2 -89 6 -190 10 -112 4 -190 11 -198
18 -11 8 -13 8 -7 -1 5 -9 -1 -13 -18 -13 -14 0 -26 5 -26 10 0 6 -5 10 -11
10 -5 0 -8 -4 -5 -9 7 -11 -95 -9 -113 3 -10 6 -12 6 -7 -2 8 -13 -16 -17 -28
-5 -10 10 -37 13 -31 3z"/>
<path d="M885 4470 c-6 -9 -34 -98 -40 -129 -2 -9 -33 -124 -69 -256 -36 -132
-66 -245 -66 -251 0 -27 -62 -62 -125 -70 -5 0 -17 -4 -25 -7 -8 -3 -60 -18
-115 -32 -55 -14 -114 -30 -131 -36 -17 -5 -41 -12 -54 -14 -74 -14 -249 -69
-253 -78 -2 -7 -1 -21 3 -32 6 -16 30 -26 101 -45 52 -14 96 -25 99 -25 3 0
23 -6 45 -12 68 -21 179 -52 205 -57 57 -11 216 -59 227 -68 13 -10 24 -45 74
-233 17 -66 43 -160 56 -210 13 -49 31 -117 40 -150 8 -33 24 -69 34 -80 39
-40 49 -17 144 335 97 359 93 349 166 364 59 12 77 17 124 31 28 8 93 26 145
40 348 93 331 88 343 107 18 27 0 45 -65 62 -34 9 -70 20 -78 23 -8 3 -22 7
-30 8 -8 2 -58 15 -110 29 -52 15 -102 28 -110 30 -184 47 -268 72 -281 85
-18 17 -32 62 -130 431 -34 129 -67 238 -73 242 -16 11 -44 10 -51 -2z"/>
<path d="M2309 3964 c-96 -45 -150 -126 -157 -235 -5 -87 22 -153 90 -214 174
-157 450 -34 450 201 0 109 -59 202 -162 251 -56 27 -159 26 -221 -3z"/>
<path d="M2892 3205 c-67 -20 -138 -75 -155 -119 -4 -9 -12 -16 -19 -17 -7 0
-98 -2 -203 -4 -175 -3 -315 -10 -390 -19 -16 -3 -57 -7 -90 -10 -33 -3 -76
-8 -95 -10 -19 -3 -52 -8 -72 -11 -92 -13 -115 -16 -143 -22 -16 -3 -39 -7
-50 -9 -11 -2 -31 -5 -45 -8 -14 -3 -38 -8 -55 -11 -87 -17 -162 -38 -177 -49
-32 -23 -47 -76 -34 -115 19 -59 75 -85 146 -69 14 3 43 10 65 14 52 11 55 11
58 14 1 1 13 3 27 5 14 2 50 8 80 14 59 11 102 18 165 27 22 3 51 8 65 10 14
3 54 7 90 10 36 3 85 7 110 9 25 2 79 7 121 10 43 4 153 8 247 9 l169 3 19
-36 c48 -91 138 -145 244 -145 128 0 227 75 262 199 34 121 -27 256 -143 316
-48 24 -140 31 -197 14z"/>
<path d="M3760 2729 c-58 -44 -112 -86 -121 -93 -9 -7 -21 -15 -26 -17 -6 -2
-25 -17 -44 -32 -19 -15 -137 -104 -264 -197 -126 -93 -236 -174 -243 -181
-14 -12 -100 -14 -133 -4 -9 3 -20 1 -24 -5 -3 -6 -10 -8 -14 -6 -12 8 -64 8
-198 2 -146 -7 -193 -11 -358 -32 -16 -2 -47 -6 -67 -8 -21 -2 -51 -7 -68 -11
-18 -4 -41 -8 -53 -10 -72 -8 -140 -29 -158 -48 -47 -51 -39 -124 19 -163 30
-21 49 -22 109 -10 15 3 43 8 61 11 17 3 47 7 65 10 17 3 43 7 57 10 65 11
158 22 280 31 180 15 662 7 754 -12 11 -2 44 -7 72 -10 28 -2 62 -7 75 -10 13
-2 41 -7 63 -9 62 -7 292 -58 409 -90 9 -3 25 -7 35 -9 9 -2 29 -9 45 -15 15
-6 27 -8 27 -5 0 4 6 2 13 -4 6 -6 15 -11 20 -11 4 -1 8 -1 10 -2 1 0 9 -2 17
-4 22 -4 241 -84 268 -97 15 -8 22 -20 22 -41 0 -76 51 -174 116 -223 84 -64
219 -77 310 -31 117 59 177 163 168 292 -7 110 -84 215 -188 254 -64 24 -183
24 -212 1 -9 -8 -18 -13 -19 -10 -2 3 -22 -8 -46 -24 l-44 -28 -60 22 c-307
113 -558 184 -800 225 -16 3 -41 7 -55 10 -30 7 -78 13 -144 20 -27 3 -51 7
-53 9 -2 2 9 13 24 25 25 19 221 165 281 209 13 9 72 53 131 98 l108 81 129
-33 c125 -32 354 -100 362 -109 3 -2 7 -21 9 -41 6 -54 48 -136 89 -173 19
-18 60 -44 91 -58 48 -22 65 -25 132 -21 87 5 136 26 194 83 129 125 116 337
-28 447 -113 86 -267 83 -374 -8 l-32 -27 -107 32 c-59 18 -114 35 -122 38
-18 7 1 2 -195 52 -88 22 -171 40 -185 40 -15 0 -67 -33 -130 -80z"/>
<path d="M892 2424 c-119 -35 -195 -135 -195 -259 -1 -65 27 -141 66 -184 28
-30 92 -71 112 -71 8 0 15 -4 15 -9 0 -17 144 -5 190 15 151 68 204 255 113
399 -59 94 -191 142 -301 109z"/>
<path d="M1215 1558 c-49 -123 -93 -226 -99 -230 -6 -4 -87 -37 -181 -74 -93
-36 -183 -73 -199 -80 -16 -8 -35 -14 -41 -14 -18 0 -35 -24 -27 -37 4 -6 84
-41 177 -78 94 -36 194 -76 224 -89 l53 -22 84 -209 c46 -115 84 -213 84 -218
0 -5 7 -15 16 -24 14 -14 16 -14 28 2 7 10 19 34 26 54 6 20 19 53 28 73 8 21
41 101 71 179 l56 142 130 53 c72 28 174 69 228 90 112 44 122 61 55 90 -24
10 -45 18 -48 19 -3 1 -14 5 -25 10 -11 5 -83 32 -160 62 -77 30 -149 58 -160
64 -14 7 -47 77 -109 234 -68 172 -93 225 -106 225 -13 0 -38 -52 -105 -222z"/>
<path d="M2757 1294 c-1 -1 -49 -4 -107 -8 -58 -3 -116 -8 -130 -11 -13 -2
-49 -7 -80 -10 -31 -3 -67 -8 -80 -10 -14 -3 -36 -7 -50 -10 -46 -9 -75 -15
-102 -21 -15 -3 -39 -20 -54 -37 -22 -26 -25 -38 -21 -74 2 -24 13 -53 22 -63
24 -27 78 -40 118 -30 17 5 50 11 72 15 23 3 50 7 61 9 12 2 45 7 75 11 30 4
65 9 79 11 147 20 506 20 660 -1 19 -3 59 -7 88 -11 29 -3 63 -7 75 -10 12 -3
49 -9 82 -15 33 -5 67 -12 75 -16 8 -3 22 -7 30 -8 12 -1 47 -9 90 -20 85 -21
86 -23 103 -83 36 -129 146 -211 279 -206 161 6 271 119 272 279 0 159 -115
278 -269 279 -93 0 -139 -16 -198 -67 l-28 -25 -87 23 c-48 13 -98 26 -112 28
-14 3 -59 12 -100 21 -71 14 -91 17 -182 31 -88 12 -107 14 -188 21 -79 6
-387 13 -393 8z"/>
</g>
</svg>
