<svg version="1.1" xmlns="http://www.w3.org/2000/svg" xmlns:xlink="http://www.w3.org/1999/xlink" x="0px" y="0px"
	 viewBox="0 0 480 138" style="enable-background:new 0 0 480 138;" xml:space="preserve">
<style type="text/css">
	.st0{fill:#B1F2EF;}
	.st1{fill:none;stroke:#000000;stroke-width:3.65;stroke-miterlimit:10;}
	.st2{fill:#FFFFFF;}
	.st3{fill:#DCE0E3;}
	.st4{fill:#A2A8A8;}
	.st5{fill:#FF8C8C;}
	.st6{fill:#ED4C4C;}
	.st7{enable-background:new    ;}
</style>
<path class="st0" d="M30,0h420c16.6,0,30,13.4,30,30v78c0,16.6-13.4,30-30,30H30c-16.6,0-30-13.4-30-30V30C0,13.4,13.4,0,30,0z"/>
<line class="st1" x1="188.6" y1="33.7" x2="188.6" y2="104.3"/>
<circle class="st2" cx="96.2" cy="69" r="50"/>
<polygon class="st3" points="92.7,59.2 91.1,60.3 114.4,93.6 116.9,93.7 "/>
<polygon class="st4" points="88.2,62.3 110,93.4 114.4,93.6 91.1,60.3 "/>
<path class="st5" d="M89.6,48l12.3,14.4c4.4-0.2,8.8,0.8,12.7,3l2.1-1.5c-3.9-3-8.7-4.6-13.6-4.4L92.3,47c1.2-2.8,1.8-5.8,1.6-8.8
	L91.4,40C91.3,42.8,90.7,45.5,89.6,48z"/>
<path class="st6" d="M77,57.8l8.1,14.3c-1.9,4.5-2.1,9.6-0.6,14.2l30-21c-3.9-2.2-8.2-3.2-12.7-3L89.6,48c1.1-2.5,1.8-5.2,1.9-8
	L68.1,56.3C70.9,57.5,74,58,77,57.8z"/>
<g class="st7">
	<path d="M236,84.9c-1.9,0-3.6-0.3-5.2-1c-1.6-0.7-3-1.7-4.1-3c-1.2-1.3-2.1-2.9-2.7-4.9c-0.7-1.9-1-4.1-1-6.5c0-2.4,0.3-4.6,1-6.5
		c0.7-1.9,1.6-3.5,2.8-4.9c1.2-1.3,2.6-2.4,4.2-3.1c1.6-0.7,3.4-1.1,5.3-1.1c1.8,0,3.4,0.4,4.8,1.1c1.4,0.7,2.5,1.6,3.4,2.6
		l-2.1,2.5c-0.8-0.9-1.7-1.5-2.7-2.1c-1-0.5-2.1-0.8-3.4-0.8c-1.4,0-2.7,0.3-3.9,0.8c-1.2,0.6-2.1,1.4-3,2.4c-0.8,1-1.5,2.3-1.9,3.8
		c-0.4,1.5-0.7,3.2-0.7,5c0,1.9,0.2,3.6,0.7,5.1c0.4,1.5,1.1,2.8,1.8,3.9c0.8,1.1,1.8,1.9,2.9,2.5c1.1,0.6,2.4,0.9,3.9,0.9
		c1.5,0,2.7-0.3,3.8-0.9c1.1-0.6,2.1-1.4,3.1-2.5l2.1,2.4c-1.2,1.4-2.5,2.4-4,3.2C239.7,84.5,238,84.9,236,84.9z"/>
</g>
<g class="st7">
	<path d="M249.5,84.4V51.9h3.7v8.8l-0.1,4.6c1.1-1,2.2-1.9,3.3-2.6c1.2-0.7,2.5-1.1,4.1-1.1c2.3,0,4,0.7,5.1,2.2
		c1.1,1.5,1.6,3.6,1.6,6.5v14h-3.7V70.8c0-2.1-0.3-3.6-1-4.5c-0.7-0.9-1.7-1.4-3.2-1.4c-1.2,0-2.2,0.3-3.1,0.9
		c-0.9,0.6-1.9,1.4-3,2.6v16H249.5z"/>
</g>
<g class="st7">
	<path d="M282.7,84.9c-1.5,0-2.9-0.3-4.2-0.8c-1.3-0.5-2.4-1.3-3.4-2.3s-1.7-2.2-2.3-3.6c-0.5-1.4-0.8-3.1-0.8-4.9s0.3-3.5,0.8-4.9
		c0.6-1.4,1.3-2.7,2.2-3.7s2-1.8,3.2-2.3c1.2-0.5,2.4-0.8,3.7-0.8c1.4,0,2.7,0.2,3.8,0.7c1.1,0.5,2,1.2,2.8,2.1
		c0.7,0.9,1.3,2,1.7,3.3c0.4,1.3,0.6,2.7,0.6,4.3c0,0.4,0,0.8,0,1.2c0,0.4-0.1,0.7-0.1,1h-15c0.2,2.4,0.9,4.2,2.2,5.6s3,2.1,5.2,2.1
		c1.1,0,2-0.2,2.9-0.5c0.9-0.3,1.8-0.7,2.6-1.3l1.3,2.5c-1,0.6-2.1,1.1-3.2,1.6C285.5,84.7,284.2,84.9,282.7,84.9z M275.7,71.5h11.9
		c0-2.2-0.5-4-1.4-5.1c-1-1.2-2.3-1.8-4-1.8c-0.8,0-1.5,0.2-2.3,0.5c-0.7,0.3-1.4,0.8-1.9,1.3s-1.1,1.3-1.4,2.2
		C276.1,69.4,275.8,70.4,275.7,71.5z"/>
</g>
<g class="st7">
	<path d="M304.8,84.9c-1.5,0-2.8-0.3-4.1-0.8c-1.3-0.5-2.4-1.3-3.3-2.3c-0.9-1-1.7-2.2-2.2-3.6c-0.5-1.4-0.8-3.1-0.8-4.9
		c0-1.9,0.3-3.5,0.9-4.9s1.4-2.7,2.3-3.7c1-1,2.1-1.8,3.4-2.3c1.3-0.5,2.7-0.8,4.1-0.8c1.5,0,2.7,0.3,3.7,0.8s1.9,1.1,2.7,1.8
		l-1.9,2.5c-0.6-0.6-1.3-1-2-1.4c-0.7-0.4-1.5-0.5-2.4-0.5c-1,0-1.9,0.2-2.8,0.6c-0.9,0.4-1.6,1-2.2,1.8c-0.6,0.8-1.1,1.7-1.4,2.7
		c-0.3,1-0.5,2.2-0.5,3.5s0.2,2.4,0.5,3.5c0.3,1,0.8,1.9,1.4,2.7c0.6,0.7,1.3,1.3,2.2,1.7s1.8,0.6,2.8,0.6c1,0,2-0.2,2.8-0.7
		c0.9-0.4,1.6-1,2.3-1.6l1.6,2.5c-1,0.9-2.1,1.6-3.3,2.1C307.4,84.7,306.1,84.9,304.8,84.9z"/>
</g>
<g class="st7">
	<path d="M315.9,84.4V51.9h3.7v22h0.1l9.4-11.7h4.1l-7.4,8.9l8.4,13.3h-4.1l-6.5-10.7l-4.1,4.8v5.8H315.9z"/>
</g>
<g class="st7">
	<path d="M338,93.7V62.2h3.1l0.3,2.6h0.1c1-0.9,2.1-1.6,3.3-2.2c1.2-0.6,2.5-0.9,3.8-0.9c1.4,0,2.7,0.3,3.8,0.8
		c1.1,0.5,2,1.3,2.7,2.3c0.7,1,1.3,2.2,1.7,3.6c0.4,1.4,0.6,2.9,0.6,4.7c0,1.9-0.3,3.6-0.8,5c-0.5,1.5-1.2,2.7-2.1,3.8
		c-0.9,1-1.9,1.8-3.1,2.3c-1.2,0.5-2.4,0.8-3.6,0.8c-1,0-2.1-0.2-3.1-0.7s-2-1.1-3.1-1.9l0.1,3.9v7.5H338z M347.2,81.8
		c0.9,0,1.8-0.2,2.5-0.6c0.8-0.4,1.4-1,2-1.7c0.6-0.7,1-1.7,1.3-2.8c0.3-1.1,0.5-2.3,0.5-3.7c0-1.2-0.1-2.3-0.3-3.3
		c-0.2-1-0.6-1.9-1-2.6c-0.5-0.7-1.1-1.3-1.8-1.7c-0.7-0.4-1.6-0.6-2.7-0.6c-0.9,0-1.9,0.3-2.8,0.8c-1,0.5-2,1.3-3.1,2.2v11.6
		c1,0.9,2,1.5,2.9,1.8S346.5,81.8,347.2,81.8z"/>
</g>
<g class="st7">
	<path d="M371.5,84.9c-1.4,0-2.7-0.3-3.9-0.8c-1.2-0.5-2.3-1.3-3.3-2.3c-0.9-1-1.7-2.2-2.3-3.6c-0.6-1.4-0.8-3.1-0.8-4.9
		c0-1.9,0.3-3.5,0.8-4.9c0.6-1.4,1.3-2.7,2.3-3.7c0.9-1,2-1.8,3.3-2.3s2.5-0.8,3.9-0.8s2.7,0.3,3.9,0.8c1.2,0.5,2.3,1.3,3.3,2.3
		c0.9,1,1.7,2.2,2.3,3.7c0.6,1.4,0.8,3.1,0.8,4.9c0,1.8-0.3,3.5-0.8,4.9c-0.6,1.4-1.3,2.7-2.3,3.6c-0.9,1-2,1.7-3.3,2.3
		C374.2,84.6,372.9,84.9,371.5,84.9z M371.5,81.8c0.9,0,1.8-0.2,2.6-0.6s1.5-1,2-1.7c0.6-0.7,1-1.6,1.3-2.7c0.3-1,0.5-2.2,0.5-3.5
		s-0.2-2.4-0.5-3.5c-0.3-1-0.7-2-1.3-2.7c-0.6-0.8-1.2-1.3-2-1.8s-1.7-0.6-2.6-0.6c-0.9,0-1.8,0.2-2.6,0.6s-1.5,1-2,1.8
		c-0.6,0.8-1,1.7-1.3,2.7c-0.3,1-0.5,2.2-0.5,3.5s0.2,2.4,0.5,3.5c0.3,1,0.7,1.9,1.3,2.7c0.6,0.7,1.2,1.3,2,1.7
		S370.6,81.8,371.5,81.8z"/>
</g>
<g class="st7">
	<path d="M388.7,57.6c-0.7,0-1.3-0.2-1.8-0.7c-0.5-0.5-0.8-1-0.8-1.7c0-0.7,0.3-1.3,0.8-1.8c0.5-0.4,1.1-0.7,1.8-0.7
		c0.7,0,1.3,0.2,1.8,0.7c0.5,0.4,0.8,1,0.8,1.8c0,0.7-0.2,1.3-0.8,1.7S389.4,57.6,388.7,57.6z M386.7,84.4V62.2h3.7v22.2H386.7z"/>
</g>
<g class="st7">
	<path d="M396.9,84.4V62.2h3.1l0.3,3.2h0.1c1.1-1.1,2.2-2,3.3-2.7c1.2-0.7,2.5-1.1,4.1-1.1c2.3,0,4,0.7,5.1,2.2
		c1.1,1.5,1.6,3.6,1.6,6.5v14h-3.7V70.8c0-2.1-0.3-3.6-1-4.5c-0.7-0.9-1.7-1.4-3.2-1.4c-1.2,0-2.2,0.3-3.1,0.9
		c-0.9,0.6-1.9,1.4-3,2.6v16H396.9z"/>
</g>
<g class="st7">
	<path d="M427.8,84.9c-1.2,0-2.2-0.2-3-0.5c-0.8-0.4-1.5-0.9-2-1.5c-0.5-0.6-0.9-1.4-1.1-2.3c-0.2-0.9-0.3-1.9-0.3-3V65.3h-3.3v-2.8
		l3.5-0.2l0.5-6.2h3.1v6.2h6v3.1h-6v12.3c0,1.4,0.3,2.4,0.8,3.2c0.5,0.7,1.4,1.1,2.7,1.1c0.4,0,0.8-0.1,1.3-0.2
		c0.5-0.1,0.9-0.3,1.2-0.4l0.7,2.8c-0.6,0.2-1.3,0.4-2,0.6S428.5,84.9,427.8,84.9z"/>
</g>
</svg>
