<svg xmlns="http://www.w3.org/2000/svg" viewBox="0 0 596.75 138"><defs><style>.cls-1{fill:none;stroke:#000;stroke-miterlimit:10;stroke-width:3.65px;}.cls-2{fill:#ed4c4c;}.cls-3{fill:#fff;}.cls-4{fill:#ff8c8c;}.cls-5{fill:#b1f2ef;}.cls-6{fill:#dce0e3;}.cls-7{fill:#a2a8a8;}</style></defs><rect class="cls-5" y="0" width="596.75" height="138" rx="30" ry="30"/><g><line class="cls-1" x1="188.59" y1="33.71" x2="188.59" y2="104.29"/><g><circle class="cls-3" cx="96.24" cy="69" r="50"/><g><polygon class="cls-6" points="92.73 59.16 91.06 60.32 114.36 93.59 116.9 93.67 92.73 59.16"/><polygon class="cls-7" points="88.19 62.33 109.98 93.45 114.36 93.59 91.06 60.32 88.19 62.33"/><path class="cls-4" d="M89.56,47.95l12.3,14.38c4.4-.2,8.79,.83,12.66,3l2.07-1.45c-3.9-3.05-8.74-4.54-13.59-4.32l-10.7-12.51c1.25-2.76,1.8-5.8,1.6-8.83l-2.47,1.73c-.1,2.76-.73,5.48-1.87,8Z"/><path class="cls-2" d="M76.96,57.79l8.1,14.34c-1.87,4.47-2.12,9.54-.59,14.24l30.04-21.03c-3.86-2.17-8.26-3.2-12.66-3l-12.3-14.38c1.14-2.52,1.77-5.25,1.87-8l-23.31,16.32c2.77,1.23,5.82,1.74,8.84,1.52Z"/></g></g><g><path d="M224.71,84.36v-29.9h8.52c1.67,0,3.2,.15,4.58,.46s2.56,.8,3.53,1.48c.97,.68,1.73,1.59,2.28,2.71,.55,1.12,.82,2.51,.82,4.15s-.27,2.95-.8,4.1c-.53,1.16-1.28,2.11-2.26,2.87s-2.13,1.33-3.49,1.71-2.85,.57-4.49,.57h-4.92v11.85h-3.78Zm3.78-14.95h4.47c2.61,0,4.55-.49,5.81-1.48,1.26-.99,1.89-2.54,1.89-4.67s-.66-3.65-1.98-4.49-3.29-1.25-5.9-1.25h-4.29v11.9Z"/><path d="M255.6,84.91c-2.37,0-4.1-.73-5.17-2.19-1.08-1.46-1.62-3.62-1.62-6.47v-14.04h3.78v13.54c0,2.1,.33,3.61,.98,4.54,.65,.93,1.71,1.39,3.17,1.39,1.15,0,2.17-.3,3.05-.89,.88-.59,1.85-1.54,2.92-2.85v-15.73h3.74v22.15h-3.1l-.32-3.46h-.14c-1.03,1.22-2.12,2.19-3.26,2.92-1.14,.73-2.48,1.09-4.03,1.09Z"/><path d="M272.85,84.36v-22.15h3.1l.32,3.19h.14c1.06-1.06,2.18-1.95,3.35-2.67,1.17-.71,2.53-1.07,4.08-1.07,2.34,0,4.05,.73,5.13,2.19,1.08,1.46,1.62,3.62,1.62,6.47v14.04h-3.74v-13.54c0-2.1-.33-3.61-1-4.54-.67-.93-1.73-1.39-3.19-1.39-1.16,0-2.17,.29-3.05,.87-.88,.58-1.88,1.43-3.01,2.55v16.05h-3.74Z"/><path d="M303.79,84.91c-1.18,0-2.18-.18-2.99-.55-.81-.37-1.46-.87-1.96-1.5-.5-.64-.86-1.41-1.07-2.32-.21-.91-.32-1.92-.32-3.01v-12.26h-3.28v-2.83l3.46-.23,.46-6.2h3.14v6.2h5.97v3.05h-5.97v12.31c0,1.37,.25,2.42,.75,3.17,.5,.75,1.39,1.12,2.67,1.12,.39,0,.82-.06,1.28-.18s.87-.26,1.23-.41l.73,2.83c-.61,.21-1.27,.4-1.98,.57-.71,.17-1.42,.25-2.12,.25Z"/><path d="M319.72,84.91c-1.37,0-2.67-.26-3.9-.78-1.23-.52-2.32-1.27-3.26-2.26-.94-.99-1.69-2.2-2.26-3.65-.56-1.44-.84-3.08-.84-4.9s.28-3.5,.84-4.95c.56-1.44,1.31-2.67,2.26-3.67,.94-1,2.03-1.76,3.26-2.28,1.23-.52,2.53-.78,3.9-.78s2.67,.26,3.9,.78c1.23,.52,2.32,1.28,3.26,2.28,.94,1,1.69,2.23,2.26,3.67,.56,1.44,.84,3.09,.84,4.95s-.28,3.46-.84,4.9c-.56,1.44-1.32,2.66-2.26,3.65-.94,.99-2.03,1.74-3.26,2.26-1.23,.52-2.53,.78-3.9,.78Zm0-3.1c.94,0,1.81-.21,2.6-.62s1.47-.99,2.03-1.73c.56-.74,.99-1.63,1.3-2.67,.3-1.03,.46-2.19,.46-3.46s-.15-2.44-.46-3.49c-.3-1.05-.74-1.95-1.3-2.71-.56-.76-1.24-1.34-2.03-1.75s-1.66-.62-2.6-.62-1.81,.21-2.6,.62-1.47,1-2.03,1.75c-.56,.76-1,1.66-1.3,2.71-.3,1.05-.46,2.21-.46,3.49s.15,2.43,.46,3.46c.3,1.03,.74,1.92,1.3,2.67,.56,.75,1.24,1.32,2.03,1.73s1.66,.62,2.6,.62Z"/><path d="M351.59,84.91c-2.8,0-5.02-1-6.68-3.01-1.66-2.01-2.48-4.86-2.48-8.57,0-1.79,.27-3.41,.8-4.86,.53-1.44,1.24-2.67,2.12-3.67,.88-1,1.9-1.78,3.05-2.33,1.15-.55,2.37-.82,3.65-.82s2.39,.23,3.33,.68c.94,.46,1.9,1.08,2.87,1.87l-.18-3.78v-8.52h3.78v32.46h-3.1l-.32-2.6h-.14c-.88,.85-1.89,1.59-3.03,2.21s-2.36,.93-3.67,.93Zm.82-3.15c1.03,0,2.01-.25,2.92-.75,.91-.5,1.82-1.27,2.73-2.3v-11.58c-.94-.85-1.85-1.45-2.71-1.8s-1.75-.52-2.67-.52-1.71,.21-2.48,.62c-.77,.41-1.45,.99-2.03,1.73-.58,.75-1.03,1.63-1.37,2.67-.33,1.03-.5,2.19-.5,3.46,0,2.67,.53,4.76,1.59,6.25,1.06,1.49,2.57,2.23,4.51,2.23Z"/><path d="M377.57,84.91c-1.49,0-2.88-.27-4.17-.8-1.29-.53-2.42-1.29-3.37-2.28-.96-.99-1.71-2.2-2.26-3.62-.55-1.43-.82-3.05-.82-4.88s.28-3.46,.84-4.9c.56-1.44,1.31-2.67,2.23-3.67,.93-1,1.98-1.77,3.17-2.3,1.19-.53,2.42-.8,3.69-.8,1.4,0,2.65,.24,3.76,.73s2.04,1.19,2.78,2.1c.74,.91,1.31,2.01,1.71,3.28,.39,1.28,.59,2.71,.59,4.29,0,.39,0,.78-.02,1.16s-.05,.71-.11,.98h-14.95c.15,2.37,.89,4.25,2.21,5.63,1.32,1.38,3.05,2.07,5.17,2.07,1.06,0,2.04-.16,2.94-.48,.9-.32,1.75-.74,2.58-1.25l1.32,2.46c-.97,.61-2.05,1.14-3.24,1.6-1.19,.46-2.54,.68-4.06,.68Zm-6.97-13.4h11.85c0-2.25-.48-3.96-1.44-5.13-.96-1.17-2.3-1.75-4.03-1.75-.79,0-1.54,.15-2.26,.46-.71,.3-1.36,.75-1.94,1.34-.58,.59-1.06,1.31-1.44,2.17-.38,.85-.63,1.82-.75,2.92Z"/><path d="M407.24,84.91c-1.46,0-2.83-.26-4.1-.78-1.28-.52-2.38-1.27-3.3-2.26-.93-.99-1.66-2.2-2.19-3.65-.53-1.44-.8-3.08-.8-4.9s.29-3.5,.87-4.95,1.35-2.67,2.33-3.67c.97-1,2.1-1.76,3.4-2.28,1.29-.52,2.65-.78,4.08-.78s2.7,.26,3.74,.78,1.95,1.12,2.74,1.82l-1.91,2.46c-.64-.58-1.32-1.05-2.03-1.41-.71-.36-1.51-.55-2.39-.55-1,0-1.93,.21-2.78,.62-.85,.41-1.58,1-2.19,1.75-.61,.76-1.09,1.66-1.44,2.71-.35,1.05-.52,2.21-.52,3.49s.17,2.43,.5,3.46c.33,1.03,.8,1.92,1.39,2.67,.59,.75,1.31,1.32,2.17,1.73s1.78,.62,2.78,.62,1.98-.22,2.85-.66,1.65-.96,2.35-1.57l1.64,2.51c-1,.88-2.11,1.57-3.33,2.07-1.22,.5-2.49,.75-3.83,.75Z"/><path d="M426.61,84.91c-1.37,0-2.67-.26-3.9-.78-1.23-.52-2.32-1.27-3.26-2.26-.94-.99-1.69-2.2-2.26-3.65-.56-1.44-.84-3.08-.84-4.9s.28-3.5,.84-4.95c.56-1.44,1.31-2.67,2.26-3.67,.94-1,2.03-1.76,3.26-2.28,1.23-.52,2.53-.78,3.9-.78s2.67,.26,3.9,.78c1.23,.52,2.32,1.28,3.26,2.28,.94,1,1.69,2.23,2.26,3.67,.56,1.44,.84,3.09,.84,4.95s-.28,3.46-.84,4.9c-.56,1.44-1.32,2.66-2.26,3.65-.94,.99-2.03,1.74-3.26,2.26-1.23,.52-2.53,.78-3.9,.78Zm0-3.1c.94,0,1.81-.21,2.6-.62s1.47-.99,2.03-1.73c.56-.74,.99-1.63,1.3-2.67,.3-1.03,.46-2.19,.46-3.46s-.15-2.44-.46-3.49c-.3-1.05-.74-1.95-1.3-2.71-.56-.76-1.24-1.34-2.03-1.75s-1.66-.62-2.6-.62-1.81,.21-2.6,.62-1.47,1-2.03,1.75c-.56,.76-1,1.66-1.3,2.71-.3,1.05-.46,2.21-.46,3.49s.15,2.43,.46,3.46c.3,1.03,.74,1.92,1.3,2.67,.56,.75,1.24,1.32,2.03,1.73s1.66,.62,2.6,.62Z"/><path d="M441.9,84.36v-22.15h3.1l.32,3.19h.14c1.06-1.06,2.18-1.95,3.35-2.67,1.17-.71,2.53-1.07,4.08-1.07,2.34,0,4.05,.73,5.13,2.19,1.08,1.46,1.62,3.62,1.62,6.47v14.04h-3.74v-13.54c0-2.1-.33-3.61-1-4.54-.67-.93-1.73-1.39-3.19-1.39-1.16,0-2.17,.29-3.05,.87-.88,.58-1.88,1.43-3.01,2.55v16.05h-3.74Z"/><path d="M472.84,84.91c-1.18,0-2.18-.18-2.99-.55-.81-.37-1.46-.87-1.96-1.5-.5-.64-.86-1.41-1.07-2.32-.21-.91-.32-1.92-.32-3.01v-12.26h-3.28v-2.83l3.46-.23,.46-6.2h3.14v6.2h5.97v3.05h-5.97v12.31c0,1.37,.25,2.42,.75,3.17,.5,.75,1.39,1.12,2.67,1.12,.39,0,.82-.06,1.28-.18s.87-.26,1.23-.41l.73,2.83c-.61,.21-1.27,.4-1.98,.57-.71,.17-1.42,.25-2.12,.25Z"/><path d="M480.72,84.36v-22.15h3.1l.32,4.01h.14c.76-1.4,1.68-2.51,2.76-3.33,1.08-.82,2.26-1.23,3.53-1.23,.88,0,1.67,.15,2.37,.46l-.73,3.28c-.36-.12-.7-.21-1-.27-.3-.06-.68-.09-1.14-.09-.94,0-1.92,.38-2.94,1.14-1.02,.76-1.91,2.08-2.67,3.97v14.22h-3.74Z"/><path d="M504.42,84.91c-1.37,0-2.67-.26-3.9-.78-1.23-.52-2.32-1.27-3.26-2.26-.94-.99-1.69-2.2-2.26-3.65-.56-1.44-.84-3.08-.84-4.9s.28-3.5,.84-4.95c.56-1.44,1.31-2.67,2.26-3.67,.94-1,2.03-1.76,3.26-2.28,1.23-.52,2.53-.78,3.9-.78s2.67,.26,3.9,.78c1.23,.52,2.32,1.28,3.26,2.28,.94,1,1.69,2.23,2.26,3.67,.56,1.44,.84,3.09,.84,4.95s-.28,3.46-.84,4.9c-.56,1.44-1.32,2.66-2.26,3.65-.94,.99-2.03,1.74-3.26,2.26-1.23,.52-2.53,.78-3.9,.78Zm0-3.1c.94,0,1.81-.21,2.6-.62s1.47-.99,2.03-1.73c.56-.74,.99-1.63,1.3-2.67,.3-1.03,.46-2.19,.46-3.46s-.15-2.44-.46-3.49c-.3-1.05-.74-1.95-1.3-2.71-.56-.76-1.24-1.34-2.03-1.75s-1.66-.62-2.6-.62-1.81,.21-2.6,.62-1.47,1-2.03,1.75c-.56,.76-1,1.66-1.3,2.71-.3,1.05-.46,2.21-.46,3.49s.15,2.43,.46,3.46c.3,1.03,.74,1.92,1.3,2.67,.56,.75,1.24,1.32,2.03,1.73s1.66,.62,2.6,.62Z"/><path d="M523.67,84.91c-1.43,0-2.45-.43-3.05-1.28-.61-.85-.91-2.1-.91-3.74v-27.99h3.74v28.26c0,.61,.11,1.03,.32,1.28,.21,.24,.46,.37,.73,.37h.34c.11,0,.27-.03,.48-.09l.5,2.83c-.24,.12-.53,.21-.87,.27-.33,.06-.76,.09-1.28,.09Z"/></g></g></svg>
